<?xml version="1.0" encoding="UTF-8"?>
<svg viewBox="0 0 1000 1000" xmlns="http://www.w3.org/2000/svg">
 <g transform="matrix(2.0616 0 0 2.0616 -1413.4 -34.747)" fill-rule="evenodd" stroke="#000">
  <path d="m900.98 480.35c59.373-30.533 96.168-120.41 96.168-127.19-9.042-9.042-47.471-20.345-84.769-29.387-29.387-38.429-64.572-57.298-77.988-85.899 0.50224-10.801 0.18394-20.312 3.3908-19.214 16.248 45.191 129.93 106.01 140.15 89.901-7.8802-12.385-21.751-26.532-28.256-45.822-8.1161-24.064-24.136-53.085-35.038-74.597 4.0063-5.3248 5.3572-4.6214 12.433-4.521 4.0704 17.59 61.455 141.57 82.509 127.72-1.9222-21.144-10.658-120.24-18.441-156.96-1.7697-8.3501 14.382-1.7378 18.441-3.5379 0.6281 17.697 19.214 145.8 19.214 145.8l27.688-86.177 31.086 2.538-33.908 70.076s-14.693 55.382-6.7815 50.861 22.605-13.563 22.605-13.563l4.521 15.824c-28.785 5.1426-69.252 112.05-54.006 143.54-6.2792-4.0605-103.73-5.0882-119.02 0.59993z" fill="#591f0f" stroke-width="1.1924"/>
  <path d="m797.09 154.24c47.665-8.0034 90.361-72.016 101.72 13.563 11.013 82.95-40.689 145.8-132.24 149.19s-54.973 0.86821-55.382-55.382c-0.53361-74.612 39.424-99.57 85.899-107.37z" fill="#008500" stroke-width="1.1924"/>
  <path d="m1104.3 132.68c25.972 15.711 90.058 147.14 4.8604 133.21s-85.434 30.214-140.28-43.171-47.691-121.67 7.2886-133.56 102.89 28.252 128.13 43.521z" fill="#008500" stroke-width="1.1924"/>
  <path d="m1051.6 150.25c6.8634 23.596-96.287 127.54-167.53 68.693s-128.7-37.21-91.085-106.87 107.68-89.124 180.72-61.454 71.227 76.703 77.898 99.635z" fill="#008500" stroke-width="1.3635"/>
  <path d="m774.47 268.74c0.40737-1.5085 0.99239-2.9126 1.7864-4.194l0.49722 0.18878c-0.87636 1.3864-1.4219 2.813-1.6414 4.2792l-0.64222-0.27395z" stroke-width="1.1924"/>
  <path d="m769.59 286.4c1.3901 0.28605 1.7669 2.3627 4.0283 3.0279s8.3674-4.9715 10.154-10.73c1.8112-5.8363-0.44502-8.959-2.7727-10.332s-5.3004 0.50984-6.2269 0.60183c-0.77045-0.57868-1.1006-2.866-4.5154-3.8705s-7.1355 0.81674-8.766 5.8179c-1.6432 5.0399-0.08659 14.91 2.56 15.679 2.6857 0.7806 4.1483-0.48068 5.5384-0.19465z" fill="#f00" stroke-width="1.1924"/>
  <path d="m1070.6 224.56c-0.5986-1.4433-0.9929-2.9125-1.1467-4.4121l0.5091-0.15416c0.1527 1.633 0.5919 3.0958 1.3135 4.391l-0.6759 0.17527z" stroke-width="1.1924"/>
  <path d="m1077.5 241.52c1.2755-0.62241 2.8421 0.79189 5.039-0.06238s3.5898-9.0467 1.4882-14.698c-2.13-5.7277-5.8237-6.8226-8.5052-6.4881s-3.8858 3.6406-4.5633 4.2793c-0.9635 0.01227-2.6218-1.5973-5.9393-0.30732s-5.1515 5.0044-3.3885 9.9603c1.7767 4.9944 9.0369 11.86 11.602 10.852 2.6034-1.022 2.9913-2.914 4.2667-3.5364z" fill="#f00" stroke-width="1.1924"/>
  <path d="m938.83 177.56c-0.63135-1.4293-1.059-2.8891-1.2468-4.3848l0.50537-0.16571c0.18985 1.6291 0.6623 3.0816 1.4132 4.3599l-0.67169 0.19061z" stroke-width="1.1924"/>
  <path d="m946.13 194.35c1.2609-0.65128 2.8594 0.72698 5.0363-0.17709s3.3829-9.1261 1.1532-14.728c-2.2598-5.6777-5.9775-6.6882-8.6507-6.2928s-3.8019 3.7282-4.4647 4.3821c-0.96296 0.03421-2.6575-1.5372-5.9448-0.17202s-5.0363 5.1204-3.1609 10.035c1.8899 4.9527 9.3046 11.651 11.846 10.585 2.5795-1.081 2.9242-2.9813 4.1851-3.6326z" fill="#f00" stroke-width="1.1924"/>
  <path d="m935.35 87.527c0.71419-1.3898 1.5803-2.6403 2.625-3.727l0.44667 0.2887c-1.1472 1.1722-1.9794 2.4529-2.501 3.8407l-0.57062-0.40235z" stroke-width="1.1924"/>
  <path d="m926.88 103.77c1.2994 0.57076 1.233 2.6803 3.305 3.8042s9.2229-3.1093 12.176-8.3659c2.9931-5.3277 1.4407-8.8536-0.54792-10.683s-5.2896-0.61127-6.2149-0.71533c-0.6322-0.72718-0.47613-3.0329-3.6049-4.7301s-7.1483-0.69542-9.7899 3.8534c-2.662 4.5841-3.2066 14.561-0.77977 15.868 2.4627 1.3256 4.157 0.39855 5.4563 0.96931z" fill="#f00" stroke-width="1.1924"/>
  <path d="m862.85 145.73c0.45124-1.496 1.077-2.8824 1.9081-4.1401l0.49149 0.20322c-0.91647 1.3602-1.5034 2.7703-1.7657 4.2295l-0.63394-0.29258z" stroke-width="1.1924"/>
  <path d="m857.46 163.24c1.3811 0.32651 1.6972 2.4133 3.9382 3.1442s8.509-4.7251 10.463-10.429c1.9808-5.781-0.18325-8.9682-2.4699-10.408s-5.313 0.35486-6.2418 0.41976c-0.75322-0.60093-1.0165-2.8969-4.4005-4.0006s-7.1563 0.60806-8.9321 5.5594c-1.7896 4.9898-0.52189 14.901 2.1011 15.747 2.6618 0.85868 4.1605-0.35936 5.5417-0.03286z" fill="#f00" stroke-width="1.1924"/>
  <path d="m778.86 214c-0.75168-1.3698-1.303-2.7876-1.6185-4.2616l0.48928-0.20847c0.32895 1.6068 0.9243 3.0134 1.7821 4.2226l-0.65285 0.24755z" stroke-width="1.1924"/>
  <path d="m787.58 230.11c1.2004-0.75709 2.9112 0.47892 5.0025-0.60862s2.5872-9.3827-0.11493-14.773c-2.7387-5.4628-6.5294-6.1506-9.1588-5.5272s-3.468 4.0407-4.0722 4.7491c-0.95647 0.11672-2.7796-1.3035-5.9376 0.33877s-4.5783 5.5336-2.2881 10.269c2.308 4.7722 10.27 10.809 12.711 9.5298 2.4772-1.2984 2.6576-3.2213 3.858-3.9784z" fill="#f00" stroke-width="1.1924"/>
  <path d="m1089.5 162.72c-0.5553-1.4605-0.9055-2.9408-1.0145-4.4443l0.5134-0.1389c0.1039 1.6369 0.4993 3.1121 1.1818 4.4282l-0.6807 0.15501z" stroke-width="1.1924"/>
  <path d="m1095.9 179.88c1.2934-0.58404 2.8171 0.8764 5.0386 0.08812s3.8583-8.9355 1.9264-14.647c-1.958-5.7887-5.6174-6.9934-8.3077-6.7392s-3.9928 3.523-4.6891 4.1412c-0.9634-0.0165-2.5729-1.6749-5.9274-0.48452s-5.2987 4.8483-3.6845 9.8547c1.6268 5.0452 8.6788 12.124 11.273 11.194 2.6328-0.94383 3.077-2.8234 4.3705-3.4074z" fill="#f00" stroke-width="1.1924"/>
  <path d="m799.84 463.91c-1.0606 1.1474-2.2303 2.12-3.5281 2.8868l-0.35291-0.39788c1.4195-0.82168 2.5645-1.8324 3.4392-3.0295l0.44186 0.5406z" stroke-width="1.1924"/>
  <path d="m812.35 450.53c-1.0988-0.89823-0.4693-2.9128-2.1641-4.551s-9.7188 0.52277-13.973 4.7952c-4.3119 4.3302-3.7617 8.1432-2.3364 10.439s4.9321 2.007 5.7956 2.3554c0.4141 0.87005-0.35443 3.0495 2.2048 5.5234s6.7002 2.5864 10.465-1.0877c3.7936-3.7026 6.9931-13.169 5.0054-15.078-2.0172-1.9374-3.8979-1.4984-4.9967-2.3967z" fill="#f00" stroke-width="1.1924"/>
  <path d="m817.72 451.6c-1.2577-0.92718-2.3537-1.982-3.2594-3.187l0.35639-0.39477c0.97369 1.3199 2.105 2.346 3.3914 3.0829l-0.48839 0.49896z" stroke-width="1.1924"/>
  <path d="m832.4 462.55c0.77114-1.1914 2.843-0.7887 4.2837-2.6543s-1.5949-9.6013-6.3118-13.357c-4.7807-3.8063-8.5094-2.8376-10.634-1.167s-1.449 5.1238-1.6997 6.0206c-0.81888 0.50782-3.07-0.01484-5.2456 2.8024s-1.8292 6.9452 2.2388 10.28c4.0996 3.3606 13.861 5.4932 15.539 3.3064 1.7023-2.2191 1.058-4.0398 1.8291-5.2312z" fill="#f00" stroke-width="1.1924"/>
  <path d="m791.19 450.61c1.0986-1.1111 2.3002-2.0439 3.6231-2.7667l0.33935 0.40951c-1.4463 0.77355-2.6246 1.7453-3.539 2.9123l-0.42346-0.55513z" stroke-width="1.1924"/>
  <path d="m778.23 463.56c1.068 0.93462 0.37123 2.9269 2.01 4.6211s9.7309-0.19613 14.126-4.3233c4.4549-4.183 4.033-8.0123 2.6856-10.355s-4.8619-2.1715-5.7132-2.5486c-0.38465-0.88346 0.45662-3.0359-2.0181-5.5944s-6.6096-2.81-10.495 0.73569c-3.9158 3.5731-7.4314 12.926-5.5088 14.901 1.951 2.004 3.8454 1.6285 4.9134 2.5631z" fill="#f00" stroke-width="1.1924"/>
  <path d="m770.53944,449.63467c-.03487-1.56214.13012-3.07433.53027-4.5277l.53028.04079c-.44951,1.57735-.57026,3.09991-.36713,4.56849l-.69342-.08158z" stroke-width="1.1924"/>
  <path d="m770.84 467.95c1.4143-0.11785 2.3619 1.7681 4.719 1.7681s6.6244-7.1307 6.7138-13.159c0.0906-6.1102-2.9552-8.4693-5.5756-9.1294s-4.941 1.9849-5.804 2.3346c-0.90244-0.33774-1.8647-2.4389-5.4241-2.4389s-6.615 2.7972-6.7679 8.0552c-0.15414 5.2988 4.1245 14.328 6.8806 14.32 2.7968-0.00902 3.844-1.6318 5.2583-1.7496z" fill="#f00" stroke-width="1.1924"/>
  <path d="m810.65 432.59c-1.2577-0.92718-2.3537-1.982-3.2594-3.187l0.3564-0.39477c0.97369 1.3199 2.105 2.346 3.3914 3.0829l-0.4884 0.49896z" stroke-width="1.1924"/>
  <path d="m825.33 443.54c0.77114-1.1914 2.843-0.7887 4.2837-2.6543s-1.5949-9.6013-6.3118-13.357c-4.7807-3.8063-8.5094-2.8376-10.634-1.167s-1.449 5.1238-1.6997 6.0206c-0.81889 0.50782-3.07-0.01484-5.2456 2.8024s-1.8292 6.9452 2.2388 10.28c4.0996 3.3606 13.861 5.4932 15.539 3.3064 1.7023-2.2191 1.058-4.0398 1.8291-5.2312z" fill="#f00" stroke-width="1.1924"/>
  <path d="m760.52 416.69c-1.2577-0.92718-2.3537-1.982-3.2594-3.187l0.3564-0.39477c0.97369 1.3199 2.105 2.346 3.3914 3.0829l-0.4884 0.49896z" stroke-width="1.1924"/>
  <path d="m775.2 427.65c0.77114-1.1914 2.843-0.7887 4.2837-2.6543s-1.5949-9.6013-6.3118-13.357c-4.7807-3.8063-8.5094-2.8376-10.634-1.167s-1.449 5.1238-1.6997 6.0206c-0.81889 0.50782-3.07-0.01484-5.2456 2.8024s-1.8292 6.9452 2.2388 10.28c4.0996 3.3606 13.861 5.4932 15.539 3.3064 1.7023-2.2191 1.058-4.0398 1.8291-5.2312z" fill="#f00" stroke-width="1.1924"/>
  <path d="m789.87 414.86c-1.2577-0.92718-2.3537-1.982-3.2594-3.187l0.3564-0.39477c0.97369 1.3199 2.105 2.346 3.3914 3.0829l-0.4884 0.49896z" stroke-width="1.1924"/>
  <path d="m804.55 425.81c0.77114-1.1914 2.843-0.7887 4.2837-2.6543s-1.5949-9.6013-6.3118-13.357c-4.7807-3.8063-8.5094-2.8376-10.634-1.167s-1.449 5.1238-1.6997 6.0206c-0.81889 0.50782-3.07-0.01484-5.2456 2.8024s-1.8292 6.9452 2.2388 10.28c4.0996 3.3606 13.861 5.4932 15.539 3.3064 1.7023-2.2191 1.058-4.0398 1.8291-5.2312z" fill="#f00" stroke-width="1.1924"/>
  <path d="m790.23 449.76c-1.0606 1.1474-2.2303 2.12-3.5281 2.8868l-0.35291-0.39788c1.4195-0.82168 2.5645-1.8324 3.4392-3.0295l0.44186 0.5406z" stroke-width="1.1924"/>
  <path d="m802.74 436.38c-1.0988-0.89823-0.4693-2.9128-2.1641-4.551s-9.7188 0.52277-13.973 4.7952c-4.3119 4.3302-3.7617 8.1432-2.3364 10.439s4.9321 2.007 5.7956 2.3554c0.4141 0.87005-0.35443 3.0495 2.2048 5.5234s6.7002 2.5864 10.465-1.0877c3.7936-3.7026 6.9931-13.169 5.0054-15.078-2.0172-1.9374-3.8979-1.4984-4.9967-2.3967z" fill="#f00" stroke-width="1.1924"/>
  <path d="m765.78 444.26c-1.0606 1.1474-2.2303 2.12-3.5281 2.8868l-0.35291-0.39788c1.4195-0.82168 2.5645-1.8324 3.4392-3.0295l0.44186 0.5406z" stroke-width="1.1924"/>
  <path d="m778.29 430.88c-1.0988-0.89823-0.4693-2.9128-2.1641-4.551s-9.7188 0.52277-13.973 4.7952c-4.3119 4.3302-3.7617 8.1432-2.3364 10.439s4.9321 2.007 5.7956 2.3554c0.4141 0.87005-0.35443 3.0495 2.2048 5.5234s6.7002 2.5864 10.465-1.0877c3.7936-3.7026 6.9931-13.169 5.0054-15.078-2.0172-1.9374-3.8979-1.4984-4.9967-2.3967z" fill="#f00" stroke-width="1.1924"/>
  <path d="m811.63 424.69c-1.0606 1.1474-2.2303 2.12-3.5281 2.8868l-0.35291-0.39788c1.4195-0.82168 2.5645-1.8324 3.4392-3.0295l0.44186 0.5406z" stroke-width="1.1924"/>
  <path d="m824.14 411.32c-1.0988-0.89823-0.4693-2.9128-2.1641-4.551s-9.7188 0.52277-13.973 4.7952c-4.3119 4.3302-3.7617 8.1432-2.3364 10.439s4.9321 2.007 5.7956 2.3554c0.4141 0.87005-0.35443 3.0495 2.2048 5.5234s6.7002 2.5864 10.465-1.0877c3.7936-3.7026 6.9931-13.169 5.0054-15.078-2.0172-1.9374-3.8979-1.4984-4.9967-2.3967z" fill="#f00" stroke-width="1.1924"/>
  <path d="m788.15 417.71c1.0986-1.1111 2.3002-2.0439 3.6231-2.7667l0.33935 0.40951c-1.4463 0.77355-2.6246 1.7453-3.539 2.9123l-0.42346-0.55513z" stroke-width="1.1924"/>
  <path d="m775.2 430.66c1.068 0.93462 0.37123 2.9269 2.01 4.6211s9.7309-0.19613 14.126-4.3233c4.4549-4.183 4.033-8.0123 2.6856-10.355s-4.8619-2.1715-5.7132-2.5486c-0.38465-0.88346 0.45662-3.0359-2.0181-5.5944s-6.6096-2.81-10.495 0.73569c-3.9158 3.5731-7.4314 12.926-5.5088 14.901 1.951 2.004 3.8454 1.6285 4.9134 2.5631z" fill="#f00" stroke-width="1.1924"/>
  <path d="m838.89 416.49c1.0986-1.1111 2.3002-2.0439 3.6231-2.7667l0.33935 0.40951c-1.4463 0.77355-2.6246 1.7453-3.539 2.9123l-0.42346-0.55513z" stroke-width="1.1924"/>
  <path d="m825.94 429.44c1.068 0.93462 0.37123 2.9269 2.01 4.6211s9.7309-0.19613 14.126-4.3233c4.4549-4.183 4.033-8.0123 2.6856-10.355s-4.8619-2.1715-5.7132-2.5486c-0.38465-0.88346 0.45662-3.0359-2.0181-5.5944s-6.6096-2.81-10.495 0.73569c-3.9158 3.5731-7.4314 12.926-5.5088 14.901 1.951 2.004 3.8454 1.6285 4.9134 2.5631z" fill="#f00" stroke-width="1.1924"/>
  <path d="m804.67 399.7c0.63618-1.4272 1.4317-2.7237 2.4147-3.8666l0.46196 0.26354c-1.0806 1.2339-1.8406 2.5587-2.2846 3.9732l-0.59201-0.37014z" stroke-width="1.1924"/>
  <path d="m797.11 416.39c1.329 0.49798 1.3795 2.608 3.5105 3.6155s9.0367-3.615 11.694-9.0269c2.6936-5.4852 0.94851-8.9198-1.1384-10.637s-5.3153-0.31758-6.245-0.37026c-0.67148-0.69107-0.64326-3.0019-3.8612-4.5234s-7.1758-0.29873-9.5616 4.3894c-2.4042 4.7244-2.3958 14.717 0.09963 15.886 2.5323 1.1873 4.1727 0.16787 5.5016 0.66584z" fill="#f00" stroke-width="1.1924"/>
  <path d="m773.22555,398.93331c-.03488-1.56214.13011-3.07433.53026-4.52771l.53028.04079c-.4495,1.57736-.57026,3.09992-.36712,4.5685l-.69342-.08158z" stroke-width="1.1924"/>
  <path d="m773.53 417.25c1.4143-0.11786 2.3619 1.7681 4.719 1.7681s6.6244-7.1307 6.7138-13.159c0.0906-6.1102-2.9552-8.4693-5.5756-9.1294s-4.941 1.9849-5.804 2.3346c-0.90243-0.33775-1.8647-2.4389-5.4241-2.4389s-6.615 2.7972-6.7679 8.0552c-0.15414 5.2988 4.1245 14.328 6.8806 14.32 2.7968-0.00903 3.844-1.6318 5.2583-1.7496z" fill="#f00" stroke-width="1.1924"/>
  <path d="m834.97147,433.78002c-.03488-1.56213.13011-3.07432.53026-4.5277l.53028.04079c-.4495,1.57735-.57026,3.09991-.36712,4.5685l-.69342-.08159z" stroke-width="1.1924"/>
  <path d="m835.27 452.09c1.4143-0.11786 2.3619 1.7681 4.719 1.7681s6.6244-7.1307 6.7138-13.159c0.0906-6.1102-2.9552-8.4693-5.5756-9.1294s-4.941 1.9849-5.804 2.3346c-0.90243-0.33774-1.8647-2.4389-5.4241-2.4389s-6.615 2.7972-6.7679 8.0552c-0.15414 5.2988 4.1245 14.328 6.8806 14.32 2.7968-0.00903 3.844-1.6318 5.2583-1.7496z" fill="#f00" stroke-width="1.1924"/>
  <path d="m747.73 417.33c39.115 1.9571 69.531 2.0322 103.23 0-0.00549 5.1329-0.67615 10.026-2.0449 14.669-33.547-2.3641-66.722-1.5186-99.819 0-1.293-4.8897-1.8858-9.7793-1.3632-14.669z" fill="#00ba00" stroke-width="1.0146"/>
  <path d="m755.56 462.73c33.169 1.6596 58.96 1.7233 87.533 0-0.00466 4.3525-0.57337 8.5021-1.734 12.439-28.447-2.0047-56.578-1.2878-84.643 0-1.0964-4.1463-1.5991-8.2926-1.156-12.439z" fill="#00ba00" stroke-width=".86032"/>
  <path d="m791.91 474.95c1.8478-22.043 1.9187-39.184 0-58.174 4.6698-0.28935 9.8791-0.47016 14.37 0.09603-2.232 18.905-1.9546 39.33-0.5208 57.981-4.6164 0.72865-9.2328 0.3905-13.849 0.09603z" fill="#00ba00" stroke-width=".74004"/>
  <path d="m767.41 475.05c1.8478-22.043-4.0456-39.368-5.9642-58.357 4.6698-0.28935 9.8791-0.47016 14.37 0.09603-2.232 18.905 0.26071 39.514 1.6945 58.165-4.6164 0.72865-5.4839 0.3905-10.1 0.09604z" fill="#00ba00" stroke-width=".74004"/>
  <path d="m830.94 475.05c-1.8478-22.043 4.0456-39.368 5.9642-58.357-4.6698-0.28935-9.8791-0.47016-14.37 0.09603 2.232 18.905-0.26072 39.514-1.6945 58.165 4.6164 0.72865 5.4839 0.3905 10.1 0.09604z" fill="#00ba00" stroke-width=".74004"/>
  <path d="m750.14 432.99c37.286 1.8656 66.279 1.9372 98.398 0-0.00523 4.8928-0.64453 9.5574-1.9492 13.983-31.978-2.2535-63.601-1.4476-95.15 0-1.2325-4.6609-1.7976-9.3219-1.2995-13.983z" fill="#00ba00" stroke-width=".9671"/>
  <path d="m752.55 448.23c35.456 1.774 63.026 1.8421 93.569 0-0.00498 4.6526-0.6129 9.0884-1.8536 13.297-30.408-2.1429-60.48-1.3766-90.48 0-1.172-4.4322-1.7093-8.8644-1.2357-13.297z" fill="#00ba00" stroke-width=".91964"/>
  <path d="m779.36 474.8c1.8478-22.043-0.80784-39-2.7265-57.99 4.6698-0.28936 9.8791-0.47016 14.37 0.09603-2.232 18.905-1.9546 39.33-0.52081 57.981-4.6164 0.72865-6.5063 0.20662-11.123-0.08784z" fill="#00ba00" stroke-width=".74004"/>
  <path d="m757.15 475.28c1.8478-22.043-6.6017-39.552-8.5203-58.541 4.6698-0.28936 7.6638-0.65403 12.155-0.08784-2.232 18.905 4.1801 39.514 5.6138 58.165-4.6164 0.72865-4.6318 0.75824-9.2483 0.46378z" fill="#00ba00" stroke-width=".74004"/>
  <path d="m818.74 474.8c-1.8478-22.043 0.80785-39 2.7265-57.99-4.6698-0.28936-9.8791-0.47016-14.37 0.09603 2.232 18.905 1.9546 39.33 0.52081 57.981 4.6164 0.72865 6.5063 0.20662 11.123-0.08784z" fill="#00ba00" stroke-width=".74004"/>
  <path d="m841.37 475.28c-1.8478-22.043 6.6017-39.552 8.5203-58.541-4.6698-0.28936-7.6638-0.65403-12.155-0.08784 2.232 18.905-4.1801 39.514-5.6138 58.165 4.6164 0.72865 4.6318 0.75824 9.2482 0.46378z" fill="#00ba00" stroke-width=".74004"/>
 </g>
</svg>
