<?xml version="1.0" encoding="UTF-8"?>
<svg enable-background="new 0 0 1000 620" version="1.1" viewBox="0 0 1000 620" xml:space="preserve" xmlns="http://www.w3.org/2000/svg">
<style type="text/css">
	.st0{fill:#81BDEF;}
	.st1{fill:#003C77;}
	.st2{fill:#EACB8C;}
	.st3{fill:#EFD39C;}
	.st4{fill:#FCE4AE;}
	.st5{fill:#D33222;}
	.st6{fill:#FF4622;}
	.st7{fill:#F93D23;}
	.st8{fill:#F2351C;}
	.st9{fill:#F74D3C;}
	.st10{fill:#EA3F28;}
	.st11{fill:#353535;}
	.st12{fill:#A09795;}
	.st13{fill:#D82A12;}
	.st14{fill:#FFFFFF;}
	.st15{fill:#BC794E;}
	.st16{fill:#1B6CE2;}
	.st17{fill:#172236;}
	.st18{fill:#1B2033;}
	.st19{fill:#494949;}
	.st20{fill:#F9804B;}
	.st21{fill:#E8E7E6;}
	.st22{fill:#3F3F3F;}
	.st23{fill:none;}
	.st24{fill:#DDDDDD;}
	.st25{fill:#D3D3D3;}
	.st26{fill:#EDECEB;}
	.st27{fill:#E2E2E2;}
	.st28{fill:#DD9937;}
	.st29{fill:#474747;}
</style>
<rect class="st0" y="-12" width="1e3" height="486"/>
	<path class="st1" d="m214.9 484.7c130.2 3.2 658.7 14.3 712.1-13.7 30.4-15.9 50.4-39.1 73-51.8v-73.5c-122.5-3.8-472.2-14.7-492-14.7-20.3 0-391.5 2.1-507 2.8v105.7c51.6-1 139.5 21.6 213.9 45.2z"/>
	<path class="st2" d="m214.9 484.7c59.8 19 110.8 38.7 127.1 47.3 22.9 12 155 25.1 256.7 33.7 81.3-35.6 169.2-69.8 210.3-71.7 64.8-3 146.8 6.2 191 15.3v-90.1c-22.6 12.8-42.6 35.9-73 51.8-53.4 28-581.9 16.9-712.1 13.7z"/>
	<path class="st3" d="M342,532c-16.3-8.6-67.3-28.3-127.1-47.3C140.5,461.1,52.6,438.5,1,439.5V620h479.4   c31.8-15.2,74.1-35,118.3-54.3C497,557.1,364.9,544,342,532z"/>
	<path class="st4" d="m809 494c-41.1 1.9-129 36.1-210.3 71.7-44.2 19.4-86.5 39.1-118.3 54.3h519.6v-110.7c-44.2-9.1-126.2-18.3-191-15.3z"/>
<path class="st5" d="m723 509.3s16.7 7.8 18.3 9.3 8.8 12.7 3.1 12.9-21.4-21.7-21.4-21.7v-0.5z"/>
<path class="st6" d="m833.2 552.8s-0.5 18.7-0.4 20.7-12.2 10.7-13.5 10.5c-1.4-0.1 1.5 1.6 3.5 1.1s15.5-9.7 16.2-11.3c0.6-1.6 4.3-18.6 2.8-20.8-1.6-2.2-8.5-2.5-8.6-0.2z"/>
<path class="st7" d="m848.1 547.4s13.2 20.2 14.7 20.1-4 18.1-6.3 18.6 17.7-11.4 12.4-23.8-12.2-20.2-15.4-19.3c-3.3 0.8-5.4 4.4-5.4 4.4z"/>
<path class="st6" d="m845.8 550.8s8.3 9.9 7.9 12.2-7.9 14.4-9.7 15.7 11.7-3.5 13-10.9c1.4-7.4 3.3-13.9-0.9-15.2-4.1-1.3-8-8.1-9.2-6.5-1 1.6-1.1 4.7-1.1 4.7z"/>
<path class="st8" d="m822.2 552s3.1 9.5 4.3 10.4c1.1 0.9-5 12-8.5 13s14-8.5 13.4-13.2c-0.6-4.6 1.8-6.6-0.3-7.9-2-1.1-7-4.5-8.9-2.3z"/>
<path class="st9" d="m795.9 551.2h-48.3c-3.3 0-14.8-6.1-14.8-9.4v-7c0-3.3 11.5-2.6 14.8-2.6h48.3c3.3 0 20.4 2.3 20.4 5.6v7c0.1 3.3-17.1 6.4-20.4 6.4z"/>
<path class="st8" d="m722.7 529.1s-7.1-3.8-4.8 5.1c2.4 8.9 11 33.7 13 34.1s10 6.4 12.4 7 11 0.5 7.1-0.8-15.9-5.5-15.5-6.6 2-1.5 0.9-4.4-15.7-33.1-13.1-34.4z"/>
<path class="st7" d="m760.8 531.9s-43.9-9.9-52.3-8.1-21.7 27.5-17.9 34.1 13.3 20.2 18.8 23.1 11.3 4.9 12 3.6c0.8-1.3-3.3-1.8-7.4-4.3s-17.2-22.3-16.5-23.4c0.6-1.1 9.3-24.9 11.7-24.6 2.4 0.4 45.6 11.3 48 10.2 2.4-1.2 9.9-8.4 3.6-10.6z"/>
<path class="st6" d="m761.7 534.4s-20.7 5-30.1 2.6-20.7-11.3-26.7-8.4-10.5 17.6-9 23.4c1.5 5.9 9.9 26.8 14 28.8s11.7 4.6 11.5 3.6c-0.1-1-10-5.8-10-6.8s-6.6-20.3-5.6-20.8 1.3-21.6 4.5-19.6c3.3 2 20.8 9.5 24.3 9.3 3.5-0.3 30.2 3.1 31.3 1.6 1.2-1.3 2.7-15.1-4.2-13.7z"/>
<path class="st10" d="m740.6 541.4s-27.6-11-31.5-9.2c-3.9 1.9-10.5 13-10.2 18.7 0.4 5.6-4.9 17.3-0.1 20.2s6.1 11 9 12.3 8.3 2.1 4.4-0.9-9.4-9.8-9.2-11.9c0.3-2.1 4.6-11.9 5.4-15.9s0.3-13.5 1.4-13 24.8 7.1 28.6 5.4 12.3-4.5 2.2-5.7z"/>
<path class="st5" d="m821.1 525s25.7-8.1 27.2-6.8c1.5 1.4 12.5 1.5 10.8 11.8-1.8 10.3-0.6 13.5-6.1 15.8-5.6 2.2-31.9-20.8-31.9-20.8z"/>
<path class="st6" d="m756.8 507.9s-6-10.2-4.6-11.4c1.4-1.3 4.6-0.5 6 4.5s0.4 8.3-1.4 6.9z"/>
<path class="st9" d="m784.9 505.8s-0.5 6.6 1 4.1 10.3-9.8 7.4-11.2-5.9 0.6-6.8 3.8-1.6 3.3-1.6 3.3z"/>
<circle class="st11" cx="753.9" cy="497.2" r="2.7"/>
<circle class="st11" cx="792" cy="499.2" r="2.7"/>
<circle class="st12" cx="752.4" cy="496.4" r=".3"/>
<circle class="st12" cx="791" cy="497.9" r=".3"/>
	<path class="st6" d="m750.3 501.9c-10.3 1.5-14.1 6.9-14.1 11.5 0 4.7 9.7 17.7 9.7 17.7 4.3 3.2 14.9 4.6 23.7 5.2l1.8-34.3c-7.8-0.3-17.2-0.6-21.1-0.1z"/>
	<path class="st9" d="m808 518.2c3.1-9.9-10.4-13.2-11.3-14-0.6-0.5-12.4-1.6-25.2-2.2l-1.8 34.3c7.2 0.5 13.2 0.5 13.2 0.5s22-8.7 25.1-18.6z"/>
<path class="st13" d="m846.2 538.3s4.9-1.5-1-5.8-26.2-10.8-28.8-9.8-30 2-38.5 5.9-17.7 10.7-16.2 12.2 16.2-3.9 17.9-3.8c1.8 0.1 27.7-4.3 26.3 1.4-1.4 5.6-6.1 10.2-8.9 10.4s-6.8-1.6-7.6-0.5c-0.9 1.1-4.3-1.3-5.4-0.8s-2.6-1.1-3.6-0.1-5-2-6.5-0.8c-1.5 1.3-3.8-1.4-4.8-0.3s-5.9-1.5-4.3 0.8 14.8 11.4 26 9.9 23.8-3.9 27.1-2.9 21.3 3.4 27.6-1.5 9.9-6.1 8.5-7.9-9.2-5.7-7.8-6.4z"/>
<path class="st13" d="m725 508.7s-11.9-2-11.8 7.5 15 22.9 18.3 25.2 30.3 12.2 29.8 10.5c-0.5-1.6-7-5.6-8.3-5.3-1.3 0.4-0.5-3-1.9-3s-0.6-2.6-2.5-3.1-2.3-3.6-3.9-3-1.1-1.9-1.1-1.9 0.9-0.8 4.3 2.9c3.4 3.6 15.4 12.7 15.4 10.7s-10.2-15.3-15.9-18.4c-5.8-3.1-10.4-10-13.8-12s-3-9.5-8.6-10.1z"/>
<polygon class="st14" points="101.8 217.7 275 213.8 290.2 432.9 354.5 454.8 334.9 506.9 148.7 539.4 88.8 371.4"/>
<polygon class="st15" points="158.6 494.2 342 466 365.2 466 368.9 561.9 158.6 604"/>
	<path class="st16" d="m82.2 507.9c-0.1-2.6-0.5-5.3-0.2-7.9 5.7-46.8-14.4-86-36.9-124.4-12.5-21.4-14.3-43.7-9-67.3 2-8.9 6.5-16.3 12-23.3 15-19.1 31-37.5 44.6-57.5 6.8-10 13.3-12.6 25-12.7 50.1-0.6 100.1-2.5 150.2-4.2 8-0.3 12.2 1.4 11.9 10.6-0.3 9 0.9 18.1 5.8 26.6-5.5-6.8-11.1-13.6-16.6-20.4-1.7-2-3.2-4.2-5-6.1-3.2-3.5-8-3.1-10.9-1.1-4.3 2.9 0.6 5.6 2.2 7.8 7.7 10.6 14.9 21.6 24.4 30.7 4.4 4.2 3.8 6.7-4.2 9.4 9.1 0.9 14.3-1.9 19.8-3.3 2-0.5 3.9-1.9 4.5 0.9 0.6 2.5-2 1.7-3.4 2.1-13 3.3-14.6 5-13.4 18.8 2.1 23.7 4.8 47.3 7.2 70.9 0.3 3.1 1.4 5.1 4.1 7.2 8.1 6.4 16.9 12.5 22 21.8 5.2 9.4 13.5 11.2 23 11.8 15.6 1 18.3 5.1 13.6 19.8-1 3.2-1.3 6.5-0.8 9.7 2.5 15.6 3.1 31.3 2.9 47-0.1 4.1 0.3 7.9 3.5 10.8m-234.4-206.4c-3.7-5.5-7.4-11.1-11.5-17.3-2.1 19.7-0.3 22.2 11.8 17-1.3 5.6-7.2 8.2-9.1 13.3-1.5 4.1-4.8 9.4-0.6 12.4 4.3 3.1 5.3 7.7 8.4 11.6-0.4-8.9 7.3-17.4 2.5-26.8 5.2 0.2 8.7-4.5 11.2-10.5-4.7-3-8.6 0.7-12.7 0.3zm45.1 191.1c-1.5 6.5 3 11.8 4 17.8 0.7 4.3 5.4 1.5 8.4 1.4 4.5-0.2 6.1-2.8 5.8-7.2s-0.6-8.8-5.9-9.9c-4.1-0.9-8.4-1.2-12.6-1.8 6.6-5.3 13.4-0.1 20.1-0.2 6.9-0.1 11.4 2.3 10.9 10.2-0.3 4.7 1.8 6.5 6.6 5.5 4.6-1 9.1-1.3 8.7-8-0.3-5.5-1.4-9.4-7.9-10.1-10.7-1.2-21.3-2.9-32-4.4-4.3-0.6-7.6-2.1-6.8-7.4 2.6 2.2 4.2 5.1 8.7 5.5 13.4 1.1 26.6 3.5 40 4.6 6.7 0.6 10.5 2.7 10.2 9.9-0.1 3.8 0.9 6.8 5.5 5.7 4.1-0.9 9.7 0.3 9.4-7.1-0.2-6-1.8-10.1-8.5-10.8-10.2-1.1-20.4-2.5-30.6-3.8 0.1-0.9 0.2-1.7 0.3-2.6 13.3 1.7 26.7 3.6 40.1 4.8 6.2 0.6 9.9 2.8 10.1 9.4 0.1 4.2 1.5 7.2 6.5 6.1 3.6-0.8 8.3-0.3 8.3-6.2-0.1-5.2-0.6-10.2-7-11.1-13-1.8-25.9-3.9-39-4.7-7.9-0.5-12.2-4.1-15.7-10.7-16.4-30.2-32.4-60.7-50.2-90.1-6.5-10.7-9.7-21.2-8.9-32.8 0.9-13.1 1.4-27.3 10.2-37.8 6.6-7.9 11-13.5 0.3-20.7-1-0.7-1.7-2-2.4-3.1-7.6-10.6-16-20.8-22.3-32.3-3.5-6.5-10.1-5.3-13.6-3.2-5.1 3.1 1 6.3 2.8 8.9 8.4 11.6 17.7 22.7 25.2 35 2.8 4.6 3.3 7.7 0.3 13.5-2.4 4.5-7.4 6.3-8.5 11.1-5 21.4-10.6 41.7 3.3 63.5 19.3 30.3 35.1 62.8 52.4 94.4 1.1 2 2.1 4.1 1.6 6.5-7.1 2.4-11.4-0.2-14.8-6.8-3.7-7.1-6.5-14.8-13.2-21.9-0.2 6.8-1 12.1-2.6 17.3-1.1 3.7-0.9 7.2 2.4 9.9-3.1 4.5-4.3 9.2 0.4 13.7zm25.2-186.9c-1.5 1.7-3.9 3.2-4.4 5.1-5.5 22-13.2 42.8 3.2 65.4 21.8 30.1 37.7 64.2 55.8 96.8-7.8 2.1-12.4-0.7-16.4-8-16.2-29.6-31.9-59.5-50.2-87.8-7.1-10.9-9.7-21.6-10.6-33.4-0.8-9.3 4-17.8 5.1-26.9 0.3-2.7 3.1-6.9-2.7-7.5-4-0.4-7.8-0.6-9.3 4.7-6.3 21.8-10.8 42.1 3.7 64.1 19.2 29.1 34.7 60.8 51.5 91.5 2.7 4.9 5.7 6.8 11.3 7.2 12.7 0.8 25.3 3.1 38 4.1 6.2 0.5 9.8 2.7 10.4 9.2 0.3 3.5 1.4 6.8 6 5.7 3.5-0.8 8.9 0.6 8.7-5.5-0.2-5.4-1.3-10.3-8.1-11.6-12.5-2.3-25.6-1.2-37.7-6 15.8 0 31.2 3.1 46.9 4.5 5.3 0.5 9.1 2.4 9.4 7.9 0.6 8.6 6.5 7.1 11.2 5.7 6-1.8 4-7.9 2.1-10.6-3.6-5.2-2.7-10.4-2.9-15.8-0.2-5.2-0.1-10.5-0.2-15.7-0.1-3.4-0.2-6.6-5.3-6.2-4.1 0.3-5.8 2-5.7 6.1 0.2 5.9 0.3 11.8 0 17.7-0.1 2.8 2 6.9-3.8 7.2-5.4 0.2-5.6-2.7-5.4-6.8 0.2-2.4 1-6-2.2-6.7-3.7-0.8-5.6 2.6-7.5 5.3-1.2 1.8 1.4 4.6-1.6 6.1-5.4 2.6-22.6-3.4-25.8-9-16.6-29-32-58.7-50.5-86.5-7.2-10.9-10.3-21.2-11.2-33.2-0.6-8.3 1.9-16.3 4.4-24 2.3-7.1 1.5-11.9-6.6-13.4 1.9 0.3 3.8 0.9 5.7 0.8 9.7-0.2 13.5-8.8 18.2-14.7 3.2-4-5.5-4.7-7.6-8.2-2-3.3-4.9-6.2-6.8-9.5-4.8-8.5-11.6-15.8-15.3-25-2.6-6.5-8.6-5-12.6-3.6-4.1 1.4-1.2 6 0.3 8.4 6.6 10.5 12 22.7 21.2 30.3 9 7.5 7.5 11 0.5 17.1-1.3 1.2-2.1 3.1-3.2 4.7zm37.9-63c-6.7 0-7.7 1.4-3.9 7.4 5.6 8.8 11.7 17.3 17.8 25.8 4.5 6.2 14.8 10.1 7.3 20.7-0.9 1.3-0.1 3.8 0 5.8 3.3 53 10.8 105.6 16.6 158.3 0.3 3-0.6 8.7 4.5 8.3 4.8-0.4 6.3-4.6 5.7-9.6-1.5-12-2.5-24.1-3.8-36.1-4.7-42.3-9.5-84.6-14.4-126.9-0.5-4.1 0.4-6.1 4.9-6.3 5.2-0.2 5.7-3.1 2.2-6.2-12.5-10.6-20.3-24.7-29.4-37.8-2.1-3-4.4-3.6-7.5-3.4zm27 212.2c0-5.5 0.2-8.1 0-10.7-5.1-47.2-10.9-94.3-15.1-141.5-1-10.9-3.4-18.9-11.1-26.9-7.4-7.7-12.7-17.5-17.9-26.9-3.4-6.1-8.5-7.2-13-4.8-5 2.7-0.3 7.3 1.5 9.8 8.2 10.8 12.6 24.4 24.7 32.6 3.9 2.6 5.8 7.9 6.2 13.6 2.8 42.5 8.3 84.7 12.7 127 1 10.1 5.4 17.6 12 27.8zm-94.7-11.9c0.3-4.1-2.4-6.4-3.7-9.3-12.7-28.8-34.9-53.2-40.3-85.4-4.5 2.5-5.6 6.3-5.4 11.4 0.6 11.6 2.3 22.5 8.4 32.8 8 13.5 15.5 27.3 22.1 41.5 4.2 8.9 10.6 10.1 18.9 9zm59.9-146c-5.5 2.2-8.1 5.3-7.6 9.5 3.8 34.9 1.7 71 16.3 103.9 1.1-0.2 2.3-0.4 3.4-0.5-4-37.4-8-74.9-12.1-112.9zm-54.6 10.8c2 0.1 3.6 0.5 5.1 0.4 8.7-0.7 12.9-7.8 16.4-14.1 3.3-6-4.8-6.3-7.5-9.4-1.3-1.5-2.5-3.1-3.5-4.7-6.3-9.9-13-19.6-18.8-29.8-3.3-5.8-7.9-5.1-12.6-4.4-4 0.6-3 4.1-1.6 6.2 8.3 12.1 14.5 25.9 25.7 35.6 5.5 4.8 5.7 7.8 1.2 12.6-1.7 1.8-3.9 3.5-4.4 7.6zm105.6-8.5c-3.7 2.4-2.5 4.9-2.4 7 1.2 15.3 2.3 30.7 4 46 2.9 26.7 6.1 53.4 9.3 80.1 0.3 2.2-0.5 6.2 3.7 5.4 3.6-0.7 2.3-3.8 2-6.4-2.3-20.8-4.1-41.8-6.8-62.5-2.9-23-3-46.4-9.8-69.6zm-69.1 230c20.4 10.5 41.1 15.9 59.7 25.9 1.4 0.8 3.8-0.1 5.7-0.4 2.3-0.4 6 1.1 6.5-2.5 0.4-3.1-3-3.9-5.4-4.8-17.4-6.6-34.9-13.1-52.3-19.6-4.2-1.5-8.3-0.7-14.2 1.4zm-20.7 5.3c18.5 9.3 36.9 17.3 55.8 24.3 2.6 1 6 1.4 6.8-1.5 0.9-3-2.8-3.7-5-4.7-15.8-7.2-31.8-13.7-48.4-18.6-2.7-0.8-5.6-2.1-9.2 0.5zm91-25.7c20.7 4.2 41.3 9.4 62.5 7-20.6-5.5-41.2-9.7-62.5-7zm-66.6-184.8c-9.2 16.5-6.3 38.7 4.8 49.7-1.6-16.7-3.2-33.2-4.8-49.7zm93.4 81.9c0 9.3-0.1 16.8 0 24.2 0.1 3.2 1 5.9 5.2 5.4 3.6-0.4 6-1.5 6.3-5.9 0.8-9.2-2-16.6-11.5-23.7zm26.7 80.2c0-13.3 0.1-26.6-0.1-39.9 0-2.1 0.1-5.3-3-5.2-3 0.1-2.7 3.3-2.7 5.5 0.1 13.3-1.5 26.8 5.8 39.6zm-40-31c2.3-3.4 10.7 0.7 8.4-7.9-1.2-4.6-6.3-2.8-8.4-5.8-3.9 4.4-0.8 8.8 0 13.7zm-172.1 65.6c-7-3.5-15.2 5.7-20.6-3.8-1.7 1.8-2.7 5.5 0.7 6.4 6.5 1.7 13.5 2.4 19.9-2.6z"/>
<path class="st17" d="m122.6 482.6l-15.8-260.6 158.4-4.5 15.2 177.6 13-1.7-14.1-175.9s1.7-6.2-2.3-8.5c-3.9-2.3-168 3.9-168 3.9s-6.8-3.9-11.8 2.3c-5.1 6.2-54.1 71-54.1 71s-10.7 11.3-12.4 37.2 12.4 51.6 12.4 51.6l55.3 100.2 24.2 7.4z"/>
<path class="st14" d="m171 281.8s-5.2 6.4-6.2 10 11.6 5.5 11.6 5.5 7.2-13.9 9.8-17.5c2.8-3.7-15.2 2-15.2 2z"/>
<path class="st14" d="m213.1 276s-10.1 11.1-13.1 23c-3.1 11.9-10-10.6-10-10.6s12.3-18.5 14.7-18.6c2.3-0.1 8.4 6.2 8.4 6.2z"/>
<path class="st14" d="m135.7 281.1s-17.5 28-13.8 51.2-6.7 6.5-6.7 6.5-7-34.1-1.1-43.5c5.9-9.5 16.3-26.1 16.3-26.1l8.2-0.8-2.9 12.7z"/>
	<polygon class="st16" points="108.5 281.8 122.6 275.1 299.7 263.8 265.3 217.5 106.8 222"/>
	<polygon class="st14" points="109.7 257 122.6 275.1 108.5 281.8 106.8 254.8"/>
	<polygon class="st14" points="114.7 222 148.5 273.5 166.1 272.4 131.1 222"/>
	<polygon class="st14" points="149.4 220 182 271.3 197.7 270 165.8 220"/>
	<polygon class="st14" points="181.6 219 213.6 268.9 231.2 267.8 197.9 219"/>
	<polygon class="st14" points="216.3 218 247.5 267.1 265.1 265.9 232.7 218"/>
	<polygon class="st14" points="250.2 218 282.2 264.5 299.8 263.3 266.5 218"/>
<polygon class="st14" points="158.9 407.1 178.5 443.7 164.6 449.9 147 414.1"/>
	<path class="st15" d="m74.4 378.3v178.9l96.4 33.1v-166.9s-30.1-8-38.5-5.7-15.2-31-25.4-36.1-20.5-10.1-32.5-3.3z"/>
	<polygon class="st18" points="159.5 440.3 74.4 417.7 73.5 574.5 158.6 603.9"/>
<polygon class="st14" points="193.7 469 227.5 520.3 245.1 519.3 210.1 469"/>
<path class="st17" d="m280.6 392.3l3.2 56.9s31.1 5.5 34.1 7.3c3 1.7 14.5 9.3 14.1 10.9-0.4 1.5 7.2-1.1 7.2-1.1v-63.6l-37.3-38-14.8-6.1-6.5 33.7z"/>
<path class="st15" d="m160.1 493.5l179.1-27.3v-63.4s-7-1.1-17.4-8.2c-10.4-7.2-9.9-16.3-16.7-18.9s-14.2-14.6-14.2-14.6l-1.2-14.8s13 12.2 18.2 15.5 14.1 10.2 15.2 13.2 3.7 12.4 12.4 13.2c8.7 0.7 23.4-6.4 28.2 4.2s5.2 169.5 5.2 169.5l-206.2 40.2-2.6-108.6z"/>
	<polygon class="st19" points="169 500.3 232.9 491.4 234.1 581.2 170.7 597.1"/>
	<polygon class="st19" points="258.6 487.3 259.9 575.6 331 558.4 331 479"/>
<polygon class="st16" points="171.2 510.8 231.7 504.7 312.9 533.2 242.8 543.5"/>
<polygon class="st16" points="259.3 487.7 363.9 502.9 411 495.1 320.2 481.6"/>
		<path class="st15" d="m243 540.6v2.8l-71.8-32.7-0.5 11.2 44.8 19.2 14.4 41-8.2 26.2 69-12.8 22.2-62.4-69.9 7.5zm-16.6 5.2l13.2 5.6-4.9 15.7-8.3-21.3z"/>
		<path class="st15" d="m413 487.3l-65.1 7.5-1.3 4.9-82.2-12.3-5.5 0.2v7.1l59 9.1 14.7 51.6-2.5 10.2 5.1-1 8.4 29.6 43.4-10-7.5-28.3 16.1-3.1 17.4-65.5zm-89.3 17.4l20.8 3.2-9.1 36.8-11.7-40zm55.4 73.7l-31.9 6.7-6.3-21.6 33.4-6.5 4.8 21.4z"/>
<path class="st19" d="m282.7 562.9l-13.8 1.1c-1.7 0.1-3.3-1.2-3.4-2.9s1.2-3.3 2.9-3.4l13.8-1.1c1.7-0.1 3.3 1.2 3.4 2.9 0.2 1.7-1.1 3.3-2.9 3.4z"/>
<path class="st19" d="m384.5 513.4l-13.8 1.1c-1.7 0.1-3.3-1.2-3.4-2.9s1.2-3.3 2.9-3.4l13.8-1.1c1.7-0.1 3.3 1.2 3.4 2.9 0.2 1.7-1.1 3.3-2.9 3.4z"/>
	<path class="st20" d="m411.7 153.1s-5.9 2.1-6.4 4.2c-0.6 2.1-1.9 19.2-4.7 20.5s-8.4 7.2-9.3 9.3c-1 2.1 1.9-0.4 1.9 1.1s1.2 8.7 1.7 7.8c0.6-1 9.1-16.3 9.1-17.1s2.9-18.4 4.2-19.2c1.3-0.7 8.9-6.7 8.9-6.7s-3.2-2.2-5.4 0.1z"/>
	<path class="st20" d="m396.6 150.3s-9.3 3.9-9.5 6.6-2.8 17.5-5.1 18.4-8.9 12.3-9.3 15.9 1.5 0 1.5 0 2.8 2.1 2.8 3.4 2.7-5.5 3.6-4.6c1 1 0.4-7.2 1.1-9.7 0.7-2.4 8.7-16.7 8.5-18.4s0-5.7 0-5.7l6.4-5.9z"/>
	<path class="st21" d="m455.8 119.1c-3.6-3-21.2-10.4-24.1-10.2 0 0-6.1-3.8-9.5-2.3-2.2 1-11.3 10.9-18.1 18.2-5.7 1.7-21 3.9-27.5-1.7-6.5-5.5-10.3-8.9-13.4-5.6-0.2 0.3-0.3 0.6-0.3 1-5.9-3.4-3.7 2.6-2.8 4.8 0.6 1.3 6.4 5.2 11.6 8.1-3.3-0.1-5.7 0.7-3.5 0.6 3-0.2 16.6 7.3 22.8 10.9 2 3.5-1 5.7 1.4 7.7 3 2.4 12.5 1 13.8 2.4 1.3 1.5 11.4 2.1 11.4 2.1s29.2-3.6 33-11c3.9-7.4 8.9-21.9 5.2-25z"/>
		<path class="st21" d="m308.5 66.6c6.8 0.3 53.5-2.3 55.2 1.7s13.9 41.3 22.5 40.7c6.2-0.4 4 12.7 2.7 20.5 2.7-0.1 18.9-1.8 40-20.5 0 0-13.1-16.2-13.1-22.8 0-6.5 10.2-25 8.3-28.2-2-3.1-25.6-10.5-59.5-5.1-14.5 2.3-33.4 4.5-50.5 6.9-4.9 3.7-7.9 6.6-5.6 6.8z"/>
		<path class="st22" d="m270.4 71.4c-2 8.3 75.1-2.3 82.5 2.3s8.3-1.1 13.4 15.9 6.3 21.9 10.5 25c4.3 3.1 11.9 3.7 11.9 4.8s-0.3 10-0.3 10 0.1 0 0.4 0c1.4-7.7 3.5-20.9-2.7-20.5-8.5 0.6-20.8-36.7-22.5-40.7s-48.4-1.4-55.2-1.7c-2.4-0.1 0.6-3 5.6-6.7-22.8 3.3-42.4 6.9-43.6 11.6z"/>
		<path class="st23" d="m457.3 120.3s14.1-6.9 20.3-8.9c-5.3 1.7-17.7 6.8-20.9 8.1l0.6 0.8z"/>
		<path class="st24" d="m511.4 106.7c-11.2-1.9-27.1 1.7-39.2 5.3 2-0.2 5.4-0.5 5.4-0.5s2.2-0.2 0 0c-6.2 1.9-15.6 5.9-15.6 5.9l-5.3 2.2c-0.4 0.2-0.6 0.3-0.7 0.3l0.8 2.6 35.6-4.1s-1.1 11.1 5.1 11.4c4 0.2 14.1-1.9 20.7-3.4 3.6-8.7 4-17.9-6.8-19.7z"/>
		<path class="st14" d="m455.4 117.8z"/>
		<path class="st22" d="m477.7 111.5c-1.5 0.2-3.4 0.3-5.4 0.5-8 2.4-14.7 5-16.8 5.8l1.4 1.8c3.1-1.4 15.4-6.5 20.8-8.1z"/>
		<path class="st22" d="m454.7 118.1l1.3 1.8h0.1l-0.6-2c-0.6 0-0.8 0.2-0.8 0.2z"/>
		<path class="st22" d="m455.4 117.8l0.6 2c0.1-0.1 0.3-0.2 0.7-0.3l-1.3-1.7z"/>
		<path class="st14" d="m480.1 110.9c-0.5-0.1-1.4 0.2-2.4 0.5 2.2-0.2 3.4-0.3 2.4-0.5z"/>
		<path class="st22" d="m497.5 129.7c-6.3-0.3-5.1-11.4-5.1-11.4l-8.8 4.1-4.8 3.2c0.2 2.2 1.4 18.8 5.1 23.1 4 4.6 16.8-2.6 22.8-6 2.8-1.6 8.4-8.8 11.6-16.4-6.8 1.5-16.8 3.6-20.8 3.4z"/>
		<path class="st25" d="m492.3 118.3l-35.6 4.1 0.6 1.9 21.3 1.1v0.2l4.6-3.4 9.1-3.9z"/>
		<polygon class="st22" points="492.3 118.3 483.2 122.3 478.7 125.7 483.5 122.4"/>
				<path class="st26" d="m444.8 105.4v-17.2h-0.5c-10 0-18.2 8.1-18.2 18.1 0 9.3 7.5 16.9 16.4 17.9-0.4-3.5-0.9-6.8-1.9-10.5-1.7-7 1.4-8.4 4.2-8.3z"/>
				<path class="st27" d="m448.9 113.1c-1 3.6-1.7 7.5-2.1 11 8.8-1.2 15.8-8.8 15.8-17.9 0-9.9-8-18-17.7-18v17.2c1.6-0.1 5.9 0.7 4 7.7z"/>
				<path class="st20" d="m444.8 105.4v28.8c1.1-0.1 1.5-4.8 2.2-10.6h-0.1c0.4-3.3 1.1-7 2-10.4 2-7.1-2.4-7.9-4.1-7.8z"/>
			<path class="st28" d="m440.6 113.1c1 3.6 1.5 7.6 2 11.1h0.1c0.6 5.5 1 9.8 2.2 9.9v-28.8c-2.4 0-6.2 0.8-4.3 7.8z"/>
		<circle class="st29" cx="453.9" cy="102.8" r="2"/>
		<circle class="st29" cx="435.4" cy="102.8" r="2"/>
</svg>
