<?xml version="1.0" encoding="UTF-8"?>
<svg viewBox="0 0 1153 768" xmlns="http://www.w3.org/2000/svg">
 <g fill-rule="evenodd">
  <path d="m62 565l3 1-1 1q0 1-2 1h-2q-1 0 0-2 0-2 2-1z" fill="#b49e77" stroke="#b49e77"/>
  <path d="m858 508v-1l2 1q1 0 2 1 0 1 1 1h1l3 21q3 21 3 23v3l1 1v2q-1 0-1-1t-6-1h-5v1q-1 0-1 1l-1-1v-5q-1-4-2-22l-2-18v-2l1-2v-1h2q2 0 2-1z" fill="#9f6d62" stroke="#9f6d62"/>
  <path d="m845 558v-1h1q1 1 6 1h5v1l1 1 1 8q1 9 1 15v6h-4q-4-1-5-1h-3v-5q0-5-1-15l-1-9q-1-1-1-1z" fill="#e92027" stroke="#e92027"/>
  <path d="m599 0h21l1 12q1 13 1 14t-2 1-1 6 5 6q5 1 7 1h2l-1 1h-1v2h1l1 1h-1v2h-2q-3 0-13 0t-13-2q-2-2-3-6-1-3-3-4-2-2-7-4-5-1-10-2l-5-2h-1v-1h1v-2h1v-1h2l3-2q3-1 5-5 2-3 5-8 4-5 5-5 1-1 2-2z" fill="#516a99" stroke="#516a99"/>
  <path d="m748 581v3q0 1 1 2-1 1-1 1h-1l-1 2q-1 3-1 3h-1v-3q0-3-1-4 0-1-1-1t-2-1v-7q0-5 1-6 1 0 1-4l1-3h2q1 0 3 7t1 8q-1 2-1 3z" fill="#a12d28" stroke="#a12d28"/>
  <path d="m129 592l3-1h2v1q1 2-3 2t-4 0h-1v-1q0-1 3-1z" fill="#af986d" stroke="#af986d"/>
  <path d="m926 144h3v1h-1q-1 1-2 1-2 2-2 3-1 2-2 2t-2 2l-2 2v4l2 3q1 4 6 5 4 1 7 1t3 1q-1 1 1 0 3 0 3 1t-2 2-6 2q-5 2-10 4-4 4-8 3-4 0-4 3 0 2-1 2-2 0-4-1l-2-1h-5l-1-1-1-1h-1v-1l3 1q2 0 3-5t1-9q2-4 5-8t4-6 1-2v-1h1l5-3q6-4 8-4z" fill="#8e9ebc" stroke="#8e9ebc"/>
  <path d="m902 593l-3-3h4l7 2q6 1 8 4t2 8v5h1v1h4t1 1v1q0 1-7 2h-7t-3-1l-3-1h-2v-1h1l1-1v-6q0-7 0-8t-4-3z" fill="#b12023" stroke="#b12023"/>
  <path d="m763 458h1v6q0 1-4 2l-4 2h-1v1h-1q0 1 0 2 1 1 0 1l-2-1q0-1-3 0t-5 1q-2 1-2 0t1-1 1-1v-1h1l1-1h2l7-5q7-5 8-5z" fill="#61100c" stroke="#61100c"/>
  <path d="m542 349h1v1q0 2 1 2t2-1h1v1q0 1-1 2-2 0-1 3 0 3-2 4-3 0-2 2 0 1 1 2 0 1 0 2t1 2q2 1 1 1-2 2-1 2h1v1h-2l-2 1h-2q-1 0-8-1l-7-1h-1v-5h1v-1h1v-2l2-3q1-3 2-5 2-2 6-2 4-2 6-3 1-2 2-2zm-2 5t0-1 0 1z" fill="#aeb9c7" stroke="#aeb9c7"/>
  <path d="m148 582v-1h5v1q0 2 1 2h2v1l1 1v1h-1l-2 1h-2q-2 0-2-1h-1v-1q-1-2-1-4z" fill="#b8a176" stroke="#b8a176"/>
  <path d="m768 531v3q1 4 2 4 2 1 1 8t-1 7h-2l-3 1q-1 0-2 1l-2 1q-1-1-1-2 0-2-3-3l-3-1h2q1 0 2-1 2-1 2-2t-1-1-2-4q-1-5 0-6 1 0 1-2v-2l4-1q5-1 6 0z" fill="#604c43" stroke="#604c43"/>
  <path d="m588 346h-2l-1-1h-1v-11l3-2q3-1 3-2 1-2 2-2t1-1 7-2q6-1 10 0 5 1 4 4t-2 5q-2 2-8 2-6 1-6 4-1 4-4 5-4 1-6 1z" fill="#a5b2c3" stroke="#a5b2c3"/>
  <path d="m760 628l1-5 1 1q2 0 2 9 2 9 1 11v4q0 4-2 4h-3t-2-3l-1-2v-5q1-6 1-7 1-1 2-7z" fill="#a72323" stroke="#a72323"/>
  <path d="m0 477v-6h24q23 1 31 1h8l-3 2q-3 2-6 2h-2v1h-6l-6 1h4q3 2 2 2t-2 1l-16 1q-15 2-16 2 0 0-2-1t-2-2-2-1v1q0 1-3 2h-3v-6z" fill="#354243" stroke="#354243"/>
  <path d="m129 354h1v4q0 5 1 7 1 1 4 2t7 5 4 4v1h1v1h1v1l1 1v1h-1l-1 1h-1q-1 0-3 2t-3 3-4 1h-4v1q0 1 1 5 1 3-1 4-2 0-2 1t-1 1l-1 1-1 1h-6v1h-1v-2h-1l-1-1v-1q0-1-1-3-1-1 1-2 1-1 1-4 0-2-1-2t-2-2q0-3-2-4h-2v-1l-1-1v-1h1l2-1h-2 2q2 0 3 0t6-2 5-12 1-10z" fill="#a7afbc" stroke="#a7afbc"/>
  <path d="m928 567h2v5t-1 2q-1 1-4 2l-3 2h-5l-1 1-2 1h-2q-2 0-4 2-3 0-4 3v2h-2l-1-1h-1v-9h1v-1h1q1 0 1-1t2-2 3-1l9-2q9-2 11-3z" fill="#8f0f0d" stroke="#8f0f0d"/>
  <path d="m943 481l1-7h2l3 1 3 1h3l2 1q3 1 7 2t6 1h5-2l-2 1-2 1h-1l6 1q7 1 7 2t2 1q3 1 4 2 1 0 3 1l3 1h-4l1 1 2 1h1l-1 1-2 1h-2v3h-2l-1 1h1v1h-44v-5q0-6 1-13z" fill="#4c5651" stroke="#4c5651"/>
  <path d="m942 564v-1 2q1 2 7 3 6 0 8 0 2-1 2 0 1 2 1 3v1l1 2v1h-1q-1-1-2-1t-8 0l-7-1v-1h-1v-2q0-1-1-2v-2q1-1 1-2z" fill="#855030" stroke="#855030"/>
  <path d="m200 582h2t0 1h1v1q1 1 1 1 0 1 0 1h1q1 1 1 1v1h1q1 2 0 2-1 1 0 2h-3q-2 0-2 1t1 2v2h-1l-1-1t-1-1q-2-1-2-1v-2h-2v2q0 2 0 2 0 1 1 2h-6q-1-1-1-2t-1 0q-1 2-3 2t0-2q1 0-6-1-6-1-6-2-1-1-5-1h-4l-1 1q-1 2-2 2h-2v-1t0-1-5-1h-6v-2h-2l-2 1h-2v-1h2l1-1h1v-2h3q0 1 2 1h2l2-1h1v-1l-1-1v-1h-2q-1 0-2-2l-1-1-1-1q-1-2 1-2 3 0 3 1t6 0 6-1q0 2 1 2t2-1 5-1 3 1 1 1q3 1 2 0 0-2 4-2 4-1 4 1t5 1q5 0 2 1t-3 3q1 2 2 2t1-2q0-1 1-1 2-1 4-1z" fill="#c0a97e" stroke="#c0a97e"/>
  <path d="m34 583q2-3 3-3t1 1 1 1 1 1-4 1q-3 1-2-1z" fill="#988258" stroke="#988258"/>
  <path d="m1113 497q0 1 20 1h20v87h-1q0 1-1 1-1 2-5 2-5 0-14 2-9 0-9 2-1 2-3 2-2 1-2 2t-2 1q-1 1 0-1 0-2-2-2h-2l-1 1-1 1h1l1 1h1v1q0 1-2 1l-2 1h1l3 5q3 5 5 5h3v2h-1q-1 0-2 1-2 1-2 3 1 3 2 3t1 1-4 3q-4 1-18 3t-14 4q1 1 2 2 1 0-1 2-3 2-3 3v2h-1l-2 1h3l1 1q2 1 2 0t1 1q0 2 3 3 2 1 4 2t2 2h1v1h1v2l1 2 1 1v2h-1l-1 1h-1v1h-1v1h-4q-4 0-11 2l-7 2h-3v1h-1v1h-1v1h1v1h-1l1 1h1v1l1 2v-1h1v1h4l1 1 1 1h1v1h-5q-5-1-14-3t-12 0q-3 0-8 1t-7-1q-2 0-22-2t-22-2q-1-2-5-2t-4-1-3-2l-4-1v-1q0-1-1-15v-21q1-8 1-10 1-2 2-2t1-2q-1-2-3-7l-3-4v-6q-1-5-2-24l-1-19v-1t-2-5l-1-5v-1q0-1 1-1t-2-1-4-5v-4h-6q-1 0-2 2v2q-1 0-4 1l-3 1v-1l-1-1v-2h-1v-1h-1v-2h-1q0-1 1-1v-8q0-7 1-13l1-6h70q26-1 62-1h36v-1l1-1q1-1 1 0t1 1z" fill="#c2ac86" stroke="#c2ac86"/>
  <path d="m744 671h1l1 1q1 2 2 2h1l1 1q1 1 2 1h1l3 4q3 4 6 6t3 2h1l1 1h1v1l4-1q4-1 5-1 1-2 2-2h1l-1 2q-1 2 0 2h3t2 1l2 1h2v1h1v1h-2q-2 0-3 2v2l5 1q5 1 5 2t1 2q1 0 1-1 1-2 4 0 3 0 4 0h1v1h1v1h2l1 1 1 1h-1v1h-1v1l-1 1q-1 1-4 2l-3 1v2l1 1v1l2-1q2-1 2 0 1 0 1 0v1h1v1h1v1l-1 2q0 1-2 0-2 0-2 0 0 2 1 4 2 2 0 3 0 1-2 4-1 3-4 7-3 2-5 3h-2v1l-1 2v2h1v1h1v1l4-1q4-1 6 1 1 0 3 0t2 2 3 3q3 0 3 1 0 2 7 1t8 0q1 0 2 1 0 2 1 2t1-2q0-1 2 0 2 0 3 2 0 2 2 1h2v1l-1 1v7h-237l1-1v-1h1l-2-1-2-1h1v-1h-1v-1h-3v1-4h1v-1h1l1-1 1-1 2 1q2 0 2-1 1-2 2-2 2-2 5-2t6 0h3-3v-2q1-1-1-3l-1-3h-2v-1l1-1h6q6 0 10-3t3-5q-1-3 2-4t5-2q2 0 6-1t3-1q-1-1 1-2 2 0 5-1h3v-3h2v-1h1v-1h-1v-1h-1v-1h-1v-1h-1q0-1-1-1 0 0-2 0-2 1-2 0v-2l1-1v-1h-4v-1l-1-1 1-1 1-1h3v1h1v1q1 2 3 2 2-1 3 0 1 2 5 1t5-4q0-3 5-4 4-1 7-1h3v-1h1v-1h-1t-2-2q-2 0-2-2-1-1 1-2 1 0 2-3t-2-3h-2l2-1 2-1h2q2-1 2-2t1 0q0 1 3 0 2 0 10 2 8 3 8 4 0 2 1 0 0-1 5 1 6 3 7 2t3-6q1-5 4-5 2 0 3-3t0-3 3-2q4-1 5-2 1 0 1-1zm-90 54t1 0q0 1-1 1 0 0 0-1z" fill="#c7af88" stroke="#c7af88"/>
  <path d="m764 464q1 0 2 1v1t1 0v1l-1 1q-2 1-2 10-1 8-3 8-2-1-3 0 0 2-2 2-1 0-1-1t1-1v-2q0-1 0-2 0-2-1-2-1-1-1-2-1-2-1-2 0-2-1-3v-2l1-1q1 0 1-1h1v-1h1l4-2q4-1 4-2z" fill="#991011" stroke="#991011"/>
  <path d="m882 470l1 4q1 4 1 4v1q0 1 0 1h1l2 20q3 20 3 21v1q-1 0-2-2-2 0-4-3-1-3-2-1 0 1-1 1t-1-2v-2l-1 1q-1 1-1 4v3l-1-5q-1-4-2-22-2-17-1-17 1 1 3 0l2-1h-1v-2l-3-2q-3-1-3-2 1-2 2-1 0 1 1 0 0-1 3 0t4 1z" fill="#773830" stroke="#773830"/>
  <path d="m452 137h2v1h1v1h1l2 1q4 2 4 6 1 4 0 5 0 1-1 1-1 1-2 6t0 6l1 1v2h1v1h1v1h1v1h4v1h1v1h1l2-1q1-1 3-5t4-5q1-1 4-1h3l5 1q5 1 6 1 2 1 2 2t2 2q2 0 3 8t2 9l1 1 1 1 1 1h2t0 1h1v1q1 0 1 0v1h1v1h2l6 2q6 0 7 0 2-1 2 2t8 9q6 6 10 15 4 10 6 13t2 3h1v1h1v1h-1v1h1v1h-1v1h1v1h1l-2 1h-3l-2-1h-1v-1h-1v-1t-8-7-12-7q-3 0-4 1 0 1-6 4-5 3-18 5-12 0-16-1t-5-2-7-7l-7-6v-1l-1-1v-1h-1v-1h-1v-1h-1v-1h-1l-1-1q-1-1-3-3-3-2-3-3t-2-2-3-1-6-3-10-5q-6-2-16-10-10-6-12-15t-2-15q1-5 4-6 2-1 2-3 0-1 6-3l6-2 4 3q5 3 8 2 2-1 4-3 3-2 4-2h2q1 0 2-1l2-1h2q1 0 2-1z" fill="#949fb2" stroke="#949fb2"/>
  <path d="m1008 192h2t-1 1-5 6q-4 6-5 13l-1 6h1v-1h1v-1q0-2 1-3l1-1v1l1 3 1 2v5q0 5 0 9v3l1 1 1 1v1h8v-1l3-3q2-3 3-3t5-5q5-5 10-7 5-3 8-2t3 5q1 4 2 4t2 2q2 2 1 6-1 5-1 6 0 2 0 4v2h5l7-3q7-3 20-3 12 0 16-2 5-2 6-2h2l4-1 3-1h5q5 0 11-4 5-3 6-4 0-1 5-3 5-1 5-2h1v1h3l1 1 1 1h1v-1h1v93h-4q-4 0-20 0h-21t0 1q-1 1-2 5 0 4-2 5t-4 6-4 5q-1 1-1 6-1 6-3 6t-5 6q-3 5 1 8l2 4v3h-1v1h-1v1h-1v-1h-1v1h-1v-1h-1q-1 0-4 1-4 0-4-1t-4 0h-3v1h-1v2h-1v1h-1l-1 1-1 1h-4q-4 0-6 0l-3-1v-1q-1 0-1 0 0-1-1-1v-1q-1-1-1-1v-1q0-1-2-4t-5-6q-3-4-13-5l-11-1-2-1-2-1h-2v-1l1-1 2-1 1-1h3t4 0h4v-1l-1-1v-2h2v-1l1-1v-4h-2v-1h-1v-1h-1l-2-1-2-1h-1l-1 1-1 1h-9v5q0 5 0 5t1 2l1 1v1h-2l-2 1-1 1h-3v-1h-1v-1h1v-2q1-2-2-2-4-1-4-5-2-4-4-7-2-2-2-6-1-5-2-6-2 0-1-1 0-1-1-2 0-1 0-9 0-7 4-11t6-10q2-5 8-9t10-6 5-4 5-6q4-3 8-9t4-12v-6l-1-1-1-2h-6q-1 0-14 8l-14 8-2 1-1 1h-1l-1-1-1-1-1-1-1-1v-10q0-10 0-20t4-17q5-7 8-9t4-2z" fill="#8f99ac" stroke="#8f99ac"/>
  <path d="m770 414h16q15 2 20 2t8 1h3v1q-1 0-4 2l-3 2h-33q-1-1-1 0 0 0-1 4l-1 5v-5q0-5-1-5t-1-1v-1l-1 2q-1 2-1 2h-1v-1q-1 0-2-2l-1-2 2-2q2-2 2-2z" fill="#d49d96" stroke="#d49d96"/>
  <path d="m848 465h6q3 0 6 21 4 21 4 22v2h-1q-1 0-1-1-1-1-2-1l-2-1v1q0 1-2 1h-2v1l-1 2v2h-1v-4q0-4-3-24-3-21-1-21z" fill="#7b3c31" stroke="#7b3c31"/>
  <path d="m944 579l-2-7 8 1q7 1 8 1l-1 2q-1 3-1 4v2h-4q-5 0-5 2v2h-1t-2-7z" fill="#7f4124" stroke="#7f4124"/>
  <path d="m940 541v-2h3q3 1 4 1h1l7 1q7 1 7 0t1-1l1 5q2 5 2 5v1l-2-1q-2 0-2 12v13h-1v-1l-1-2v-1q0-1-1-3 0-1-2 0-2 0-8 0-6-1-7-3v-4q0-2-2-10l-1-8q1 0 1-2z" fill="#916c52" stroke="#916c52"/>
  <path d="m941 452v6q0 6 0 7h-1q-1 0-2 10 0 10-1 17v7q-1 0-1-3l-1-4v-2q1-2 1-10v-10q0-3 1-9l1-6h1v-1h1v-1q0-1 1-1z" fill="#c26d60" stroke="#c26d60"/>
  <path d="m858 35h1v5q1 6 3 7t4 5 3 5q1 0 2 2 1 1 1 2h1v1h2v1h1v1h1l1 1 1 1h2l13 5q12 4 12 5 1 2 6 3 4 1 2 2t4 1q7 2 7 2h1v1h-1q0 1 2 1t0 1l-2 1h-1 14q13 0 20 4 8 2 9 3t1 2v2q0 1-4-1-4-1-11-4-7-2-21-2h-14l3 1 3 1h1l1 1 1 1 10 2q9 3 12 4 3 2 4 2h1l1 1 1 1h3v1h1v1h2-12q-2 0-10-3-7-3-14-3l-8-2h-1l-1 1-1 1h2q2 0 3 1l2 1h1l-5 1-6 1h2l2 1q1 1-2 1h-2l1 1q1 0 1 1v1h4l3 1h-3v1h-1v1h-1q-1 0-6 3t-12 4q-6 1-4 2l2 1h-3q-3 0-9-2-7 0-22 0-16 0-25-6-9-4-11-10-1-5-2-6-2 0-4-1-3-1-10 1t-11 10q-3 7-4 12-1 4-2 4h-1v1h-1v1h-1v2h-1v1h-1v1l-1 1-1 1v-3l1-1 1-1v-1q0-1 0-2 0-2-2-2 0 0-1-4-1-5-4-6t-9-2q-5-2-7-3t-5-2l-4-1-3 1-3 1h-1q-1 0-3-2h-2l-1-1-1-1h-1v-1h-1v-1l-1-2-1-1v-1l1-1 1-1 7-6q7-5 9-10 2-4 4-12 2-9 1-10t-1-2v-1h-1v-1h-1v-2h-1v-4h2v-2h2v-2l1-1v-1h1l1-1v2l2 5q2 4 10 4t10 0q2-1 3-3 1-1 12-3t11-3h2l1-1h1v-2h1v-1h1l5-1q5-2 6-1 1 0 3 3 1 2 4 7 4 5 6 5h6v-1l3-1q3-2 3-7 1-5 2-6 1 0 1-1t1-1z" fill="#7483a3" stroke="#7483a3"/>
  <path d="m887 500l-3-21h1q1 0 1 1t1 1 1 1q1 0 2 2 2 1 4 17t5 31 3 16v2l1 4v6l-1 1v1h-1v-1h-1l-1-1h-1l-1-1h-1l-1-3q-1-2-3-18l-2-16v-1q0-1-3-21z" fill="#4a0405" stroke="#4a0405"/>
  <path d="m926 612v-1h1q1 0 1 1t1 1h1l-2 1q-1 0-1 2-1 1-1 26t0 25q0 1 0 1h-8q-8 0-16 1h-7q0-1 5-1h4v-1q0-1-5-1t-5-2q-1-2-4-3-4-1-4 0t-4 0q-5-1-7 2l-1 3h-1l-1 1h-1v2h-1v-1h-1v-1h1v-2l-1-8q-1-8-1-9 0-2-7-2h-6v-1h1l2-1h3v-1l1-1h12v-4h-2q-1 0-2 0 0 0-1-1-1 0-1-11v-11h2l2-1h14q14 0 20 0h13q7-1 7-2z" fill="#8e7d65" stroke="#8e7d65"/>
  <path d="m746 495v-1l2 1q2 1 4 0t2-1h1v11h-1q-1-1-2-1 0 0 0-1-1-1-5-4l-4-3v-1h1l1 1h1v-1z" fill="#a51e1b" stroke="#a51e1b"/>
  <path d="m523 365h1v1h-1v1h-1v5h1l7 1q7 1 8 1h2l2-1h2l3 1q3 0 4 3t2 3q1 1 2 2v1l1 1v4h1v1h1v1h1v1h1v1l4 2q4 2 10 2 5 2 7 3 3 1 2 2t1 1q2 1 3 0 1-2 4-1 3 0 3 2t3 3q3 2 6 3t5 1q1 0 4 0h4l2 1 3 1h-9v1h-1v1h-1v2h-1v1h1v1h4l10 2q9 2 22 1 14-1 14 1 1 2 10 0 9 0 10 0 0 0 1 0h1v1h1v1h3v1h1v-1h1v2h1v-1h1v2h-1v1h-7v5h1v1h19q18 0 28-1 9-1 12-1 2-1 3-3t2-3q1 0 2-1l1-1 2-1 2-1h1v1h1v1l-1 1-1 1 1 1h1v1h-2v1h-1v1h-1t-3 3-9 9q-7 8-9 15l-2 7v10h-1t-50 1h-51q-2-1-85-1h-150q-67 0-100-1h-33v-1h-1v-1h-1v-1h10q6 0 10 0h4l-2-1-2-1h1v-1h1v-1h-1l-1-1-1-1h-1t-1-2-6-4q-6-2-16-1l-10 1v-1h1v-1h-3q-2 0-6-1h-4v-2h-1v-1h1v-1l1-1 1-2v-2h-1 4v1h1v1q0 2 8 4t10 2 1-2q-1-1 6 0 7 0 11 2 3 0 5 1 3 1 4 2 2 1 8 0 7-1 9-3 4-2 4-2v-1h1v-1h3v-1h1v-1h1v-1h1v-1l9-2q8-2 9-2t1-2q1-2 15-3t29-3q14-2 17-2h3l2-1 1-1h1v-1t-3-1l-2-2h23q23 0 24 0 0 0 4 0h3v-1h1v1h4v-1h-1v-1h-1v-5h-3q-3-1-5-1-1-1-1-3t-2-2l-2-1h-3l1-1 1-1h2q2-1 2-2t1-1l1-1h1v-1h1v-2h-2q-2 1-2 1l-1-1v-1l5-2q4-1 4-3t-1-3q-1 0 3-2 2-1 3-3 1-3 5-3h3v-1q0-1-1-1-2 0-2-1l-1-1 9-3q9-3 13-4 3-1 3-2t4-2q5-1 6-3 0-1 8 0 7 0 11 2t5 3l1 1h1v1h1v-1h1v-1l1-3q1-2 1-3l1-1h1t1-1z" fill="#8293a7" stroke="#8293a7"/>
  <path d="m0 374v-42l5 4q5 4 9 6 5 2 8 2h4l1-1 1-1h2v-1h-1v-1h-1t0-2l-1-1h1q1 0 3 2 2 3 3 3t1 2-2 6q-3 4-2 8t9 7q7 3 20 5 12 0 13 0h1l4 1 3 1h2v1l1 1 1 1h1v2h-1v1h-1l-2 1-1 1h-11q-12 2-11 2t1 1-2 1q-2 1-3 3t-4 3q-3 0-3 1t-3 1q-3 1-3 3t-12 4q-13 2-14 5 0 2-2 2t-4 2q-1 2-2 3l-1 1h-1l-1-1h-1v5h10l-2 1-2 1h-6v-1h-1q0-1-1-1l-2-1v-41z" fill="#8191a6" stroke="#8191a6"/>
  <path d="m934 476l2-3v7q0 8-1 10v2l-3 36q-2 35-4 36 0 1 1 2 1 0 1 1h-2q-2 1-11 3l-9 2t1-2q1-1-4-2h-4v-1l-1-1v-5h1v1h1v-1l1-1v-2h1v-4l1-2q1-3 1-6 0-4 2-4 1-1 3-8 3-8 3-9 2-1 10-24t10-25z" fill="#af1012" stroke="#af1012"/>
  <path d="m743 556v-8h1q1 0 2 1h2q3 1 4 1h2l3 1q3 1 3 3 0 1 1 2v8q-1 8-1 8 0 1 1 2h-2q-1 0-2 4l-1 4v1l-1-1h-1l-1 1h-1v2h-1l-1 1h-2v-5q0-1 1-3 1-1-1-8t-3-7h-2q-1 0 0-7z" fill="#991c1b" stroke="#991c1b"/>
  <path d="m678 370h-1v1h1v2l2 1q1 0 2 1l1 1h1v5l-1 2q-1 2 0 2v1h-2v1h-1v2h-1v1h-3q-4 0-5 1t-5-1q-5 0-6 0-1 2-2 1t-4-1-6 1q-2 1-8 1-7 0-13-3-7-3-10-4t-9-5q-7-4-13-4-6 1-7 3 0 2-2 6t-4 5q-1 0-4 1-4 1-10-2l-6-3h-1l-1-1-1-1h-2v-1h-1v-1h-1q-1-1-2-2-1 0-2-3t-4-3l-3-1v-1h-1q-1 0 1-2 1 0-1-1-1-1-1-2t0-2q-1-1-1-2-1-2 2-2 2-1 2-2-1-1 0-4l1-3t1 0v-1h9q9-1 10 0h1l11-1q10 0 16 1t7 3 11 5q10 2 13 4 2 1 20 3t25 2q8 2 8 2z" fill="#b8c1ca" stroke="#b8c1ca"/>
  <path d="m786 680h4l10-1h10v2q0 2 1 3h-17t-4-2h-5l-1-1q-2-1-2-1h4z" fill="#978972" stroke="#978972"/>
  <path d="m416 133v-1l6 3q7 3 11 3h7q2 1 3 2h-1q-1 0-4 2-2 2-4 3-3 1-8-2l-4-3 1-1q1-1 0-1v-1h-1q0-1-3-2t-3-2z" fill="#6279a4" stroke="#6279a4"/>
  <path d="m1152 585h1v183h-181v-1q1-1 6-2 6-2 7-5 2-2 13-6 12-4 12-11t0-7v-1h1v-1h1l2-1q3-1 3 1 0 1 1 1 2 0 2-1 1-2 4-2t7 0 5-1 5 0q3 1 4 0 0-1 2-1t3 0q2-1 3-4 2-2 6-5t9-4q4-1 10-1 7 0 7-1t4-2 10-4q7-3 7-5 0-1 6-4 6-2 6-5t-1-3-1-1h-1v-1h10v-1h-1v-1h-1l-1-1-2-1h-4q-2 0-5 0t-10-4-15-6l-8-1v-1h-1l-1-1-1-1h-4v-1h-1v1l-1-2v-1h-1l-1-1h1v-1h-1v-1h1v-1h1v-1h3l7-2q7-2 11-2h4v-1h1v-1h1l1-1h1v-2l-1-1-1-2v-2h-1v-1h-1q0-1-2-2t-4-2q-3-1-3-3-1-2-1-1t-2 0l-1-1h-3l2-1h1v-2q0-1 3-3 2-2 1-2-1-1-2-2 0-2 14-4t18-3q4-2 4-3t-1-1-2-3q0-2 2-3 1-1 2-1h1v-2h-3q-2 0-5-5l-3-5h-1l2-1q2 0 2-1v-1h-1l-1-1h-1l1-1 1-1h2q2 0 2 2-1 2 0 1 2 0 2-1t2-2q2 0 3-2 0-2 9-2 9-2 14-2 4 0 5-2 1 0 1-1z" fill="#ac9671" stroke="#ac9671"/>
  <path d="m744 619h1v1q-1 1 0 7 1 5 1 6t0 3v1q-1-1-2-2 0-1-2-1h-1v-1h-1v-7l-1-2v-2h1v-5l2-1q1 0 2 1 0 1 0 2z" fill="#a32827" stroke="#a32827"/>
  <path d="m759 574h2l2 4q2 5 1 6 0 0 0 2 0 1-1 2-1 0-2 2v1h-1q-2-1-3-4l-1-4v-1l1-4q1-4 2-4z" fill="#a52b27" stroke="#a52b27"/>
  <path d="m742 497v-1h1l4 3q4 3 5 4 0 1 0 1 1 0 2 1h1l-1 3q0 4 0 9 1 5 0 7 0 1 0 2 0 2 0 4v2h-2q-1 0-2 1l-1 1h-1v1h-1v-1h-1v-1h-1v1h-1l-1-1h-1v-7q0-2 0-8t0-13l-1-7q1 0 1 0v-1z" fill="#a51f1d" stroke="#a51f1d"/>
  <path d="m42 564h2v2q0 2-2 2h-2q-2 0-2-2l1-1h1q0-1 0-1t2 0z" fill="#b29e76" stroke="#b29e76"/>
  <path d="m924 588l-4 1h-8q-3-1-6-1h-3v-1h1v-2q1-3 4-3 2-2 4-2h8q8 0 6 4t-2 4z" fill="#8a3b28" stroke="#8a3b28"/>
  <path d="m122 473l2-1h7q7 0 67 1h94q33 1 100 1h68v2q1 1 2 2 2 0 24 1t35 2 28 4 15 3h1v1h1v5h2v2l-1 1-1 1 1 2v1h-134q-134-1-218 0l-84 1v-2h-3v-3h2l3-1h-2l4-1q4 0 4-1-1-2 2-3l2-1h2v-1h1v-1h-1l-2-1-2-1h-1q-2 0-6-2-4 0-3-1t1-1q0-2-4-3l-3-1v-2h-1q-2 0-2-2l-1-1h1z" fill="#374848" stroke="#374848"/>
  <path d="m932 528l3-36 1 4q0 3 1 3v3q-1 2-1 6v3l-1 23q-1 23-2 30l-1 8q-1 0-2-1v-4q0-1-1-1-1-1-1-2 2-1 4-36z" fill="#d2685e" stroke="#d2685e"/>
  <path d="m930 466l-4-2v-2q0-4 2-4t4 2q1 4 2 5 1 2-4 1z" fill="#5e0f0d" stroke="#5e0f0d"/>
  <path d="m30 566l1-3h1l1 1h3v2q0 1-4 2-4 0-2-2z" fill="#b5a17a" stroke="#b5a17a"/>
  <path d="m729 469v-5h1v4h4q4 0 5 0 2 0 2-1 1-1 1 0t1 1v2q-1 0-3 2l-4 3v2l2 2q2 2 4 9 0 6 1 6v2h-1v1l-1 1h-8v3h-2v-3q-1-2-1-13l-1-11v-5z" fill="#a11d1f" stroke="#a11d1f"/>
  <path d="m638 80v2l1 2 1 2v1q0 1-2 2l-2 2h-1q-1 1-1 3-1 2-2 2-2 0-3 4t-2 4h-1v-2l1-1q0-1-1-2-2-1 0-4t6-7q5-4 5-6 1-2 1-2z" fill="#5d75a4" stroke="#5d75a4"/>
  <path d="m228 594l1 1q1 1 4 1h3v1q0 1-1 1h-1v1h-1v1h1v2q0 2-1 2-1 1 0 2 0 1-2 1t-3 1q0 2-2 2-1 0-1 2 0 1-3 1-2-1-2 0h-1q-1-1-4-1-3-1-3-2 1 0 1-1t-3-1-2-1q0-1-4-2t-6-1-1 0q1-1 1-2t-1-1l-1-1h-1l-2 1h-2v-1h-1v-2h7l1 1q2 0 2-1l1-2v1q0 1 1 1t1-1v-1h4q4 0 4-2v-2l1 2q0 1 2 1 1 0 1-2 0-1 5-1 4 2 4 3 1 1 2 0 2-1 2-1z" fill="#bca57b" stroke="#bca57b"/>
  <path d="m273 589l4 1h5v-1h-1v-1q-1 0-2-1l-1-1h-1v-1h1v-1h2v2h1l3 1q2 0 3 1 1 2 5 3 3 1 22 2t26 1q6 0 7 0t5 0q4 2 10 1 6 0 6 2-1 2 0 2 2 0 2-1t4-2q3 0 4 0 0 1 1 2t3 2q3 0 4 1l1 1h7l2-1 1-1h-3q-3 0-4-2h-2l-1-1-1-1h1v-1h1v1h2l2-1h3v1q0 1 7 0t7 0q0 2 4 1t5 0q0 1-4 1-3 1-4 3 0 1 2 3 1 0 8 1h6v2l-4 1q-4 0-4 2t0 3q2 1 2 2v1h-2q-1 0-1-1-1-1-1 0t-3 1q-2 1-2 2l-1 1v1h-4v2h2v1h1v1h3v-1h1v-1h4q5-1 10-2 6 0 17 1 10 1 14 3 5 0 10 2 6 1 13 2 8 0 8 0h1l2 1h3v1l-1 2v1h-1v1h-1q-2 0-4 3-1 3-2 4 0 1 0 6t0 5q1 0 3-1h2v2h6v1q0 1-2 1t-2 1l1 2h8q6-2 8-2 1-2 3-2h2l2 1 2 1h2v2l-1 1v3h-1v1h-1v1l-3-1q-3-1-3 1 0 1 2 1 1 1-1 1-2 1-1 3 0 2-1 2h-1v-1q0-1-1-1l-1 1v1q0 2-1 2 0 1 0 1h-1l2 1q3 0 4-1 0-2 1-2h1v3q0 2 0 4t1 3q1 0 2 2l1 1v1h3-1v-2q1-1 2-1t1-1 1 0 1 1 1-1q1-1 4-2 4-1 4-2v-1h1l1-1h2l2-1h1v3h-5v4h3l1 1 1 1h2q2 0 2-2 0-1 1-1h2v-3h1l1 1h1v2l-1 2v1h-1v-1h-1v1q0 1 2 1 2 1 3 0h1v3h-2q-2 0-2 1v1h-1l-1 1-1 1h-1v2h6v-1l1-1v-2h1q1 0 1-1t3-1h3v-1q-1-1-1-2l-1-1v-1h-1v-1l1-2v-1h1l1-1h-3v-2h2l2 1 1 1h-1v5q0 3 3 3t5 2q1 2 6 1 4-1 6-1t5 2 4 6q2 4 6 4 4 2 5 3 0 1 4 2 3 1 3 3t1 2q2 0 2 1 1 1 2 1t2 2q0 2 6 3t7 1q2-1 2-3 0-1 1-2 1 0 1-1t1-1 0-3q0-3 2-2 3 0 3-2 0-1 3-1l2-1 1 1q1 0 1 1t4 1q3 1 3 1t-1 1l-2 1 1 1v1h4v1l-1 1v2q0 1 2 0 2 0 2 0 1 0 1 1h1v1h1v1h1v1h1v1h-1v1h-2v3h-3q-3 0-3 1t0 2q-1 0-6 1-4 1-6 1-2 1-5 2t-2 4q1 2-3 5t-10 3h-6l-1 1v1h2l1 3q2 2 1 3v2h3-3q-3 0-6 0t-5 2q-1 0-2 2 0 1-2 1l-2-1-1 1-1 1h-1v1h-1v4-1h3v1h1v1h-1l2 1 2 1h-1v1l-1 1h-404q-1-1-2-2-1-2-3-2h-3q-1 0-1 0v1h-2q-1-1-1-5v-4h-2q-2 0-8 2-6 1-6 2 0 2-5 2h-6v1q0 1 1 1l1 1q1 0 1 1-1 1-1 2h-20l-2-1-2-1h1l1-1 2-1h-2v-1t2-1q2 0 2-2 0-1 1-1l1 1h1v-1h1v-2h-6v-4h4l3-1h-3v-2q0-1-3-2-2 0-2-2l-1-1 1-1q1-1 2-3l1-2q1-1 4-3t9-4l6-2h4v-3h-5q-5 1-10 2l-4 2t-1 1q-1 0-1 0v1t-1 1q-1 0-1 0t-2 0q-1 0-4 0-4-1-4-2t-4-1q-3-1-5-2t-2 0q-1 1-6 2l-6 1h-1l-2-1h-1v-1l-1-1v-2h-1v-1h-1l1-1 1-1h1v-1h1q0-1 4-2t5-3l1-2v-1h1v-1h1v-1h1v-1h1-2q-3 0-4 0 0 0-1-1-1-2-2-4-2-2-3-2-1-1-1-5-1-4-2-4-2-1-2-4-1-4-1-3t-1 1-1-2-5 0l-5 1v-2h-1v1h-1v2h-1l-1 1h-2v-3h1v-1h1l2-1h4l1-1 1-1t0-1 2-3q2-3 1-5-1-1-1-3t2-3l2-1h1l-3-1q-3-1-4-1t-1-2q-1-2-2-3l-2-1v-1h-1v-1t4-1l3-1v-1h-1v-1h-2q-1 0-2 1-1 0-1-3 1-2-1-2l-1-1v-2h1q1-1 4-1 2 0 1-1t-2-1q-2 0 1-2h4v-1l-1-1v-1h-1l-2-1-3 1q-3 1-4 1h-1v-2q0-1-1-3t-5-2q-4-1-6-2l-3-1v-1h-1v-1h-1v-1h-1v-1h1v-1h1v1h5v-1h-1v-1h-6v-1h1v-1h1v-1h2q3-1 3-1h1q1 0 1-1v-1h3q4 0 4-1 1-1 4-1 4 0 5-2t5-2q5 0 10-1 6 0 6 1 0 2 4 1t8-2h4v-1q0-1 1-2h1q2 1 2 2 0 0 3 1 3 0 3 1 0 2 2 2t2 2q0 1 8-2 7-4 8-2 0 2 4 2 5-1 6 0 0 2 3 0 3 0 4 0h2l1-1h2q0 1 1 1h1v1l2 2q0 2 0 3-1 0 0 1t0 1-1 1 3 1q4 0 4 1 1 1 7 2t6 0 3-1q4 0 6-2 1-2 2-2 2 0 2-1v-1h1l1-1 2-1h-1v-1h-1v-1h1v-1h1v-1q0-1-1-1h-1q0-1 2 0 3 0 3-1 0-2 1-2 2 0 2-2 1-1 3-1t2-1q-1-1 0-2 1 0 1-2v-1h1l1-1h2v-2h1v-1h1l-1-1q-1-2 0-2t7-1l5-1h1t1-1h4v-2q0-3 2-3 3 0 3-2 0-1 1-1t1 2q1 2 3 3 2 0 6 1zm-91 27t1 0-1 0zm-95 18q1 0 1 0-1 0-1 0zm100 13l1-1h3q3 0 5-1h3v1q-1 1-4 3-4 1-6 1-3-1-2-3zm-94 4q1 0 1 0 0 1 0 1-1 0-1-1zm395 2l2-1v3q0 3 0 3h-1v1h1v2h-2v-3h-1v-1h-1v1h-1v-1h-1v-1h2v-1h1q0-1 1-2zm18 17t1 0-1 0zm-332 16h-2q-1 0-2-2 0-2 2-3t6-1q5 0 5 0 1 1-4 4-5 2-5 2zm209 0q3-2 6-2t3 1q-1 1-4 3-2 2-5 1t0-3zm174 7v1h1v2h-6v-1l2-1q1 0 2-1 0-1 0 0 0 0 1 0zm93 31t1 1q-1 0-1-1z" fill="#c1aa82" stroke="#c1aa82"/>
  <path d="m935 418l1-1h10q3 0 3 1v1h-1q-2 0-2 3 1 2 0 2l-2 1v-1q0-2-1-2l-1 1h-1q-1 0-1 1t-2 0h-3 1q2 0 3-2t-2-3-2-1z" fill="#c96b68" stroke="#c96b68"/>
  <path d="m488 304h1v1h1v2h1v1h1v6h-1v1h-1v1h-1l-1 1-2 1h-4l-1-1-1-1h-2q-1 0-3-3l-1-3-1-2v-1h1v-2l1-1 1-1h5q5 1 7 1z" fill="#a6b5c8" stroke="#a6b5c8"/>
  <path d="m146 590h3v2h6q5 0 5 1t0 1-4 1q-3 1 0 2 2 1-1 1t-3 1-1 1q-1 1-1 0 0-2-2-2t-2-1q-1-1-3-1h-2l-1 1h-2v-2l1-1v-2h1t2-1h2q2-1 2-1zm-5 3q0-1 3 0 4 1 3 2 0 1-3 0t-3-2z" fill="#bba479" stroke="#bba479"/>
  <path d="m859 0h-3 224v2q0 1 1 1 1 1 2 3t1 3q-1 1 2 5 2 5 6 9 4 3 4 7 0 3-1 3-1 1-10 7-9 8-13 11-4 4-11 10-8 5-19 9-10 2-23 2t-23-6q-11-6-18-6t-21 2-25 7q-10 5-16 5t-22-6l-15-4-1-1-1-1h-1l-2-1h-2q0-1-1-2-1-2-2-2-1-1-3-5t-4-5-3-6l-1-5t1 0v-1q0-1 0-1 1 0 1-5t-1-11 1-12q2-5-1-6z" fill="#9aa1af" stroke="#9aa1af"/>
  <path d="m415 132h1t0 1h1l3 2q2 1 2 2h1v1q1 0 0 1l-1 1-6 2q-6 2-6 3 0 2-2 3-3 1-4 6 0 6 2 15t12 15q10 8 16 10 5 2 10 5t6 3 3 1 2 2 3 3q2 2 3 3l1 1h1v1h1v1h1v1h1v1l1 1v1h-2v-1h-1v-1h-3q-1 0-5-1l-4-1h-1l-3 1-3 1h1v3l3 4q3 4 3 7 0 4-1 4-1-1-1 1-1 3-2 2-1 0-1 1 1 1 1 2v2h-1q-1 0-1-1-1-1-4 0t-4-1-4-2q-4 2-11 1t-7 1q-1 2-5 3t-12 2-11 0q-2 0-2-1t-1-1-1-1v-1h-1v-1h-2v-1h-1v-1h-4q-1 0-1-1-1 0-6-3-5-2-6-4-1-1-5-1-5-1-6 0l-1 1h-1q-2 0-4 0t-3 2q-1 1-3 0t-6-1q-3-1-12-3-9-4-14-4-6 0-10 3t-7 4-12 2-11-1-4-7l-2-5 1-1 1-1h-1v-1h-1v-3q0-1-4-4-3-4-3-6l-1-3v-3h1v-3h2v1l-1 1v2h1v-1h4v1q0 1 3 1 2 1 4 2 1 0 8 0 8 0 12-6 3-4 10-6 6-2 8-1 3 1 10 1 6 0 8-2 3-2 6-6 4-4 12-8t9-6 7-1q6 0 14-10t8-13q0-2 6-2t8-4q2-2 11-4t10-2z" fill="#5374a7" stroke="#5374a7"/>
  <path d="m728 658v-4h1q1 0 1 3t4 4 5 1v1h1q0 1 0 1h1v1l1 1v1h1l1 2q2 2 1 2h-1q-1-1-4-1t-7-4-5-8z" fill="#7b543f" stroke="#7b543f"/>
  <path d="m725 4v-4h2l1 3q2 3 3 3 1 1 1 1v1l3 1q2 1 5 1t4 2 5 2q4 1 9 12 6 10 6 12v3l-1 1h-1v1l-1 1v2h-2v2h-2v3h-1v-1l-1-1-1-1v-2l-1-2q-1-3-2-8t-6-10q-4-4-8-7t-5-4q-1-2-4-3l-2-2-1-1q-1-1 0-5z" fill="#808bac" stroke="#808bac"/>
  <path d="m827 678h5v1h-1v1h-1q-2 1 1 2 2 0 2 1t-2 1h-7q-4 0-8 0h-5q-1-1-1-3v-2h6q6-1 11-1z" fill="#98886f" stroke="#98886f"/>
  <path d="m761 608v4q1 3 1 4t-1 4v3l-1 5q-1 6-2 7 0 1-1 7v5h-1l-1-1h-1q-1 0-4 1l-2 1v-2q0-1-1-2-1 0-1-4v-4q0-1-1-1v-1q1-1 1-1 0-1-1-6-1-6 0-7v-2q1-1 2-4l1-4 2-1q2-1 5-1 3-2 4-1t2 1z" fill="#a61f1e" stroke="#a61f1e"/>
  <path d="m744 604v2h-1l1 1 1 1h1q2 1 2 2l-1 4q-1 3-2 4v1h-1q0-1 0-2-1-1-2-1l-2 1v-5h-1t1-5l2-5h1q1-1 1 2z" fill="#682621" stroke="#682621"/>
  <path d="m833 560v-2h12t1 1l1 9q1 10 1 15v5h2v1q0 1-1 1t-1 1h-3q-1-1-5-2l-5-1v-2q-1-2-1-13l-1-11v-2z" fill="#faebea" stroke="#faebea"/>
  <path d="m766 614v1q1 1 1 1h1t2 1h3v11q0 10 0 11h-1q-1 0-1 1-1 2-2 4-2 2-3 1h-1v-1q1-2-1-11 0-9-2-9l-1-1v-3q1-3 1-4h2q1 1 1 0 1-2 1-2z" fill="#b52a28" stroke="#b52a28"/>
  <path d="m80 583l1-3h2l2 1q2 1 1 3 0 2-2 2h-4q-1 0 0-3z" fill="#af996f" stroke="#af996f"/>
  <path d="m164 593l1-1h4q4 0 5 1 0 1 5 2 5 0 5-1 0-2 1-2t1 2-1 3 1 1 3-2q1-1 1 0t1 2h-1v2h1v1l2 1q1 1 1 2t-1 1v1h-5q-2 0-3 2t0 2 0 1h-2l-1-1h-4v-1h1v-1h1l-4-1q-3 0-3 1-1 1-1 0-2-1-1-2t-1-4q-2-2-5-3l-3-1v-1h-1v-1q-1 0-1 0v-1h2q1 0 2-2z" fill="#bca57a" stroke="#bca57a"/>
  <path d="m1080 2v-2h73v110h-7q-6 0-11 0-5 1-5 0t-10 1q-10 3-12 1-1-2-2-2-2 0-7-5t-9-5-18 7-18 8l-4 1-2 1-2 1h-3v1h-1q-1 1-2 1-2 0-3 2-1 1-6 4-5 4-13 6l-7 1v-1h-4v-1l1-1v-3h1v-1h1l1-1q1-1 2-3 0-1 1-1 1-1 0-1 0-1 0-1 0-1 1-1h1v-1l1-2v-2h-1q-2 0-2-1-1-2-14-4-14-2-23-6l-9-4v-1q0-1-1-2t-9-3q-7-4-20-4h-14 1l2-1q2-1 0-1t-2-1h1v-1h-1t-7-2q-6 0-4-1t-2-2q-5-1-6-3 0-1-12-5l-13-5h-2l-1-1-1-1h-1v-1h-1v-1h-2v-1h1l2 1h1l1 1 1 1 15 4q16 6 22 6t16-5q11-5 25-7t21-2 18 6q10 6 23 6t23-2q11-4 19-9 7-6 11-10 4-3 13-11 9-6 10-7 1 0 1-3 0-4-4-7-4-4-6-9-3-4-2-5 0-1-1-3t-2-3q-1 0-1-1z" fill="#7f899c" stroke="#7f899c"/>
  <path d="m872 676h8l4 1h3v2h-1l-2 1h-6q-6 0-9 2-3 0-13 0-9 0-15 1l-7 1t0-1h-1q0-1-2-1-3-1-1-2h1v-1h1v-1h9l11-1q11-1 20-1z" fill="#98886e" stroke="#98886e"/>
  <path d="m1097 474v-1h56v25h-20q-20 0-20-1v-1q0-2 13-2 14-1 14-2t-13-2q-13-2-13-3-1-1-2-1-2 0-2 2 0 1-2 1h-4q-1-1-8-1l-8-1h-2v-1h-1v-1h1v-2h1v-1h1v-2l2-1q2-1 2-2t2-2 3-1z" fill="#434d4d" stroke="#434d4d"/>
  <path d="m944 424v1l-1 2q-1 2 0 4v9q-1 7-1 9-1 3-1 3-1 0-1 1v1h-1v1h-1v-6q0-6 1-14v-8l1-1q2-2 2-2v-1l1-1q1 0 1 2z" fill="#743227" stroke="#743227"/>
  <path d="m884 568l-1-9h5l6 1h1l1 1 1 6q1 6 1 11v4l1 2 1 3v1h1l1 1q1 1 1 1h-3t-9 0h-9v-1h3v-7q-1-6-1-14z" fill="#fae9e8" stroke="#fae9e8"/>
  <path d="m754 646h1l1 1h1l1 2q2 3 2 3h1v12q1 11 1 12 0 0 1 1v1h-1q-1 0-6-4-4-2-5-2-1 1-1 2h-2q-1 0-2-2l-1-1q1 0-1-2l-1-2v-1l-1-1q0-1 0-1h-1t1 0h2v-1l1-3q1-4 1-6t0-2q1 0 2-2v-2l2-1q3-1 4-1z" fill="#a62625" stroke="#a62625"/>
  <path d="m771 597h1v4q0 5 1 6 1 2 1 3t-1 2h-1l-3 1q-3 1-3 1t-1 2q0 1-1 0h-2q0-1-1-4v-3h1q1-1 2-2 0-1-1-1t0-3l1-3 3-1q3-1 4-2z" fill="#ad2020" stroke="#ad2020"/>
  <path d="m1152 171h1v52h-1v1h-1l-1-1-1-1h-3v-1h-1q0 1-5 2-5 2-5 3-1 1-6 4-6 4-11 4h-10l-1-1-1-1h-7q-7 0-7-1t-3-3q-3-3-2-6 1-4 1-5 2-1 3-5t3-5 1-7q-1-5 0-8t15-9q15-7 22-9 6-2 13-2t7-1z" fill="#768299" stroke="#768299"/>
  <path d="m732 594h3l1 1q1 1 2 2 2 0 2 1 1 2 2 2v2l-2 5q-1 5-1 5h1v10h-2l-2 1h-1v-3h-3v-1l-1 3-1 3v-16q0-16 2-15z" fill="#9d2522" stroke="#9d2522"/>
  <path d="m44 478h-4l6-1h6l2 1q2 0 2 1 0 0-1 1l-1 2-6 1h-5v-1q1 0 1 0v-1q1-1 2-1t-2-2z" fill="#758177" stroke="#758177"/>
  <path d="m242 588h2t-1-2 1-2h1v1q0 1 3 1 4 1 4 2t1 1 1 1v1h-1q-1 1-1 1h-1l-5 1q-6 1-7 1t0 2l1 1h-1v1h-1v2h-2l-1 1h-1v-1h-1v-1h1v-1h1q1 0 1-1v-1t1-2v-2h-4q-2 0-3 0-2 0-2 1v1t-2 1q-1 1-2 0 0-1-4-3-5 0-5 1 0 2-1 2-2 0-2-1l-1-2h-4t-1-1h-1v-1h1q2 0 1-2h-1l-1-1-1-1-1-1-1-1v-2h2v2h1l1 1q0 1 1-1 0-1 2 0 3 0 2-1 0-1 3-1 2-1 2-2t2-1q3 0 3 2 0 1 3 1 2 0 3 1t6 1q5-1 7 2 2 2 2 2z" fill="#c1aa7f" stroke="#c1aa7f"/>
  <path d="m900 590h-1l3 3q4 2 4 3t0 8v6l-1 1h-6l-5-1-1-6q-1-5-1-7-2-2-6-4l-4-1-2-1h-2v-1h-1l2-1h3v1h9q9 0 9 0z" fill="#f3dcd5" stroke="#f3dcd5"/>
  <path d="m768 254v-2h3v1h1v2l6 4q6 4 8 5 2 0 8-3t9-3 4 0h7l-1 7q-1 7-1 9 2 3 2 4v1h1l1 1h6q7 0 10-2t4-2h1q-1 1-5 5-5 5-6 10-2 5-4 7t-7 3l-5 1h-1v1h-1v1h1l2 1q2 0 2 2l-1 2v2h1v1h-2l-2-1q-2-1-2-1-1 0-2 0-2 0-2 2-1 3-3 5-2 3-20 5-17 4-20 7-2 4-6 7-4 4-7 8t-6 8-14 5-11 2-6 3l-6 2h-10q-9 0-11-1l-2-1h-2v-1h1v-3h-2v-4q1-3 4-5 2-2 5-6t4-5q1 0 2-2t2-2 1-2q0-1 6-4 7-4 8-4h1v-1h1v-4l-1-1q-1-2-1-3t-3-2q-2-1-6-5t-7-4q-3-2-4 0t-3 1q-3-1-4-6l-2-5v-2l-1-3v-1h-2q-1 0-2-1 0-1-1-3t-1-3l-1-1 1-2q0-1 1-1v-1h1l4-4q5-4 8-4 2 0 4 1l2 1h2v1-3l-1-2-1-3v-1h-1v-1h-1v-2h1l1 1h1l1 1 1 1h3q2 0 3 1l1 1h4-1v-1h-1v-5h1l1 1 1 1h1v2q1 1 5 2 5 2 9 4 4 3 12 7 7 3 12 2 6-1 7-5 2-3 4-4 2 0 3-2t4-2q2 0 1-2-1-3 0-4 1-2 1-4z" fill="#8f9cb1" stroke="#8f9cb1"/>
  <path d="m383 686q3-2 6-2t3 1q-1 1-4 3-2 2-5 1t0-3z" fill="#b49e78" stroke="#b49e78"/>
  <path d="m28 482l16-1v1t-1 0v1h-3q-3 1-13 1-10 2-13 1l-2-1q1 0 16-2z" fill="#55615c" stroke="#55615c"/>
  <path d="m879 514l1-1v2q0 2 1 2t1-1q1-2 2 1 2 3 4 3 1 2 2 2l2 16q2 16 3 18l1 3v2l-1-1h-1l-6-1h-6v-5l-1-5q-1-5-2-17l-1-11v-3q0-3 1-4z" fill="#9d655f" stroke="#9d655f"/>
  <path d="m468 346v4h2l8-4q8-4 10-6 3-2 7-2 4 1 5 4 1 2 2 2t2 3q0 3 1 4t2 6q2 5 4 6 3 2 2 2v1h3q2 0 4 0h1l-1 1q0 1-1 3l-1 3v1h-1v1h-1v-1h-1l-1-1q-1-1-5-3t-11-2q-8-1-8 0-1 2-6 3-4 1-4 2t-3 2q-4 1-13 4l-9 3 1 1q0 1 2 1 1 0 1 1v1h-3q-4 0-5 3-1 2-3 3-4 2-3 2 1 1 1 3t-4 3l-5 2v1l1 1t2-1h2v2h-1v1h-1l-1 1q-1 0-1 1t-2 2h-2l-1 1-1 1h3l2 1q2 0 2 2t1 3q2 0 5 1h3v5h1v1h1v1h-4v-1h-1v1h-3q-4 0-4 0-1 0-24 0h-23l2 2q3 1 3 1v1h-1l-1 1-2 1h-3q-3 0-17 2-15 2-29 3t-15 3q0 2-1 2t-9 2l-9 2-1-1v1h-1l-1 1-1 1h-3q-2 0-4 1-1 1-6 1-6 0-7-6t-5-11-6-9-2-8q-2-4-4-6-4-2-10-3l-6-1v-1l1-1q1-1 1-4 1-4 0-4t-2-4q-2-3 1-6 3-2 4-7t-1-6l-2-1h-3v-2h2l5 2q4 1 6 2 2 0 4 0 1 0 4 0 4 2 7 0t3-3 1-1q1-1 2 0 1 0 2-1t9-5q7-4 14-5t13-3q6 0 12-2 6 0 9-3t3-3h1l2-1 1-1h2l-1 1v1h-1v1h-1v1l-1 2v1h1l1 1h1v2l5 2q5 3 5 4 0 2 10 3 11 1 20 3 8 0 10 2 1 0 6 0 4 0 10-3 5-3 6-3t2-1h2v-3l1-1 1-1v-4h-1v-1h-1v-1h-4 13q13 0 14-1t2-11q0-10 0-10h2q2-1 6 4 4 6 6 6 1 1 1 2 0 2 0 4z" fill="#8e9db0" stroke="#8e9db0"/>
  <path d="m0 56v-56h221t3 1q2 1 0 1-3 2-2 2 2 0 2 2-1 1-4 3-4 1-2 2 1 1 0 2 0 1-2 1-1 0-2 2 0 1-2 1-1 0-1 1-1 1-3 2l-2 2h-1v1h1v6h1v1l2 1q3 1 3 2 1 1 12 0t18-2q8-1 14 1 7 2 11 2t6 0h2l2 1h2v1h-2v1h-1v1h-1l-1 1q-1 1-3 5-1 5-4 6t-3 2-6 1q-5-1-14-1-10 0-12-1t-6-2-5 2-6 9-15 4q-9-2-16-3-6-1-18-3-11-2-12 0-2 0-13 1t-13 3-4 2-3-2q-1 0-3 0-2 1-3 2-2 2-11 2-10 2-16 0t-7-3l-1-1v4q-2 4-3 5-2 1-2 2t-3 4q-4 3-13 8t-17 13-14 12q-7 4-11 5-3 0-4 1-1 0-5 0-4-1-4-2 0-2-1-1t-1 1v-1l-1-1-1-1v-55z" fill="#465a7c" stroke="#465a7c"/>
  <path d="m972 669v-7l4 1q3 1 3 2t4 1 5 2q2 0 22 2t22 2q2 2 7 1t8-1q3-2 12 0t14 3h5l8 1q8 2 15 6t10 4 5 0h4l2 1 1 1h1v1h1v1h-10v1h1q0 1 1 1t1 3-6 5q-6 3-6 4 0 2-7 5-6 3-10 4t-4 2-7 1q-6 0-10 1-5 1-9 4t-6 5q-1 3-3 4-1 0-3 0t-2 1q-1 1-4 0-4-1-5 0t-5 1-7 0-4 2q0 1-2 1-1 0-1-1 0-2-3-1l-2 1h-1v1h-1v1t0 7-12 11q-11 4-13 6-1 3-7 5-5 1-6 2v1h-132v-7l1-1v-1h-2q-2 1-2-1-1-2-3-2-2-1-2 0 0 2-1 2t-1-2q-1-1-2-1-1-1-8 0t-7-1q0-1-3-1-3-1-3-3t-2-2-3 0q-2-2-6-1l-4 1v-1h-1v-1h-1v-2l1-2v-1h2q2-1 5-3 3-4 4-7 2-3 2-4 2-1 0-3-1-2-1-4 0 0 2 0 2 1 2 0l1-2v-1h-1v-1h-1v-1t-1 0q0-1-2 0l-2 1v-1l-1-1v-2l3-1q3-1 4-2l1-1v-1h1v-1h1l-1-1-1-1h-2v-1h-1v-1h-1q-1 0-4 0-3-2-4 0 0 1-1 1-1-1-1-2t-5-2l-5-1v-2q1-2 3-2h2v-1h-1v-1h-2l-2-1q-2-1-2-1h-5v-1h1v-1h1v-1h1v-1h4l4-1q5-1 6-1h22q4 0 8 0h7q2 0 2-1h1q0 1 0 1l7-1q6-1 15-1 10 0 13 0 3-2 9-2h6l9 1q9 1 10 0t5-1h3q1 0 1 0v-1h4q5-1 12-1h14q7 0 12-1h8q2-1 4-1h3q2 0 3-7z" fill="#c9b28d" stroke="#c9b28d"/>
  <path d="m930 572v-1q1 1 2 1v2h1l1 1 2 1h1v1l-1 7q-2 8-2 8-1 0-2 1v1q-1 0-5-2l-4-2h-7v-1h4l4-1t2-4-6-4h-7 1l2-1 1-1h5l3-2q3-1 4-2 1-2 1-2z" fill="#9f6652" stroke="#9f6652"/>
  <path d="m742 548h1v8q-1 7 0 7l-1 3q0 4-1 4-1 1-1 6v15h-1v1h-2v-1h-1v1h-1l-1-1v-1h-4v-42q0-2 5-1t7 1z" fill="#a81a1b" stroke="#a81a1b"/>
  <path d="m199 768h-12t1-1q2 0 2-1v-1q1-1 1-1h3q2 0 3 2 1 1 2 2z" fill="#9c8a69" stroke="#9c8a69"/>
  <path d="m205 591q0 1 1 1h5v2q0 2-4 2h-4v1q0 1-1 1t-1-1v-1l-1 2q0 1-2 1l-1-1q-1-1-1-2 0 0 0-2v-2h2v2t2 0 2-1 1-1q1-1 2-1z" fill="#b9a276" stroke="#b9a276"/>
  <path d="m765 554l3-1h2l1 1q1 2 1 18v17h2v1q-1 0 0 1 1 0 1 1v1l-2 1q-1 0-1 2v1q-1 1-1 1h-1q-1 0-4 1l-2 1v-1q0-1-1-2t-1-3l-1-3v-1q1-2 0-4 0-1 1-1t1 1q1 1 1 0 0-2 0-2 1-1-1-6l-2-4q-1-1-1-2 0 0 1-8v-8l2-1q1-1 2-1z" fill="#b41c1e" stroke="#b41c1e"/>
  <path d="m730 501h1v1l1 12q2 12 2 15v3l-2 1q-2 1-2 3 0 1 0 8v46h4v1l1 1v2h-3q-2-1-2 15v16l-1 13q-1 12-1 14v6q1 4 5 8t7 4 4 1q0 1-1 1-1 1-5 2-4 2-3 2t0 3-3 3q-3 0-4 5-2 5-3 6t-6-1-6-1-1-1q0-1-8-4-8-2-10-2-3 1-3 0-1-1-1 0t-2 2h-2l-2 1-2 1h2q3 0 2 3t-2 3q-2 1-1 2 0 2 2 2 2 2 2 2h1v1h-1v1h-3q-3 0-7 1-5 1-5 4-1 3-5 4t-5-1q-1-1-3 0-2 0-3-2v-1h-1v-1h-2q-1-1-1 0h-1q-1 0-3-1-2 0-2-1t-1-1l-1-1-2 1q-3 0-3 1 0 2-3 2-2-1-2 2 1 3 0 3t-1 1-1 1q-1 1-1 2 0 2-2 3-1 0-7-1t-6-3q-1-2-2-2t-2-1q0-1-2-1-1 0-1-2t-3-3q-4-1-4-2-1-1-5-3-4 0-6-4-1-4-4-6t-5-2-7 1q-5 0-6 0-2 0-1-1 0-2-3-2t-3-3v-5h1-3 1l-1 1h-1v1l-1 2v1h1v1l1 1q0 1 1 2v1h-3q-3 0-3 1t-1 1h-1v1q0 1 2 1 1 1 2 1v1h1v2h-6v-3 1h-6v-2h1l1-1 1-1h1v-1q0-1 2-1h2v-3h-1q-1 1-3 0-2 0-2-1v-1h1v1h1v-1l1-2v-2h-1l-1-1h-1v3h-2q-1 0-1 1 0 2-2 2h-2l-1-1-1-1h-3v-2t-4 0q-5 1-6 2 0 2-1 1t-1-1q-1-1-1 0t-1 1-2 1v2h1-3v-1l-1-1q-1-2-2-2-1-1-1-3t0-4v-3h-1q-1 0-1 2-1 1-4 1l-2-1v-4h2l1-1q1 0 1 1v1h1q1 0 1-2-1-2 1-3 2 0 1-1-2 0-2-1 0-2 3-1l3 1v-1h1v-1h1v-3l1-1v-2h-2l-2-1-2-1h-2q-2 0-3 2-2 0-8 2h-8l-1-2q0-1 2-1t2-1v-1h-6v-2h-1l-1 1h1v3q0 3 0 3h-1v1h1v2h-2v-3h-1v-1h-1v1h-1v-1h-1v-1h2v-1h1q0-1 0-1 1 0 0-1t-1-6 0-6q1-1 2-4 2-3 4-3h1v-1h1v-1l1-2v-1h-3l-2-1h-1t-8 0q-7-1-13-2-5-2-10-2-4-2-14-3-11-1-17-1-5 1-10 2h-4v1h-1v1h-3v-1h-1v-1h-2v-2h4v-1l1-1q0-1 2-2 3 0 3-1t1 0q0 1 1 1h2v-1q0-1-2-2 0-1 0-3t4-2l4-1v-2h-6q-7-1-8-1-2-2-2-4 1-2 0-2t-1-2q0-1-7 0t-7 0v-1h-3l-2 1h-2v-1h-1v1h-1l1 1 1 1h2q1 2 4 2h3l-1 1-2 1h-7l-1-1q-1-1-4-1-2-1-3-2t-1-2q-1 0-4 0-4 1-4 2t-2 1q-1 0 0-2 0-2-6-2-6 1-10-1-4 0-5 0t-7 0q-7 0-26-1t-22-2q-4-1-5-3-1-1-3-1l-3-1h-1v-2h-2v1h-1v1h1l1 1q1 1 2 1v1h1v1h-5l-4-1q-4-1-6-1-2-1-3-3 0-2-1-2t-1 1q0 2-3 2-2 0-2 3v2h-3v-1q0-1-1-1t-1-1-4-2q-3 0-3-1v-1h-1q-2 0-1 2t1 2h-2t-2-2q-2-3-7-2-5 0-6-1t-3-1q-3 0-3-1 0-2-3-2-2 0-2 1t-2 2q-3 0-3 1 1 1-2 1-2-1-2 0 0 2-1 2h-1q-1-1-1-1v-1q0-1-1-1v-1q-1 0-1 0h-2q-2 0-4 1-1 0-1 1 0 2-1 2t-2-3q0-2-2-2t-2-2-4-1q-4 0-4 2 1 1-2 0-2 0-1-1t-3-1-5 1-2 0-2-1-7 1l-5 2v-1q1-2-2-2-2 0-1 2l1 1h-3q0-1-4 0-5 0-5-1 1-1-1-2-1 0-1 1-1 1-4 1h-5q-1 0-2 1v-1q0-1-2-2-1 0-1 1t-1 1q-2 0-2-2 1-2-8-2-10 0-11 2-1 0-1-1-1-1-6 0t-8 2h-4t-1 1h-1t-2-1q-3-1-3-2 1-1-5-1-5 0-5-1t-3-1q-2 1-2 0t-7-1q-6-1-9-3l-3-2h1q2 0 2-2v-2h-2q-2 0-2 0t-1 0v1q-1 0-1 0 0 1-1 0l-1-1h-3l-1-1h-1v-1h-1v1-3h2q1 0 2 0h2v-2h-2q-1 0-3-1-1 0-2-4t1-7q1-2 2-5 0-3 2-3 3-1 5-8l3-6v-1h1v-1h-1t-8-4-6-5q1-1-2-2-2-1-8-3l-6-2h2l-2-1-3-1h-3l3-1 3-1h119l84-1q84-1 218 0h134l25-1q25 0 26-1t2 1q2 0 30 0 27 0 54 0 26 0 26 1zm-680 65q2-3 3-2 1 0 1 2t-2 2q-3 0-2-2zm12-1l3 1h2q2 0 5 0 2 0 3 1t0 1-3 1l-2 1h-7q-1 0-1-1l-1-1h-1q-1 0 0-2 0-2 2-1zm132 15q0-1 2 0 2 0 0 0-2 1-2 0zm218 17q0-1 3 0t1 1q-3 0-3-1-1 0-1 0zm125 79h1l2-1h1v3h-5v-1q0-1 1-1zm80 26l-1-1v2h-1v1h-1q-1 0-1-4 0-3 4-2 4 0 3 4 0 3 2 3 1-1 1-3 1-2 1-1t3 1q3 1 3 4-1 4-2 4-2 0-2 1t-4 0q-5-1-5-5 1-4 0-4z" fill="#ccb791" stroke="#ccb791"/>
  <path d="m126 580v1h-2q-3 1-1 2 3 1 2 2 0 1-2 2t-2 2q-1 1-1 1v1h-4q-3-1-4-1-2 0-2 2-1 1-4 1-2-1-4-1-1-2-4-1l-3 1q-1-1-1-1h-2q-2-1-3-1h-1t-1 0v1h-1v1h-1v1h-1v-2h-1v-1h-3v-2l1-1 1-1h2q2 0 2-2 1-2-1-3l-2-1h-1v-1l1-1h3l-1 1v1l5-2q5-2 7-2t3 1q0 1 1 1 1-2 11-2 9 0 8 2 0 2 2 2 1 0 1-1t1-1q2 1 2 2zm-36 3q1-2 5-1t3 2q0 2-4 2t-4-3zm24 1q1-2 4-1 4 1 4 2t-4 1-4-2zm-31 3q1 0 1 0 0 1 0 1-1 0-1-1z" fill="#bfa97d" stroke="#bfa97d"/>
  <path d="m774 590v-1h4q0 1 3 1h7q3 0 3 1h-1q-1 1 3 3 3 3 4 5t1 7v5h-1v1h-1l-1 1h-6l-5-1-1-6q-1-6-2-8l-2-3v-1q-1 0-1 0-1 0-2-1h-1v-1q-1 0-1 0 0-1 0-2z" fill="#f3dfd7" stroke="#f3dfd7"/>
  <path d="m780 614v2q0 1-2 2h-1t-2-1h-5q-2-1-2-1h-1t-1-1v-1t3-1l3-1h1q1-1 1-2h4q1 0 2 0 0 0 0 2t0 2z" fill="#977368" stroke="#977368"/>
  <path d="m820 558v-1h1v1h10l1-1v5h1l1 11q0 11 1 13v2q-1 1-2 1h-6q-4 0-4-1l-1-1v-6q0-6-1-14l-1-8v-1z" fill="#ea222a" stroke="#ea222a"/>
  <path d="m935 534l1-23t1 3l1 3v2l1 3 1 3v1q-1 0-1 1h1v3q0 1-1 7v6l1 8q2 8 2 10v3q0 1-1 2v1h-1v1q0 1-1 4l-1 2v3h-1v-1h-1l-2-1-1-1h-1v-2l1-8q1-7 2-30z" fill="#981b18" stroke="#981b18"/>
  <path d="m1042 473h55v1q-1 0-3 1t-2 2-2 2l-2 1v2h-1v1h-1v2h-1v1h1v1h-2q-1-1-6-1h-10q-4 0-10 1-7 1-8-1-1 0-7 0l-6 1h-9l-10 1h-4q-4 0-4 1-1 1-9 1h-8l-3-1q-2-1-3-1-1-1-4-2-2 0-2-1t-7-2l-6-1h1l2-1 2-1h2-5q-2 0-6-1t-7-2l-2-1h-3l-3-1-3-1h21q21 0 75-1z" fill="#424e51" stroke="#424e51"/>
  <path d="m65 278l1 1v-1h3v-1q1-1 1-3 2-3 6-9t8-8l5-3 1 1 1 1h1l2-1h1l4-2q4-3 9-2t6 2q0 1 2 1 2 1 4 6 2 6 4 8 3 2 10 2t11-1q5-2 5-2v-1h2v-1l1-1 1-1v-1h2v2l-1 2-1 1v1q-2 2-2 3v4h1v1h5v-1h1v-1h1v-1t2-3 4-4q2 0 2-2v-1l1 1q1 2 2 1 1 0 1-1t3-1 4-1q1 0 2-1 1 0 1 0v-1h1v1h1v2q0 3 1 2 1 0 2 1 1 0 2-1 1-2 3-2l3 1 4 8q3 8 4 10 0 3 1 4 2 0 2 1t6 2q7 1 11-2 3-3 4-3v-1h1v-1q0-1 0-4 0-4-3-8t-2-5 0-2l-1-2v-1h-2v-1h-1v-1h-1v-1h-1v-1h-1v-1h1l1 1h2v1h1v1h2v1h1v1l1 4q1 3 4 6 3 2 4 4 0 1 2 2 3 2 2 7 0 5-8 9t-14 6q-5 2-6 10-1 7-7 10-6 2-12 4-5 2-17 2t-12 1l-9 3q-8 2-12 4-3 1-3 2 1 2 0 4t-2 2-2 1h-3q-1 1-10 0t-16-1l-6-1 1 5q1 5 2 6l1 1v2h-1l-1 1h-3l-5-1-5-1h-15q-10 0-14-1-5-1-8-3-4-2-8-5-5-3-7-7l-3-4v-1h-1v-1h-1l-2-1-1-1h-1v2h-1v1h-1v1h-1v1h1v1q1 0 1 1h1v1q0 1 1 1 0 1 1 1v2h1v1h1v1h-2l-1 1-1 1h-4q-3 0-8-2-4-2-9-6l-5-4v-113h1q1-1 5 2 5 2 5 3 0 2 4 4 3 1 7 4 2 4 3 6t1 4-3 6-2 6q0 2 1 2t5 6 11 8q7 0 8 2 1 0 6 0t9 3q3 2 4 3zm108-12q1 0 1 1t-1 1-1-1 1-1z" fill="#8390a6" stroke="#8390a6"/>
  <path d="m952 528h6v4q1 4 4 5t2 1-1 1v1q-1 0-1 1t-7 0l-7-1v-1l-1-1q0-2 2-2t1-2v-4q1-2 2-2z" fill="#5a493a" stroke="#5a493a"/>
  <path d="m148 581v1q0 2 1 4v1h-2v1q-1 1-1 2h-3v1h-1q-2 1-2 1h-1q-1 0-2 0-1 1-2-1t-1-1v1h-2t0-1q0-2 1-6 0-3-1-3l-2-1h3q3 0 4-1 0-1 1-1 2 1 1 2 0 1 5 1 4-1 4 0z" fill="#bfa97d" stroke="#bfa97d"/>
  <path d="m114 584q1-2 4-1 4 1 4 2t-4 1-4-2z" fill="#b39d71" stroke="#b39d71"/>
  <path d="m940 465h1q0 1 1 1h1v4l1 3v1l-1 7q-1 7-1 13v5l-1 6q-1 6-1 13v7l-1-3-1-3v-2l-1-3q-1-3-1-3v-3q0-4 1-6v-10q1-7 1-17 1-10 2-10z" fill="#b12422" stroke="#b12422"/>
  <path d="m187 647l1-1h3q3 0 5-1h3v1q-1 1-4 3-4 1-6 1-3-1-2-3z" fill="#9b865e" stroke="#9b865e"/>
  <path d="m460 476v-2h82q83 0 85 1h2v1q-1 0-3 1t-3 2l-2 1v-1q-1 0-4 0-4 1-9 1-6 0-11 1t-6 1-2 3q-1 2-12 3h-13t-15-3-28-4-35-2-24-1q-1-1-2-2z" fill="#34454b" stroke="#34454b"/>
  <path d="m884 416h13v1l-1 1v1q0 1-2 1t0 2q2 0 2 1h-2q-1 1-42 0l-42-1 3-2q3-2 4-2v-1l30-1q30 0 37 0z" fill="#d79a95" stroke="#d79a95"/>
  <path d="m964 550l2 1 1 19q1 19 2 24v10q0 3-3 3-2 0-2-3l-1-4v-12q-1-13-1-13v-13q0-12 2-12z" fill="#bc2b24" stroke="#bc2b24"/>
  <path d="m256 217v-1h2v1q0 1 1 1t1 1q-1 1 0 1h2l2 5q2 5 4 7t11 1 12-2 7-4 10-3q5 0 14 4 9 2 12 3 4 0 6 1t3 0q1-2 3-2t4 0h1l-4 4q-3 4-5 9 0 5 1 9 2 4 5 6 4 4 11 3t11-5q5-4 6-5l1-1h1v-1h1v-1h1v-2h1v-1h1v4l-1 1-1 1-1 3q-1 4 3 7t4 5q2 3 2 6v3h1v1h3l1-2q1-2 5-2 3 0 5-1l2-1h5v1h-2l-1 1h-1l-2 1h-1l-3 5q-2 6 0 16t7 13q4 3 18 4t17 1q3 2 4 2v2q0 2 0 2h-1v1h1v3h-1v1h-1v3h1q1 1 0 1v1h3q2 2 4 2h1t0 10q-1 10-2 11t-14 1h-17q-3 0-12 0-8 2-14-4-5-6-14-6t-11 2q-1 2-4 1-2-1-7 0l-5 1h-3q-1 0-2-1t-6 1q-5 0-26 3-22 3-22 2t-9-2-16-1-7-1q1-1-1-1t-3-2q-2-1-24-2-22-2-26-4-5-2-21-2t-15-1-2-1-6 2l-4 2h-2v-2h-1v1h-1v1h-2v1-6h1v-1h2v-1q1 0 2-1 2-2 2-3v-2q0-1 12-1t17-2q6-2 12-4 6-3 7-10 1-8 6-10 6-2 14-6t8-9q1-5-2-7-2-1-2-2-1-2-4-4-3-3-4-6l-1-4v-1h-1v-1h-2v-1h-1v-1h-2l-1-1h-3q-2-1-3-1t-8-2-11-6l-4-2-1-1-1-1h-2v-2h1v-1h1v-3l1 2 1 3v1h4q3 0 9 1 5 1 11 1 4-1 5-2 0-1 4-2 4 0 3-2 0-2 3 0 3 0 7 3t6 3q1 2 5 2t6-1h2v-1l1-1v-2q0-2 1-3 1 0 1-10v-11z" fill="#6486b1" stroke="#6486b1"/>
  <path d="m676 390h10q5-2 10-2 4 0 16 0 13 0 19 0t11 0h5v1l-1 1v3h1v1h1v3h-1v1h-1v1h-1v1h-7q-6 0-7 1h-1v2h-1v1h-1l1 1 1 1h2v1h-1v1h-1v1l-1 1v2l11-1q10-1 11 0t5 3q4 1 4 1v-1h2v1l1 1v1h1l1 1h-1v2h-1v1h-1v1h-1v1h-1v1h-1v1h-1v1h-1v1h-2l-1-1 1-1 1-1v-1h-1v-1h-1l-2 1-2 1-1 1q-1 1-1 3 0 1-2 1-1 0-1 1-1 1-3 2-3 0-12 1-10 1-28 1h-19v-1h-1v-5h7v-1h1v-2h-1v1h-1v-2h-1v1h-1v-1h-3v-1h-1v-1h-1q-1 0-2 0t-11 0q-10 1-10 0t-12-1q-13 1-22-1l-10-2h-4v-1h-1v-1h1v-2h1v-1h1v-1h9l-3-1-2-1h-4q-3 0-4 0-2 0-5-1t-6-3q-3-1-3-3t-3-2-3 1-1 2l-1 1v-1q0-2-2-2t-1-1-2-2q-2-1-7-3-6 0-10-2l-4-2v-1h-1v-1h-1v-1h-1v-1h-1v-4l-1-1v-1h1v1h1v1h2l1 1 1 1h1l6 3q6 3 10 2 3-1 4-1 2-1 4-5t2-6q1-2 7-3 6 0 13 4 6 4 9 5t10 4q6 3 13 3 6 0 8-1 3-1 6-1t4 1 2-1q1 0 6 0 4 2 5 1t5-1z" fill="#93a0b0" stroke="#93a0b0"/>
  <path d="m221 0h378q-1 1-2 2-1 0-5 5-3 5-5 8-2 4-5 5l-3 2h-2v1h-1v2h-1v1h-1t-4 3q-3 3-13 1t-16-2-12 3-9 6q-2 3-7 3t-23-1q-17-1-22 1-6 2-16-2-11-4-18-6-8-2-12-1-3 1-3 2 0 2-1 2t-1 1q-1 1-2 2-1 0-1 7v7h-2v1h-1v1h-3q-2 0-4-1-3-1-5-4l-2-2h-1l-1 1q-1 0-1 1t-2 1q-1 0-2 2 0 2-1 5t-3 3q-1 0-8 1-8 1-9 3t-4 3q-2 1-7-2-4-2-11-5-7-2-13-3t-9-3-5-5q-3-4-4-5-2 0-13-4t-17-5h-9l-2-1h-2q-2 0-6 0t-11-2q-6-2-14-1-7 1-18 2t-12 0q0-1-3-2l-2-1v-1h-1v-6h-1v-1h1l2-2q2-1 3-2 0-1 1-1 2 0 2-1 1-2 2-2 2 0 2-1 1-1 0-2-2-1 2-2 3-2 4-3 0-2-2-2-1 0 2-2 2 0 0-1-3-1-3-1z" fill="#637594" stroke="#637594"/>
  <path d="m376 238h2v1h1v1h1v3l1 1v2h-1v2h-1v1h-1v1h-1l-1 1q-1 1-6 5-4 4-11 5t-11-3q-3-2-5-6-1-4-1-9 2-5 5-9l4-4 1-1q1-1 6 0 4 0 5 1 1 2 6 4 5 3 6 3 0 1 1 1z" fill="#a4aec0" stroke="#a4aec0"/>
  <path d="m634 10l-1-10h92v4q-1 4 0 5l1 1 2 2q3 1 4 3 1 1 5 4t8 7q5 5 6 10t2 8l1 2v7q0 5 0 5 0 1-1 1-1 1-2 2t-2 1q-1 1-1 2t-4 3q-4 1-15 3-11 0-17-3-5-3-16-9-12-6-18-13-5-7-20-12-16-6-16-7t-2-2q-2 0-3-2t-3-12z" fill="#aaafc0" stroke="#aaafc0"/>
  <path d="m822 592h6l4 2q4 2 6 4 0 3 1 8v6h8v1h-1q0 1-1 2l-1 2v-1t-1 0h-28v-4h10v-1l1-1v-6l-1-3q-1-3-3-5l-2-3v-1t-1 0 3 0z" fill="#a42324" stroke="#a42324"/>
  <path d="m185 756h2v4q0 4 1 4t2 0h1l-1 1q0 1-2 2-1 1-1 1h-25q0-1 1-2 0-1-1-1l-1-1q-1 0-1-1v-1h6q5 0 5-2 0-1 6-2 6-2 8-2z" fill="#ab966e" stroke="#ab966e"/>
  <path d="m894 414h-1 9q8 0 18 2 11 0 14 1h2l-1 1q-1 0 2 1t3 2-1 2v1h-23q-19 0-20-1 0-1-2-1-2-2 0-2t2-1v-1l1-1v-1h-5t1-1 1-1z" fill="#ce9695" stroke="#ce9695"/>
  <path d="m752 532h7l-1 2q0 2-1 2-1 1 0 6 1 4 2 4t1 1-2 2q-1 1-2 1h-4q-1 0-4-1h-2v-1h4v-3h1v-1h1v-4h-1v-1h-1q0-1 0-3v-3q1-1 2-1z" fill="#7d6e64" stroke="#7d6e64"/>
  <path d="m644 137l-1-1h-7l-1 1h-1q-1-1-2-1-2-1-6-6l-3-5v-1l1-2 1-3q1-3 5-11 4-7 5-10 1-2 1-4v-3l2-2q2-1 2-2h1v-1h1v-3l3-3q2-4 5-3t6 2 8 7q4 6 5 7t7 3q5 2 6 3 2 1 5 0 3 0 3 1t3 3 7 7 4 9q-2 4-8 8-7 5-14 9-6 4-12 5-5 1-11 1t-9-2q-4-2-6-3z" fill="#a6adbd" stroke="#a6adbd"/>
  <path d="m625 106h1v1q0 1-3 3-2 2-3 4v6h2v5h1l3 5q4 5 6 6 1 0 2 1v1h3v1h1v1h1l2 2q3 1 4 4t4 4q3 0 4 1 0 1 3 0 4-1 20-2 15-1 24-2t16-5q6-4 17-8t17-8 6-5 1-1h1v-6l-1-1q-1-1-3-3l-3-2h-1l3-1 3-1 4 1q3 1 5 2t7 3q6 1 9 2t4 6q1 4 1 4 2 0 2 2 0 1 0 2v1l-1 1-1 1v3q0 1-6 4-4 2-10 5t-18 5l-12 2h-2v3q0 2 2 3 2 2 1 2-1 1 0 2t1 4q0 4-1 8t-8 11q-6 7-13 7-6 0-11 2-5 1-7 8-2 8-14 15-13 7-13 8t-1 1h-1v1l1 1v2l-1 1-1 1v1h1v1h2v2h-2v-1h-1v-1h-4l-2-1q-2-1-4-1-1-2-3-11-1-10-8-16t-7-6q-2 0-3 1-1 0-1-3t-4-7q-4-3-8-4-5-2-5-3t-3-2q-2-1-5-5t-5-7q-3-3-7-1-4 0-7 3-3 2-5 5-2 2-7 3-4 1-8-1-3-2-10-2h-14 1l1-1h1v-1l1-1v-1h1l2-2q3-1 5-4t2-12q2-8 2-8v-1h1v-1h1l1-1 1-1h1-9v1h-1q0 1-1 1-2 2-3 4t-3 2q-3 0-7 2t-9 1q-6-1-11-5-5-6-5-7-1-2 0-2t1-1v-1h-2l-2-1h-2v-1h-1v-1l5 1q5 1 9 3 5 2 13 2t12-2 8-4 3-3q0-1 11-4t15-5q3-2 7-2 4-2 7-2t3-1 3-1q2 0 4-1t2-1l2-3q2-3 3-3z" fill="#6e83a8" stroke="#6e83a8"/>
  <path d="m620 13v-13h13l1 10q2 10 3 12t3 2q2 1 2 2t16 7q15 5 20 12 6 7 18 13 11 6 16 9 6 3 17 3 11-2 15-3 4-2 4-3t1-2q1 0 2-1t2-2q1 0 1-1 0 0 0-5v-5l1 1 1 1v1h1v1h1v2h1v1h1v1q0 1 1 2t-1 10q-2 8-4 12-2 5-9 10l-7 6-1 1-1 1v1l1 1 1 2v1h1v1h1l1 1 1 1h2q2 2 3 2h2l3 2q2 2 3 3l1 1v6h-1q-1 0-1 1t-6 5-17 8-17 8q-7 4-16 5t-24 2q-16 1-20 2-3 1-3 0-1-1-4-1-3-1-4-4t-4-4l-2-2h-1v-1h-1v-1h-3v-1h1l1-1h7l1 1q2 1 6 3 3 2 9 2t11-1q6-1 12-5 7-4 14-9 6-4 8-8 0-4-4-9t-7-7-3-3-1 0q0 1-1 1t-1-1-1-1q-2 1-4 0-1-1-6-3-6-2-7-3t-5-7q-5-6-8-7t-6-2-5 3l-3 3v3h-1v1h-1v-1l-1-2-1-2v-4q0-2 2-4 0-2 1-11t-1-13-5-5l-2-1-1-1h-1v-2h1l1-1h-1q-2 0-4 1-1 1-1-1 0 0-3-1-4 0-5-5-1-6 0-7t1-14z" fill="#8d98af" stroke="#8d98af"/>
  <path d="m794 422h16l42 1q41 1 42 0h2q1 1 20 1h21q2 0 2 0h1t1-1h1v1t-2 2l-1 1h-1v2h-1v1h-2v1q-1 0-5 2-4 3-20 5-15 2-72 2-58 0-59-2l-1-3-1-6q-1-6-1-7h1q1 0 17 0z" fill="#e91f26" stroke="#e91f26"/>
  <path d="m968 99v-1l9 4q9 4 23 6 13 2 14 4 0 1 2 1h1v2l-1 2v1h-1q-1 0-1 1 0 0 0 1 1 0 0 1-1 0-1 1-1 2-2 3l-1 1h-1v1h-1v3l-1 1v1h4v1q0 1-7 1-7 2-13 4-5 3-14 5-9 1-15 1t-18 0h-13l-1 1h-1v-2h1v-1h-2v-1h1v-1h1v-1l3-1q3-2 3-6 2-4 1-4v-1h-1v-3h-1v-1h-1q0-1-2-3-3-2-8-2t-10 2q-4 2-11 3l-7 1-2-1h-3v-1l7-1q7-1 12-4t6-3h1v-1h1v-1h3l-3-1h-4v-1q0-1-1-1l-1-1h2q3 0 2-1l-2-1h-2l6-1 5-1h-1l-2-1q-1-1-3-1h-2l1-1 1-1h1l8 2q7 0 14 3 8 3 10 3h12-2v-1h-1v-1h-3l-1-1-1-1h-1q-1 0-4-2-3-1-12-4l-10-2-1-1-1-1h-1l-3-1-3-1h14q14 0 21 2 7 3 11 4 4 2 4 1z" fill="#73819f" stroke="#73819f"/>
  <path d="m925 610h21q3 0 8 1h6q0 1 2 1h2v-1h2q2 0 2 1l-1 1q-1 1-2 5v3h-1v-3q0-3-3 1t-8 4q-5-1-7-5-1-5-7-5h-6q0-1-1-1h-1v1h-2q-1 0-1-1t-1-1h-1q-1-1-1-1z" fill="#4d2c19" stroke="#4d2c19"/>
  <path d="m922 674h5l4 2q4 2 4 2h-7q-7 0-12 1l-5 1v-1q1-1-7-2l-8-1v-1h10q11-1 16-1z" fill="#aa987e" stroke="#aa987e"/>
  <path d="m128 580h2l2 1q1 0 1 3-1 4-1 6 0 1 0 1l-3 1q-3 0-3 1v1h-2q-2 0-3-2l-1-1v-1t1-1q0-1 2-2t2-2q1-1-2-2-2-1 1-2h2q1-1 2-1z" fill="#baa377" stroke="#baa377"/>
  <path d="m859 559v-1h5q6 0 6 1t1 1l1 14q2 14 6 14 3 0 3 1h-2l-2 1h1v1h-1q-1-1-3-1h-4q-3 0-7-1h-4 1v-6q0-6-1-15l-1-8q0-1 1-1z" fill="#fae8e6" stroke="#fae8e6"/>
  <path d="m1047 175h5q0 1-8 3t-14 7q-7 5-14 6l-6 1h-2q-1 0-4 2t-8 9q-4 7-4 17t0 20v10l1 1 1 1 1 1 1 1h1l1-1 2-1 14-8q13-8 14-8h1t1 1h2v2l1 1 1 1v1l-1 5q-1 5-1 6t-6 8q-5 7-16 14-12 7-16 12t-10 8q-7 3-8 5 0 2 0 8 2 5 5 16l3 11v1l-1 1-1 1v4l-1 1-1 1v-7h1v-1q1 0-1-3t-5-6-6-7-4-5-1-2 0-3q0-1-9-5-9-3-10-5-1-1-7-2-6-2-7-5-1-4 0-5l1-2h-6q-2 0-6 4-3 4-10 4-6 0-11-3t-11-3h-6t2-1q1-1-4-1-6 0-14 0h-9l-3-1-3-1h2l3-2q3-2 4-2h2v-1h1v-1h1-10v-1h1v-1h2l3-2q3 0 4-1h1v-1l1-1v-1h1l1-1 2-1h-6l-1 1-1 1t-2 1l-1 1h-2v1h-1v1h-4l1-1 1-1h2v-1h1v-1h2l7-4q6-3 6-4 1-2 6-2 4-2 13-3 9-2 12-10 4-9 7-11 4-2 4-2v-1l1-1 1-1 1-3q2-2 9-8 8-4 18-7 9-3 14-6 4-3 10-4t6-3q0-3-1-4 0-2 1-2 2-1 2-2v-1h1l1-1h1l1-1h3v6h1l1 1h1v1h1v-1h2l1-2q2-2 5-4t3-3q1-1 12-3 12-1 16-4 5-2 10-4 6 0 11-1z" fill="#a5adc0" stroke="#a5adc0"/>
  <path d="m775 677h1v2q0 1 2 1 1 0 2 0h2t2 1l1 1h5q4 2 4 2-1 0-6 1l-4 1h-4q-1 0-1 1h-1q0 1 0 1-1 0-1 1h-1q-1 1-4 1h-4v-1h3l3-1h-3l-1-1h-2v-3h1q1 0 1-1h2q1 0 2-3 0-3 1-3z" fill="#968570" stroke="#968570"/>
  <path d="m765 442v7q-1 6-1 7v2h-1q-1 0-8 5l-7 5h-2l-1 1h-2v-1q-1 0-1-1t-1 0q0 1-2 1-1 0-5 0h-4v-4h-1l2-7q2-7 9-15 6-6 9-9t3-3h1v-1h1v-1h2v-1h1v-1h1v-1h1q1 0 1-1 0 0 1 0v-1q1 0 1-1l2-1q2-1 2 9 0 11-1 12z" fill="#9f181d" stroke="#9f181d"/>
  <path d="m777 602l1-8h1q1 0 2 3t2 9l1 6 5 1h5q0 1-2 1h-2v1h-1v1h-2q-2 0-3 0t-2 0l-2-1v-1t0-2 0-2q-1 0-2 0h-2t1-8z" fill="#a22825" stroke="#a22825"/>
  <path d="m940 530v-1h1v1h1v2l1 1v1l3-1q3-1 4-1v2q1 2-1 2t-2 2l1 1v1h-1q-1 0-4-1h-3v2q0 2-1 2v-6q1-6 1-7z" fill="#7e5846" stroke="#7e5846"/>
  <path d="m666 231l2 1h4l1 1h1q0 1 0 1h1l9 4q8 5 9 8 1 2 6 5t5 4 1 1v1h1v6h1v1h1-4l-1-1q-1-1-3-1h-3l-1-1-1-1h-1v1h-1v1h1v1l1 3 1 2v3-1h-2l-2-1q-2-1-4-1-3 0-8 4l-4 4h-1v1q-1 0-1 1l-1 2 1 1q0 1 1 3t1 3q1 1 2 1h2v1l1 3v2h-1v-1h-1v-1h-5q-5 0-10 0t-5-2q-1-2-4-6-4-4-7-8-2-4-10-12-8-7-26-11-18-3-34-6t-19-3l-3-2h-1v-1h2l2-1h-1v-1h-1v-1h1v-1h-1v-1h1v-1h-1v-1h-1t-2-3-6-13q-4-9-10-15-8-6-8-9t-2-2q-1 0-7 0l-6-2h-2v-1h-1v-1h-2v-2h2v1h1v1h1v-1h1v-1h1l3-4q3-2 9-4 5-1 5-2 0-2 3-3 2-1 7-1t6 1 2 1h2q1 0 1 0h12q7 0 10 2 4 2 8 1 5-1 7-3 2-3 5-5 3-3 7-3 4-2 7 1 2 3 5 7t5 5q3 1 3 2t5 3q4 1 8 4 4 4 4 7t1 3q1-1 3-1 0 0 7 6t8 16q2 9 3 11 2 0 4 1z" fill="#99a4b6" stroke="#99a4b6"/>
  <path d="m139 592v2l-1 1h-2q-1 0-1 1t-2 2q-2 0-1 1 0 1 0 1h-1l-1 1h-2v2h-1l-1 1h1v1h1v1h1q1 1 1 1 0 1 0 1h1q-1 1-1 2v1h-4q-4 1-8 2t-4-1q0-1-6-1-5 1-10 1-4 0-5 2t-5 2q-3 0-4 1 0 1-3 1h-3v1h-1v1h-1l-3 1h-3v-1h4v-1h1v-1h1l2-1q1-1 3-1t2-1 1-1 0-1q-1 0-1-1 1-2 2-2 1-1 1-2t1-4q2-3 3-3t0-3l-1-3h1q2-1 3-1t1-2v-1h4q5 1 8 1 3 1 4 0 0-2 2-2 1 0 4 1h4l1 1q1 2 3 2h3t4 0 3-2v-2q0-1 1 1t2 1q1 0 2 0zm-44 10q-2 0 0-1 2 0 2 1t-2 0z" fill="#b8a278" stroke="#b8a278"/>
  <path d="m799 465h1q0 1 0 1h4q1 0 1-1h1l1 1h1q1 0 3 18 3 19 3 20v2q-1 0-2-2-2-2-2-2-1-1-2-1h-2v3q0 2-2 0 0-1-1 4l-1 4v-4l-1-4q-1-5-2-22t0-17z" fill="#7b3c2f" stroke="#7b3c2f"/>
  <path d="m50 566q2-3 3-2 1 0 1 2t-2 2q-3 0-2-2z" fill="#b29d75" stroke="#b29d75"/>
  <path d="m758 675h2q0 1 0 1h1t1 1q0 1 0 1h1l2 2q2 2 3 3h2q0 1-1 1h-1v3h2l1 1h3l-3 1h-4l-1-1h-1t-3-2-6-6l-3-4h-1q-1 0-2-1l-1-1h1q0-1 0-2-1-2 3 0t5 3z" fill="#80634d" stroke="#80634d"/>
  <path d="m58 580h2l2 1q2 1 2 3 0 1-4 2-4 0-4-2 1-3 2-4z" fill="#a59065" stroke="#a59065"/>
  <path d="m926 286h6l-1 2q-1 1 0 5 1 3 7 5 6 1 7 2 1 2 10 5 9 4 9 5 0 2 0 3t1 2 4 5 6 7 5 6 1 3v1h-1v11q0 3 0 4v3h-1v1h-2q-2 0-2 1l-1 1t-2-1q-3-1-3-3-1-1-3-1-2-1-3 1t-2 1-5-2q-4 0-6-2-1-1-6-1-4 1-5 4-1 2-2 6t-2 4-1 2q0 3 0 8 1 6 0 6t-1 1q-1 1-4 3l-3 2h-1l-1 1-1 1h-1v1h-1v1h-1v1l-1 1h-5v-1h1v-1h1v-1h1v-1h1v-1h1v-1h1l4-4q4-4 4-5h1v-1h1l-1-1h-1v-2l-1-1-1-1v-1h-1v-1h-1v-2h-1q-1-1-5-1-5 0-7 1-1 2-4 3-3 0-3-1t-4-3q-3-2-7-3l-4-1-1 1-1 1-2 1q-3 1-3 3t0 6v6h-2v-3l-1-3q-1-4-1-8-2-3-2-4-1 0-2-4-2-4-7-8t-17-7l-11-2v-1l-1-1v-5h-2v-1l1-1q0-1 3-2 3 0 5-4 1-3 2-6 0-2-1-9-2-6-2-7-2-1-1-2l1-2v-2l1-1v-1l5-1q4-1 10 1 5 0 6-1 2-1 8-4t7-3h7q6 0 11 3t11 3q7 0 10-4 4-4 6-4z" fill="#abb2c1" stroke="#abb2c1"/>
  <path d="m795 570l-2-14h1q1 0 6 1h6q0 1 0 1h1l1 16q2 16 1 16h-4l-4-1h-4v-2q-1-2-2-17z" fill="#e92329" stroke="#e92329"/>
  <path d="m972 162h5v1h1l-1 4q-1 4 2 8 2 5 3 6 0 1-1 2t-1 2 0 3v1l-1 1h-1l-1 1h-1v1q0 1-2 2-1 0-1 2 1 1 1 4 0 2-6 3t-10 4q-5 3-14 6-10 3-18 7-7 6-9 8l-1 3-1 1-1 1v-4h-1v-1h-1q-1 0-2-1-1 0 0-1v-2h1v-1h1v-3h-1v1h-1v1h-2q-1 0-3 0t-4 2l-1 1-1 1-1 1v-1h-1v-1h1v-1q0-1 0-3t-8-6q-6-4-19-11-12-7-12-8t-2-2q-2 0-2-1-1-1-2-1-1-1-1-2t-3-2h-3v-1l1-1v-1h1l2-1h2v-1h1v-1h1v-1q0-1 6-1t7 2q1 0 13 0t14-1h1v1h2q1 1 1 1v1h5l2 1q2 1 4 1 1 0 1-2 0-3 4-3 4 1 8-3 5-2 10-4 4-1 6-2t2-2l2-2q2-2 9-2 7 2 13-1t8-3z" fill="#7188b1" stroke="#7188b1"/>
  <path d="m162 727h5v3h-4l-6 2q-6 2-9 4t-4 3v-1t0-1v-1l1-1v-1h1t0-1q1-1 1-1h1t0-1l4-2q5-1 10-2z" fill="#937d55" stroke="#937d55"/>
  <path d="m849 595l-3-4h4l3 1 5 1q6 2 6 5 2 2 2 8v5h1v1h4l-1 1-2 1h-1q-1 0-9 0h-8v1h-1v-1h-1v-1h-1v-1h5v-7q0-6-3-10z" fill="#c02829" stroke="#c02829"/>
  <path d="m868 638h2q1 0 2 0h2v4h-12l-1-1q-1-1 3-3 3 0 4 0z" fill="#baab99" stroke="#baab99"/>
  <path d="m948 432l-2 16q-2 16-2 17-1 1-1 1h-1q-1 0-1-1t0-7v-6t1-3q0-2 1-9v-7l1-1q0-1 2-1 1 1 2 1z" fill="#cea499" stroke="#cea499"/>
  <path d="m948 419h1l-1 6q0 7 0 7-1 0-2-1-2 0-2 1l-1 1v-2q-1-2 0-4l1-2 2-1q1 0 0-2 0-3 2-3z" fill="#bd6f66" stroke="#bd6f66"/>
  <path d="m850 589v-1h1q1 0 5 1h7q4 1 7 1h3l3 4q4 4 4 10v7h-4l-3 1h-6v-1h-1v-5q0-6-2-8 0-3-6-5l-5-1-3-1h-2q0-1 1-1t1-1z" fill="#f5dfd8" stroke="#f5dfd8"/>
  <path d="m833 671h1v1l-1 1v1h2l4 1q3 1 3 2-1 1-1 1h-14q-5 0-11 1h-16l-10 1h-10q-1 0-2 0-2 0-2-1v-2q0-1 0-2l1-1h1v-1h1v-1h27q26-2 27-1z" fill="#cdba9b" stroke="#cdba9b"/>
  <path d="m782 2v-2h77q3 1 1 6-2 6-1 12t1 11-1 5 0 1h-1q0 1 0 1-1 0-2 1t-2 6q0 5-3 7l-3 1v1h-6q-2 0-6-5-3-5-4-7-2-3-3-3-1-1-6 1l-5 1h-1v1h-1v2h-1l-1 1h-1v-1h1v-7h1v-1h1l4-2q4-1 6-6 2-4 4-6 1 0 1-1h1v-1l1-2 1-1v-3h-8q-2 0-8-1-5-1-6 4 0 4-1 5-1 0-5 2h-6q-1 0-2-1 0-2-3-2t-1-1q2 0 0-2-2 0-2-2v-4h-1v-1h-1v-1h-2l-1 2q-1 2 0 2h1l-2 1h-2v-3l-1-2q-1-3-1-6z" fill="#5b719e" stroke="#5b719e"/>
  <path d="m731 622l1-3v1h3v3h1l2-1h1v2l1 2v7h1v1h1q2 0 2 1h1v1q1 1 1 1v3q0 4 1 4 1 1 1 2v4q-1 2-2 2 0 0 0 2t-1 6l-1 3v1h-1v-1h-1v2l1 1v1h-1v-1h-1v-1h-1v-2h-1v-1q-1 0-5-1t-4-4-1-3h-1v-2q0-2 1-14l1-13 1-3z" fill="#a61c1c" stroke="#a61c1c"/>
  <path d="m951 667v-1h1q1 0 2 2 0 2 2 2 1 0 5 1h4q0 1 1 1v1q0 1 1 2v1h-1q-2 0-4 1h-2q0-1 0-1t-4-1l-4-1h-2q-2 0-4-1h-3v-1h4l-1-1h-2v-2l4-1q4 0 3-1z" fill="#bba687" stroke="#bba687"/>
  <path d="m888 363l1-1 4 1q4 1 7 3 4 2 4 3t3 1q3-1 4-3 2-1 7-1 4 0 5 1h1v2h1v1h1v1l1 1 1 1v2h1l1 1h-1v1h-1q0 1-4 5l-4 4h-1v1h-1v1h-1v1h-1v1h-1v1h-1v1q-1 0-3 1t-9 1-8 0-4-3q-3-3-6-7l-2-4q0-1-1-1v-5q1-4 1-6t3-3l2-1 1-1z" fill="#c3c6cd" stroke="#c3c6cd"/>
  <path d="m544 332h2l2 1h1v2h2l1 2q2 1 3 2 1 0 1-1 1 0 4 1 2 1 5 2l3 1h3l-2 1q-2 1-2 1 1 0-2 0l-2 1v1l1 1v1h1v1h1v1h1v1h-1q-1-1-10 0h-10v1h-3v1h-1v1h-2v-2h1v-1h1v-1h1v-1q0-1 1-2 0-2 3-3 2-2 1-5l-1-3v-1h-1v-1h-1t-1-1q-1 0-1-1t1 0z" fill="#8e9eb3" stroke="#8e9eb3"/>
  <path d="m780 461v-1l8 1q7 1 10 2t3 2v1h-1q-2-1 0 16 0 17 1 22l1 4v4l2 18q2 19 2 23v4h-12v-1h-1v-1l-1-1v-12q0-8-3-32l-3-25v-4q0-4-1-10t-3-8l-2-2z" fill="#690708" stroke="#690708"/>
  <path d="m894 675h2v1h8q8 1 8 2v1q-1 1-1 1h-3q-4 0-5 1t-10 0l-9-1 2-1h1v-2h-3l-4-1h6q6 0 8-1z" fill="#97866d" stroke="#97866d"/>
  <path d="m846 613h2v1h1v1h1v-1h8q8 0 9 0h1v12q0 11 1 11 1 1 1 1h-2q-1 0-4 0-4 2-3 3l1 1-1 1v1h-3l-2 1h-4v-1h1v-1h1v-1l1-1q1-1-2-2t-4-2-1-5q0-3-2-2h-1v-5q-1-5-1-7l-1-2h1q1 0 2-1 0-1 0-2z" fill="#938065" stroke="#938065"/>
  <path d="m772 639h1v6q1 6 1 14v8l1 3 1 4h1l-1 1q0 1 0 2h-1q-1 0-1 3-1 3-2 3h-4q-1-1-3-3l-2-2q-1-1-1-1v-1t-1 0q-1-1-1-1v-3q0-3 1-12v-8h2q2 0 2-4v-3h1q1 1 3-1 1-2 2-4 0-1 1-1z" fill="#b02522" stroke="#b02522"/>
  <path d="m1071 487l1-1h6q5 0 6 1h4q0 1-4 1-3 0-3 1v1h3q3 0 3 1t1 2q2 1 2 1h1t-9 0q-9-2-10-3 0-2-1-3-1 0 0-1z" fill="#6f7874" stroke="#6f7874"/>
  <path d="m939 673h7q2 1 4 1h2l4 1q4 1 4 1t0 1h-6q-5 1-12 1h-7t-4-2l-4-2h4q4 0 8-1z" fill="#ab997d" stroke="#ab997d"/>
  <path d="m806 504v-3h2q1 0 2 1 0 0 1 1t1 1h1v1q1 1 1 1l2 21q2 21 3 25l1 4v3q-1-1-7-1h-7t0-1v-4q0-4-2-23l-2-18 1-4q1-5 1-4 2 2 2 0z" fill="#9b7067" stroke="#9b7067"/>
  <path d="m740 586v-4h2q1 0 1 2 1 2 1 5v3h1t1-3l1-2h1l-1 5q-1 6-3 7t-2 1q-1 0-2-2 0-1-2-1-1-1-2-2l-1-1v-2h1v-1h1v1h2v-1h1v-5z" fill="#aa5c4c" stroke="#aa5c4c"/>
  <path d="m766 468l1-1 1 1q2 0 2 12v11h1l-1 19q-2 18-2 20v1q-1-1-5 0l-4 1q-1-1-1 0h-4v-2q0-2 0-4 0-1 0-2 1-2 0-7 0-5 0-9l1-3v-11q-1-1 0-4v-3q0-1 1-1 0 0 4 0 3 0 4-8 0-9 2-10zm-9 20t0-1q1 0 1 1 0 0-1 0z" fill="#aa1718" stroke="#aa1718"/>
  <path d="m928 139h2v1h-1v1h-1v1h2v1h-1v1h-3q-2 0-8 4l-5 3h-1v-1q-1-1 6-5 6-5 8-5 1 0 2-1z" fill="#778cb3" stroke="#778cb3"/>
  <path d="m160 594v2t1 0v1h1v1l3 1q3 1 5 3 2 3 1 4t1 2q0 1 1 0 0-1 3-1l4 1h-1v1h-1v1h4l1 1h1v2h-1v-1h-2v1h-1l-1 1h-2q-1 0-4 0-3 2-3 0-1-1-6 0-4 0-4-2-1-2-8 2-8 3-8 2 0-2-2-2t-2-2q0-1-3-1-3-1-3-1 0-1-2-2h-2t0-1-1-1h-1v-1h-1v-1h-1l1-1h1v-2h2l1-1h1t0-1q-1-1 1-1 2-1 2-2t1-1h2v2h2l1-1h2q2 0 2-1t-2-1-2-1 3 0q4 1 3 2 0 1-1 2 0 1 2 1t2 2q0 1 1 0 1 0 2-1t1-2q-1-1 2-2 4-1 4-1z" fill="#b9a379" stroke="#b9a379"/>
  <path d="m90 583q1-2 5-1t3 2q0 2-4 2t-4-3z" fill="#b39c70" stroke="#b39c70"/>
  <path d="m234 370h9v1h-1v4l-1 3q-1 4-1 6 0 1-2 0-2 0-5 6t-5 6-4 0q-1 0-8 0-8 0-10-2-3-2-6-3-4-1-5-7-1-5 2-7 3-1 3-5 1-4 13-3t21 1z" fill="#c1c6cd" stroke="#c1c6cd"/>
  <path d="m823 467v-1h3l3 1q3 1 4 2l1 1 2 16q2 17 3 19v2q-1 0-1-1t-1-1q-1 1-1 0-1-1-2-1-2 0-4 0-1 0-2 5v5l-1-3-1-3v-4q0-5-2-21l-2-16h1z" fill="#7d3f32" stroke="#7d3f32"/>
  <path d="m1088 487l8 1q7 0 8 1h1q0 1 1 1h1l1 1 2 1h-1l-1 1-1 1h-17t-2-1q-1-1-1-2t-3-1h-3v-1q0-1 3-1 4 0 4-1z" fill="#898f8f" stroke="#898f8f"/>
  <path d="m896 560v-1h1l1 1h1l1 1v5l1 1v1h4q5 1 4 2-1 2-1 2-1 0-3 1t-2 2-1 1h-1v1h-1v9h1l1 1h1v1h-3v-1l-1-3-1-2v-4q0-5-1-11l-1-6v-1z" fill="#d7262f" stroke="#d7262f"/>
  <path d="m904 667v1h-4q-5 0-5 1h-24v-2h1l1-1h1l1-3q2-3 7-2 4 1 4 0t4 0q3 1 4 3 0 2 5 2t5 1z" fill="#6a5b44" stroke="#6a5b44"/>
  <path d="m195 600h3q2 0 2 1t-2 2 0 1 6 1 4 2q-1 1 2 1t3 1-1 1q0 1 3 2 3 0 4 1h2q1 0 1 1v1h-1v1h-1v1h1v1h1l-2 1-1 1h-1v1q0 1-2 1-1 0-2 2-2 2-6 2-3 0-3 1t-6 0-7-2q0-1-3-1h-3v2h-2v-2l1-1q0-1 1-1t0-1 0-1q1-2-2-2-2-1-2-2t0-2l-1-1v-1h2v1h1v-2h1q1-1 0-1t0-2 3-2h5v-1q1 0 1-1t-1-2l-2-1h2l2-1z" fill="#bca67c" stroke="#bca67c"/>
  <path d="m741 497h1v13q0 14 0 16v7h-3l-3-1h-2v-3q0-3-2-15l-1-12v-1h2v-3h4l1 1q2 0 2-1t1-1z" fill="#af1a1b" stroke="#af1a1b"/>
  <path d="m934 592l4 4q4 3 4 5t0 3v3h1v3h-10v-1h1v-6q0-6-1-7l-1-2v-1q1-1 2-1z" fill="#c81f25" stroke="#c81f25"/>
  <path d="m743 470v-1h1v1q1 2 4 1 4-1 4 0v2q1 1 1 3 0 0 1 2 0 1 1 2 1 0 1 2 0 1 0 2v2q-1 0-1 1v3q-1 3 0 4h-1t-2 1-4 0l-2-1v2h-1l-1-1h-1v-1q-1 0-1-6-2-7-4-9l-2-2v-2l4-3q2-2 3-2z" fill="#931715" stroke="#931715"/>
  <path d="m771 421l1-2v1q0 1 1 1t1 5v12q0 7-1 12v6q-1 0-1 4v5h-6q-1-1-2-1v-8q0-1 1-7v-6q1 0 2-4t2-10v-6h1t1-2z" fill="#d7a89f" stroke="#d7a89f"/>
  <path d="m26 329v-1h1l1 1 2 1h1v1h1v1l3 4q2 4 7 7 4 3 8 5 3 2 8 3 4 1 14 1h11v1h1v1l2 2q2 2 2 3v1l-1 2-1 1v2h-1l-1 1h-2q-2 2-3 2h-1l-2 1-1 1h-2q-1 0-13 0-13-2-21-5-7-4-7-9 0-6 2-8 2-3 0-4-1 0-1-2-1-1-3-2l-2-2q0-1-1-1t-1-1v-1h-1q0-1-1-1v-1h-1v-1h1v-1h1v-1h1v-1z" fill="#a8adb6" stroke="#a8adb6"/>
  <path d="m262 176h1v1h1v1h1v1h1v1l1 1 1 1v1l-1 1q-1 1-1 2 0 2-5 5l-4 3v1h-1q0 1 0 1t-1 1v1h-1t0 1h1v1l-1 1 1 3q0 2 3 6 4 3 4 4v3h1v1h1l-1 1-1 1h-1l-1 1h-2v-1q0-1 0-2v-2h-2v12q0 10-1 10-1 1-1 3v2l-1 1v1h-2q-2 1-6 1t-5-2q-2 0-6-3t-7-3q-3-2-3 0 1 2-3 2-4 1-4 2-1 1-5 2-6 0-11-1-6-1-9-1h-4v-1l-1-3-1-2q0-1-1-2v-1h-1q-1 1-2 1-2 0-4-1l-2-1h-1v-1h-1v-1l-1-1-1-1v-1h-1v-1h1l2-1 1-1h1q1 0 4-1t4-2q2-2 3-3 2-2 3-7 2-5 3-5t1-5l1-5 1-6q2-6 4-10 3-4 12-6 8-2 19-2t13 0q1 2 8 2t8 1 2 1z" fill="#5976a5" stroke="#5976a5"/>
  <path d="m60 474l3-2h28q28 0 29 1h1l1 1q0 2 2 2h1v2l3 1q4 1 4 3 0 0-1 1t3 1q4 2 6 2h1l2 1 2 1h1v1h-1v1h-2l-2 1q-3 1-2 3 0 1-4 1l-4 1h2l-3 1h-2v3h3v2h-122q-3 0-6-1h-3v-18h3q3-1 3-2v-1q2 0 2 1t2 2 2 1l2 1q3 1 13-1 10 0 13-1h8l6-1 1-2q1-1 1-1 0-1-2-1l-2-1v-1h2q3 0 6-2zm29 9v-1h10q10 0 9 2-1 0-10 0t-9-1z" fill="#36443f" stroke="#36443f"/>
  <path d="m1068 486h4l-1 1q-1 1 0 1 1 1 1 3 1 1 10 3 9 0 9 0h17v1h1v-1h1v2h1l-1 1v1h-36q-36 0-62 1h-26v-1h-1l1-1h2v-3h2l2-1 1-1h-1l-2-1-1-1h12q8 0 9-1l8 1q7 0 14 0 8-1 6-2-1 0-1-1l6-1q6 0 7 0 1 2 8 1 6-1 10-1z" fill="#505b53" stroke="#505b53"/>
  <path d="m962 601v-1h1l1 4q0 3 2 3 3 0 3-3v-4l3 4q2 5 3 7 0 2-1 2t-2 2q0 2-1 10v8q-1 0-2-11l-1-10q0-1-2-1h-6v-4h1q1 0 1-1v-5z" fill="#be9579" stroke="#be9579"/>
  <path d="m839 507l3 23q2 22 3 24v3h1v2h-1l-1-1h-11v4h-1v-9l-1-5q-1-5-2-20l-1-14v-5q1-5 2-5 2 0 4 0 1 0 2 1 0 1 1 0 1 0 1 1t1 1z" fill="#a0726a" stroke="#a0726a"/>
  <path d="m960 374l-1-1 7 4q8 4 9 6 2 1 22 2t29 2q8 1 14 1t7 0h1l1-1 1-1v-4q0-2-1-6l-1-3 4 3q4 2 8 2h3l3 1 3 1h1v2t-2 1q-1 1-2 3v3h1l1 1h8q7 0 10-1 2-1 14-1t16 0 12 0q9 0 14 0 4 0 7 1h3v2h1v82h-111q-54 1-75 1h-23v-1l-1-3v-4t1-1q0-1 2-17l2-16t0-7l1-6v-1q0-1-3-1h-3v-1h-1v-1l1-1 1-1v-3h-2q-3 0-4-2-1 0-1-2t-1-2h-2v-1h-1v-1h-2l1-1 1-1h9q9-1 10-5 1-3 2-5 0-1 4-2 3-2 3-3t3-1q2 0 4 0h2-1v-1h-1v-1h2l-1-1-1-1h-1v-1h-1v-1h-1v-1h-1v-1h-2q-2 0-2-2z" fill="#758298" stroke="#758298"/>
  <path d="m68 584q1-2 4-2 2 1 3 2 0 1-3 2-4 0-4-2z" fill="#a58f64" stroke="#a58f64"/>
  <path d="m852 462h-1v1h1v1h-2v1h-2q-2 0 1 21 3 20 3 24v4h1l2 18q1 18 2 22v4h-11v-1h-1v-3q-1-2-3-24l-3-23v-2q-1-2-3-19l-2-16-1-1q-1-1-4-2l-3-1h-3v1h-1v-2h2l4-2q4-1 14-1t10 0z" fill="#6a0708" stroke="#6a0708"/>
  <path d="m1113 496v1q-1 0-1-1t-1 0h-1v-2h-1v1h-1v-1h-1l1-1 1-1h1l-2-1-1-1h-1q-1 0-1-1h3q2 0 2-1 0-2 2-2 1 0 2 1 0 1 13 3 13 1 13 2t-14 2q-13 0-13 2z" fill="#6f7575" stroke="#6f7575"/>
  <path d="m765 418h1l1 2q1 2 2 2t1 1l-2 9q-2 10-2 10 0 1-1 1v-1q1-1 1-12 0-10-4-8l-3 3 1-2q1-1 2-2l1-1h1v-1t1-1z" fill="#c37870" stroke="#c37870"/>
  <path d="m849 646l3-1h3v1h6q7 0 7 2 0 1 1 9l1 8v2h-1v1h1v1h6v1h-4q-4 0-15 0h-11v-12q0-11 3-12z" fill="#9f8f76" stroke="#9f8f76"/>
  <path d="m8 650h7-3v1h-1v1h7l-1 1h-1v2h-1q-1 0-2 3-1 2-2 3t0 2 2 2v1h-1q-2 0-4 0h-4v1h-1v1h5v2h3l1 1 1 1h2l1 1h1v-2h1l2-1h1t-1-1q-1 0-2-2 0-2 3-4l4-1v-1h1v-1h4v3h2v3h-2q-1 0-2 0h-2l1 1h1v2h1v1h1v1h1v1h3v2h2v-2l1 1v1h4l-1-1q-1 0-1-1t-1-1-1-1l1-1v-1h1v-1h1v2h-1v1l3 1q3 1 3 0t3 1q2 2 3 2h3v1l1-1q0-1-1-1-2 0-2-1v-1h1l1 1h4l-1 2q-1 1-1 2v2h2v-2l4-1q3-1 4-1t2 1q0 1 2 1t1 2q0 2 8 4 7 1 7 3t1 2v1h-1v3l1-1q1-1 2-2h2v-1h1v2l5-1q5-2 5 0t1 2 1-1 1 3q0 3 2 4 1 0 2 4 0 4 3 6 2 0 2 2 0 0 1 2t1 2q1 0 4 0h2-1v1h-1v1h-1v1h-1v1l-1 2q-1 2-5 3t-4 2h-1v1h-1l-1 1-1 1h1v1h1v2l1 1v1h1l2 1h1l6-1q5-1 6-2 0-1 2 0t5 2q4 0 4 1t4 2q3 0 4 1 2 0 2-1v-1h1v-1h1l1-1h1v2h-1v1h-1v1h-1v1h-1v1q0 1 0 1v1l-1 2q-1 2-2 3l-1 1 1 1q0 2 2 2 3 1 3 2v2h3l-3 1h-4v4h6v2h-1v1h-1l-1-1q-1 0-1 1 0 2-2 2-2 1-2 1v1h2l-2 1-1 1h-1l2 1 2 1h-142v-108h3v-2h2l1-1 1-1h1v-2q0-1 1-2 0-1-1-1-1-1 0-1z" fill="#a08c65" stroke="#a08c65"/>
  <path d="m728 474h1l1 11q0 11 1 13v3h-1q0-1-26-1-27 0-54 0-28 0-30 0-1-2-2-1t-26 1l-25 1v-1l-1-2 1-1 1-1v-2h-2v-5h-1v-1h12q11-1 12-3 1-3 2-3t6-1 11-1q5 0 9-1 3 0 4 0v1l2-1q1-1 3-2t3-1v-1h49q50-1 50-1z" fill="#40504c" stroke="#40504c"/>
  <path d="m0 580v-79h3q3 1 6 1h3l-3 1-3 1h3l3 1 2 1h-2l6 2q6 2 8 3 3 1 2 2-2 1 6 5t8 4h1v1h-1v1l-3 6q-2 7-5 8-2 0-2 3-1 3-2 5-2 3-1 7t2 4q2 1 3 1h2v2h-2q-1 0-2 0h-2v3-1h1v1l-1 3q-2 2 2 2 4-1 4-2v-2l1 1q1 1 1 0t1-1h1l-1 2q-1 2 1 2h1l3 2q3 2 9 3 7 0 7 1t2 0q3 0 3 1t5 1q6 0 5 1 0 1 3 2h4v1l-1 1q-1 1-2 3 0 2 1 2h2l1 1q1 1-1 1t-2 1v1h3v1h1v2h1v-1h1v-1q0-1 1-1h1v2q-1 2 0 2t1 1l1 2q1 3 4 3 3 1 3 2t-3 1q-4 0-3-1 0-1-1-1t-3 3q-1 3-1 4t-1 2q-1 0-2 2 0 1 1 1 1 1 0 1t-1 1-3 2-3 1h-1q-1 0-1 1v1h-5v2h-1v1h-1v1h6v1h1v1h-5v-1h-1v1h-1v1h1v1h1v1h1v1l3 1q2 1 6 2 4 0 5 1 1 2 2 1t1 1q0 1-2 1-1 0-1 1l1 1v1h1q1 0 4-1l3-1 2 1h1v1l1 1v1h-4q-3 2-1 2 1 0 2 1t-1 1q-3 0-4 1h-1v2l3 1q2 2 0 2-1 0-1 2 0 1 1 1 1-1 2-1h2v1h1v1l-3 1q-4 1-4 1v1h1v1l2 1q1 1 2 3 0 2 1 2t4 1l3 1h-1l-2 1q-2 1-2 3t1 3q1 2-1 5-2 2-2 3t0 1l-1 1-1 1h-4l-2 1h-1q-1 0-1-2t-7-3q-8-2-8-4 1-2-1-2t-2-1q-1-1-2-1t-4 1l-4 1v2h-2v-2q0-1 1-2l1-2h-4l-1-1h-1v1q0 1 2 1 1 0 1 1l-1 1v-1h-3q-1 0-3-2-3-2-3-1t-3 0l-3-1v-1h1v-2h-1v1h-1v1l-1 1q0 1 1 1t1 1 1 1l1 1h-4v-1l-1-1v2h-2v-2h-3v-1h-1v-1h-1v-1h-1v-2h-1l-1-1h2q1 0 2 0h2v-3h-2v-3h-4v1h-1v1l-4 1q-3 2-3 4 1 2 2 2 1 1 1 1h-1l-2 1h-1v2h-1l-1-1h-2l-1-1-1-1h-3v-2h-5v-1h1v-1h4q2 0 4 0h1v-1q-1-1-2-2t0-2 2-3q1-3 2-3h1v-2h1l1-1h-7v-1h1v-1h3-7q-1 0 0 1 1 0 1 1-1 1-1 2v2h-1l-1 1-1 1h-2v2h-3v-80zm34 3q2-3 3-3t1 1 1 1 1 1-4 1q-3 1-2-1zm12-1q1-2 4-1 2 1 2 2t-4 1-2-2zm12-2h2l2 1q2 1 2 3 0 1-4 2-4 0-4-2 1-3 2-4zm10 4q1-2 4-2 2 1 3 2 0 1-3 2-4 0-4-2z" fill="#b09c75" stroke="#b09c75"/>
  <path d="m635 91h1v3q0 2-1 4-1 3-5 10-4 8-5 11l-1 3-1 2v1h-1v-5h-2v-6q1-2 3-4 1-1 2-2v-1q1 0 1-1v-2t1 0v-1l1-1q2-1 2-4 0-2 2-2 1 0 2-2 0-2 1-3z" fill="#818faf" stroke="#818faf"/>
  <path d="m790 591h8q0 1 0 1h1l5 2q5 1 6 3 0 2 1 9l1 6 2 1h1v3h-7q-7 0-13 0h-6v-1h1v-1h2q2 0 2-1h1l1-1h1v-1h1v-5q0-5-1-7t-4-5q-4-2-3-3z" fill="#b22223" stroke="#b22223"/>
  <path d="m931 613v-1l7 1q7 0 8 5 2 4 7 5 5 0 8-4t3-1v3h1v25l1 24v2h-2l-4-1q-3-1-4-1-2 0-3-2l-1-1v-1t-1 0h-1q-2 0-4 0h-3t-1-1-2-8q0-8-1-7-1 0-2-17-2-17-3-17 0-1-2-2l-1-1z" fill="#967855" stroke="#967855"/>
  <path d="m1146 110h7v61h-1q0 1-7 1t-13 2q-7 2-22 9-14 6-15 9t0 8q1 6-1 7t-3 5-3 5q0 1-1 5-1 3 2 6 3 2 3 3t7 1h7l1 1 1 1h5l-3 1-4 1h-2q-1 0-6 2-4 2-16 2-13 0-20 3l-7 3h-5v-2q0-2 0-4 0-1 1-6 1-4-1-6-1-2-2-2t-2-4q0-4-3-5t-8 2q-5 2-10 7-4 5-5 5t-3 3l-3 3v1h-8v-1l-1-1-1-1v-3q0-4 0-9v-5l-1-2-1-3v-1l-1 1q-1 1-1 3v1h-1v1h-1l1-6q1-7 5-13 4-5 5-6t1-1l6-1q7-1 14-6 6-5 14-7t8-3l6-1q6-1 13-6 6-4 8-7 3-3 7-9t9-8 7-6q0-4 1-5l1-1v-1l-1-1-1-1v-4h-1q-1-1-1-1-1 0-20-2-18 0-24-2h-7l-3-1h-3v-1h3l2-1 2-1 4-1q4-1 18-8t18-7 9 5 7 5q1 0 2 2 2 2 12-1 10-2 10-1t5 0q5 0 11 0z" fill="#929bae" stroke="#929bae"/>
  <path d="m127 193v-1l2 1q1 1 3 4t4 4 2 2q1 1 5 1 5 1 9 1 5-1 7 1 2 0 12-1t12-1 3-4q2-3 3-2 1 0 2 2 1 1 2-1 1-3 1-3h1l-1 5q0 5-1 5t-3 5q-1 5-3 7-1 1-3 3-1 1-4 2t-4 1h-1l-1 1-2 1h-1v1h1v1l1 1 1 1v1h1v1h1l2 1q2 1 4 1 1 0 2-1h1v1q1 1 1 2v3h-1v1h-1v2h2l1 1 1 1 4 2q4 4 11 6t8 2 3 1h2v1h1v1h1v1h1v1h1v1h2v1l1 2q1 1 0 2t2 5 3 8q0 3 0 4v1h-1v1q-1 0-4 3-4 3-11 2-6-1-6-2t-2-1q-1-1-1-4-1-2-4-10l-4-8-3-1q-2 0-3 2-1 1-2 1-1-1-2-1-1 1-1-2v-2h-1v-1h-1v1t-1 0q-1 1-2 3t-3 2q-2-1-2 0 0 2-1 2t-1-1-1-1-2-2l-1-1v1q0 2-2 2-2 1-4 4t-2 3v1h-1v1h-1v1h-5v-1h-1v-4q0-1 2-3v-1l1-1v-1h-1l-2 1h-2v1t-5 2q-4 1-11 1t-10-2q-2-2-4-8-2-5-4-6-2 0-2-1-1-1-6-2t-9 2l-4 2v-1h-3v-1h-1v-1h-1l-2-1q-2-1-4-1-3 0-3-2 1-1-1-8 0-6-1-13 0-7 3-7 4 0 9-3t6-5 14-5q14-3 15-4l1-1v-1h1v-3q0-4-1-5zm28 69q1 0 1 0-1 0-1 0z" fill="#677fa6" stroke="#677fa6"/>
  <path d="m563 318h-1v-1h-1v-1h-1v-3q0-1 4-3 5 0 7 1 3 1 5 8t4 9 1 4-5 1q-5-1-9-8t-4-7z" fill="#bfc8d7" stroke="#bfc8d7"/>
  <path d="m940 568v-1h1v1q1 1 1 2v2t0 1h1l1 6q2 7 2 7h1l7 2q7 1 7 8l1 6v3l-1 1h-1q-1 0-8-2-8-1-8 1l-1 2h-1v-3q0-1 0-3t-4-5l-4-4t2-8l1-7h1v-3l1-2q1-3 1-4z" fill="#961110" stroke="#961110"/>
  <path d="m0 146v-4l4 3q4 3 5 3t2 0h1v1q0 1-1 1t-1 1 2 1q1 0-4 0t-6 0 0-1h-1v-1h-1v-4z" fill="#75819c" stroke="#75819c"/>
  <path d="m728 3l-1-3h55v2q0 3 1 6l1 2v3h2l2-1h-1q-1 0 0-2l1-2h2v1h1v1h1v4q0 2 2 2 2 2 0 2-2 1 1 1t3 2q1 1 2 1h6q4-2 5-2 1-1 1-5 1-5 6-4 6 1 8 1h8v3l-1 1-1 2v1h-1q0 1-1 1-2 2-4 6-2 5-6 6l-4 2h-1v1h-1v7h-1v1h-1q0 1-11 3t-12 3q-1 2-3 3-2 0-10 0t-10-4l-2-5v-5q0-2-6-12-5-11-9-12-4 0-5-2t-4-2-5-1l-3-1v-1t-1-1q-1 0-3-3z" fill="#3e5b96" stroke="#3e5b96"/>
  <path d="m46 582q1-2 4-1 2 1 2 2t-4 1-2-2z" fill="#9f8a5f" stroke="#9f8a5f"/>
  <path d="m772 487v-1l1 2 1 2v4h1l3 31q2 31 3 37v7l-1 7q0 6-1 9l-1 3v1h-6v-17q0-16-1-18l-1-1t1-7-1-8q-1 0-2-4v-4q0-2 2-20l1-19v-1l1-2v-1z" fill="#780b0c" stroke="#780b0c"/>
  <path d="m456 133l-1 1h1t0 2q1 1-1 1l-2-1v1h-1q-1 1-2 1h-2l-2 1q-1 1-2 1h-1q-1-1-3-2h-3l7-3q6-3 9-3t3 1z" fill="#5973a3" stroke="#5973a3"/>
  <path d="m806 464h10q8 0 8 1h-2v2l2 16q2 16 2 21v4l1 3 1 3 1 14q1 15 2 20l1 5v4l-1 1h-10v-1h-1v-1l-1-4q-1-4-3-25l-2-21v-1q0-1-1-1v-4q-1-4-2-19-2-15-3-15h-1v-1q-1 0-2 1h-2l1-1q0-1 2-1z" fill="#6d0708" stroke="#6d0708"/>
  <path d="m773 456v2l1 2 3 1h3l2 2q2 2 3 8t1 10v4q-1-1-2-1 0 0 0 1-1 1-2 1-2 0-4-2l-2-2v2l-1 5v5h-1v-4l-1-2-1-2v2l-1 2v1h-1v-11q0-12-2-12l-1-1v-1q-1 0-1 0v-1h6v-5q0-4 1-4z" fill="#72251b" stroke="#72251b"/>
  <path d="m820 559l1 8q1 8 1 14v6l1 1q0 1 4 1h4v1h-5v2h-1l-3-1q-2 0-2 1v1h-1q-1-1-6-2l-5-1h1q1 0-1-16l-1-16h6q6 0 7 1z" fill="#f9e7e5" stroke="#f9e7e5"/>
  <path d="m1014 488h4l10-1h9q0 1 1 1 2 1-6 2-7 0-14 0l-8-1q0-1 4-1z" fill="#6e7775" stroke="#6e7775"/>
  <path d="m780 576l1-7h1l1 10q1 10 1 11h-3q-3 0-3-1v-1l1-3q1-3 1-9z" fill="#cb3a3a" stroke="#cb3a3a"/>
  <path d="m780 616v-1l2 1q1 0 2 0t3 0h8q6 0 13 0h35t1 1v1q0 2 1 7v10q0 5-1 5-2 0-2 1t1 1l4 1 4 1h1v1l-3 1q-3 1-3 12v12h-5l-3 1h-5q-1-1-27 1h-27v1h-1v1h-2v-1h1v-1h1v-10q0-10 2-10 3 0 3-2 1-1-2-9t-3-15l-1-8h1q2-1 2-2z" fill="#8a785f" stroke="#8a785f"/>
  <path d="m127 190v2t1 1v8h-1v1l-1 1q-1 1-15 4-13 3-14 5t-6 5-7 3q-3 0-3 1t-1 1-1 6q1 6 1 12 2 7 1 8 0 2 3 2 2 0 4 1l2 1h1v1h1v1h3v1h-1l-2 1h-1l-1-1-1-1-5 3q-4 2-8 8t-6 9q0 2-1 3v1h-3v1l-1-1q-1-1-4-3-4-3-9-3t-6 0q-1-2-8-2-7-2-11-8t-5-6-1-2q-1-2 2-6t2-8-3-8q-4-3-7-4-4-2-4-4 0-1-5-3-4-3-5-2h-1v-69h1v1h1q0 1 0 1 1 0 6 0t4 0q-2 0-2-2l1-1h1q0-1 0-1h2q3 0 4 1 2 1 4 5 1 4 4 6 2 2 5 2t6-2 8 0q5 1 5 3 1 2 8 5 8 2 12 6 5 4 14 4 8 0 9 1 1 0 1 1 1 2 2 2t1 1 3 0q4-1 6-2 3 0 3-1t8 4q9 4 9 4 0 1 1 2zm-101 50t1 0-1 0z" fill="#697b9c" stroke="#697b9c"/>
  <path d="m99 344l-1-5 6 1q7 0 16 1t10 0h2l-2 4q-2 5-1 5 1 1 2 2 0 2-1 2 0 0-1 0v1l-1 1q0 1 0 10 0 8-5 10t-6 2-3 0h-2 2l-1 2q-1 1-1 1v1h2q2 1 2 4 1 2 2 2t1 2q0 3-1 4-2 1-1 2 1 2 1 3v1h1q1-1 1 1v2h1v-1h5t-1 1l-1 1q1 0 0 1t0 1h2l1 1h1v2h-1v1l-8 2q-9 3-8 6 0 4-2 5t-1 3 2 2q2 0 2 1v1h-1l-1 1q-2 0-2 1 0 2-3 2t-4 2q-1 1-1 0t-6-2q-6-2-7-4t-3-3q-1-1-4-1-4 0-6 1-1 2-12 2l-12-1h-1v-2q0-1-2-2-2 0-2-3t-17-3h-18l2-1 2-1h-10v-5h1l1 1h1l1-1q1-1 2-3 2-2 4-2t2-2q1-3 14-5 12-2 12-4t3-3q3 0 3-1t3-1q3-1 3-2t2-2q2-2 2-4 0-1 12-2h11l1-1 2-1h1v-1h1v-2h-1l-1-1-1-1v-1h-2l-3-1-4-1h1l1-1 2-1h1q1 0 3-2h2l1-1h1v-2l1-1 1-2v-1q0-1-2-3l-2-2v-1h-1v-1h4l5 1 5 1h3l1-1h1v-2l-1-1q-1-1-2-6z" fill="#8895a8" stroke="#8895a8"/>
  <path d="m788 541v-1h2v1l1 4 1 4v5l1 1v1t1 1l1 14q1 14 2 16v2h4l4 1h-6v2h-2l-3-1h-3q0-1-3-1h-4q0-1-1-11l-1-10v-5l1-1 1-1v-3q0-3 2-11l2-7z" fill="#f7e9e6" stroke="#f7e9e6"/>
  <path d="m876 594l-3-4h1q2 0 3 1h3l2 1 4 1q4 2 6 4 0 2 1 7l1 6 5 1h5v1h2l3 1q3 1 3 1h-6q-6 0-20 0h-14l-2 1h-2v-1l2-1 1-1h2l3-1h4v-7q0-6-4-10z" fill="#9d2122" stroke="#9d2122"/>
  <path d="m882 468v2q-1 0-4-1t-3 0q-1 1-1 0-1-1-2 1 0 1 3 2l3 2v2h1l-2 1q-2 1-3 0-1 0 1 17 1 18 2 22l1 5 1 11q1 12 2 17l1 5v4h-11l-1-1v-3q0-2-3-23l-3-21v-2q0-1-4-22-3-21-6-21h-4v-1h2v-1h-1v-1h2l8-1q9-1 9 0 1 1 6 3 6 1 6 4z" fill="#650707" stroke="#650707"/>
  <path d="m617 702l-1-1v2h-1v1h-1q-1 0-1-4 0-3 4-2 4 0 3 4 0 3 2 3 1-1 1-3 1-2 1-1t3 1q3 1 3 4-1 4-2 4-2 0-2 1t-4 0q-5-1-5-5 1-4 0-4z" fill="#c4ac83" stroke="#c4ac83"/>
  <path d="m928 614l2-1h3v1q0 2 1 2t3 17q1 17 2 17 1-1 1 7 1 7 2 8t1 1-9 1l-8 1t0-1 0-25 1-26q0-2 1-2z" fill="#b29a76" stroke="#b29a76"/>
  <path d="m1149 316h4v35h-1q0-1-2-3-3-2-14-2-10 0-10-4 0-3-1-4-1-2-8-7l-7-5v-1l-1-2-1-2v-4l1-1h20q16 0 20 0z" fill="#b0b5c0" stroke="#b0b5c0"/>
  <path d="m496 130h2t-2 1-3 7q-1 5-3 6-1 2-2 5-2 3-4 4l-3 1v1h1v2l-1 1v1h2q2 1 2 1h-3q-3 0-4 1-2 1-4 5t-3 5l-2 1h-1v-1h-1v-1h-4v-1h-1v-1h-1v-1h-1v-2l-1-1q-1-1 0-6t2-6q1 0 1-1 1-1 0-5 0-4-4-6l-2-1h-1v-1h-1v-1h-1v-1h2v-1h1v-1h-1l1-1h2l1 1h1l8 4q7 4 8 3t3 0q3 0 5-4t6-5q4-2 6-2z" fill="#5774a5" stroke="#5774a5"/>
  <path d="m776 483v-1l2 2q2 2 4 2 1 0 2-1 0-1 0-1 1 0 2 1l3 25q3 24 3 32v7l-1-4-1-4v-1h-2v1l-2 7q-2 8-2 11v3l-1 1-1 1v5h-1v-7q-1-6-3-37l-3-31v-5l1-5v-1z" fill="#8d5b52" stroke="#8d5b52"/>
  <path d="m89 483v-1h10q10 0 9 2-1 0-10 0t-9-1z" fill="#485752" stroke="#485752"/>
  <path d="m753 583l1-1h1l1 1 1 4q1 3 3 4h1l1 3q0 2 1 3t1 2v1l-1 3q-1 3 0 3t1 1q-1 1-2 2h-1v-1q-1 0-2-1t-4 1q-3 0-5 1l-2 1q0-1-2-2h-1l-1-1-1-1h1v-2q0-3-1-2h-1v-2t2-1 3-7v-6h3l1-1h1v-2h1z" fill="#9d1c1a" stroke="#9d1c1a"/>
  <path d="m950 666h1t1 1v1q0 1-4 1h-4v2h2l1 1h-4v1h-4q-4 1-8 1h-9q-5 0-16 1h-12q-2 1-8 1h-14q-9 0-20 1l-11 1t1-1q0-1-3-2l-4-1h-2v-1l1-1v-1h4l3-1h16q11 0 15 0h4v-1h26q8-1 16-1h8l8-1q9-1 9-1h3q2 0 4 0z" fill="#cfbb9b" stroke="#cfbb9b"/>
  <path d="m1108 316h1v1q-1 1-1 3v1l1 2 1 2v1l7 5q7 5 8 7 1 1 1 4 0 4 10 4 11 0 14 2 2 2 2 3h1v40h-1v-2h-3q-3-1-7-1-5 0-14 0-8 0-12 0t-16 0-14 1q-3 1-10 1h-8l-1-1h-1v-3q1-2 2-3 2-1 2-1v-2h-1l-3-1-3-1h1l1-1 1-1h1v-1h1v-2h1v-1h3q4-1 4 0t4 1q3-1 4-1h1v1h1v-1h1v1h1v-1h1v-1h1v-3l-2-4q-4-3-1-8 3-6 5-6t3-6q0-5 1-6 2 0 4-5t4-6 2-6q1-5 2-5z" fill="#8a95a5" stroke="#8a95a5"/>
  <path d="m902 589l-1-1h5q3 0 6 1h4v1h7l4 2q4 2 5 2l1 2q1 1 1 7v6h-1v1h-12v-1h-1v-5q0-5-2-8t-8-4l-7-2t-1-1z" fill="#f2dfd6" stroke="#f2dfd6"/>
  <path d="m871 559v-1h11v1h1l1 9q0 8 1 14v7h-4q0-1-3-1-4 0-6-14l-1-14v-1z" fill="#ea2027" stroke="#ea2027"/>
  <path d="m773 593l1-1t0 1h2q1 1 2 1 0 0 0 1h1l-1 3q-2 2-2 7t0 5h-2q0-1-1-2-1-2-1-6l-1-4q1 0 1 0v-2q0-2 1-3z" fill="#770d0d" stroke="#770d0d"/>
  <path d="m887 123h4q0 1 3 1h2l7-1q7-1 11-3 5-2 10-2t8 2q2 2 2 3h1v1h1v3h1v1q1 0-1 4 0 4-3 6l-3 1h-2q-1 1-2 1-2 0-6 3t-6 5l-1 3h-1v1t-1 2-4 6-5 8q0 4-1 9t-3 5h-1t-1-1h-2q-2 1-14 1t-13 0q-1-2-7-2t-6 1v1h-1v1h-1v1h-2l-2 1h-1v1l-1 1v1h3q3 1 3 2t1 2q1 0 2 1 0 1 2 1 2 1 2 2t12 8q13 7 19 11 8 4 8 6t0 3v1h-1v1h1v1l1-1 1-1 4-2q4-1 5-1h1v-1h1v-1h1v3h-1v1h-1v1l1 1v2h2v1h1v5t-4 2q-3 2-7 11-3 8-12 10-9 1-13 3-5 0-6 2 0 1-6 4l-7 4h-2v1h-1v1t-1 0v1h-1l-2 1h-1q-1 0-7 1l-7 1h-1q-1 0-4 2t-10 2h-6l-1-1h-1v-1q0-1-2-4 0-2 1-9l1-7h-7q-1 0-4 0t-9 3-8 3q-2-1-8-5l-6-4v-2h-1v-1h-3v2q0 2-1 4-1 1 0 4 1 2-1 2-3 0-4 2t-3 2q-2 1-4 4-1 4-7 5-5 1-12-2-8-4-12-7-4-2-9-4-4-1-5-2v-2h-1l-1-1-1-1h-1v-1h-1v-1q-1 0-1-1t-5-4-6-5q-1-3-9-8l-9-4q-1-1-1-1v-1t-1 0v-1h-1v-1l1-1 1-1v-2l-1-1v-1h1q1 0 1-1t13-8q12-7 14-15 2-7 7-8 5-2 11-2 7 0 13-7 7-7 8-11t1-8q0-3-1-4t0-2q1 0-1-2-2-1-2-3v-3h2l12-2q12-2 18-5t10-5q6-3 6-4l1-1 1-1v-1h1v-1h1v-2h1v-1h1v-1h1q1 0 2-4 1-5 4-12 4-8 11-10t10-1q2 1 4 1 1 1 2 6 2 6 11 10 9 6 25 6 15 0 18 0t7 1z" fill="#5f7dae" stroke="#5f7dae"/>
  <path d="m407 272l1-1h2l6 3q7 4 11 4t6 3q3 2 5 5 3 2 6 2 2-1 4-4 2-2 6-3t6-1h5v1h1l1 9q2 9 3 9 2 0 2 1t1 1l1 1h2v1l-1 1-1 1v2h-1v-1l-1-1v-2l-1-1-1-1v2h-1q-1 1-2 2t-6 4q-6 3-11 4l-4 1q-1 0-4-2-3 0-17-1t-18-4q-5-3-7-13t0-16l3-5h1l2-1h1z" fill="#9da8b8" stroke="#9da8b8"/>
  <path d="m1042 119h4l3 1h7q6 2 24 2 19 2 20 2 0 0 1 1h1v4l1 1 1 1v1l-1 1q-1 1-1 5-2 4-7 6t-9 8-7 9q-2 3-8 7-7 5-13 6l-6 1h-5q-5 1-11 1-5 2-10 4-4 3-16 4-11 2-12 3 0 1-3 3t-5 4l-1 2h-2v1h-1v-1h-1l-1-1h-1v-6h-3v-1q0-2 0-3t1-2 1-2q-1-1-3-6-3-4-2-8l1-4h-1v-1h-5q-2 0-8 3t-13 1q-7 0-9 2l-2 2q0-1-2-1t-4 0-2-1-1 0q-1 0-5-1-5-1-6-5l-2-3v-4l2-2q1-2 2-2t2-2q0-1 2-3 1 0 2-1h2l1-1h13q12 0 18 0t15-1q9-2 14-5 6-2 13-4 7 0 7-1l7-1q8-2 13-6 5-3 6-4 1-2 3-2 1 0 2-1z" fill="#abb2c2" stroke="#abb2c2"/>
  <path d="m0 443v-28l2 1q1 0 1 1h1v1h24q17 0 17 3t2 3q2 1 2 2v1h-1v1h-1l1 1 1 1h5l7 2q7 2 15 3 7 1 12 4 6 3 13 5 7 1 6 2 0 2 1 2 2 0 2-1t8-1q9 0 16 0t11 0q4-2 10 0 7 1 10 6 4 4 5 5 2 1 4 1h1l1 1 2 1h-8v1h1v1l11 2q12 2 18 0t7-2q1-1 1-2t10-1l10 1h-7l1 1 1 1h7q4 0 6 0h3v-1h-1v-2h2l2-1 10-1q10-1 16 1 5 2 6 4t1 2h1l1 1 1 1h1v1h-1v1h-1l2 1 2 1h-4q-4 0-10 0h-10v1h1v1h1v1h-61q-60-1-67-1h-7l-2 1h-2q-1-1-29-1h-36q-8 0-31-1h-24v-28z" fill="#6f8199" stroke="#6f8199"/>
  <path d="m88 590h1q1 0 3 1h2q0 1 0 1h1l-1 1q-2 1-4 2h-1q0-1-1-1t-1-2v-1h1q0-1 0-1z" fill="#ae986d" stroke="#ae986d"/>
  <path d="m1029 236h5l1 2 1 1v6q0 6-4 12t-8 9q-4 4-5 6t-5 4-10 6-8 9q-2 6-6 10t-4 11q0 8 0 9 1 1 1 2-1 1 1 1 1 1 2 6 0 4 2 6 2 3 4 7 0 4 4 5 3 0 2 2v2h-1v1h1v1h3l1-1 2-1h2v-1l-1-1q-1-2-1-2t0-5v-5h9l1-1 1-1h1l2 1 2 1h1v1h1v1h2v4l-1 1v1h-2v2l1 1v1h-4q-4 0-4 0h-3l-1 1-2 1-1 1v1h2l2 1 2 1 11 1q10 1 13 5 3 3 5 6t2 4v2q0 1 1 1 0 1 1 1 0 0 0 1h1v1q-1 2-1 4v4l-1 1-1 1h-1q-1 0-7 0t-14-1q-9-1-29-2t-23-3q-4-4-8-5l-5-2v-1q-1 0-1 0 0-1-1-1h-3q-2 1-8 6-6 6-15 8l-8 3h-3l-1 1h-1v-2h1l1-1h1l1-1 1-1h1l3-2q3-2 4-3 0-1 1-1t0-6q0-5 0-8 0-2 1-2t2-4 2-6q1-3 5-4 5 0 6 1 2 2 6 2 4 1 5 2t2-1 3-1q2 0 3 1 0 2 3 3 2 1 2 1l1-1q0-1 2-1h2v-1h1v-3q0-1 0-4v-4l1-1 1-1v-4l1-1 1-1v-1l-3-11q-3-11-5-16 0-6 0-8 1-2 8-5 6-3 10-8t16-12q11-7 16-14 6-7 6-8t1-6l1-5v-1l-1-1-1-1v-2h-2q-1-1-1-1z" fill="#a4abb9" stroke="#a4abb9"/>
  <path d="m420 352h8v1h1v1h1v4l-1 1-1 1v3h-2q-1 1-2 1t-6 3q-6 3-10 3-5 0-6 0-2-2-10-2-9-2-20-3-10-1-10-3 0-1-5-4l-5-2v-2h-1l-1-1h-1v-1l1-2v-1h1v-1h1v-1l1-1 5-1q5-1 7 0 3 1 4-1 2-2 11-2t14 6q6 6 14 4 9 0 12 0z" fill="#a4afbe" stroke="#a4afbe"/>
  <path d="m152 328l9-3v2q0 1-2 3-1 1-2 1v1h-2v1h-1v6-1h2v-1h1v-1h1v2h2l4-2q3-2 6-2t2 1 15 1 21 2q4 2 26 4 22 1 24 2 1 2 3 2t1 1q0 1 7 1t16 1 9 2 22-2q21-3 26-3 5-2 6-1t2 1h1l-1 1-2 1h-1t-3 3-9 3q-6 2-12 2-6 2-13 3t-14 5q-8 4-9 5t-2 1q-1-1-2 0-1 0-1 1t-3 3-7 0q-3 0-4 0-2 0-4 0-2-1-3-1l-2-1h-6 1l2 1q2 1 1 6t-4 7q-3 3-1 6 1 4 2 4t0 4q0 3-1 4l-1 1v1l6 1q6 1 10 3 2 2 4 6 0 4 2 8t6 9 5 11 7 6q5 0 6-1 2-1 4-1h3l1-1 1-1h1v-1l1 1v1h-1v1h-1v1h-1v1h-3v1h-1v1t-4 2q-2 2-9 3-6 1-8 0-1-1-4-2-2-1-5-1-4-2-11-2-7-1-6 0 1 2-1 2t-10-2-8-4v-1h-1v-1h-4 1v2l-1 2-1 1v1h-1v1h1v2h4q4 1 6 1h3v1h-1v1l-2 1h-2v2h1v1h-3q-2 0-6 0h-7l-1-1-1-1h7l-10-1q-10 0-10 1t-1 2q-1 0-7 2t-18 0l-11-2v-1h-1v-1h8l-2-1-1-1h-1q-2 0-4-1-1-1-5-5-3-5-10-6-6-2-10 0-4 0-11 0t-16 0q-8 0-8 1t-2 1q-1 0-1-2 1-1-6-2-7-2-13-5-5-3-12-4-8-1-15-3l-7-2h-5l-1-1-1-1h1v-1h1v1h1l12 1q11 0 12-2 2-1 6-1 3 0 4 1 2 1 3 3t7 4q6 1 6 2t1 0q1-2 4-2t3-2q0-1 2-1l1-1h1v-1q0-1-2-1-1 0-2-2t1-3 2-5q-1-3 8-6l8-2v-1h1v-2h-1l-1-1h-2q-1 0 0-1t0-1l1-1q1-1 1-1h1l1-1 1-1q1 0 1-1t2-1q2-1 1-4-1-4-1-5v-1h4q3 0 4-1t3-3 3-2h1l1-1h1v-1l-1-1v-1h-1v-1h-1v-1t-4-4-7-5q-3 0-5-6l-1-6h1q0-1 0-1 1 0 1-2-1-1-2-2-1 0 1-5l2-4h1q1-1 2-1t2-2 0-4q0-1 3-2 4-2 12-4zm82 42h9v1h-1v4l-1 3q-1 4-1 6 0 1-2 0-2 0-5 6t-5 6-4 0q-1 0-8 0-8 0-10-2-3-2-6-3-4-1-5-7-1-5 2-7 3-1 3-5 1-4 13-3t21 1z" fill="#7f93ac" stroke="#7f93ac"/>
  <path d="m776 422h1v6l1 7 1 3q1 2 59 2 57 0 72-2 16-2 20-5 4-2 5-2v-1h2v-1h1v-2h1v8q-1 8-1 14v6l-1 6q-1 6-1 9v3l-2 3q-2 2-10 25t-10 24q0 1-3 9-2 7-3 8-2 0-2 4 0 3-1 6l-1 2v4h-1v-4l-1-4v-2q0-1-3-16t-5-31-4-17q-1-2-2-2 0-1-2-2h-1q-1-1-1-1v-1t-1-4l-1-4v-2q0-3-6-4-5-2-6-3 0-1-9 0l-8 1h-1t-10 0-14 1l-4 2q0-1-8-1h-10q-1 0-1 1h-1q-1 1-1 1h-2q-1-1-1-1v-1t-3-1q-2-1-9-2l-8-1v1h-3l-3-1-1-2v-8q1-5 1-12v-7l1-5q1-4 1-4zm154 44l-4-2v-2q0-4 2-4t4 2q1 4 2 5 1 2-4 1z" fill="#5b0203" stroke="#5b0203"/>
  <path d="m967 613l1-1 1 10q1 11 2 11v13q1 14 1 15v8q-1 7-3 7h-2v-1q-1-1-1-2v-1q0-1-1-1v-53q1-4 2-5z" fill="#bc372a" stroke="#bc372a"/>
  <path d="m233 592h4v2q-1 2-1 2h-3q-3 0-4-1l-1-1v-1q0-1 2-1 1 0 3 0z" fill="#b9a277" stroke="#b9a277"/>
  <path d="m174 686h-2q-1 0-2-2 0-2 2-3t6-1q5 0 5 0 1 1-4 4-5 2-5 2z" fill="#9f8a63" stroke="#9f8a63"/>
  <path d="m732 533l2-1h2l3 1h4l1 1h1v-1h1v1h1v1h1v-1h1l1-1v3q0 2 0 3h1v1h1v4h-1v1h-1v3h-4v1q-1-1-2-1h-2q-2 0-7-1t-5 1v2-6q0-7 0-8 0-2 2-3z" fill="#80665e" stroke="#80665e"/>
  <path d="m957 576l1-2q1 0 2 1h2t1 13v12h-1v2l-1-6q0-7-7-8l-7-2v-2q0-2 5-2h4v-2q0-1 1-4z" fill="#a97457" stroke="#a97457"/>
  <path d="m855 641l-1 1v1h-1v1h-2l-4-1-4-1q-1 0-1-1t2-1q1 0 1-5v-5h1q2-1 2 2 0 4 1 5t4 2 2 2z" fill="#ad9d87" stroke="#ad9d87"/>
  <path d="m863 269l1-1h6l-2 1-1 1h-1v1l-1 1v1h-1q-1 1-4 1l-3 2h-2v1h-1v1h10-1v1h-1v1h-2q-1 0-4 2l-3 2h-2l3 1 3 1h9q8 0 14 0 5 0 4 1-2 1-2 1h-1q-1 0-7 3t-8 4q-1 1-6 1-6-2-10-1l-5 1v1l-1 1v2l-1 2q-1 1 1 2 0 1 2 7 1 7 1 9-1 3-2 6-2 4-5 4-3 1-3 2l-1 1v1h2v5l1 1v1l11 2q12 3 17 7t7 8q1 4 2 4 0 1 2 4 0 4 1 8l1 3v1q0 1 1 1 0 1 1 1l2 4q3 4 6 7 4 3 4 3 1 0 8 0t9-1 3-1h5l1-1t1-1h4l8-3q9-2 15-8 6-5 8-6h3q0 1 1 1 0 0 0 1h1q0 1 1 1h2v1h1v1h1v1h1v1h1l1 1 1 1h-2v1h1v1h1-2q-2 0-4 0-3 0-3 1t-3 3q-4 1-4 2-1 2-2 5-1 4-10 5h-9l-1 1-1 1h2v1h1v1h2q1 0 1 2t1 2q1 2 4 2h2v3l-1 1-1 1v1h1v1h-9q-3-1-14-1-10-2-18-2h-9 1t-1 1-1 1h-8q-7 0-37 0l-30 1h-3q-3-1-8-1t-20-2h-16t-2 2l-2 2t-1 1h-1v-1q0-1-1-2l-1-1v-1h-2v1t-4-1q-4-2-5-3t-11 0l-11 1v-2l1-1v-1h1v-1h1v-1h-2l-1-1-1-1h1v-1h1v-2h1q1-1 7-1h7v-1h1v-1h1v-1h1v-3h-1v-1h-1v-3l1-1v-1h-5q-5 0-11 0t-19 0q-12 0-16 0-5 0-10 2h-7v-1h1v-2h1v-1h2v-1q-1 0 0-2l1-2v-5h-1l-1-1q-1-1-2-1l-2-1v-2h-1v-1h1l7-2q7-2 9-2h2l4-1 4-1 6-2q6-2 6-3t11-2 14-5 6-8 7-8q4-3 6-7 3-3 20-7 18-2 20-5 2-2 3-5 0-2 2-2 1 0 2 0 0 0 2 1l2 1h2v-1h-1v-2l1-2q0-2-2-2l-2-1h-1v-1h1v-1h1l5-1q5-1 7-3t4-7q1-5 6-10 4-4 5-5l7-1q6-1 7-1h3q1 0 1-1h1l1-1h2l1-1q2-1 2-1l1-1z" fill="#9aa5b7" stroke="#9aa5b7"/>
  <path d="m72 569l-2 1h-7q-1 0-1-1l-1-1h1q2 0 2-1l1-1h2q2 0 5 0 2 0 3 1t0 1-3 1z" fill="#c0aa82" stroke="#c0aa82"/>
  <path d="m574 26h2l5 2q5 1 10 2 5 2 7 4 2 1 3 4 1 4 3 6 3 2 13 2t13 0h2v-2h1l2 1q3 1 5 5t1 13-1 11q-2 2-2 4v2t-1 2q0 2-5 6-4 4-6 7t0 4q1 1 1 2v2h-1q0 1 0 1v2q-1 0-1 1h-1q0 1-2 3l-2 2t-2 1-4 1q-3 0-3 1t-3 1-7 2q-4 0-7 2-4 2-15 5t-11 4q1 1-3 3t-8 4-12 2-13-2q-4-2-9-3l-5-1q-1 0-8-2-8-2-10-1l-2 1h-2q-2 0-6 2-4 1-6 5t-5 4q-2-1-3 0t-8-3l-8-4h-1l-1-1h-2q0-1-3-1t-9 3l-7 3h-4q-4 0-7-2t-6-2l-3-1v-1q-1 0-1 0h-1q-1 0-10 2t-11 4q-2 4-8 4t-6 2q0 3-8 13t-14 10q-6-1-7 1t-9 6-12 8q-3 4-6 6-2 2-8 2-7 0-10-1-2-1-8 1-7 2-10 6-4 6-12 6-7 0-8 0-2-1-4-2-3 0-3-1v-1h-4l-1 1h-1v-1h1v-2h1v-2l4-3q5-3 5-5 0-1 1-2l1-1v-1l-1-1-1-1v-1h-1v-1h-1v-1h-1v-1h-1q-1 0-2-1t-8-1-8-2q-2 0-13 0t-19 2q-9 2-12 6-2 4-4 10l-1 6h-1t-1 3q-1 2-2 1-1-2-2-2-1-1-3 2-1 4-3 4t-9 0q-6 2-10 2-5 0-8-1t-3 0-3 1q-2-1-7-2-4 0-5-1 0-1-2-2t-4-4-3-3l-1-1v-1t-1 0v-2q-1-1-1-2 0 0-9-4-8-5-8-4t-3 1q-2 1-6 2-3 1-3 0t-1-1-2-2q0-1-1-1-1-1-9-1-9 0-14-4-4-4-12-6-7-3-8-5 0-2-5-3-5-2-8 0t-6 2-5-2q-3-2-4-6-2-4-4-5-1-1-4-1h-2t-1 0v1h-1q-2-1-6-4l-4-3v-31l1 1 1 1v1t1-1 1 1q0 1 4 2 4 0 5 0 1-1 4-1 4-1 11-5 6-4 14-12t17-13 13-8q3-3 3-4t2-2q1-1 3-5v-4l1 1q1 1 7 3t16 0q9 0 11-2 1-1 3-2 2 0 3 0 1 2 3 2t4-2 13-3 13-1q1-2 12 0 12 2 18 3 7 1 16 3 10 2 15-4t6-9 5-2 6 2 12 1q9 0 14 1 6 0 6-1t3-2 4-6q2-4 3-5l1-1h1v-1h1v-1h2v-1h7q6 1 17 5t13 4q1 1 4 5 2 3 5 5t9 3 13 3q7 3 11 5 5 3 7 2 3-1 4-3t9-3q7-1 8-1 2 0 3-3t1-5q1-2 2-2 2 0 2-1t1-1l1-1h1l2 2q2 3 5 4 2 1 4 1h3v-1h1v-1h2v-7q0-7 1-7 1-1 2-2 0-1 1-1t1-2q0-1 3-2 4-1 12 1 7 2 18 6 10 4 16 2 5-2 22-1 18 1 23 1t7-3q3-3 9-6t12-3 16 2 13-1q4-3 4-3z" fill="#335894" stroke="#335894"/>
  <path d="m960 606h1l1-1v1q0 1-1 1h-1v2q1 1 2 2h2v1h-5l-5-1q-5-1-8-1h-3v-3l1-2q0-2 8-1 7 2 8 2z" fill="#945948" stroke="#945948"/>
  <path d="m773 628v-11h2q2 1 2 1l1 8q0 7 3 15t2 9q0 2-3 2-2 0-2 10v10h-1v1h-1v1l-1-4-1-3v-8q0-8-1-14v-6q0-1 0-11z" fill="#472b18" stroke="#472b18"/>
  <path d="m518 132v1h1v1h2l2 1h2v1q0 1-1 1t0 2q0 1 5 7 5 4 11 5 5 1 9-1t7-2q2 0 3-2t3-4q1 0 1-1h1v-1h9-1l-1 1-1 1h-1v1h-1v1t-2 8q0 9-2 12t-5 4l-2 2h-1v1l-1 1q-1 1-1 2h-3q-1 0-2-1t-6-1-7 1q-3 1-3 3 0 1-5 2-6 2-9 4l-3 4h-1v1h-1v1h-1l-1-1h-1v-1h-3l-1-1-1-1-1-1q-1-1-2-9t-3-8q-2-1-2-2t-2-2q-1 0-6-1l-5-1t-2-1h-2v-1l1-1v-2h-1v-1l3-1q2-1 4-4 1-3 2-5 2-1 3-6 1-6 3-7t2-1l2-1q2-1 10 1 7 2 8 2z" fill="#5c77a7" stroke="#5c77a7"/>
  <path d="m448 215l3-1h1l4 1q4 1 5 1h3v1h1v1h2l7 6q6 6 7 7t5 2 16 1q13-2 18-5 6-3 6-4 1-1 4-1 4 0 12 7t8 7v1h1v1h1l2 1h1v1h1l3 2q3 0 19 3t34 6q18 4 26 11 8 8 10 12 3 4 7 8 3 4 4 6 0 2 5 2t10 0h5v1h1v1h1l2 5q1 5 4 6 2 1 3-1t4 0q3 0 7 4t6 5q3 1 3 2t1 3l1 1v4h-1v1h-1q-1 0-8 4-6 3-6 4 0 2-1 2t-2 2-2 2q-1 1-4 5t-5 6q-3 2-4 5v4h2v3h-1v1h2l2 1q2 1 11 1h10l-4 1-4 1h-2q-2 0-9 2l-7 2t-8-2q-7 0-25-2t-20-3-12-4-11-3q-2-1-8-4-6-2-16-2l-11 1v-1h-1v-1h-1v-1h-1v-1l-1-1v-1l2-1q3 0 2 0 0 0 2-1l2-1h-3l-3-1q-3-1-5-2-3-1-4-1 0 1-1 1-1-1-3-2l-1-2h-2v-2h-1l-2-1v3h1v1l1 3q1 3-1 5-3 1-3 3-1 1-1 2h-1q0 1 0 1-1 0-2 2-2 0-6 2-4 0-6 2-1 2-2 5l-2 3v1h-1q-1 1-1 1h-2q-2 0-2 1h-1v1h-2v-1h-1v-1h-1v-1q1 0-2-2-2-1-4-6-1-5-2-6t-1-4q-1-3-2-3t-1-1q-1-1-2-1-2-1-2-2t-3-2q-3 0-6 2-2 2-10 6l-8 4h-2v-4q0-2 0-4 0-1-1-2-2 0-6-6-4-5-6-4h-3q-2 0-4-2h-3v-1q1 0 0-1h-1v-3h1v-1h1v-3h-1v-1h1t0-2v-2l4-1q5-1 11-4 5-3 6-4t2-2h1v-2l1 1 1 1v2l1 1v2l1 2 1 3q2 3 3 3h2l1 1 1 1h4l2-1 1-1h1v-1h1v-1h1v-6h-1v-1h-1v-2h-1v-1h-1q-2 0-7-1h-5v-1h-2l-1-1q-1 0-1-1t-2-1q-1 0-3-9l-1-9h-1v-1h-5q-2 0-6 1t-6 3q-2 3-4 4-3 0-6-2-2-3-5-5-2-3-6-3t-11-4l-6-3v-1h-5l-2 1q-2 1-5 1-4 0-5 2l-1 2h-3v-1h-1v-3q0-3-2-6 0-2-4-5t-3-7l1-3 1-1 1-1v-4h-1v-1l-1-1v-3h-1v-1h-1v-1h2v1h1v1h2v1h1v1q0 1 1 1t1 1 2 1q3 1 11 0t12-2 5-3q0-2 7-1t11-1q3 0 4 2t4 1 4 0q0 1 1 1h1v-2q0-1-1-2 0-1 1-1 1 1 2-2 0-2 1-1 1 0 1-4 0-3-3-7l-3-4v-3h-1l3-1zm115 103h-1v-1h-1v-1h-1v-3q0-1 4-3 5 0 7 1 3 1 5 8t4 9 1 4-5 1q-5-1-9-8t-4-7zm25 28h-2l-1-1h-1v-11l3-2q3-1 3-2 1-2 2-2t1-1 7-2q6-1 10 0 5 1 4 4t-2 5q-2 2-8 2-6 1-6 4-1 4-4 5-4 1-6 1zm11 6t0-1q1 0 1 1 0 0-1 0z" fill="#7690b3" stroke="#7690b3"/>
  <path d="m798 591v-1h10l4 1q3 1 5 1h2t1 1l2 3q2 2 3 5l1 3v6l-1 1v1h-10v1h-1l-2-1-1-6q-1-7-1-9-1-2-6-3l-5-2q-1-1-1-1z" fill="#f7e4dc" stroke="#f7e4dc"/>
  <path d="m835 588l5 1q4 1 5 2h1l3 4q3 4 3 10v7h-13v-6q-1-5-1-8-2-2-6-4l-4-2h-2v-2h5v-1h2q1 0 2-1z" fill="#f6e1db" stroke="#f6e1db"/>
 </g>
</svg>
