<?xml version="1.0" encoding="UTF-8"?>
<svg width="248.93mm" height="191.86mm" version="1.1" viewBox="0 0 882.02308 679.81911" xmlns="http://www.w3.org/2000/svg">
 <g transform="translate(54.252 46.137)">
  <path d="m-54.252-46.137v679.82h882.02v-679.82h-882.02z" fill="#e0f7fa" fill-rule="evenodd"/>
  <path d="m-45.185 94.357c-0.29061-19.761 15.752-47.897 15.752-47.897l2.6976 2.2471c-6.1927 16.868-12.881 28.205-12.056 50.154-2.863-0.40378-5.0794-1.7773-6.3934-4.5045z" fill="#a1887f" fill-rule="evenodd"/>
  <path d="m776.8 157.13a103.46 92.995 0 0 0 -103.46 92.996 103.46 92.995 0 0 0 103.46 92.996 103.46 92.995 0 0 0 50.967 -12.201v-161.65a103.46 92.995 0 0 0 -50.967 -12.136z" fill="#fff" fill-rule="evenodd"/>
  <path d="m740.77 248.96a103.46 92.995 0 0 0 -103.46 92.993 103.46 92.995 0 0 0 103.46 92.996 103.46 92.995 0 0 0 87.002 -42.85v-100.46a103.46 92.995 0 0 0 -87.002 -42.682z" fill="#fff" fill-rule="evenodd"/>
  <ellipse cx="594.3" cy="341.96" rx="103.46" ry="92.995" fill="#fff" fill-rule="evenodd"/>
  <ellipse cx="480.38" cy="304.76" rx="103.46" ry="92.995" fill="#fff" fill-rule="evenodd"/>
  <ellipse cx="349.03" cy="282.67" rx="103.46" ry="92.995" fill="#fff" fill-rule="evenodd"/>
  <ellipse cx="259.52" cy="295.46" rx="103.46" ry="92.995" fill="#fff" fill-rule="evenodd"/>
  <ellipse cx="401.34" cy="369.85" rx="103.46" ry="92.995" fill="#fff" fill-rule="evenodd"/>
  <ellipse cx="88.641" cy="471.57" rx="103.46" ry="92.995" fill="#fff" fill-rule="evenodd"/>
  <ellipse cx="155.48" cy="360.56" rx="103.46" ry="92.995" fill="#fff" fill-rule="evenodd"/>
  <rect transform="matrix(.99982 .019085 -.019085 .99982 0 0)" x="596.37" y="365.93" width="2.4702" height="37.198" ry=".72955" fill="#333" fill-rule="evenodd"/>
  <rect transform="matrix(.99989 .014926 -.014926 .99989 0 0)" x="485.33" y="367.45" width="112.89" height="2.5287" ry=".72955" fill="#333" fill-rule="evenodd"/>
  <path d="m149.12 407.8c-53.856-0.93875-155.49 30.594-203.37 19.892v205.99h882.02v-213.9c0 42.884-1.0596-2.0955-2.3272-2.3272-45.328-8.2824-80.92 12.423-126.46 11.377-37.708-0.86653-122.67-10.169-160.48-7.8548-73.934 4.5248-99.997 18.262-177.33 19.263-80.556 1.0418-132.2-29.507-212.06-32.44z" fill="#4dd0e1" fill-opacity=".62011" fill-rule="evenodd"/>
  <path d="m-32.695 399.81c-11.908-0.17682-21.556 0.64328-21.556 1.4486v232.42h882.02v-213.9c0 42.884-1.0596-2.0955-2.3272-2.3272-45.328-8.2824-78.015-7.92-123.56-8.9666-37.708-0.86652-123.83 23.542-161.64 25.855-73.934 4.5248-114.37-14.484-191.7-13.484-80.556 1.0417-133.75 7.5258-213.6 4.5921-55.347-2.0334-119.09-20.214-145.36-24.026-7.1753-1.041-15.134-1.5058-22.279-1.6119z" fill="#4dd0e1" fill-opacity=".62011" fill-rule="evenodd"/>
  <path d="m619.49 390.93c-142.41-1.3199-285.27-5.3076-431.6-29.933l60.633 56.73c110.25 16.033 220.92 11.893 331.39 17.365l8.6843-17.051 25.128-7.4067z" fill="#00bcd4" fill-rule="evenodd"/>
  <path d="m133.27 460.14c-54.343 0.70155-141.15 23.861-187.53 14.691v158.86h882.02v-165.85c0 37.932-1.0596-1.8528-2.3272-2.0577-45.328-7.326-80.92 10.986-126.46 10.06-37.708-0.76645-122.67-8.9918-160.48-6.9452-73.934 4.0023-99.997 16.154-177.33 17.039-80.556 0.92145-142.89-23.193-222.74-25.788-1.683-0.026-3.4041-0.0252-5.1571-3e-3z" fill="#48c9da" fill-opacity=".62011" fill-rule="evenodd"/>
  <path d="m-32.695 478.85c-11.908-0.14476-21.556 0.52753-21.556 1.1869v153.64h882.02v-138.48c0 35.111-1.0596-1.7125-2.3272-1.9022-45.328-6.7812-78.015-6.4848-123.56-7.3417-37.708-0.70946-123.83 19.276-161.64 21.17-73.934 3.7047-114.37-11.859-191.7-11.04-80.556 0.85293-133.75 6.1596-213.6 3.7577-55.347-1.6648-119.09-16.549-145.36-19.669-7.1753-0.85234-15.134-1.2348-22.279-1.3217z" fill="#74e1ef" fill-opacity=".2514" fill-rule="evenodd"/>
  <path d="m60.547 513.61c-53.856-0.70191-66.923 25.067-114.8 17.065v103.01h882.02v-108.93c0 32.065-1.0732-1.4856-2.3272-1.7389-124.24-25.098-129.67 21.114-217.14 23.619-37.698 1.0798-98.258-26.202-136.06-24.471-73.934 3.3833-116.27 24.118-193.6 24.865-80.556 0.77893-138.24-31.229-218.1-33.423z" fill="#48c9da" fill-opacity=".62011" fill-rule="evenodd"/>
  <path d="m37.552 542.95c-8.3688-0.17351-91.804 11.67-91.804 12.398v78.338h882.02v-66.386c0 27.681-1.0596-1.351-2.3272-1.5005-45.328-5.3461-78.015-5.1138-123.56-5.7894-37.708-0.55932-123.83 15.198-161.64 16.692-73.934 2.9207-87.633-17.488-164.97-16.842-80.556 0.67243-170.95 32.758-250.8 30.865-21.939-0.94896-198.81-37.952-88.401-46.896 2.3305-0.58265 2.6675-0.85373 1.472-0.87852z" fill="#74e1ef" fill-opacity=".2514" fill-rule="evenodd"/>
  <path d="m616 401.68c-142.41-1.3199-226.09 45.517-410.2-23.862l42.721 39.907c108.96 22.464 218.95 21.746 331.39 17.365l8.6843-17.051 25.128-7.4067z" fill="#00bcd4" fill-rule="evenodd"/>
  <path d="m449.46 385.75-5.2702 1.5533-3.0116 4.4011 1.2548 2.0711 1.694-0.12937 5.7094 0.0646-0.18822-2.4594 0.94109-0.25892 1.694-3.6891z" fill="#f95" fill-rule="evenodd"/>
  <path d="m495.68 344.46 8.8558 18.753-8.3092 27.258 5.7659-1.2909 12.961-23.545c0.19694-1.1886 0.14247-2.4885-0.039-3.6165l-11.617-17.711z" fill="#f95" fill-rule="evenodd"/>
  <path d="m488.59 340.61c-1.2476 1.8013-1.8273 3.9734-1.189 6.822l13.469 14.505 12.754-8.6706-15.61-13.242c-3.1994-1.0305-6.3461-0.94706-9.4243 0.58563z" fill="#616161" fill-rule="evenodd"/>
  <path d="m489.21 323.21 2.3682 9.2378-8.5656 9.5453 0.0356-8.5843-1.366-7.0387z" fill="#ffb380" fill-rule="evenodd"/>
  <path d="m491.49 329.62c-2.8309 3.1694-2.3494 6.6596-9.1372 9.0813-10.98 23.17 11.445 39.988 6.3717 56.357 0.74327 0.84286 7.4917-2.4139 8.3416-1.8275 7.1418 4.928 12.512 7.3348 20.536 3.5141-9.0296-19.423-7.731-54.708-26.112-67.125z" fill="#bcaaa4" fill-rule="evenodd"/>
  <path d="m485.59 353.02-2.0874 16.325-28.239 15.252 6.5309 1.9331 24.801-8.656c1.0756-0.54272 4.2894-2.4107 5.0927-3.2232l3.9254-16.712z" fill="#ffb380" fill-rule="evenodd"/>
  <path d="m492.2 337.04c-2.1904 0.0543-4.2867 0.86656-6.2113 3.0616l-3.775 19.431 14.523 5.19 1.4928-20.416c-1.0539-3.1918-2.9764-5.6843-6.0292-7.267z" fill="#616161" fill-rule="evenodd"/>
  <rect transform="matrix(.99954 .030469 -.030469 .99954 0 0)" x="540.11" y="363.54" width="45.619" height="19.522" ry="3.4934" fill="#f44336" fill-rule="evenodd"/>
  <path d="m619.49 390.93c-142.41-1.3199-285.27-5.3076-431.6-29.933l17.311 16.045c110.25 16.033 181.29 21.924 291.76 27.395l95.414 2.2699 23.674-4.21z" fill="#00838f" fill-rule="evenodd"/>
  <path d="m472.94 315.08c0.0909 1.6266 0.73501 2.2772 1.2195 3.2094-0.49826 2.2942-0.68672 4.3192-0.72119 6.2104l2.0494-9e-3 -0.11703 2.0942 1.2842 1.6992c-0.37841 1.1059-0.8277 2.2587-0.16929 2.6783 3.9199 0.86055 7.5623-0.65305 11.343-0.97956l2.6393-5.2788-0.44607-10.004s-3.1162-3.8177-3.7244-3.8622c-0.60823-0.0445-9.0729-1.4744-9.0729-1.4744l-4.69 3.9137z" fill="#ffb380" fill-rule="evenodd"/>
  <path d="m473.13 310.14c-1.7961 2.002-1.1961 3.7238-0.35497 5.4175l6.0809-1.512 2.3352 1.915c0.43904-0.0934 1.399 4.4688 1.7911 4.4212 0.33764-0.0406 0.11411-4.6986 0.41068-4.696 2.2479 0.0195 3.2348 1.4194 1.703 6.1497l3.2749 3.1518 2.2176 3.2712c2.1772-4.8841 3.343-10.614 0.4222-19.476-1.1184-0.6557-0.16215-0.10562-1.5 0.39412-5.4924-2.3265-10.926 0.13725-16.38 0.96303z" fill="#424242" fill-rule="evenodd"/>
  <path d="m475.41 325.99c2.6185-0.81601 5.6701-1.951 5.6701-1.951-1.3336 1.6258-2.7262 3.178-4.6502 4.0691l-1.0611-1.5139z" fill="#fff" fill-rule="evenodd"/>
  <path d="m475.12 317.2c1.319-0.84881 2.7334-1.4759 4.4908-1.3053" fill="none" stroke="#000" stroke-width=".65673px"/>
  <ellipse transform="matrix(.99323 -.11613 .11613 .99323 0 0)" cx="436.58" cy="371.2" rx=".88348" ry=".77493" fill="#1a1a1a" fill-rule="evenodd"/>
  <path d="m472.16 315.01c11.162-0.44709 13.803 0.7263 20.748 5.983 2.1906-5.4605 0.18322-11.305-2.4279-13.239-7.5262-3.3618-15.561-2.0268-18.427 3.3961-0.5171 0.97847-0.10349 2.7337 0.10708 3.8603z" fill="#616161" fill-rule="evenodd"/>
  <path d="m476.63 311.65h-17.109c0.54785 1.4292 1.2544 2.7482 3.1926 3.2102h14.166z" fill="#616161" fill-rule="evenodd"/>
  <path d="m598.34 430.24 72.744-36.578-13.562 14.384 59.593-28.358-8.6307 13.152 57.538-25.07-8.2197 16.85 58.771-19.727-3.2879 11.508 13.973-7.3977-0.41097 72.744-50.551-2.8769 2.4659 4.5208-50.551-2.8769s8.6307 2.8769 6.1648 2.8769-47.674-4.1098-47.674-4.1098l5.3428 5.3428-65.758-8.2197-3.6989 7.8087z" fill="#4fc3f7" fill-opacity=".61453" fill-rule="evenodd"/>
  <path d="m639.03 390.79c5.9924-6.536 11.62-13.509 18.905-18.494 6.2456-4.157 8.4479-1.8447 10.686 0.41098-4.041 3.0517-8.2022 3.0822-12.109 5.3692-5.9678 3.4938-11.615 8.9648-17.482 12.714z" fill="#81d4fa" fill-rule="evenodd"/>
  <path d="m687.94 346.81 8.2197-11.508c6.0508-5.0216 6.4636-2.0559 7.8087-0.41099z" fill="#81d4fa" fill-rule="evenodd"/>
  <path d="m746.71 343.94 29.18-12.33c25.32-8.9014 40.405 0.49319 24.248 2.8769-24.649 0.25521-53.428 9.4527-53.428 9.4527z" fill="#81d4fa" fill-rule="evenodd"/>
  <path d="m632.42 406.54c3.2012-4.3252 6.1325-8.876 10.291-12.401 3.5757-2.9539 5.177-1.7841 6.7955-0.65048-2.2809 2.1231-4.91 2.488-7.1747 4.1523-3.4598 2.5426-6.5388 6.2157-9.9117 8.8994z" fill="#81d4fa" fill-rule="evenodd"/>
  <path d="m617.01 414.86c3.2012-4.3252 6.1325-8.876 10.291-12.401 3.5757-2.9539 5.177-1.7841 6.7955-0.65048-2.2809 2.1231-4.91 2.488-7.1747 4.1523-3.4598 2.5426-6.5388 6.2157-9.9117 8.8994z" fill="#81d4fa" fill-rule="evenodd"/>
  <path d="m618.03 416.71c1.3556-5.2074 2.3767-10.523 4.9189-15.346 2.2148-4.075 4.137-3.5874 6.0617-3.1397-1.3237 2.821-3.6267 4.1407-5.1066 6.53-2.2608 3.6501-3.7464 8.207-5.8741 11.956z" fill="#81d4fa" fill-rule="evenodd"/>
  <path d="m615.09 423.98c0.23527-2.3959 0.36526-4.8274 0.97391-7.097 0.53453-1.9205 1.1347-1.7772 1.7344-1.6519-0.30641 1.3212-0.96104 2.0058-1.3295 3.1391-0.5629 1.7312-0.85966 3.8396-1.3788 5.6098z" fill="#81d4fa" fill-rule="evenodd"/>
  <path d="m613.93 422.98c1.8152-2.6118 3.4774-5.3599 5.8354-7.4886 2.0276-1.7838 2.9356-1.0774 3.8533-0.3928-1.2934 1.2821-2.7842 1.5024-4.0684 2.5074-1.9618 1.5354-3.7078 3.7534-5.6204 5.374z" fill="#81d4fa" fill-rule="evenodd"/>
  <path d="m688.14 385.24c8.1564-7.5048 15.817-15.512 25.732-21.236 8.501-4.7732 11.499-2.1181 14.544 0.47189-5.5003 3.504-11.164 3.5391-16.481 6.1651-8.1229 4.0117-15.81 10.294-23.795 14.599z" fill="#81d4fa" fill-rule="evenodd"/>
  <path d="m723.68 338.97 9.5896-13.492c7.0593-5.8876 7.5409-2.4105 9.1102-0.48187-5.5827 5.0503-11.53 9.8808-18.7 13.974z" fill="#81d4fa" fill-rule="evenodd"/>
  <path d="m677.43 373.61 13.396-15.007c11.989-12.004 22.117-10.837 13.797-5.0425-13.379 6.9256-27.193 20.049-27.193 20.049z" fill="#81d4fa" fill-rule="evenodd"/>
  <path d="m459.12 383.32-8.0456 0.0961-4.0546 2.6245 1.1823 2.5888 2.7108 0.95327 3.7164-0.15036 1.004-0.70666 0.0926-0.94173-2.4207 0.0289 4.5962-0.38064 2.9547-0.91862 4.144-0.94982z" fill="#ffb380" fill-rule="evenodd"/>
  <path d="m-54.252 128.83v235.04l13.862-7.9637 3.4856-22.085 5.8127-13.95 13.95-11.625 3.4882-32.547 3.8769-15.39 8.3355-6.0402-1.7506-59.942 8.1373-15.111 1.161-9.2983 5.8127-9.3009 1.1636-27.897z" fill="#d7ccc8" fill-rule="evenodd"/>
  <path d="m-54.252 89.017v49.067c3.6585-1.8942 3.5782-3.9981 3.0243-5.2944l-0.78782-1.2362s0.46852 0.48896 0.78782 1.2362l7.3495 11.55s4.6502 1e-3 16.275-3.4856c11.624-3.4873 16.275-6.9763 16.275-6.9763l15.111 6.9763h22.087l-1.1636-19.763-78.958-32.075z" fill="#dce775" fill-rule="evenodd"/>
  <path d="m-31.747 53.674c-0.9365 0-15.608-6.2778-15.608-6.2778s-1.6649-4.372 0.10405-2.6905c1.7689 1.6815 15.504 7.623 14.88 7.0625-0.62433-0.56052-10.614-16.928-10.614-16.928l2.3933-3.8115 8.4285 17.04-1.2487-15.694 2.0811-2.5784v6.6141l5.0987-10.201 7.9082 0.56051-11.342 13.116 19.979-7.8472s7.1799 2.2421 5.3068 2.2421c-1.873 0-22.06 7.9593-22.06 7.9593l23.204 3.8115 9.0529 2.242s-31.321-2.8026-30.488-2.13c0.83245 0.67262 24.765 12.219 25.39 13.677 0.62434 1.4573 4.8906 8.2956 2.4973 7.9593s-29.136-18.833-29.136-18.385 9.4691 22.421 9.4691 22.421-4.4744-1.3452-4.7866-2.0179c-0.31217-0.67261-8.3245-18.497-8.3245-18.497l1.1446 2.8026z" fill="#d4e157" fill-rule="evenodd"/>
  <ellipse cx="641.96" cy="243.15" rx="103.46" ry="92.995" fill="#fff" fill-rule="evenodd"/>
  <ellipse cx="580.35" cy="129.23" rx="103.46" ry="92.995" fill="#fff" fill-rule="evenodd"/>
  <ellipse cx="628.01" cy="50.184" rx="103.46" ry="92.995" fill="#fff" fill-rule="evenodd"/>
  <ellipse cx="687.3" cy="82.732" rx="103.46" ry="92.995" fill="#fff" fill-rule="evenodd"/>
  <path d="m744.26 75.757a103.46 92.995 0 0 0 -103.46 92.996 103.46 92.995 0 0 0 103.46 92.996 103.46 92.995 0 0 0 83.514 -38.271v-109.42a103.46 92.995 0 0 0 -83.514 -38.3z" fill="#fff" fill-rule="evenodd"/>
 </g>
</svg>
