<?xml version="1.0" encoding="UTF-8"?>
<!DOCTYPE svg  PUBLIC '-//W3C//DTD SVG 1.1//EN'  'http://www.w3.org/Graphics/SVG/1.1/DTD/svg11.dtd'>
<svg enable-background="new 0 0 841.89 595.28" version="1.1" viewBox="0 0 841.89 595.28" xml:space="preserve" xmlns="http://www.w3.org/2000/svg">
<path d="m640.65 102.6l0.35-0.9h3.75v53.8h-19v-0.05h-8.65v0.05h-136.4v-0.05h-9.75v0.05h-14v-0.05h-9.601v0.1l-103.45-0.1v0.05h-42v-0.05h-24.55v0.05h-80.049c8.667-0.6 15.184-0.917 19.55-0.95 0.2-0.1 0.433-0.183 0.7-0.25 0.167 0.067 0.317 0.15 0.45 0.25 1.833 0 3.2 0.067 4.1 0.2 3.367 0.267 5.833-0.117 7.4-1.15v1.15c2.4-0.067 4.25-0.65 5.55-1.75 0 0.367 0.083 0.767 0.25 1.2h0.6c0.1-0.9 0.383-1.483 0.85-1.75 0.333-0.3 0.817-0.5 1.45-0.6 0.4 1.3 1.283 2.267 2.65 2.9 2.267 0 3.733-0.183 4.4-0.55 0.6-0.233 1.367-0.867 2.3-1.9 0.833-0.933 1.733-1.466 2.7-1.6 0.033 0.033 0.617 0.233 1.75 0.6v0.85c0.6-0.066 1.083-0.267 1.45-0.6 1.167-0.367 2.733-0.267 4.7 0.3v-0.3h0.3v-2.3h9.65v-22h0.85v1.45h4.15v-1.45h0.55c0.267 0.467 1.15 0.667 2.65 0.6 0.067-0.133 0.133-0.25 0.2-0.35v-4c0.067-0.833 0.1-1.767 0.1-2.8-0.067-0.9-0.1-1.733-0.1-2.5v-5.75c0.2-0.034 0.383-0.067 0.55-0.1 0.833-0.167 1.434-0.467 1.8-0.9 0.2-0.267 0.533-1.1 1-2.5 2.233-0.233 3.733-0.333 4.5-0.3-0.1-2.433 0-4.066 0.3-4.9h0.3v0.3c0.267 0.434 0.35 2.267 0.25 5.5h4.15v0.85c0.4 0.067 0.717 0.167 0.95 0.3 0.7 0.833 1.767 1.216 3.2 1.15 0.533 0.333 1.233 0.333 2.1 0 0.967-0.4 1.75-0.5 2.35-0.3 1.133 0.4 1.95 0.6 2.45 0.6v8.7h1.75v-6.05h1.5v-13.3h2.95v-13.9l0.3-0.3c4.367-0.066 12.517 0.034 24.45 0.3 6.133 0 9.9 0.483 11.3 1.45 0.233 0.333 0.317 1.2 0.25 2.6h0.95v27.45h1.75v-1.75h1.65v2.35h2.3v-2.05h1.65v1.45c0.133 0.033 0.25 0.066 0.35 0.1 0.067-22.934 0.067-45.85 0-68.75h16.2v-3.15h2.95v-1.75h2.05v1.75h13.25v3.45h16.4v56.25h2.95l0.9-5.5h2.2v-1.15h1.75v0.85c1.9-0.034 3.533 0.15 4.9 0.55v-7.2h2.85v-57l14.55-2.3c0.733 0.133 2.566 0.617 5.5 1.45 2.3 0.7 4.233 1.083 5.8 1.15v5.5l3.55 0.85v22.3l10.2 0.25v3.8c2.101 0.167 6.384 0.25 12.851 0.25v-0.05h0.149v0.05h0.4v13.25l9.75-0.8h0.149v-31h0.601c1.866-1.133 6.033-2.1 12.5-2.9 3.399-0.967 10.05-2.6 19.95-4.9 1.466-0.333 4.366-0.05 8.699 0.85l15.101 1.4v16.45c0.399-0.133 0.816-0.283 1.25-0.45l9.6 1.15v20.25c0 1.033-0.05 2.75-0.149 5.15-0.067 2.033 0.083 3.583 0.449 4.65 0.601-0.1 1.534-0.2 2.801-0.3 1.699-0.167 2.716-0.517 3.05-1.05 0.2-0.3 0.5-1.367 0.899-3.2h0.301l0.6 3.5c3.3 0.367 5.566 0.566 6.8 0.6 0.066 1.1 0.367 2.05 0.9 2.85l5.7 0.2-0.25-19.1h0.55v-3.2c0.333-0.633 0.517-1.017 0.55-1.15v-6.05c0.8-1.333 1.217-2.783 1.25-4.35l2.1 0.25c0-3.566 0.101-5.483 0.301-5.75l0.899-0.3 0.601-2.9 0.899-0.3c0.3-0.667 0.25-2.333-0.149-5-0.434-2.633-0.384-4.35 0.149-5.15-0.033 2.967 0.684 7.417 2.15 13.35h0.85l0.9 6.05h0.3c0.167-0.1 0.566-0.283 1.2-0.55 2.934 11.066 4.55 28.15 4.85 51.25l3.65 0.25-0.3-5.4 7.399-0.6-0.3-12.45 9.5-0.3c3.267 0.733 6.533 1.117 9.8 1.15l0.3 7.6 9 0.95v-1.65c2.067-0.1 5.184-0.283 9.351-0.55h5.199zm-41.4 158.8c-0.066 2.267-0.233 5.4-0.5 9.4v45.351c2.5-0.066 4.934 0.149 7.3 0.649 0.2 0.233 0.434 0.45 0.7 0.65v1.75l3.5-0.45v-13.9h4.1c0.233-0.266 0.467-0.482 0.7-0.649v-3.15h1.05v-4.45c1.367-0.133 3.483-0.4 6.351-0.8 2.7-0.3 5.184-0.45 7.45-0.45v2.5h1.949v3.8h8.2c0.167-0.234 0.367-0.434 0.601-0.601 0.033-1.433 0.133-4.95 0.3-10.55 0.6 2.733 0.934 3.517 1 2.35h0.6v8.6h3.15v-12.35h0.85c0.167 0.2 0.384 0.4 0.65 0.6 0.1 3.767 0.416 7.566 0.95 11.399 1.1 0.066 1.949 0.566 2.55 1.5 3.2 0.066 5.434 0.283 6.7 0.65 1.267 0.334 2.183 0.617 2.75 0.85 0.533 0.234 0.983 0.684 1.35 1.351v12h9.15v16.2h-499.25c0.1-6.5 0.267-14.033 0.5-22.601h5.9c0.567 1.134 0.983 1.784 1.25 1.95 0.333 0.267 1.233 0.467 2.7 0.6 0.433-0.333 1.3-0.55 2.6-0.649l2-3.8 6.5 0.649c1.433 2.2 2.083 6.851 1.95 13.95h0.65v0.65c0.466-0.167 0.933-0.316 1.4-0.45v-0.25h0.25v-29.05h6.55c-0.033 0.967 0.25 1.55 0.85 1.75 0.433 0.133 1.667 0.184 3.7 0.15l0.7-4.4h14.4v5h0.05v0.05h2.35v3.8h4.8c0.5 1.4 0.767 3.566 0.8 6.5 0.034 1.666 0 4.1-0.1 7.3h13.9v10.101h1.8v-19.45c1.233-0.434 3.017-0.634 5.35-0.601v-3.149h15.9c0.3 1.1 0.583 1.866 0.85 2.3 0.167 0.267 0.4 0.517 0.7 0.75v-10.65h0.2c0.767-0.1 1.883-0.417 3.35-0.95 1.267-0.467 2.267-0.566 3-0.3v1.25c0.533 0.3 0.9 0.433 1.1 0.4 0.133-0.033 0.433-0.167 0.9-0.4 0.3-0.5 0.5-1.55 0.6-3.15h11.8v-12.8c1.434-0.467 3.733-0.65 6.9-0.55 0.8-0.567 3.167-0.833 7.1-0.8 1.033 0 2.167 0.017 3.4 0.05 5.5 0.2 8.633 0.617 9.4 1.25 0.066 0.033 0.117 0.066 0.15 0.1v17.65h0.05v0.1h4.5v-28.95c0.867-0.333 1.733-0.55 2.6-0.65 1 0.633 3.033 0.933 6.1 0.9 1.667 0 4-0.083 7-0.25v44.7h0.45c0.267-0.233 0.717-0.434 1.35-0.601v-15.75h8.05v-5h4v11.3h0.8v-0.049h0.25v-40.35c1.867-0.133 5.533-0.767 11-1.9l23.95 0.65v23.3h9.15v-42.35h0.4c0.6-4.167 1.45-7.934 2.55-11.3 1.067-3.367 2.017-6.667 2.85-9.9h2.6v-3.8l8.45-0.65v-3.75h1.25c0.267 2.167 2.65 3.367 7.149 3.6 0.301 0 3.967-0.15 11-0.45v83.8c0.034 0 0.067 0.017 0.101 0.05v0.3c2.767 0.633 6.684 0.883 11.75 0.75 3.033-0.066 7.283-0.217 12.75-0.449v-0.051h0.25v-32.1h1.95v-3.15h0.699v-0.65c5.567-0.067 9.267-0.7 11.101-1.9 1.033-0.4 2.05-0.55 3.05-0.45l0.1-0.3-0.3-35.2h1.75v32.8c1.3-0.033 3.634-0.05 7-0.05-0.899 0.633-0.934 0.717-0.1 0.25v2.25c0.033 0.033 0.083 0.05 0.149 0.05 0.834 0.2 2.75 0.233 5.75 0.1 0.834 0.533 3.884 0.733 9.15 0.6l0.7 5.05h1.3v-0.65c0.4-0.433 0.6-0.217 0.6 0.65 0.467 0.733 0.667 2.633 0.601 5.7-0.066 2.333 0.267 3.9 1 4.7 3.566-2.633 9.75-3.583 18.55-2.85 1 1.333 3.816 3.65 8.45 6.95l0.649 23.6c0.567 0.133 1.084 0.233 1.551 0.3 0.866-2.5 1.233-6.35 1.1-11.55-0.267-5.867-0.417-10-0.45-12.4 0.434-0.667 0.65-2.133 0.65-4.4h5.2l0.649-2.55c0.733-0.533 1.8-0.7 3.2-0.5 0.267 0.033 0.5-0.1 0.7-0.4h0.5v-1.5c0.033-0.233 0.066-0.483 0.1-0.75-0.033-0.067-0.066-0.117-0.1-0.15v-4.9h0.1v1.25c0.566 0.466 1.05 1.133 1.45 2v5.2h0.4v-0.3h0.199v-3.35c0.2 0.633 0.384 1.35 0.551 2.15h0.649c0.066-0.8 0.117-1.217 0.15-1.25 0-0.033 0.149-0.05 0.45-0.05v4.2h1.149v-4.75c0.4 0.6 0.767 1.217 1.101 1.85 0.466 0.4 1.683 0.617 3.649 0.65 0.3-0.533 0.467-0.883 0.5-1.05 0.066-0.033 0.533-0.117 1.4-0.25 0.1 0.133 0.6 0.667 1.5 1.6 0.5 0.5 0.866 1.233 1.1 2.2h3.9c1.033 3 1.467 7.667 1.3 14-0.134 3.5-0.35 8.5-0.65 15h0.051v-0.05c4.1-0.267 7.333-0.45 9.699-0.55v-2.5c1.867 0.033 3.384 0.267 4.551 0.7 1.033 0.399 1.866 0.699 2.5 0.899v-20.5h2v-28.4h2.699c0.034-1.3 0.233-2.566 0.601-3.8 0.399-1.333 0.633-2.6 0.7-3.8h6.6c0.467 0.633 1.684 1.6 3.65 2.9 1.633 1.066 2.633 2.2 3 3.4 0.869 1.368 1.236 4.134 1.102 8.301zm-11.95 144.45h2.25v-0.8h1.2v-6.7h0.8c0.066-1.967 0.733-3.666 2-5.1v0.55c1.533 1.434 2.483 3.116 2.851 5.05 0.133 1.2 0.416 3.434 0.85 6.7h1.4c0.199-0.333 0.383-0.483 0.55-0.45 0.1 0 0.399 0.066 0.899 0.2-0.066 1.7 0.017 2.866 0.25 3.5l1.75-0.25 0.2 2.15c0.834 0.3 1.334 0.884 1.5 1.75 0.066 0.399 0.066 1.399 0 3h1.7c0.267 0.466 0.717 1.333 1.35 2.6 0.667 1.034 1.434 1.616 2.301 1.75-0.2 1.467-0.284 2.717-0.25 3.75 0.466 0.101 0.833 0.184 1.1 0.25 0.2-0.167 0.583-0.25 1.15-0.25 0.699 1.134 1.05 3.233 1.05 6.3 0 1.7-0.066 4.15-0.2 7.351v32.95c6-0.601 13.083-0.9 21.25-0.9h0.5v28.3c0.066 0.034 0.134 0.067 0.2 0.101v0.449c0.1 0.033 0.2 0.084 0.3 0.15 1.134 0.533 2.083 0.867 2.85 1v1.15l5.301 1.75v8.699h3.6v9.65h6.95v5.3h1.149v17.351h-466.15v-12.851c0.167-0.033 0.383-0.083 0.65-0.149 0.233-1.066 0.417-1.834 0.55-2.301 0.267-0.866 0.817-1.316 1.65-1.35 0.133 0.233 0.3 0.35 0.5 0.35 0.3-0.199 0.483-0.516 0.55-0.949-0.2-0.268-0.333-0.851-0.4-1.75-0.067-1.066-0.117-1.65-0.15-1.75 0.333-0.033 0.567-0.084 0.7-0.15-0.3-0.166-0.467-0.434-0.5-0.8h0.65c0.033-0.233 0.15-0.384 0.35-0.45v0.15c0.067 0.066 0.133 0.217 0.2 0.449l3-0.149v-0.3c-0.067-0.066-0.117-0.217-0.15-0.45h0.7c0.033 0.033 0.083 0.083 0.15 0.149l-0.15 0.75c0.7 0.033 1.25-0.05 1.65-0.25 0.067-0.066 0.133-0.033 0.2 0.101 0.167 0.2 0.383 0.466 0.65 0.8-0.2 0.267-0.3 0.584-0.3 0.95 0.5 0.3 0.933 0.466 1.3 0.5 0.167-0.267 0.433-0.384 0.8-0.351 0.233 0.033 0.717 0.084 1.45 0.15v-0.75h0.15c0.267 0.533 0.633 0.85 1.1 0.95v-12h2.55c0.034-4.767-0.333-9.534-1.1-14.3 0.433 0.033 0.883 0.133 1.35 0.3v-0.8c-0.133-0.234-0.216-0.601-0.25-1.101h0.25c0.567 0.934 1.217 1.467 1.95 1.601v-0.2c-0.7-0.7-0.883-1.333-0.55-1.9 0.1-0.533 0.316-0.866 0.65-1 0.367-0.267 0.617-0.483 0.75-0.649v-6.95c0.333-0.134 0.8-0.233 1.4-0.3 0.167 0.266 0.35 0.467 0.55 0.6-0.633 1.3-0.917 3.617-0.85 6.95 0.466-0.034 0.933-0.134 1.4-0.3v1.899c0.2 0.333 0.25 0.684 0.15 1.05-0.1 0.2-0.25 0.566-0.45 1.101h0.55c0.167-0.833 0.816-1.366 1.95-1.601v0.301c-0.466 0.199-0.75 0.633-0.85 1.3 0.667 0.134 1.133 0.316 1.4 0.55-0.833 1-1.267 3.017-1.3 6.05-0.033 1.7 0.034 4.167 0.2 7.4h1.45v2.149h0.2v0.25c1.4-0.066 2.25 0.117 2.55 0.551 0.233 0.166 0.133 0.434-0.3 0.8h10.85v11.25h2.8v-0.05h0.4l-0.3-29.5c0.767-0.301 3.45-0.4 8.05-0.301 0.733-0.434 3.083-0.6 7.05-0.5 3.533 0.066 5.833 0.234 6.9 0.5 0.333 0.066 1.033 0.117 2.1 0.15 0.8 0 1.4 0.117 1.8 0.35 0.067 0.101 0.133 0.234 0.2 0.4v-12.65h0.5c0.767-0.5 1.883-0.75 3.35-0.75 0.867 0.033 2.217 0.101 4.05 0.2 7.667 0.366 13.267 0.634 16.8 0.8 0.433 1.367 0.617 3.484 0.55 6.351-0.067 1.6-0.167 3.866-0.3 6.8h0.85v1.9h1.9c0.5 1.5 0.7 4.083 0.6 7.75-0.066 2.033-0.167 4.816-0.3 8.35h2.7v1.1h2.25v1.101h1.9v2.899h4.15v2.95h0.55v-0.05h0.2c0.033-2.566-0.033-4.717-0.2-6.45v-3.45h1.3v-1.901h2.75c0.2 0.466 0.316 1 0.35 1.6h0.8v-20.65h2.75v-0.25h0.3v-20.15h2.2v-21.75c1.5-0.2 2.283-0.733 2.35-1.6 0.066-1.134 0.316-1.851 0.75-2.15 0.633-0.434 1.816-0.7 3.55-0.8 2.434-0.7 4.85-0.917 7.25-0.65 0.667 0.067 3.167 0.55 7.5 1.45v36.7h4.9c0.167 0.566 0.25 3.267 0.25 8.1v16.65h5.05v1.3h6.5v3.5h3.2v14.5h0.15v0.05h5l0.35-0.3v-1.05h0.85v-0.8h1.1v-1.4h1.2v1.4h2v-19.65h2.95v-65.75c0.3-0.066 0.667-0.166 1.1-0.3 0.367-1.8 0.667-3.101 0.9-3.9 0.434-1.433 1.333-2.183 2.7-2.25 0.233 0.366 0.5 0.534 0.8 0.5 0.467-0.333 0.733-0.866 0.8-1.6-0.267-0.434-0.45-1.417-0.55-2.95-0.133-1.8-0.217-2.783-0.25-2.95 0.5-0.033 0.883-0.116 1.15-0.25-0.466-0.3-0.75-0.75-0.85-1.35h1.05c0.1-0.4 0.3-0.667 0.6-0.8v0.25c0.1 0.133 0.183 0.399 0.25 0.8l4.95-0.25v-0.55c-0.1-0.134-0.183-0.4-0.25-0.801h1.1c0.067 0.066 0.167 0.15 0.3 0.25l-0.3 1.351c1.167 0.033 2.1-0.134 2.8-0.5 0.066-0.067 0.133 0.017 0.2 0.25 0.333 0.333 0.717 0.783 1.15 1.35-0.367 0.467-0.55 1-0.55 1.601 0.8 0.5 1.533 0.766 2.2 0.8 0.3-0.4 0.733-0.567 1.3-0.5 0.367 0 1.133 0.066 2.3 0.2v-1.301h0.25c0.5 1 1.15 1.533 1.95 1.601 0.367 0.134 0.717 0.134 1.05 0 0.233 0.2 0.45 0.466 0.65 0.8-0.8 0.7-0.9 2.233-0.3 4.6 0.434 1.634 0.967 3.066 1.6 4.301h0.35c0.033-0.4 0.117-0.768 0.25-1.101h0.25c0.2 1 0.767 1.634 1.7 1.9 0.2 0.366 0.284 1.017 0.25 1.95-0.066 0.866 0.017 1.467 0.25 1.8 0.2 0.233 0.75 0.583 1.65 1.05v49.65h0.2v0.1h2.95v24.95h2.6v-4h1.4v5.899h3.1l0.3-0.25v-1.35c0.767-0.066 1.433-0.233 2-0.5 0.067 0.367 0.233 0.633 0.5 0.8v-23.9c0.5-0.268 0.717-1.617 0.65-4.051h3.25v-0.05h0.45v-5.899c3.3-0.033 7.417 0.283 12.35 0.949-0.2-18.166-0.3-31.8-0.3-40.899h0.6c0.6-0.4 1.85-0.817 3.75-1.25 1.9-0.434 3.4-0.65 4.5-0.65v-19.3h0.3v-0.3h0.851v18h0.25v0.3c0.566 0 1.333 0.084 2.3 0.25v1.35c0.1 0.134 0.2 0.4 0.3 0.801 1.767 0.033 3.1 0.383 4 1.05 0.233 0.399 0.384 1.25 0.45 2.55v4.7c-0.033 1.566-0.101 3.45-0.2 5.649v33.8h1.65v-1.65c0.699-0.2 2.699-0.283 6-0.25v-0.8h3.399v-2.15l-0.85-0.3c-0.134-0.1-0.417-0.184-0.851-0.25v-6.45c1.967-0.134 3.667-0.134 5.101 0 0.5 1.733 1.316 2.967 2.45 3.7 1.199-0.967 3.883-1.383 8.05-1.25v-2.7c5.1-0.1 8.533 0.05 10.3 0.45v-33.5l22.9-1.05c1.399 0.433 4.449 2.05 9.149 4.85 0.566 0.333 2.233 1.05 5 2.15v40.75c0.5-0.3 1.184-0.517 2.05-0.65 0.667-0.1 1.717-0.233 3.15-0.399v-6.7h4.05v-2.4h5.75v-4.901h7.65c0.6 0.199 1.733 0.732 3.399 1.6 1.4 0.733 2.601 1.184 3.601 1.35v1.601l6.95 2.45v11.85h10.75v2.95c0.633 0.2 1.5 0.283 2.6 0.25 0.233 0.134 0.616 0.216 1.15 0.25v16.95h3.75v1.899h5.199v-1.1h0.652v-0.15h0.55v-17.4h0.9v-80.45c0.633-0.267 1.85-0.366 3.649-0.3v-4.301h3.7c0.2-3.266 0.3-5.75 0.3-7.449h4.2v-4.05zm-160.85 148.85c-0.467 0-0.851 0.149-1.15 0.45-0.333 0.266-0.5 0.8-0.5 1.6v3.4h-1.05v-6.2h0.95v0.85c0.467-0.667 1.116-1 1.95-1 0.399 0 0.75 0.067 1.05 0.2 0.333 0.133 0.566 0.3 0.7 0.5 0.166 0.233 0.283 0.5 0.35 0.8 0.033 0.2 0.05 0.534 0.05 1v3.851h-1.05v-3.801c0-0.434-0.05-0.75-0.15-0.949-0.066-0.2-0.199-0.367-0.399-0.5-0.234-0.134-0.484-0.201-0.751-0.201zm-8.3 4.5c0.2 0.167 0.5 0.25 0.9 0.25s0.767-0.083 1.1-0.25c0.3-0.167 0.533-0.417 0.7-0.75 0.1-0.233 0.15-0.583 0.15-1.05v-0.351c-0.367 0.134-0.933 0.267-1.7 0.4-0.433 0.033-0.75 0.1-0.95 0.2-0.167 0.066-0.3 0.184-0.4 0.35-0.1 0.133-0.15 0.3-0.15 0.5 0 0.268 0.117 0.501 0.35 0.701zm-5.85-5.25h1.05v0.8h-1.05v3.65c0 0.3 0.017 0.482 0.05 0.55 0.033 0.1 0.083 0.167 0.15 0.2 0.1 0.066 0.233 0.1 0.4 0.1l0.45-0.05 0.15 0.95c-0.3 0.066-0.567 0.1-0.8 0.1-0.367 0-0.667-0.066-0.9-0.2-0.2-0.134-0.35-0.283-0.45-0.45-0.067-0.199-0.1-0.616-0.1-1.25v-3.6h-0.8v-0.8h0.8v-1.55l1.05-0.65v2.2zm2.05-2.4h1.05v8.601h-1.05v-8.601zm3.1 5.5c0.2-0.134 0.45-0.25 0.75-0.35l0.95-0.15c0.833-0.1 1.45-0.216 1.85-0.35v-0.25c0-0.434-0.1-0.75-0.3-0.95-0.267-0.233-0.667-0.35-1.2-0.35-0.467 0-0.833 0.083-1.1 0.25-0.233 0.199-0.4 0.516-0.5 0.949l-1.05-0.149c0.1-0.434 0.267-0.784 0.5-1.05 0.2-0.268 0.5-0.484 0.9-0.65 0.4-0.133 0.867-0.2 1.4-0.2s0.967 0.05 1.3 0.15c0.333 0.134 0.583 0.3 0.75 0.5 0.166 0.2 0.283 0.433 0.35 0.7 0.033 0.199 0.05 0.533 0.05 1v1.399c0 0.967 0.017 1.583 0.051 1.851 0.033 0.266 0.116 0.516 0.25 0.75h-1.101c-0.1-0.234-0.166-0.484-0.2-0.75-0.399 0.333-0.766 0.566-1.1 0.699-0.367 0.134-0.767 0.2-1.2 0.2-0.667 0-1.183-0.167-1.55-0.5s-0.55-0.767-0.55-1.3c0-0.3 0.066-0.566 0.2-0.8 0.133-0.265 0.317-0.482 0.55-0.649zm-11.95-5.5h1.2l3.5 8.601h-1.25l-1.05-2.601h-3.55l-0.95 2.601h-1.2l3.3-8.601zm0.55 0.9c-0.1 0.566-0.25 1.116-0.45 1.649l-0.95 2.5h2.9l-0.85-2.35c-0.3-0.732-0.517-1.333-0.65-1.799zm31.55 6c0.101-0.233 0.15-0.583 0.15-1.05v-0.351c-0.366 0.134-0.934 0.267-1.7 0.4-0.434 0.033-0.75 0.1-0.95 0.2-0.166 0.066-0.3 0.184-0.399 0.35-0.101 0.133-0.15 0.3-0.15 0.5 0 0.267 0.117 0.5 0.351 0.7 0.199 0.167 0.5 0.25 0.899 0.25 0.4 0 0.767-0.083 1.101-0.25 0.298-0.166 0.532-0.416 0.698-0.749zm-7.75-4.5h0.801v-1.55l1.05-0.65v2.2h1.05v0.8h-1.05v3.65c0 0.3 0.017 0.482 0.05 0.55 0.033 0.1 0.083 0.167 0.15 0.2 0.1 0.066 0.233 0.1 0.399 0.1l0.45-0.05 0.15 0.95c-0.301 0.066-0.567 0.1-0.801 0.1-0.366 0-0.666-0.066-0.899-0.2-0.2-0.134-0.351-0.283-0.45-0.45-0.066-0.199-0.1-0.616-0.1-1.25v-3.6h-0.801v-0.8zm5.15 0.05c0.4-0.133 0.866-0.2 1.4-0.2 0.533 0 0.966 0.05 1.3 0.15 0.333 0.134 0.583 0.3 0.75 0.5 0.166 0.2 0.283 0.433 0.35 0.7 0.033 0.199 0.05 0.533 0.05 1v1.399c0 0.967 0.017 1.583 0.051 1.851 0.033 0.266 0.116 0.516 0.25 0.75h-1.101c-0.1-0.234-0.166-0.484-0.2-0.75-0.399 0.333-0.767 0.566-1.1 0.699-0.366 0.134-0.767 0.2-1.2 0.2-0.666 0-1.184-0.167-1.55-0.5s-0.55-0.767-0.55-1.3c0-0.3 0.066-0.566 0.2-0.8 0.133-0.267 0.316-0.483 0.55-0.65 0.2-0.134 0.45-0.25 0.75-0.35l0.95-0.15c0.833-0.1 1.449-0.216 1.85-0.35v-0.25c0-0.434-0.1-0.75-0.3-0.95-0.267-0.233-0.667-0.35-1.2-0.35-0.467 0-0.833 0.083-1.1 0.25-0.233 0.199-0.4 0.516-0.5 0.949l-1.05-0.148c0.101-0.434 0.267-0.784 0.5-1.05 0.2-0.267 0.5-0.484 0.9-0.65zm-18.25-210.7h-1.05v-1.2h1.05v1.2zm-1.05 1.2h1.05v6.2h-1.05v-6.2zm6.6 3.45v-0.35c-0.366 0.134-0.934 0.268-1.7 0.4-0.434 0.033-0.75 0.1-0.95 0.2-0.167 0.066-0.3 0.183-0.4 0.35-0.1 0.134-0.15 0.3-0.15 0.5 0 0.267 0.117 0.5 0.35 0.7 0.2 0.166 0.5 0.25 0.9 0.25s0.766-0.084 1.1-0.25c0.3-0.166 0.533-0.416 0.7-0.75 0.1-0.233 0.15-0.584 0.15-1.05zm-2.75-3.4c0.4-0.134 0.867-0.2 1.4-0.2s0.967 0.051 1.3 0.15c0.333 0.133 0.583 0.3 0.75 0.5s0.283 0.434 0.35 0.7c0.034 0.2 0.051 0.533 0.051 1v1.399c0 0.967 0.017 1.584 0.05 1.851s0.116 0.517 0.25 0.75h-1.101c-0.1-0.233-0.166-0.483-0.199-0.75-0.4 0.333-0.767 0.566-1.101 0.7-0.367 0.133-0.767 0.199-1.2 0.199-0.667 0-1.184-0.166-1.55-0.5-0.367-0.333-0.55-0.766-0.55-1.3 0-0.3 0.067-0.566 0.2-0.8 0.133-0.267 0.316-0.483 0.55-0.65 0.2-0.133 0.45-0.25 0.75-0.35l0.95-0.15c0.833-0.1 1.45-0.217 1.85-0.35v-0.25c0-0.434-0.1-0.75-0.3-0.95-0.267-0.233-0.667-0.35-1.2-0.35-0.466 0-0.833 0.083-1.1 0.25-0.233 0.2-0.4 0.517-0.5 0.95l-1.05-0.15c0.1-0.434 0.267-0.783 0.5-1.05 0.2-0.265 0.5-0.482 0.9-0.649zm-12.65 6.15h-1.1v-8.6h1.7l2.45 7.351 2.5-7.351h1.55v8.601h-1.1v-7.2l-2.5 7.2h-1.05l-2.45-7.3v7.299zm22.75-5.25c0.466-0.733 1.1-1.101 1.899-1.101 0.634 0 1.101 0.167 1.4 0.5 0.333 0.334 0.5 0.867 0.5 1.601v4.25h-1.05v-3.9c0-0.433-0.034-0.75-0.101-0.95-0.066-0.166-0.184-0.316-0.35-0.449-0.167-0.101-0.384-0.15-0.65-0.15-0.434 0-0.783 0.15-1.05 0.45-0.3 0.267-0.45 0.733-0.45 1.399v3.601h-1.05v-4.05c0-0.467-0.083-0.816-0.25-1.051-0.2-0.232-0.483-0.35-0.85-0.35-0.301 0-0.584 0.084-0.851 0.25-0.233 0.133-0.416 0.35-0.55 0.65-0.1 0.3-0.15 0.732-0.15 1.3v3.25h-1.05v-6.2h0.953v0.85c0.2-0.3 0.45-0.55 0.75-0.75 0.333-0.166 0.7-0.25 1.1-0.25 0.467 0 0.851 0.084 1.15 0.25 0.3 0.2 0.517 0.484 0.65 0.85zm5.4-0.95h1.05v6.2h-1.05v-6.2zm1.05-2.4v1.2h-1.05v-1.2h1.05zm-4.5-170.95c0.367 0.367 0.801 0.55 1.301 0.55 0.533 0 0.966-0.184 1.3-0.55 0.366-0.4 0.55-1.017 0.55-1.85 0-0.767-0.184-1.35-0.55-1.75-0.334-0.4-0.767-0.6-1.3-0.6-0.5 0-0.934 0.2-1.301 0.6-0.333 0.4-0.5 1-0.5 1.8s0.167 1.4 0.5 1.8zm-13.2-4.9h1l-1.9 6.2h-1.1l-1.25-4.8-1.25 4.8h-1.1l-1.9-6.2h1.1l1.35 4.9 1.3-4.9h1.1l1.2 4.8 1.45-4.8zm4.35-2.4h1.35l2.601 4.05 2.6-4.05h1.3l-3.399 4.95v3.65h-1.15v-3.65l-3.302-4.95zm-15.25 3.1c-0.467 0-0.867 0.167-1.2 0.5s-0.517 0.767-0.55 1.3h3.45c-0.034-0.533-0.167-0.933-0.4-1.2-0.333-0.4-0.767-0.6-1.3-0.6zm-2.1 0c0.533-0.567 1.233-0.85 2.1-0.85 0.833 0 1.517 0.283 2.05 0.85 0.534 0.566 0.8 1.367 0.8 2.4l-0.05 0.25h-4.6c0.033 0.7 0.216 1.233 0.55 1.6 0.367 0.333 0.8 0.5 1.3 0.5 0.4 0 0.733-0.1 1-0.3s0.483-0.517 0.65-0.95l1.1 0.15c-0.167 0.633-0.483 1.117-0.95 1.45-0.467 0.367-1.067 0.55-1.8 0.55-0.9 0-1.617-0.283-2.15-0.85s-0.8-1.35-0.8-2.35c0-1.067 0.267-1.883 0.8-2.45zm-3.3-3.1h1.1v8.6h-1.2l-4.5-6.75v6.75h-1.1v-8.6h1.2l4.5 6.75v-6.75zm42.55 2.4h1.35l-2.35 2.3 2.6 3.9h-1.3l-2.05-3.2-0.75 0.75v2.45h-1.05v-8.6h1.051v4.9l2.499-2.5zm-5.35 0.95c-0.2 0-0.399 0.066-0.6 0.2-0.167 0.133-0.3 0.317-0.4 0.55-0.1 0.367-0.149 0.783-0.149 1.25v3.25h-1.051v-6.2h0.95v0.9c0.233-0.433 0.45-0.717 0.65-0.85s0.434-0.2 0.7-0.2c0.333 0 0.683 0.117 1.05 0.35l-0.351 0.95c-0.266-0.133-0.533-0.2-0.799-0.2zm-8.35-0.4c0.533-0.466 1.184-0.7 1.95-0.7 0.866 0 1.566 0.283 2.1 0.85 0.566 0.533 0.85 1.3 0.85 2.3 0 0.8-0.133 1.433-0.399 1.9-0.233 0.467-0.584 0.817-1.05 1.05-0.434 0.267-0.934 0.4-1.5 0.4-0.867 0-1.567-0.283-2.101-0.85s-0.8-1.367-0.8-2.4c0-1.167 0.316-2.017 0.95-2.55z" clip-rule="evenodd" fill-rule="evenodd"/>
</svg>
