<?xml version="1.0" encoding="UTF-8"?>
<svg viewBox="0 0 110 110" xmlns="http://www.w3.org/2000/svg">
 <defs>
  <filter id="q">
   <feGaussianBlur stdDeviation="1.0373"/>
  </filter>
  <filter id="p">
   <feGaussianBlur stdDeviation="1.8857"/>
  </filter>
  <filter id="t">
   <feGaussianBlur stdDeviation=".889"/>
  </filter>
  <filter id="c"/>
  <filter id="s" x="-.4" y="-.4" width="1.8" height="1.8">
   <feGaussianBlur result="result7" stdDeviation="10.1411"/>
   <feColorMatrix result="result9" values="1 0 0 0 0.1 0 1 0 0 0.1 0 0 1 0 0.1 0 0 0 1 -0.5"/>
   <feColorMatrix result="result9" values="10 0 0 0 0 0 10 0 0 0 0 0 10 0 0 0 0 0 5 0"/>
   <feMerge>
    <feMergeNode in="result7"/>
    <feMergeNode in="result9"/>
   </feMerge>
  </filter>
  <filter id="i" x="-.08812" y="-.10543" width="1.1762" height="1.2108">
   <feGaussianBlur stdDeviation="1.831"/>
  </filter>
  <filter id="l" x="-.06513" y="-.18254" width="1.1302" height="1.3651">
   <feGaussianBlur stdDeviation=".9868"/>
  </filter>
  <filter id="k" x="-.02909" y="-.13717" width="1.0582" height="1.2743">
   <feGaussianBlur stdDeviation=".6974"/>
  </filter>
  <filter id="h" x="-.04056" y="-.32009" width="1.0811" height="1.6402">
   <feGaussianBlur stdDeviation="1.5493"/>
  </filter>
  <filter id="o" x="-.05938" y="-.1435" width="1.1188" height="1.287">
   <feGaussianBlur stdDeviation="1.6347"/>
  </filter>
  <filter id="n" x="-.12063" y="-.35448" width="1.2412" height="1.709">
   <feGaussianBlur stdDeviation="1.919"/>
  </filter>
  <filter id="m" x="-.13388" y="-.4284" width="1.2678" height="1.8568">
   <feGaussianBlur stdDeviation="1.3523"/>
  </filter>
  <filter id="a" x="-.03283" y="-.348" width="1.0657" height="1.696">
   <feGaussianBlur stdDeviation=".3662"/>
  </filter>
  <filter id="j" x="-.27733" y="-.29952" width="1.5547" height="1.599">
   <feGaussianBlur stdDeviation=".7879"/>
  </filter>
  <filter id="g" x="-.11143" y="-.468" width="1.2229" height="1.936">
   <feGaussianBlur stdDeviation=".9849"/>
  </filter>
  <filter id="r" x="-.13089" y="-.08196" width="1.2618" height="1.1639">
   <feGaussianBlur stdDeviation="2.1335"/>
  </filter>
  <linearGradient id="f" x1="148.14" x2="119.68" y1="979.71" y2="917.66" gradientUnits="userSpaceOnUse">
   <stop stop-color="#0ff" offset="0"/>
   <stop stop-color="#fff" offset="1"/>
  </linearGradient>
  <linearGradient id="e" x1="-698.88" x2="-562.49" y1="406.01" y2="363.51" gradientUnits="userSpaceOnUse">
   <stop stop-color="#57646d" offset="0"/>
   <stop stop-color="#57646d" stop-opacity="0" offset="1"/>
  </linearGradient>
  <linearGradient id="d" x1="-654.24" x2="-665.48" y1="414.32" y2="358.17" gradientUnits="userSpaceOnUse">
   <stop stop-color="#ccc" offset="0"/>
   <stop stop-color="#808080" offset="1"/>
  </linearGradient>
  <linearGradient id="b" x1="93.971" x2="199.02" y1="403.75" y2="562.86" gradientUnits="userSpaceOnUse">
   <stop stop-color="#fff" offset="0"/>
   <stop stop-color="#0ff" offset="1"/>
  </linearGradient>
 </defs>
 <g transform="translate(-44.388 -581.28)">
  <path transform="matrix(.63631 0 0 .63631 33.04 55.444)" d="m99.348 903.87c-1.2823 1.018-4.3633 0.84208-4.2426 2.4749 0.09357 1.2658 3.5728 0.14547 3.5355 1.4142-0.06021 2.0488-3.9978 1.0329-5.8336 1.9445-1.215 0.60334-2.3358 1.4072-3.3588 2.2981-1.3212 1.1506-3.8134 2.1593-3.5355 3.8891 0.2469 1.5371 2.5092 2.3183 4.0659 2.2981 1.3742-0.0178 2.2699-1.5855 3.5355-2.1213 0.84238-0.35666 2.1342-1.4614 2.6516-0.70711 0.90682 1.3218-1.802 2.6578-2.8284 3.8891-1.0942 1.3126-2.9341 2.1128-3.5355 3.7123-0.49821 1.3249-1.0725 3.5773 0.17678 4.2426 2.6849 1.43 5.1984-6.3848 7.7782-4.773 1.5564 0.97242-0.37415 3.6515-0.53033 5.4801-0.13577 1.5896-1.6303 3.8164-0.35355 4.773 2.0146 1.5093 5.6188-0.5955 7.0711-2.6516 1.904-2.6958 0.56318-6.6218 0.17677-9.8995-0.22088-1.8736-1.7454-3.6228-1.4142-5.4801 0.16359-0.91722 0.7021-2.0189 1.591-2.2981 3.0596-0.96094 5.8595 2.79 9.0156 3.3588 1.4498 0.26129 3.3682-1.032 4.4194 0 2.2711 2.2294 0.0937 6.3645 0.17678 9.5459 0.13697 5.2456-1.1474 10.761 0.53033 15.733 0.71617 2.1224 2.4758 3.7423 3.8891 5.4801 2.8412 3.4936 5.1454 7.9248 9.1924 9.8995 1.8603 0.90774 5.032 2.2479 6.1872 0.53033 3.471-5.1607-6.3468-10.777-8.4853-16.617-0.97803-2.6709-4.182-6.5524-1.9445-8.3085 3.379-2.6521 7.3589 7.0088 11.49 5.8336 1.5261-0.43407 2.6989-2.4951 2.4749-4.0659-0.39459-2.7665-4.209-3.6831-6.1872-5.6568-2.7751-2.7689-5.7593-5.4144-7.955-8.6621-0.84142-1.2446-2.3429-2.6173-1.9445-4.0659 0.28165-1.0243 1.5902-1.7266 2.6516-1.7678 3.3743-0.13084 5.5303 4.2742 8.8388 4.9497 2.1486 0.43868 5.5081 1.2275 6.5407-0.7071 1.3156-2.4647-1.6997-5.6891-3.8891-7.4246-4.6256-3.6666-11.315-3.5102-17.147-4.4194-2.0411-0.31822-4.2859 0.45426-6.1872-0.35355-2.9551-1.2556-3.9633-5.7342-7.0711-6.5407-2.1719-0.56365-4.6006 0.46387-6.5407 1.591-1.2615 0.73286-1.8626 2.2748-3.0052 3.182z" fill="url(#f)" filter="url(#s)"/>
  <g transform="matrix(.66345 0 0 .66345 523.71 359.81)">
   <path d="m-639.68 410.16c2.6764 3.5854 8.7026 3.4097 13.132 2.7779 2.6472-0.37756 4.6511-2.6507 7.0711-3.7881 2.2212-1.0439 4.4171-2.2718 6.8185-2.7779 5.7682-1.2157 17.678-0.50508 17.678-0.50508s-15.248 3.6421-15.405-1.5152c-0.0646-2.1303 4.208-0.67975 6.3135-1.0102 2.1876-0.34329 6.0609 3.0305 6.566-1.0102s-0.75762-3.5355 0.75761-4.0406 3.7881-1.7678 3.7881-1.7678-3.9471-3.1639-6.0609-4.5457c-1.8615-1.2169-5.1589-1.156-5.8084-3.283-0.60466-1.9803 1.2137-4.1992 2.7779-5.5558 1.2066-1.0465 5.0508-0.50508 4.5457-1.5152s-2.0183-3.3698-3.5355-4.5457c-2.1754-1.686-4.9766-2.3788-7.5761-3.283-2.4686-0.85868-4.9847-1.6807-7.5761-2.0203-2.0032-0.2625-4.0415-0.0593-6.0609 0-2.8658 0.0842-5.9709-0.66942-8.5863 0.50508-2.715 1.2192-5.0657 3.6114-6.3134 6.3134-4.4256 9.5835-8.84 23.108-2.5254 31.567z" fill="#76797e" filter="url(#i)" opacity=".85"/>
   <path d="m-656.47 379.9c2.21-2.6523 5.5109-4.3211 7.5-7.1429 0.6755-0.95833 0.7396-2.2656 1.4286-3.2143 0.9411-1.2959 2.0155-3.5944 3.5714-3.2143 1.9762 0.48278 0.6022 4.3859 2.1429 5.7143 1.2909 1.1131 3.3026 1.2278 5 1.0714 1.541-0.14195 3.4997-0.45251 4.2857-1.7857 0.5474-0.92867-0.7925-2.2281-0.3572-3.2143 0.3269-0.74068-2.8201-1.5349 1.9643-1.4286 1.7176 0.0382 4.6119 1.4198 6.9643 1.25 2.0652-0.14911 7.7666-1.6924 5.8929-1.9643 1.5471 2.9435-4.4853 4.9264-6.9643 7.1429-1.0119 0.90472-3.5474 1.1842-3.2143 2.5 0.3554 1.404 2.8431 0.84293 4.2857 0.71429 1.7628-0.15719 3.4185-0.9913 5-1.7857 1.5342-0.7707 2.5967-2.5487 4.2857-2.8571 1.5625-0.28529 3.0801 0.78759 4.6429 1.0714 1.7725 0.32195 3.8163 1.6478 5.3571 0.71428 1.1917-0.72206 1.9161-2.6232 1.4286-3.9286-0.4289-1.1482-2.351-0.91568-3.2143-1.7857-1.0507-1.0588-3.0023-2.7094-2.1429-3.9286 1.3194-1.8717 4.4964 1.0188 6.7858 1.0714 1.0777 0.0248 2.153-0.54643 3.2142-0.35715 0.26207 0.0467 0.63986 0.10156 0.71429 0.35715 0.38815 1.333-2.0169 2.1888-2.1428 3.5714-0.1845 2.0259 2.7673 3.7782 2.1428 5.7143-0.52705 1.634-2.6995 2.2001-4.2857 2.8571-1.6825 0.6969-3.606 0.57152-5.3571 1.0714-2.9342 0.83766-5.7744 1.9946-8.5715 3.2143-0.976 0.42562-2.9792 0.3708-2.8571 1.4286 0.2948 2.5529 4.9341 1.9293 7.5 1.7857 3.1582-0.17675 5.7656-3.1766 8.9286-3.2143 1.5057-0.0179 2.9285 0.77625 4.2857 1.4286 2.1726 1.0442 3.6935 3.5334 6.0714 3.9286 2.421 0.4023 4.707-1.4858 7.1429-1.7857 1.7723-0.21818 3.8975-1.0287 5.3571 0 1.4466 1.0195 2.6962 3.4824 1.7857 5-1.6716 2.7864-6.3936 1.4003-9.6429 1.4286-2.7612 0.024-7.3499-3.6939-8.2143-1.0714-0.76739 2.3281 4.1094 2.7774 6.4286 3.5714 2.9628 1.0144 6.1652 1.693 9.2857 1.4286 1.5005-0.12717 2.8471-0.98352 4.2857-1.4286 0.82796-0.25614 1.8934-1.3333 2.5-0.71429 1.1333 1.1565-0.3258 3.4572-1.4286 4.6429-1.5659 1.6835-4.1688 2.0761-6.4286 2.5-1.8721 0.35121-3.8214 0.21239-5.7143 0-2.6691-0.29949-5.1881-1.4862-7.8572-1.7857-1.7746-0.19912-3.5793-0.16781-5.3571 0-2.5337 0.23915-5.0374 0.78666-7.5 1.4286-2.1858 0.56973-4.199 1.781-6.4286 2.1428-1.6452 0.26697-4.1047 1.4058-5 0-1.0586-1.6621 3.4532-3.6324 2.5-5.3571-1.3928-2.5201-5.7334-1.5576-8.5714-1.0714-2.6238 0.44943-5.0801 1.8888-7.1429 3.5714-1.6425 1.3398-1.9288 4.2976-3.9286 5-3.4601 1.2154-7.095-1.9082-10.714-2.5-7.4352-1.2158-19.236 4.6471-22.5-2.1429-3.3908-7.0528 7.8477-13.631 12.857-19.643z" fill="url(#e)" filter="url(#q)" opacity=".85"/>
   <path d="m-650.54 388.69 7.5761 1.5152 6.0609 2.0203 6.0609 0.50508 5.0508-0.50508s0.50507-1.0102 2.5254-1.5152 1.0102-0.50508 3.0305-1.0102 4.5457-1.5152 4.5457-1.5152l1.5152-1.0102s0-1.0102-2.5254-1.5152-3.5355-5.0508-3.5355-5.0508-3.0305-1.5152-5.5558-0.50508-5.0508 3.0305-8.0812 3.5355-9.0914-1.0102-9.0914-1.0102l-4.5457 3.0305z" fill="#999" filter="url(#l)" opacity=".9"/>
   <path d="m-685.14 400.81 5.3033-2.0203 4.2931 1.7678s1.0102-1.5152 2.2728-1.7678 3.7881 1.2627 4.7982 1.2627-5.5558 0 3.0305 0.50507 8.3338 1.5152 8.0812 0.25254-3.283-4.0406 0.75761-3.283l4.0406 0.75762 6.0609-1.5152 6.8185 3.283 3.0305 0.25253s4.5457 0.75762 5.8084 1.5152 5.8084 0.50508 1.2627 0.75762-3.7881-1.7678-6.3135 0.75761-5.3033 3.7881-6.566 3.7881-4.0406-0.75761-6.3134-0.75761-4.0406-0.50508-5.0508 0.25254-1.7678 2.7779-3.7881 2.2728-7.5761-2.0203-7.5761-2.0203h-2.5254l-4.5457-1.0102s-0.25254-1.2627-1.5152-1.7678-4.5457-0.75762-4.5457-0.75762l-3.0305-0.25254z" fill="#666" filter="url(#k)" opacity=".8"/>
   <path d="m-640.69 388.19 14.395 1.5152s5.3033-2.7779 6.0609-2.5254 5.0508 1.5152 5.0508 1.5152 5.5558-0.25254 6.8185-0.50507 10.102-1.2627 10.102-1.2627 6.566 3.5355 7.5762 3.5355 13.385 1.2627 13.385 1.2627l16.162 2.5254-15.405 2.0203-16.415-0.50508-8.5863-0.25254-18.183 3.0305-12.122-1.7678-20.961 1.7678z" fill="#ccc" filter="url(#h)" opacity=".8"/>
   <path d="m-662.15 399.8c2.2641 3.1413 7.8197 0.75941 11.617 0 2.1462-0.42923 3.8748-2.42 6.0609-2.5254 2.2873-0.11021 4.2874 1.793 6.566 2.0203 1.6836 0.16793 3.4073-0.10274 5.0508-0.50507 2.6419-0.64676 4.9053-2.5161 7.5761-3.0305 2.4798-0.47757 5.0508 0 7.5762 0 1.852 0 3.7305 0.31267 5.5558 0 2.9916-0.51243 5.5947-2.518 8.5863-3.0305 1.9913-0.3411 4.8443 1.6129 6.0609 0 0.73809-0.97851 5.3789-0.90991 4.347-1.5712-1.8644-1.1948-9.8186-0.26518-11.923-0.95414-1.3577-0.44446-10.389 0.50555-5.709-3.3876-1.0863-6.283-7.7879 6.0157-13.484 5.913-2.3446-0.0423-6.5876-0.18051-6.566-2.5254 0.0181-1.9705 4.3463-0.46457 5.5558-2.0203 1.0385-1.3358 1.5873-3.7501 0.50508-5.0508-1.2967-1.5584-4.0728-0.10813-6.0609-0.50507-4.8557-0.9695-9.9161-1.9652-14.142-4.5457-1.6256-0.99267-2.1361-4.0734-4.0406-4.0406-3.4539 0.0595-5.3059 4.6068-7.0711 7.5762-3.2646 5.4917-9.7965 13-6.0609 18.183z" fill="#999" filter="url(#o)" opacity=".8"/>
   <path d="m-642.91 363.82c-3.9645 6e-3 -4.9561 7.5384-8.9063 7.875-1.8107 0.15428-2.847-2.7054-4.6562-2.875-6.9781-0.65407-12.715 6.5289-19.656 7.5-2.722 0.3808-5.492-1.255-8.1876-0.71875-3.29 0.65457-11.877 0.68339-11.08 3.942 0.5654 2.3128 8.5616-1.5595 9.2679 0.71429 0.6857 2.2075-4.3947 2.0214-5.6876 3.9375-0.614 0.90981 0.1471 2.513-0.7187 3.1875-3.2885 2.5616-6.2101 1.1992-10.357 1.6205-4.1369 0.42035-14.185-3.2771-14.299 0.87946-0.0579 2.1087 4.1306 0.96537 6.0626 1.8125 1.2714 0.55752 2.612 1.1433 3.5937 2.125 0.4908 0.49084 0.4481 1.4582 1.0625 1.7812 3.3786 1.776 7.6303-0.99139 11.438-0.71875 2.911 0.20846 5.7939 0.88927 8.5625 1.8125 3.9912 1.3309 7.4409 4.0288 11.438 5.3438 1.7298 0.56916 4.303-0.43181 5.3437 1.0625 1.3089 1.879-2.7901 5.2782-1.0624 6.7812 2.1593 1.8786 5.3877-2.0788 8.2187-2.5 2.7082-0.403 5.5049-0.36344 8.2187 0 2.6906 0.36033 5.3193 1.158 7.8438 2.1562 2.1295 0.84209 3.9461 2.3445 6.0625 3.2188 4.1419 1.7109 8.4478 4.6321 12.875 3.9375 3.2951-0.517 29.652-8.1416 8.2187-5.7188-0.6221-3.7922-2.6617 0.81505-11.094-3.2188-2.0432-0.97748-5.5057 1.4967-6.7813-0.375-1.06-1.5554 0.49-3.9742 1.7813-5.3438 1.3194-1.3993 4.8254-0.31317 5.375-2.1562 0.4152-1.3926-1.5166-2.4927-2.5-3.5625-1.2586-1.369-2.4279-3.4111-4.2813-3.5625-2.3402-0.19117-4.0509 2.4049-6.0937 3.5625-1.2978 0.73539-2.4354 1.9082-3.9063 2.1562-2.1422 0.36132-4.9901 0.52636-6.4374-1.0938-1.509-1.6892 0.0876-4.564-0.375-6.7812-0.2078-0.9957-1.5492-1.9506-1.0626-2.8438 1.341-2.4604 5.5001-1.103 8.2188-1.7812 4.6805-1.1677 9.319-2.5444 13.938-3.9375 3.3521-1.0111 3.9406-1.9856 10-3.2188 0.9225-1.5701 11.124-2.7093 9.6206-3.7366-1.6968-1.1593-14.759-0.93495-16.777-0.54464-2.2693 0.43901-4.5049 1.0357-6.7812 1.4375-2.4869 0.43893-5.677 2.8101-7.5 1.0625-1.7273-1.6559-0.2487-4.9677 0.7188-7.1562 1.99-1.8685 14.251 1.7996 0.3437-6.0625zm-43.562 28.406 3.9375 0.53125 4.8125 1.7812 2.8438 0.90625 2.3437 1.0625-0.9063 0.875-2.3124-0.53125-3.4063-0.875-2.6563-1.625-3.5937-1.5938z" fill="url(#d)" filter="url(#p)" opacity=".95"/>
   <path d="m-668.72 407.88c2.8188 0.73042 4.7967 0.0874 7.0711 0s4.4615-0.33645 6.566-0.50508 3.9415-0.0957 6.0609-0.50507 5.0286-0.83855 6.566-2.0203 3.4926-2.0257 2.5254-4.0406-6.3902-0.30158-8.5863-1.0102-2.695-1.7368-4.5457-2.5254-4.5653-2.2297-6.566-2.0203-3.0119 1.4376-4.5457 2.5254-2.2267 3.0088-4.5457 4.0406-8.4498-2.184-9.0914 1.0102 6.2726 4.3203 9.0914 5.0508z" fill="#999" filter="url(#n)" opacity=".9"/>
   <path d="m-615.18 382.63 6.0609 2.5254 4.0406-2.5254 4.0406 1.0102 5.5558 2.5254 4.5457 1.5152s-1.5152 1.0102-3.5355 0.50507-6.566-1.0102-6.566-1.0102l-6.566 3.0305-4.0406-1.0102-3.5355-2.0203z" fill="#a6a7a7" filter="url(#m)" opacity=".9"/>
   <path d="m-642.71 398.04 7.0711-0.50508 5.0508 1.0102 7.5761-0.25253 7.0711-1.0102-6.0609-0.75761s-3.7881 0.25254-5.3033 0.50508-5.5558-1.0102-6.8185-1.0102h-3.7881c-1.7678 0-4.7982 2.0203-4.7982 2.0203z" fill="#b3b3b3" filter="url(#a)" opacity=".5"/>
   <path d="m-639.43 371.52 2.5254-1.5152 0.75761-2.2728 2.5254 0.75762 1.0102 0.50507v3.0305h-2.0203l-2.7779 2.0203z" fill="#9c9ea0" filter="url(#j)" opacity=".6728"/>
   <path d="m-616.19 395.51 7.0711-0.50508 5.0508 1.0102 7.5761-0.25253 7.0711-1.0102-6.0609-0.75761s-3.7881 0.25254-5.3033 0.50508-5.5558-1.0102-6.8185-1.0102h-3.7881c-1.7678 0-4.7982 2.0203-4.7982 2.0203z" fill="#959798" filter="url(#a)" opacity=".5"/>
   <path d="m-623.77 375.05 7.0711-0.50508 5.0508 1.0102 7.5761-0.25253 7.0711-1.0102-6.0609-0.75761s-3.7881 0.25254-5.3033 0.50508-5.5558-1.0102-6.8185-1.0102h-3.7881c-1.7678 0-4.7982 2.0203-4.7982 2.0203z" fill="#959798" filter="url(#a)" opacity=".5"/>
   <path d="m-645.49 407.38 7.0711-0.50508 5.0508 1.0102 7.5761-0.25253 7.0711-1.0102-6.0609-0.75761s-3.7881 0.25254-5.3033 0.50508-5.5558-1.0102-6.8185-1.0102h-3.7881c-1.7678 0-4.7982 2.0203-4.7982 2.0203z" fill="#b3b3b3" filter="url(#a)" opacity=".5"/>
   <path d="m-704.58 397.53 7.0711-0.50508 5.0508 1.0102 7.5761-0.25253 7.0711-1.0102-6.0609-0.75761s-3.7881 0.25254-5.3033 0.50508-5.5558-1.0102-6.8185-1.0102h-3.7881c-1.7678 0-4.7982 2.0203-4.7982 2.0203z" fill="#959798" filter="url(#a)" opacity=".5"/>
   <path d="m-676.04 385.66 4.0406-2.5254 2.7779 0.25254 4.5457-1.5152h5.5558l4.2932-0.50508-2.2728 3.283-4.0406-0.75761-4.7982 1.0102-4.2931 1.5152z" fill="#808080" filter="url(#g)" opacity=".6"/>
  </g>
  <path transform="matrix(.46024 0 0 .46024 -96.986 495.88)" d="m431.22582,290.30177-2.7188,2.03125 4.0313,5.375 .031.0312 5.375,6.71875 .4062.5 .5938.125 6.4687,1.28125 4.625,2.5625-.9687,3.40625-.2188.75 .4375.65625 2.4063,3.625v8.1875 1.34375 .1875l.031.1875 1.2812,5.75-.5937,4.1875-.6563,1.9375-.094.3125 .031.34375 .6562,8.71875 .031.5 .3126.40625 6.0312,8.0625c3.9979,3.58545 12.1141,11.53388 2.4062-2.5l-5.4062-7.1875-.625-7.875 .5625-1.71875 .062-.15625v-.15625l.6875-4.6875 .031-.3125-.063-.3125-1.3124-5.90625v-1.125-2.46875l1.7187.21875 1.0625.6875 .1875,1.78125 .062.53125 .4688.25 3.0312,1.625 1.125,2.75 .125.25 .1875.15625 3.4375,2.71875 .094.0625 .094.0625 6.4063,2.84375 .5312-.71875-6-3.90625-.062-.0312-3.0625-2.4375-1.1875-2.875-.1563-.3125-.3124-.15625-2.8438-1.53125-.1875-1.75-.062-.46875-.375-.25-1.6875-1.0625-.1875-.125-.2188-.0312-2.1874-.28125v-4.25-.5l-.2813-.4375-2.25-3.375 1.125-3.9375 .375-1.3125-1.1875-.65625-6.0312-3.34375-.2188-.125-.2812-.0625-6.0938-1.21875-.6562-.8125 4.625,1.125 .094.0312 .094-.0312 4.0313-.5625 5.7187,1.46875 5,2.96875 .094.0312 .125.0312 10.7188,1.03125 3.9687,3.5625 .3125-.34375-3.6562-4.03125-.1563-.125-.1875-.0312-10.8125-1.0625-4.875-2.90625-.062-.0312-.062-.0312-5.9375-1.53125-.094-.0312-.125.0312-4.0312.5625-5.8125-1.40625-3.2813-4.09375-.031-.0625-4-5.3125z" fill="#fff" filter="url(#t)"/>
  <path transform="matrix(.53933 0 0 .53933 54.892 417.51)" d="m87.79612,395.92389-1.7731-1.68026 .05954,1.54823-1.83769-.65995 3.44016,4.58682 .0265.0266 4.58684,5.73355 .34663.42667 .50673.10667 5.52015,1.09338 3.94681,2.18675-.82666,2.90677-.18671.64002 .37334.56002 2.05346,3.09345v6.98691 1.14671 .16l.0265.16 1.09333,4.90685-.50664,3.57347-.56007,1.65339-.0802.26667 .0265.29335 .55997,7.44027 .0265.42667 .26677.34668 5.1468,6.88026c3.41167,3.05968 10.33774,9.84259 2.05337-2.13342l-4.61346-6.13356-.53335-6.72023 .48002-1.46672 .0529-.13334v-.13333l.58669-4.00015 .0265-.26668-.0538-.26667-1.11996-5.04019v-.96003-2.10674l1.46668.18667 .9067.58668 .16,1.52006 .0529.45335 .40005.21334 2.58671,1.38672 .96005,2.34675 .10666.21334 .16001.13334 2.93343,2.32008 .0802.0534 .0802.0533 5.46691,2.42676 .4533-.61336-5.12018-3.33345-.0529-.0266-2.61342-2.08008-1.01337-2.45342-.13339-.26668-.26659-.13334-2.42679-1.30671-.16001-1.49339-.0529-.4-.32001-.21335-1.44005-.9067-.16001-.10667-.18672-.0266-1.86665-.24001v-3.62679-.42669l-.24004-.37334-1.92008-2.88011 .96004-3.36012 .32001-1.12004-1.01337-.56001-5.14681-2.85344-.18672-.10667-.23997-.0533-5.20022-1.04004-.55999-.69336 3.94681.96003 .0802.0266 .0802-.0266 3.44017-.48002 4.88013,1.25339 4.26682,2.53342 .0802.0266 .10667.0266 9.14704.88002 3.38674,3.04012 .26668-.29335-3.12007-3.44012-.13338-.10667-.16001-.0266-9.227-.9067-4.16015-2.48009-.0529-.0266-.0529-.0266-5.06685-1.30671-.0802-.0266-.10667.0266-3.44009.48002-4.96017-1.20005-2.80015-3.49346-.0265-.0533-2.71897-4.97544z" fill="url(#b)" filter="url(#c)"/>
  <path transform="matrix(-.26544 .07096 .08812 .21374 86.541 542.26)" d="m87.79612,395.92389-1.7731-1.68026 .05954,1.54823-1.83769-.65995 3.44016,4.58682 .0265.0266 4.58684,5.73355 .34663.42667 .50673.10667 5.52015,1.09338 3.94681,2.18675-.82666,2.90677-.18671.64002 .37334.56002 2.05346,3.09345v6.98691 1.14671 .16l.0265.16 1.09333,4.90685-.50664,3.57347-.56007,1.65339-.0802.26667 .0265.29335 .55997,7.44027 .0265.42667 .26677.34668 5.1468,6.88026c3.41167,3.05968 10.33774,9.84259 2.05337-2.13342l-4.61346-6.13356-.53335-6.72023 .48002-1.46672 .0529-.13334v-.13333l.58669-4.00015 .0265-.26668-.0538-.26667-1.11996-5.04019v-.96003-2.10674l1.46668.18667 .9067.58668 .16,1.52006 .0529.45335 .40005.21334 2.58671,1.38672 .96005,2.34675 .10666.21334 .16001.13334 2.93343,2.32008 .0802.0534 .0802.0533 5.46691,2.42676 .4533-.61336-5.12018-3.33345-.0529-.0266-2.61342-2.08008-1.01337-2.45342-.13339-.26668-.26659-.13334-2.42679-1.30671-.16001-1.49339-.0529-.4-.32001-.21335-1.44005-.9067-.16001-.10667-.18672-.0266-1.86665-.24001v-3.62679-.42669l-.24004-.37334-1.92008-2.88011 .96004-3.36012 .32001-1.12004-1.01337-.56001-5.14681-2.85344-.18672-.10667-.23997-.0533-5.20022-1.04004-.55999-.69336 3.94681.96003 .0802.0266 .0802-.0266 3.44017-.48002 4.88013,1.25339 4.26682,2.53342 .0802.0266 .10667.0266 9.14704.88002 3.38674,3.04012 .26668-.29335-3.12007-3.44012-.13338-.10667-.16001-.0266-9.227-.9067-4.16015-2.48009-.0529-.0266-.0529-.0266-5.06685-1.30671-.0802-.0266-.10667.0266-3.44009.48002-4.96017-1.20005-2.80015-3.49346-.0265-.0533-2.71897-4.97544z" fill="#fff" filter="url(#r)"/>
  <path transform="matrix(-.26544 .07096 .08812 .21374 86.541 542.26)" d="m87.79612,395.92389-1.7731-1.68026 .05954,1.54823-1.83769-.65995 3.44016,4.58682 .0265.0266 4.58684,5.73355 .34663.42667 .50673.10667 5.52015,1.09338 3.94681,2.18675-.82666,2.90677-.18671.64002 .37334.56002 2.05346,3.09345v6.98691 1.14671 .16l.0265.16 1.09333,4.90685-.50664,3.57347-.56007,1.65339-.0802.26667 .0265.29335 .55997,7.44027 .0265.42667 .26677.34668 5.1468,6.88026c3.41167,3.05968 10.33774,9.84259 2.05337-2.13342l-4.61346-6.13356-.53335-6.72023 .48002-1.46672 .0529-.13334v-.13333l.58669-4.00015 .0265-.26668-.0538-.26667-1.11996-5.04019v-.96003-2.10674l1.46668.18667 .9067.58668 .16,1.52006 .0529.45335 .40005.21334 2.58671,1.38672 .96005,2.34675 .10666.21334 .16001.13334 2.93343,2.32008 .0802.0534 .0802.0533 5.46691,2.42676 .4533-.61336-5.12018-3.33345-.0529-.0266-2.61342-2.08008-1.01337-2.45342-.13339-.26668-.26659-.13334-2.42679-1.30671-.16001-1.49339-.0529-.4-.32001-.21335-1.44005-.9067-.16001-.10667-.18672-.0266-1.86665-.24001v-3.62679-.42669l-.24004-.37334-1.92008-2.88011 .96004-3.36012 .32001-1.12004-1.01337-.56001-5.14681-2.85344-.18672-.10667-.23997-.0533-5.20022-1.04004-.55999-.69336 3.94681.96003 .0802.0266 .0802-.0266 3.44017-.48002 4.88013,1.25339 4.26682,2.53342 .0802.0266 .10667.0266 9.14704.88002 3.38674,3.04012 .26668-.29335-3.12007-3.44012-.13338-.10667-.16001-.0266-9.227-.9067-4.16015-2.48009-.0529-.0266-.0529-.0266-5.06685-1.30671-.0802-.0266-.10667.0266-3.44009.48002-4.96017-1.20005-2.80015-3.49346-.0265-.0533-2.71897-4.97544z" fill="url(#b)" filter="url(#c)"/>
 </g>
</svg>
