<?xml version="1.0" encoding="UTF-8"?>
<svg viewBox="0 0 107.95 87.434" xmlns="http://www.w3.org/2000/svg">
 <path d="m68.621 11.827c-9.7651 0-18.128 5.0896-22.231 12.4-1.6386-0.9148-3.4635-1.4749-5.3924-1.4749-5.8332 0-10.686 4.6921-12.186 11.062-2.5608-1.0122-5.5163-1.6388-8.6968-1.6388-9.5414 0-17.288 5.2272-17.288 11.663 0 5.8094 6.3454 10.588 14.592 11.472-0.3696 0.6271-0.6609 1.2537-0.6609 1.912 0 6.1619 18.389 17.671 39.195 17.671 20.805 0 36.194-11.509 36.194-17.671 0-0.4146-0.274-0.7989-0.423-1.2018 0.912 0.2266 1.83 0.4643 2.829 0.4643 5.5664 0 10.071-3.7843 10.071-8.44 0-4.6556-4.505-8.4126-10.071-8.4126-0.682 0-1.286 0.2196-1.93 0.3277 0.563-1.8615 0.952-3.7703 0.952-5.7905 0-12.324-11.172-22.343-24.954-22.343z" fill="#aad4ff" stroke-width="0"/>
</svg>
