<?xml version="1.0" encoding="UTF-8"?>
<svg viewBox="0 0 332 169" xmlns="http://www.w3.org/2000/svg">
 <defs>
  <filter id="a" x="-.04894" y="-.10451" width="1.0979" height="1.209">
   <feGaussianBlur stdDeviation="6.25174"/>
  </filter>
 </defs>
 <g transform="translate(-526 -347.09)">
  <path d="m731.5 347.09c-40.101 0-73.293 29.178-78.719 67.062-0.75497-0.03258-1.5182-0.0625-2.2812-0.0625-13.734 0-26.201 5.3444-35.438 14.031-6.5867-6.2012-15.61-10.031-25.562-10.031-13.785 0-25.79 7.3328-32 18.156-3.3278-3.779-8.0154-6.1562-13.25-6.1562-10.07 0-18.25 8.736-18.25 19.5s8.1799 19.5 18.25 19.5c4.1259 0 7.9115-1.4971 10.969-3.9688 5.1197 13.4 18.541 22.969 34.281 22.969 4.8926 0 9.5474-0.91693 13.812-2.5938 7.9548 18 26.087 30.594 47.188 30.594 17.818 0 33.502-8.9937 42.75-22.625 11.354 6.1334 24.381 9.625 38.25 9.625 17.544 0 33.752-5.6067 46.906-15.062 8.3387 9.8475 20.523 16.062 34.094 16.062 25.116 0 45.5-21.28 45.5-47.5s-20.384-47.5-45.5-47.5c-1.0606 0-2.1138 0.05034-3.1562 0.125-7.4783-35.455-39.502-62.125-77.844-62.125z" fill="#eeeeec"/>
  <path d="m731.5 359.81c-33.929 0-61.602 24.574-66.125 56.156-0.92931 6.4772-6.6191 11.194-13.156 10.906-0.72116-0.03112-1.2884-0.0625-1.7188-0.0625-10.433 0-19.748 4.0377-26.719 10.594-4.9075 4.5992-12.547 4.5855-17.438-0.03125-4.2678-4.018-10.155-6.5625-16.844-6.5625-9.272 0-17.047 4.9464-20.969 11.781-2.0449 3.56-5.6817 5.9148-9.7668 6.324s-8.1167-1.1777-10.827-4.2615c-1.1602-1.3176-2.3054-1.8438-3.6875-1.8438-2.7108 0-5.5312 2.4639-5.5312 6.7812s2.8204 6.7812 5.5312 6.7812c1.0479 0 1.9515-0.33382 2.9688-1.1562 3.1716-2.5555 7.3748-3.4384 11.307-2.3751s7.1171 3.9444 8.5684 7.7501c3.1943 8.3604 11.823 14.781 22.406 14.781 3.3028 0 6.355-0.61745 9.1562-1.7188 6.3422-2.4884 13.519 0.45954 16.281 6.6875 5.9519 13.468 19.525 23.031 35.562 23.031 13.536 0 25.264-6.811 32.219-17.062 3.6749-5.4062 10.848-7.1488 16.594-4.0312 9.55 5.1588 20.454 8.0938 32.188 8.0938 14.833 0 28.402-4.7318 39.469-12.688 5.3962-3.8807 12.87-2.955 17.156 2.125 6.0946 7.1974 14.689 11.562 24.375 11.562 17.929 0 32.781-15.156 32.781-34.781s-14.853-34.781-32.781-34.781c-0.65789 0-1.4101 0.0336-2.25 0.09375-6.3358 0.4457-12.03-3.8484-13.344-10.062-6.2303-29.538-32.965-52.031-65.406-52.031z" fill="#fff" filter="url(#a)"/>
  <path d="m603.75 484.34s-12-17-7.25-25.5c-6.75 8 3.6346 29.534-2.5 28l9.75-2.5z" fill="#e4eaed"/>
  <path d="m694 491.69s13.507-20.143 2.4728-34.921c15.316 10.142 2.8247 41.808 10.339 38.166l-12.812-3.2457z" fill="#e4eaed"/>
  <path d="m777.75 487.34s-12-17-7.25-25.5c-6.75 8 3.6346 29.534-2.5 28l9.75-2.5z" fill="#e4eaed"/>
  <path d="m807.05 409.77s-20.809-0.03116-25.027 8.7449c2.6583-10.124 26.245-14.023 21.461-18.157l3.5662 9.4125z" fill="#e4eaed"/>
 </g>
</svg>
