<?xml version="1.0" encoding="UTF-8"?>
<svg viewBox="0 0 110 110" xmlns="http://www.w3.org/2000/svg">
 <defs>
  <filter id="n">
   <feGaussianBlur stdDeviation="1.0373"/>
  </filter>
  <filter id="m">
   <feGaussianBlur stdDeviation="1.8857"/>
  </filter>
  <filter id="f" x="-.08812" y="-.10543" width="1.1762" height="1.2108">
   <feGaussianBlur stdDeviation="1.831"/>
  </filter>
  <filter id="i" x="-.06513" y="-.18254" width="1.1302" height="1.3651">
   <feGaussianBlur stdDeviation=".9868"/>
  </filter>
  <filter id="h" x="-.02909" y="-.13717" width="1.0582" height="1.2743">
   <feGaussianBlur stdDeviation=".6974"/>
  </filter>
  <filter id="e" x="-.04056" y="-.32009" width="1.0811" height="1.6402">
   <feGaussianBlur stdDeviation="1.5493"/>
  </filter>
  <filter id="l" x="-.05938" y="-.1435" width="1.1188" height="1.287">
   <feGaussianBlur stdDeviation="1.6347"/>
  </filter>
  <filter id="k" x="-.12063" y="-.35448" width="1.2412" height="1.709">
   <feGaussianBlur stdDeviation="1.919"/>
  </filter>
  <filter id="j" x="-.13388" y="-.4284" width="1.2678" height="1.8568">
   <feGaussianBlur stdDeviation="1.3523"/>
  </filter>
  <filter id="a" x="-.03283" y="-.348" width="1.0657" height="1.696">
   <feGaussianBlur stdDeviation=".3662"/>
  </filter>
  <filter id="g" x="-.27733" y="-.29952" width="1.5547" height="1.599">
   <feGaussianBlur stdDeviation=".7879"/>
  </filter>
  <filter id="d" x="-.11143" y="-.468" width="1.2229" height="1.936">
   <feGaussianBlur stdDeviation=".9849"/>
  </filter>
  <linearGradient id="c" x1="-698.88" x2="-562.49" y1="406.01" y2="363.51" gradientUnits="userSpaceOnUse">
   <stop stop-color="#57646d" offset="0"/>
   <stop stop-color="#57646d" stop-opacity="0" offset="1"/>
  </linearGradient>
  <linearGradient id="b" x1="-654.24" x2="-665.48" y1="414.32" y2="358.17" gradientUnits="userSpaceOnUse">
   <stop stop-color="#ccc" offset="0"/>
   <stop stop-color="#808080" offset="1"/>
  </linearGradient>
 </defs>
 <g transform="translate(-215.46 -420.03)">
  <g transform="matrix(.66345 0 0 .66345 -62.257 -62.439)" fill="#6f8a91">
   <path d="m469.96 784.5s-0.84799 19.802-0.98784 26.31c-0.011 0.51158 0.0898 1.4149 0.60144 1.4123 0.50443-3e-3 0.56634-0.89398 0.57872-1.3983 0.15726-6.4094-0.19232-26.324-0.19232-26.324z"/>
   <path d="m482.9915,812.63856c0,0-.79573,18.58102-.92696,24.6885-.0103.48005.0842,1.3277.56438,1.32525 .47333-.002.53143-.83887.54304-1.31206 .14757-6.01438-.18046-24.70169-.18046-24.70169z"/>
   <path d="m495.32 797.54s-0.72095 16.835-0.83984 22.368c-9e-3 0.43491 0.0763 1.2029 0.51133 1.2007 0.42885-2e-3 0.48149-0.76004 0.49201-1.1888 0.1337-5.4491-0.1635-22.38-0.1635-22.38z"/>
   <path d="m488.58059,806.0422c0,0-.38675,9.03096-.45053,11.99938-.005.23331.0409.64531.27431.64413s.25829-.40774.26393-.63772c.0717-2.92318-.0877-12.00579-.0877-12.00579z"/>
   <path d="m491.39 788.61s-1.2419 28.999-1.4467 38.531c-0.0161 0.74922 0.13146 2.0721 0.88081 2.0684 0.73871-4e-3 0.82939-1.3092 0.84751-2.0478 0.23031-9.3865-0.28164-38.551-0.28164-38.551z"/>
   <path d="m503.58827,807.48339c0,0-.57459,13.41734-.66936,17.82753-.007.34665.0608.95873.40754.95698 .34179-.002.38375-.60576.39213-.94746 .10656-4.34295-.13031-17.83705-.13031-17.83705z"/>
   <path d="m506.83 788.59s-0.97089 22.671-1.131 30.123c-0.0126 0.58574 0.10278 1.62 0.68861 1.617 0.57754-3e-3 0.64843-1.0236 0.66259-1.6009 0.18006-7.3384-0.22019-30.14-0.22019-30.14z"/>
   <path d="m497.07 815.46s-1.1348 26.499-1.322 35.21c-0.0147 0.68462 0.12013 1.8935 0.80488 1.89s0.75791-1.1964 0.77447-1.8712c0.21045-8.5774-0.25737-35.228-0.25737-35.228z"/>
   <path d="m525.44 790.8s-1.2988 30.329-1.513 40.299c-0.0168 0.78358 0.13749 2.1672 0.92121 2.1632 0.77261-4e-3 0.86745-1.3693 0.8864-2.1417 0.24088-9.8171-0.29456-40.32-0.29456-40.32z"/>
   <path d="m502.5 795.44s-0.73695 17.209-0.85849 22.865c-0.01 0.4446 0.078 1.2296 0.52269 1.2274s0.49218-0.77692 0.50293-1.2152c0.13668-5.5701-0.16713-22.877-0.16713-22.877z"/>
   <path d="m510.23 782.77s-0.96876 22.621-1.1285 30.057c-0.0125 0.58444 0.10255 1.6164 0.68709 1.6134s0.64699-1.0213 0.66113-1.5974c0.17966-7.3222-0.2197-30.073-0.2197-30.073z"/>
   <path d="m514.67 811.02s-1.1353 26.511-1.3225 35.224c-0.0147 0.68493 0.12019 1.8943 0.80522 1.8908 0.67533-4e-3 0.75823-1.1969 0.77479-1.872 0.21055-8.581-0.25747-35.243-0.25747-35.243z"/>
   <path d="m509.05 813.72s-0.72771 16.993-0.84772 22.578c-9e-3 0.43902 0.077 1.2142 0.51613 1.212 0.43287-2e-3 0.486-0.76717 0.49662-1.1999 0.13496-5.5003-0.16503-22.59-0.16503-22.59z"/>
   <path d="m516.95 792.31s-0.6054 14.137-0.70524 18.783c-8e-3 0.36525 0.0641 1.0101 0.42938 1.0083 0.36012-2e-3 0.40433-0.63823 0.41316-0.99826 0.11227-4.5758-0.1373-18.793-0.1373-18.793z"/>
   <path d="m486.23554,827.92303c0,0-.36588,8.5436-.42622,11.35182-.005.22074.0387.61049.2595.60936s.24436-.38571.2497-.60329c.0679-2.76542-.083-11.35789-.083-11.35789z"/>
   <path d="m503.43 805.8s-1.3331 31.129-1.553 41.361c-0.0173 0.80425 0.14112 2.2243 0.94551 2.2203 0.79299-4e-3 0.89032-1.4054 0.90977-2.1982 0.24724-10.076-0.30233-41.383-0.30233-41.383z"/>
   <path d="m505.82802,821.54034c0,0-.58303,13.61421-.67918,18.0891-.008.35172.0617.97279.41352.97102s.38937-.61464.39788-.96136c.10813-4.40668-.13222-18.09876-.13222-18.09876z"/>
   <path d="m476.64559,832.53716c0,0-.5273,12.3131-.61426,16.36033-.007.3181.0558.87981.37399.87822 .31367-.002.35217-.55592.35986-.86948 .0978-3.98554-.11959-16.36907-.11959-16.36907z"/>
   <path d="m491.23 840.86s-0.62263 14.539-0.72532 19.318c-8e-3 0.37563 0.0659 1.0389 0.44161 1.037 0.37037-2e-3 0.41583-0.6564 0.42491-1.0266 0.11547-4.7061-0.1412-19.328-0.1412-19.328z"/>
   <path d="m485 835.86s-0.34889 8.147-0.40643 10.825c-4e-3 0.21048 0.0369 0.58212 0.24745 0.58106s0.23302-0.36781 0.23811-0.57528c0.0647-2.6371-0.0791-10.831-0.0791-10.831z"/>
   <path d="m487.14 830.45s-0.91475 21.36-1.0656 28.381c-0.0119 0.55185 0.0968 1.5263 0.64878 1.5235 0.54414-3e-3 0.61092-0.96433 0.62427-1.5083 0.16965-6.914-0.20745-28.396-0.20745-28.396z"/>
   <path d="m475.19467,835.37364c0,0-.5276,12.31999-.61461,16.36948-.007.3183.0559.88031.3742.87871 .31384-.002.35236-.5562.36006-.86996 .0978-3.98778-.11965-16.37823-.11965-16.37823z"/>
   <path d="m471.13 826.12s-0.63254 14.77-0.73686 19.625c-8e-3 0.38159 0.067 1.0554 0.44864 1.0535s0.42244-0.66683 0.43167-1.043c0.11731-4.781-0.14345-19.636-0.14345-19.636z"/>
   <path d="m480.42 847.43s-0.51541 12.035-0.60041 15.991c-7e-3 0.31094 0.0546 0.85999 0.36556 0.85841s0.34422-0.54337 0.35174-0.84987c0.0956-3.8957-0.11689-16-0.11689-16z"/>
   <path d="m478.17 796.6s-1.0253 23.942-1.1944 31.811c-0.0133 0.61856 0.10854 1.7108 0.7272 1.7076 0.60989-3e-3 0.68475-1.0809 0.69972-1.6906 0.19014-7.7495-0.23253-31.828-0.23253-31.828z"/>
   <path d="m468.08 801.53s-0.82455 19.254-0.96053 25.583c-0.0107 0.49743 0.0873 1.3758 0.58482 1.3733 0.49048-3e-3 0.55068-0.86927 0.56271-1.3596 0.15292-6.2322-0.187-25.596-0.187-25.596z"/>
   <path d="m485.04 784.49s-0.70367 16.432-0.81972 21.833c-9e-3 0.4245 0.0745 1.1741 0.49908 1.172s0.46996-0.74182 0.48023-1.1603c0.1305-5.3186-0.15959-21.844-0.15959-21.844z"/>
   <path d="m520.31 816.61s-0.99121 23.146-1.1547 30.754c-0.0129 0.59799 0.10493 1.6539 0.70302 1.6509 0.58962-3e-3 0.66199-1.045 0.67646-1.6344 0.18382-7.4919-0.2248-30.77-0.2248-30.77z"/>
  </g>
  <g transform="matrix(.66345 0 0 .66345 694.78 200.72)">
   <path d="m-639.68 410.16c2.6764 3.5854 8.7026 3.4097 13.132 2.7779 2.6472-0.37756 4.6511-2.6507 7.0711-3.7881 2.2212-1.0439 4.4171-2.2718 6.8185-2.7779 5.7682-1.2157 17.678-0.50508 17.678-0.50508s-15.248 3.6421-15.405-1.5152c-0.0646-2.1303 4.208-0.67975 6.3135-1.0102 2.1876-0.34329 6.0609 3.0305 6.566-1.0102s-0.75762-3.5355 0.75761-4.0406 3.7881-1.7678 3.7881-1.7678-3.9471-3.1639-6.0609-4.5457c-1.8615-1.2169-5.1589-1.156-5.8084-3.283-0.60466-1.9803 1.2137-4.1992 2.7779-5.5558 1.2066-1.0465 5.0508-0.50508 4.5457-1.5152s-2.0183-3.3698-3.5355-4.5457c-2.1754-1.686-4.9766-2.3788-7.5761-3.283-2.4686-0.85868-4.9847-1.6807-7.5761-2.0203-2.0032-0.2625-4.0415-0.0593-6.0609 0-2.8658 0.0842-5.9709-0.66942-8.5863 0.50508-2.715 1.2192-5.0657 3.6114-6.3134 6.3134-4.4256 9.5835-8.84 23.108-2.5254 31.567z" fill="#76797e" filter="url(#f)" opacity=".85"/>
   <path d="m-656.47 379.9c2.21-2.6523 5.5109-4.3211 7.5-7.1429 0.6755-0.95833 0.7396-2.2656 1.4286-3.2143 0.9411-1.2959 2.0155-3.5944 3.5714-3.2143 1.9762 0.48278 0.6022 4.3859 2.1429 5.7143 1.2909 1.1131 3.3026 1.2278 5 1.0714 1.541-0.14195 3.4997-0.45251 4.2857-1.7857 0.5474-0.92867-0.7925-2.2281-0.3572-3.2143 0.3269-0.74068-2.8201-1.5349 1.9643-1.4286 1.7176 0.0382 4.6119 1.4198 6.9643 1.25 2.0652-0.14911 7.7666-1.6924 5.8929-1.9643 1.5471 2.9435-4.4853 4.9264-6.9643 7.1429-1.0119 0.90472-3.5474 1.1842-3.2143 2.5 0.3554 1.404 2.8431 0.84293 4.2857 0.71429 1.7628-0.15719 3.4185-0.9913 5-1.7857 1.5342-0.7707 2.5967-2.5487 4.2857-2.8571 1.5625-0.28529 3.0801 0.78759 4.6429 1.0714 1.7725 0.32195 3.8163 1.6478 5.3571 0.71428 1.1917-0.72206 1.9161-2.6232 1.4286-3.9286-0.4289-1.1482-2.351-0.91568-3.2143-1.7857-1.0507-1.0588-3.0023-2.7094-2.1429-3.9286 1.3194-1.8717 4.4964 1.0188 6.7858 1.0714 1.0777 0.0248 2.153-0.54643 3.2142-0.35715 0.26207 0.0467 0.63986 0.10156 0.71429 0.35715 0.38815 1.333-2.0169 2.1888-2.1428 3.5714-0.1845 2.0259 2.7673 3.7782 2.1428 5.7143-0.52705 1.634-2.6995 2.2001-4.2857 2.8571-1.6825 0.6969-3.606 0.57152-5.3571 1.0714-2.9342 0.83766-5.7744 1.9946-8.5715 3.2143-0.976 0.42562-2.9792 0.3708-2.8571 1.4286 0.2948 2.5529 4.9341 1.9293 7.5 1.7857 3.1582-0.17675 5.7656-3.1766 8.9286-3.2143 1.5057-0.0179 2.9285 0.77625 4.2857 1.4286 2.1726 1.0442 3.6935 3.5334 6.0714 3.9286 2.421 0.4023 4.707-1.4858 7.1429-1.7857 1.7723-0.21818 3.8975-1.0287 5.3571 0 1.4466 1.0195 2.6962 3.4824 1.7857 5-1.6716 2.7864-6.3936 1.4003-9.6429 1.4286-2.7612 0.024-7.3499-3.6939-8.2143-1.0714-0.76739 2.3281 4.1094 2.7774 6.4286 3.5714 2.9628 1.0144 6.1652 1.693 9.2857 1.4286 1.5005-0.12717 2.8471-0.98352 4.2857-1.4286 0.82796-0.25614 1.8934-1.3333 2.5-0.71429 1.1333 1.1565-0.3258 3.4572-1.4286 4.6429-1.5659 1.6835-4.1688 2.0761-6.4286 2.5-1.8721 0.35121-3.8214 0.21239-5.7143 0-2.6691-0.29949-5.1881-1.4862-7.8572-1.7857-1.7746-0.19912-3.5793-0.16781-5.3571 0-2.5337 0.23915-5.0374 0.78666-7.5 1.4286-2.1858 0.56973-4.199 1.781-6.4286 2.1428-1.6452 0.26697-4.1047 1.4058-5 0-1.0586-1.6621 3.4532-3.6324 2.5-5.3571-1.3928-2.5201-5.7334-1.5576-8.5714-1.0714-2.6238 0.44943-5.0801 1.8888-7.1429 3.5714-1.6425 1.3398-1.9288 4.2976-3.9286 5-3.4601 1.2154-7.095-1.9082-10.714-2.5-7.4352-1.2158-19.236 4.6471-22.5-2.1429-3.3908-7.0528 7.8477-13.631 12.857-19.643z" fill="url(#c)" filter="url(#n)" opacity=".85"/>
   <path d="m-650.54 388.69 7.5761 1.5152 6.0609 2.0203 6.0609 0.50508 5.0508-0.50508s0.50507-1.0102 2.5254-1.5152 1.0102-0.50508 3.0305-1.0102 4.5457-1.5152 4.5457-1.5152l1.5152-1.0102s0-1.0102-2.5254-1.5152-3.5355-5.0508-3.5355-5.0508-3.0305-1.5152-5.5558-0.50508-5.0508 3.0305-8.0812 3.5355-9.0914-1.0102-9.0914-1.0102l-4.5457 3.0305z" fill="#999" filter="url(#i)" opacity=".9"/>
   <path d="m-685.14 400.81 5.3033-2.0203 4.2931 1.7678s1.0102-1.5152 2.2728-1.7678 3.7881 1.2627 4.7982 1.2627-5.5558 0 3.0305 0.50507 8.3338 1.5152 8.0812 0.25254-3.283-4.0406 0.75761-3.283l4.0406 0.75762 6.0609-1.5152 6.8185 3.283 3.0305 0.25253s4.5457 0.75762 5.8084 1.5152 5.8084 0.50508 1.2627 0.75762-3.7881-1.7678-6.3135 0.75761-5.3033 3.7881-6.566 3.7881-4.0406-0.75761-6.3134-0.75761-4.0406-0.50508-5.0508 0.25254-1.7678 2.7779-3.7881 2.2728-7.5761-2.0203-7.5761-2.0203h-2.5254l-4.5457-1.0102s-0.25254-1.2627-1.5152-1.7678-4.5457-0.75762-4.5457-0.75762l-3.0305-0.25254z" fill="#666" filter="url(#h)" opacity=".8"/>
   <path d="m-640.69 388.19 14.395 1.5152s5.3033-2.7779 6.0609-2.5254 5.0508 1.5152 5.0508 1.5152 5.5558-0.25254 6.8185-0.50507 10.102-1.2627 10.102-1.2627 6.566 3.5355 7.5762 3.5355 13.385 1.2627 13.385 1.2627l16.162 2.5254-15.405 2.0203-16.415-0.50508-8.5863-0.25254-18.183 3.0305-12.122-1.7678-20.961 1.7678z" fill="#ccc" filter="url(#e)" opacity=".8"/>
   <path d="m-662.15 399.8c2.2641 3.1413 7.8197 0.75941 11.617 0 2.1462-0.42923 3.8748-2.42 6.0609-2.5254 2.2873-0.11021 4.2874 1.793 6.566 2.0203 1.6836 0.16793 3.4073-0.10274 5.0508-0.50507 2.6419-0.64676 4.9053-2.5161 7.5761-3.0305 2.4798-0.47757 5.0508 0 7.5762 0 1.852 0 3.7305 0.31267 5.5558 0 2.9916-0.51243 5.5947-2.518 8.5863-3.0305 1.9913-0.3411 4.8443 1.6129 6.0609 0 0.73809-0.97851 5.3789-0.90991 4.347-1.5712-1.8644-1.1948-9.8186-0.26518-11.923-0.95414-1.3577-0.44446-10.389 0.50555-5.709-3.3876-1.0863-6.283-7.7879 6.0157-13.484 5.913-2.3446-0.0423-6.5876-0.18051-6.566-2.5254 0.0181-1.9705 4.3463-0.46457 5.5558-2.0203 1.0385-1.3358 1.5873-3.7501 0.50508-5.0508-1.2967-1.5584-4.0728-0.10813-6.0609-0.50507-4.8557-0.9695-9.9161-1.9652-14.142-4.5457-1.6256-0.99267-2.1361-4.0734-4.0406-4.0406-3.4539 0.0595-5.3059 4.6068-7.0711 7.5762-3.2646 5.4917-9.7965 13-6.0609 18.183z" fill="#999" filter="url(#l)" opacity=".8"/>
   <path d="m-642.91 363.82c-3.9645 6e-3 -4.9561 7.5384-8.9063 7.875-1.8107 0.15428-2.847-2.7054-4.6562-2.875-6.9781-0.65407-12.715 6.5289-19.656 7.5-2.722 0.3808-5.492-1.255-8.1876-0.71875-3.29 0.65457-11.877 0.68339-11.08 3.942 0.5654 2.3128 8.5616-1.5595 9.2679 0.71429 0.6857 2.2075-4.3947 2.0214-5.6876 3.9375-0.614 0.90981 0.1471 2.513-0.7187 3.1875-3.2885 2.5616-6.2101 1.1992-10.357 1.6205-4.1369 0.42035-14.185-3.2771-14.299 0.87946-0.0579 2.1087 4.1306 0.96537 6.0626 1.8125 1.2714 0.55752 2.612 1.1433 3.5937 2.125 0.4908 0.49084 0.4481 1.4582 1.0625 1.7812 3.3786 1.776 7.6303-0.99139 11.438-0.71875 2.911 0.20846 5.7939 0.88927 8.5625 1.8125 3.9912 1.3309 7.4409 4.0288 11.438 5.3438 1.7298 0.56916 4.303-0.43181 5.3437 1.0625 1.3089 1.879-2.7901 5.2782-1.0624 6.7812 2.1593 1.8786 5.3877-2.0788 8.2187-2.5 2.7082-0.403 5.5049-0.36344 8.2187 0 2.6906 0.36033 5.3193 1.158 7.8438 2.1562 2.1295 0.84209 3.9461 2.3445 6.0625 3.2188 4.1419 1.7109 8.4478 4.6321 12.875 3.9375 3.2951-0.517 29.652-8.1416 8.2187-5.7188-0.6221-3.7922-2.6617 0.81505-11.094-3.2188-2.0432-0.97748-5.5057 1.4967-6.7813-0.375-1.06-1.5554 0.49-3.9742 1.7813-5.3438 1.3194-1.3993 4.8254-0.31317 5.375-2.1562 0.4152-1.3926-1.5166-2.4927-2.5-3.5625-1.2586-1.369-2.4279-3.4111-4.2813-3.5625-2.3402-0.19117-4.0509 2.4049-6.0937 3.5625-1.2978 0.73539-2.4354 1.9082-3.9063 2.1562-2.1422 0.36132-4.9901 0.52636-6.4374-1.0938-1.509-1.6892 0.0876-4.564-0.375-6.7812-0.2078-0.9957-1.5492-1.9506-1.0626-2.8438 1.341-2.4604 5.5001-1.103 8.2188-1.7812 4.6805-1.1677 9.319-2.5444 13.938-3.9375 3.3521-1.0111 3.9406-1.9856 10-3.2188 0.9225-1.5701 11.124-2.7093 9.6206-3.7366-1.6968-1.1593-14.759-0.93495-16.777-0.54464-2.2693 0.43901-4.5049 1.0357-6.7812 1.4375-2.4869 0.43893-5.677 2.8101-7.5 1.0625-1.7273-1.6559-0.2487-4.9677 0.7188-7.1562 1.99-1.8685 14.251 1.7996 0.3437-6.0625zm-43.562 28.406 3.9375 0.53125 4.8125 1.7812 2.8438 0.90625 2.3437 1.0625-0.9063 0.875-2.3124-0.53125-3.4063-0.875-2.6563-1.625-3.5937-1.5938z" fill="url(#b)" filter="url(#m)" opacity=".95"/>
   <path d="m-668.72 407.88c2.8188 0.73042 4.7967 0.0874 7.0711 0s4.4615-0.33645 6.566-0.50508 3.9415-0.0957 6.0609-0.50507 5.0286-0.83855 6.566-2.0203 3.4926-2.0257 2.5254-4.0406-6.3902-0.30158-8.5863-1.0102-2.695-1.7368-4.5457-2.5254-4.5653-2.2297-6.566-2.0203-3.0119 1.4376-4.5457 2.5254-2.2267 3.0088-4.5457 4.0406-8.4498-2.184-9.0914 1.0102 6.2726 4.3203 9.0914 5.0508z" fill="#999" filter="url(#k)" opacity=".9"/>
   <path d="m-615.18 382.63 6.0609 2.5254 4.0406-2.5254 4.0406 1.0102 5.5558 2.5254 4.5457 1.5152s-1.5152 1.0102-3.5355 0.50507-6.566-1.0102-6.566-1.0102l-6.566 3.0305-4.0406-1.0102-3.5355-2.0203z" fill="#a6a7a7" filter="url(#j)" opacity=".9"/>
   <path d="m-642.71 398.04 7.0711-0.50508 5.0508 1.0102 7.5761-0.25253 7.0711-1.0102-6.0609-0.75761s-3.7881 0.25254-5.3033 0.50508-5.5558-1.0102-6.8185-1.0102h-3.7881c-1.7678 0-4.7982 2.0203-4.7982 2.0203z" fill="#b3b3b3" filter="url(#a)" opacity=".5"/>
   <path d="m-639.43 371.52 2.5254-1.5152 0.75761-2.2728 2.5254 0.75762 1.0102 0.50507v3.0305h-2.0203l-2.7779 2.0203z" fill="#9c9ea0" filter="url(#g)" opacity=".6728"/>
   <path d="m-616.19 395.51 7.0711-0.50508 5.0508 1.0102 7.5761-0.25253 7.0711-1.0102-6.0609-0.75761s-3.7881 0.25254-5.3033 0.50508-5.5558-1.0102-6.8185-1.0102h-3.7881c-1.7678 0-4.7982 2.0203-4.7982 2.0203z" fill="#959798" filter="url(#a)" opacity=".5"/>
   <path d="m-623.77 375.05 7.0711-0.50508 5.0508 1.0102 7.5761-0.25253 7.0711-1.0102-6.0609-0.75761s-3.7881 0.25254-5.3033 0.50508-5.5558-1.0102-6.8185-1.0102h-3.7881c-1.7678 0-4.7982 2.0203-4.7982 2.0203z" fill="#959798" filter="url(#a)" opacity=".5"/>
   <path d="m-645.49 407.38 7.0711-0.50508 5.0508 1.0102 7.5761-0.25253 7.0711-1.0102-6.0609-0.75761s-3.7881 0.25254-5.3033 0.50508-5.5558-1.0102-6.8185-1.0102h-3.7881c-1.7678 0-4.7982 2.0203-4.7982 2.0203z" fill="#b3b3b3" filter="url(#a)" opacity=".5"/>
   <path d="m-704.58 397.53 7.0711-0.50508 5.0508 1.0102 7.5761-0.25253 7.0711-1.0102-6.0609-0.75761s-3.7881 0.25254-5.3033 0.50508-5.5558-1.0102-6.8185-1.0102h-3.7881c-1.7678 0-4.7982 2.0203-4.7982 2.0203z" fill="#959798" filter="url(#a)" opacity=".5"/>
   <path d="m-676.04 385.66 4.0406-2.5254 2.7779 0.25254 4.5457-1.5152h5.5558l4.2932-0.50508-2.2728 3.283-4.0406-0.75761-4.7982 1.0102-4.2931 1.5152z" fill="#808080" filter="url(#d)" opacity=".6"/>
  </g>
 </g>
</svg>
