<?xml version="1.0" encoding="UTF-8"?>
<svg viewBox="0 0 617.93 334.57" xmlns="http://www.w3.org/2000/svg">
 <defs>
  <linearGradient id="a" x1=".5" x2=".5" y1=".025353" y2="1.0019">
   <stop stop-color="#06f" offset="0"/>
   <stop stop-color="#fff" offset="1"/>
  </linearGradient>
 </defs>
 <g transform="matrix(-1 0 0 .86247 755.78 -97.504)">
  <path d="m532.63 162.95c-26.753 0.21599-54.006 15.393-72.656 40.843-38.084-13.618-78.41-0.95001-92.5 30.219-0.38998 0.86299-0.75101 1.751-1.093 2.625-35.396 6.728-61.844 32.936-61.844 64.25 0 22.025 13.085 41.519 33.156 53.5 4.301 40.009 44.019 72.793 93.938 75.313 35.033 1.768 66.56-11.805 85.124-33.657 6.341 1.866 13.074 3.052 20.094 3.407 33.117 1.671 61.943-15.317 71.688-39.938 27.588-10.377 46.812-33.371 46.812-60.062 0-27.796-20.848-51.579-50.281-61.282-2.133-31.073-18.054-58.036-44.531-69.562-8.974-3.907-18.396-5.734-27.907-5.656z" fill="url(#a)" stroke-width="0"/>
 </g>
</svg>
