<?xml version="1.0" encoding="UTF-8"?>
<svg viewBox="0 0 800 600" xmlns="http://www.w3.org/2000/svg" xmlns:xlink="http://www.w3.org/1999/xlink">
 <defs>
  <clipPath id="b">
   <path d="m7.6058 460.37h788.47v590.72h-788.47z"/>
  </clipPath>
  <clipPath id="ad">
   <path d="m6.0086-193.98h730.53v843.3h-730.53z"/>
  </clipPath>
  <clipPath id="ac">
   <path d="m4.2195-193.98h832.52v843.3h-832.52z"/>
  </clipPath>
  <clipPath id="ab">
   <path d="m-1153.8-503.56h1738.1v1733.3h-1738.1z"/>
  </clipPath>
  <clipPath id="aa">
   <path d="m-842.98-161.65h1806.4v1733.3h-1806.4z"/>
  </clipPath>
  <clipPath id="z">
   <path d="m72.914-51.948h1806.4v843.3h-1806.4z"/>
  </clipPath>
  <clipPath id="y">
   <path d="m55.49 150.23h933v843.3h-933z"/>
  </clipPath>
  <clipPath id="x">
   <path d="m2.4568-193.98h933v843.3h-933z"/>
  </clipPath>
  <clipPath id="c">
   <path d="m7.6058 8.0119h788.47v590.72h-788.47z"/>
  </clipPath>
  <clipPath id="w">
   <path d="m-0.10656 59.772h777.08v471.33h-777.08z"/>
  </clipPath>
  <clipPath id="v">
   <path d="m-884.08-66.986h1660.1v1243.7h-1660.1z"/>
  </clipPath>
  <clipPath id="u">
   <path d="m-400.46 3.1021h1170.3v876.75h-1170.3z"/>
  </clipPath>
  <filter id="t" x="-.19215" y="-.2174" width="1.3843" height="1.4348">
   <feGaussianBlur stdDeviation="15.73142"/>
  </filter>
  <filter id="s" x="-.22606" y="-.25577" width="1.4521" height="1.5115">
   <feGaussianBlur stdDeviation="18.50755"/>
  </filter>
  <filter id="a" x="-.05754" y="-.15551" width="1.1151" height="1.311">
   <feGaussianBlur stdDeviation="7.43565"/>
  </filter>
  <filter id="i" x="-.08199" y="-.15816" width="1.164" height="1.3163">
   <feGaussianBlur stdDeviation="3.692"/>
  </filter>
  <linearGradient id="e">
   <stop stop-color="#ff0" offset="0"/>
   <stop stop-color="#ff0" stop-opacity="0" offset="1"/>
  </linearGradient>
  <linearGradient id="d">
   <stop stop-color="#808080" offset="0"/>
   <stop stop-color="#808080" stop-opacity="0" offset="1"/>
  </linearGradient>
  <linearGradient id="f">
   <stop stop-color="#fff" offset="0"/>
   <stop stop-color="#fff" stop-opacity="0" offset="1"/>
  </linearGradient>
  <linearGradient id="q" x1="360.84" x2="358.31" y1="1100.3" y2="999.59" gradientUnits="userSpaceOnUse">
   <stop stop-color="#008000" offset="0"/>
   <stop stop-color="#008000" stop-opacity="0" offset="1"/>
  </linearGradient>
  <linearGradient id="r" x1="398.04" x2="400.57" y1="-8.4674" y2="266.61" gradientUnits="userSpaceOnUse" xlink:href="#f"/>
  <linearGradient id="p" x1="-365.71" x2="566.5" y1="943.01" y2="910.74" gradientUnits="userSpaceOnUse" xlink:href="#e"/>
  <linearGradient id="o" x1="653.36" x2="652.69" y1="807.75" y2="766.23" gradientUnits="userSpaceOnUse" xlink:href="#d"/>
  <linearGradient id="h" x1="173.67" x2="172.4" y1="758.27" y2="679.68" gradientUnits="userSpaceOnUse" xlink:href="#d"/>
  <linearGradient id="n" x1="173.67" x2="172.4" y1="305.91" y2="227.31" gradientTransform="matrix(-.58492 0 0 .58492 210.55 666.94)" gradientUnits="userSpaceOnUse" xlink:href="#d"/>
  <linearGradient id="g" x1="173.67" x2="172.4" y1="305.91" y2="227.31" gradientTransform="matrix(-.58492 0 0 .58492 611.12 518.63)" gradientUnits="userSpaceOnUse" xlink:href="#d"/>
  <radialGradient id="m" cx="655.52" cy="93.144" r="124.86" gradientTransform="matrix(.99137 1.2032 -1.1384 .93802 111.69 -782.65)" gradientUnits="userSpaceOnUse" xlink:href="#f"/>
  <radialGradient id="l" cx="266.54" cy="156.47" r="402.48" gradientTransform="matrix(.00994 .61667 -.56122 .00904 585.88 141.39)" gradientUnits="userSpaceOnUse" xlink:href="#e"/>
  <radialGradient id="k" cx="736.39" cy="198.91" r="276.97" gradientTransform="matrix(.68432 -.7004 .65771 .70387 46.595 481.03)" gradientUnits="userSpaceOnUse" xlink:href="#e"/>
  <radialGradient id="j" cx="266.54" cy="156.47" r="402.48" gradientTransform="matrix(.00994 .39305 -.56111 .01419 589.87 654.55)" gradientUnits="userSpaceOnUse" xlink:href="#e"/>
 </defs>
 <path transform="translate(0 -1.7927)" d="m0 0.40604h801.15v603.4h-801.15z" clip-path="url(#c)" fill="#00f" stroke="#ccc" stroke-linecap="round" stroke-linejoin="round" stroke-width="6"/>
 <path transform="translate(0 -1.7927)" d="m0 0.40604h801.15v603.4h-801.15z" clip-path="url(#c)" fill="url(#r)" stroke="#ccc" stroke-linecap="round" stroke-linejoin="round" stroke-width="6"/>
 <path transform="translate(0 -454.15)" d="m1.2676 887.32s65.917 16.479 125.5-12.676 109.55-62.919 166.06-34.226c82.397 41.832 271.3 54.971 320.71 1.2676 53.527-58.173 100.14 31.691 141.98 10.141s48.17-40.564 48.17-40.564l-3.8029 225.64h-801.15z" clip-path="url(#b)" fill="#008000"/>
 <path transform="translate(0 -1.7927)" d="m-1.2676 433.94s148.31 29.156 207.89 0 98.876-69.72 162.26-69.72 106.48 25.353 182.54 46.903 134.37 25.353 176.2 3.8029 74.791-57.044 74.791-57.044l-2.5353 243.39h-801.15z" clip-path="url(#c)" fill="#0f0"/>
 <path transform="translate(0 -454.15)" d="m0.83266 980.86s148.31 13.541 207.89 0 98.876-32.381 162.26-32.381 106.48 11.775 182.54 21.783 134.37 11.775 176.2 1.7662 74.791-26.493 74.791-26.493l-2.5353 113.04h-801.15z" clip-path="url(#b)" fill="url(#q)"/>
 <path transform="matrix(.67376 0 0 .67376 277.42 4.1291)" d="m750.44 96.113c0 47.957-43.984 86.833-98.242 86.833s-98.242-38.877-98.242-86.833 43.984-86.833 98.242-86.833 98.242 38.877 98.242 86.833z" clip-path="url(#u)" fill="#ff0" filter="url(#t)"/>
 <path transform="matrix(.47496 0 0 .47496 427.51 38.035)" d="m750.44 96.113c0 47.957-43.984 86.833-98.242 86.833s-98.242-38.877-98.242-86.833 43.984-86.833 98.242-86.833 98.242 38.877 98.242 86.833z" clip-path="url(#v)" fill="url(#m)" filter="url(#s)"/>
 <path transform="translate(0 -1.7927)" d="m199.02 437.74 79.861-45.635s55.776-27.888 64.65-27.888 78.594 3.8029 95.073 10.141 124.23 41.832 124.23 41.832 86.2 15.212 95.073 15.212 50.706-6.3382 59.579-8.8735 84.932-65.917 84.932-65.917v124.23s-324.52 10.141-415.79 35.494-168.6 39.297-271.28 26.62-117.89-21.55-117.89-21.55v-91.27l2.5353 5.0706 55.776 7.6058s70.988 7.6058 76.058 6.3382 45.635-2.5353 51.973-5.0706 15.212-6.3382 15.212-6.3382z" clip-path="url(#c)" fill="url(#l)"/>
 <path transform="translate(0 -454.15)" d="m199.29 893 79.861-45.635s55.776-27.888 64.65-27.888 78.594 3.8029 95.073 10.141 124.23 41.832 124.23 41.832 86.2 15.212 95.073 15.212 50.706-6.3382 59.579-8.8735 84.932-65.917 84.932-65.917v124.23s-324.52 10.141-415.79 35.494-168.6 39.297-271.28 26.62-117.89-21.55-117.89-21.55v-91.27l2.5353 5.0706 55.776 7.6058s70.988 7.6059 76.058 6.3382 45.635-2.5352 51.973-5.0705 15.212-6.3382 15.212-6.3382z" clip-path="url(#b)" fill="url(#p)"/>
 <path transform="matrix(1.0147 0 0 1.2533 7.714 -68.694)" d="m876.64 181.4c0 99.504-124.01 180.17-276.97 180.17s-276.97-80.664-276.97-180.17 124.01-180.17 276.97-180.17 276.97 80.664 276.97 180.17z" clip-path="url(#w)" fill="url(#k)" opacity=".44"/>
 <g transform="translate(0 -454.15)" clip-path="url(#b)">
  <path d="m663.08 724.03c-11.768 0-21.833 5.9998-25.888 14.463-4.4616-1.9572-9.5626-3.0709-14.975-3.0709-17.569 0-31.815 11.694-31.815 26.119 0 3.7025 0.9496 7.2267 2.6416 10.418-5.1212 1.765-8.6678 5.5807-8.6678 10.005 0 6.103 6.7514 11.062 15.074 11.062 4.7763 0 9.0274-1.6346 11.788-4.177 4.6786 2.8891 13.686 4.8374 24.039 4.8374 6.5981 0 12.65-0.78897 17.385-2.1133 5.5862 2.1525 12.697 3.4506 20.456 3.4506 10.084 0 19.088-2.1776 25.046-5.5969h0.0165c2.0855 0.15198 4.2376 0.24765 6.4224 0.24765 21.268 0 38.501-7.4942 38.501-16.741 0-6.5942-8.7691-12.294-21.513-15.024 0.91074-1.7841 1.4199-3.7211 1.4199-5.7455 0-8.877-9.5939-16.064-21.43-16.064-4.6048 0-8.8726 1.0851-12.366 2.9388-3.8742-8.7538-14.113-15.008-26.135-15.008z" fill="#fff"/>
  <path d="m663.08 724.03c-11.768 0-21.833 5.9998-25.888 14.463-4.4616-1.9572-9.5626-3.0709-14.975-3.0709-17.569 0-31.815 11.694-31.815 26.119 0 3.7025 0.9496 7.2267 2.6416 10.418-5.1212 1.765-8.6678 5.5807-8.6678 10.005 0 6.103 6.7514 11.062 15.074 11.062 4.7763 0 9.0274-1.6346 11.788-4.177 4.6786 2.8891 13.686 4.8374 24.039 4.8374 6.5981 0 12.65-0.78897 17.385-2.1133 5.5862 2.1525 12.697 3.4506 20.456 3.4506 10.084 0 19.088-2.1776 25.046-5.5969h0.0165c2.0855 0.15198 4.2376 0.24765 6.4224 0.24765 21.268 0 38.501-7.4942 38.501-16.741 0-6.5942-8.7691-12.294-21.513-15.024 0.91074-1.7841 1.4199-3.7211 1.4199-5.7455 0-8.877-9.5939-16.064-21.43-16.064-4.6048 0-8.8726 1.0851-12.366 2.9388-3.8742-8.7538-14.113-15.008-26.135-15.008z" fill="url(#o)"/>
  <g transform="translate(-1.2676 -48.17)">
   <path transform="translate(0 452.36)" d="m192.06 147.44c-22.274 0-41.326 11.356-49 27.375-8.4448-3.7046-18.1-5.8125-28.344-5.8125-33.255 0-60.219 22.134-60.219 49.438 0 7.0081 1.7974 13.679 5 19.719-9.6934 3.3409-16.406 10.563-16.406 18.938 0 11.552 12.779 20.938 28.531 20.938 9.0406 0 17.087-3.094 22.312-7.9062 8.8556 5.4685 25.904 9.1562 45.5 9.1562 12.489 0 23.944-1.4934 32.906-4 10.574 4.0742 24.033 6.5312 38.719 6.5312 19.086 0 36.13-4.1217 47.406-10.594h0.0312c3.9473 0.28767 8.0209 0.46875 12.156 0.46875 40.256 0 72.875-14.185 72.875-31.688 0-12.481-16.598-23.27-40.719-28.438 1.7238-3.377 2.6875-7.0434 2.6875-10.875 0-16.802-18.159-30.406-40.562-30.406-8.7159 0-16.794 2.0539-23.406 5.5625-7.3331-16.569-26.712-28.406-49.469-28.406z" fill="#fff"/>
   <path d="m192.06 599.8c-22.274 0-41.326 11.356-49 27.375-8.4448-3.7046-18.1-5.8125-28.344-5.8125-33.255 0-60.219 22.134-60.219 49.438 0 7.0081 1.7974 13.679 5 19.719-9.6934 3.3409-16.406 10.563-16.406 18.938 0 11.552 12.779 20.938 28.531 20.938 9.0406 0 17.087-3.094 22.312-7.9062 8.8556 5.4685 25.904 9.1562 45.5 9.1562 12.489 0 23.944-1.4934 32.906-4 10.574 4.0742 24.033 6.5312 38.719 6.5312 19.086 0 36.13-4.1217 47.406-10.594h0.0312c3.9473 0.28767 8.0209 0.46875 12.156 0.46875 40.256 0 72.875-14.185 72.875-31.688 0-12.481-16.598-23.27-40.719-28.438 1.7238-3.377 2.6875-7.0434 2.6875-10.875 0-16.802-18.159-30.406-40.562-30.406-8.7159 0-16.794 2.0539-23.406 5.5625-7.3331-16.569-26.712-28.406-49.469-28.406z" fill="url(#h)"/>
  </g>
  <path d="m98.206 753.18c13.029 0 24.173 6.6426 28.661 16.012 4.9396-2.1669 10.587-3.3999 16.579-3.3999 19.451 0 35.223 12.946 35.223 28.917 0 4.0992-1.0513 8.001-2.9246 11.534 5.6699 1.9542 9.5964 6.1786 9.5964 11.077 0 6.7568-7.4747 12.247-16.689 12.247-5.288 0-9.9945-1.8097-13.051-4.6245-5.1799 3.1986-15.152 5.3557-26.614 5.3557-7.305 0-14.005-0.8735-19.248-2.3397-6.1847 2.3831-14.057 3.8203-22.647 3.8203-11.164 0-21.133-2.4108-27.729-6.1965h-0.0183c-2.3089 0.16826-4.6916 0.27418-7.1105 0.27418-23.546 0-42.626-8.2971-42.626-18.535 0-7.3006 9.7086-13.611 23.817-16.634-1.0083-1.9753-1.572-4.1198-1.572-6.361 0-9.8281 10.622-17.785 23.726-17.785 5.0981 0 9.8232 1.2014 13.691 3.2536 4.2893-9.6916 15.625-16.615 28.935-16.615z" fill="#fff"/>
  <path d="m98.206 753.18c13.029 0 24.173 6.6426 28.661 16.012 4.9396-2.1669 10.587-3.3999 16.579-3.3999 19.451 0 35.223 12.946 35.223 28.917 0 4.0992-1.0513 8.001-2.9246 11.534 5.6699 1.9542 9.5964 6.1786 9.5964 11.077 0 6.7568-7.4747 12.247-16.689 12.247-5.288 0-9.9945-1.8097-13.051-4.6245-5.1799 3.1986-15.152 5.3557-26.614 5.3557-7.305 0-14.005-0.8735-19.248-2.3397-6.1847 2.3831-14.057 3.8203-22.647 3.8203-11.164 0-21.133-2.4108-27.729-6.1965h-0.0183c-2.3089 0.16826-4.6916 0.27418-7.1105 0.27418-23.546 0-42.626-8.2971-42.626-18.535 0-7.3006 9.7086-13.611 23.817-16.634-1.0083-1.9753-1.572-4.1198-1.572-6.361 0-9.8281 10.622-17.785 23.726-17.785 5.0981 0 9.8232 1.2014 13.691 3.2536 4.2893-9.6916 15.625-16.615 28.935-16.615z" fill="url(#n)"/>
  <path d="m500.05 606.14c13.029 0 24.173 6.6426 28.661 16.012 4.9396-2.1669 10.587-3.3999 16.579-3.3999 19.451 0 35.223 12.946 35.223 28.917 0 4.0992-1.0513 8.001-2.9246 11.534 5.6699 1.9542 9.5964 6.1786 9.5964 11.077 0 6.7568-7.4747 12.247-16.689 12.247-5.288 0-9.9945-1.8097-13.051-4.6245-5.1799 3.1986-15.152 5.3557-26.614 5.3557-7.305 0-14.005-0.8735-19.248-2.3397-6.1847 2.3831-14.057 3.8203-22.647 3.8203-11.164 0-21.133-2.4108-27.729-6.1965h-0.0183c-2.3089 0.16826-4.6916 0.27418-7.1105 0.27418-23.546 0-42.626-8.2971-42.626-18.535 0-7.3006 9.7086-13.611 23.817-16.634-1.0083-1.9753-1.572-4.1198-1.572-6.361 0-9.8281 10.622-17.785 23.726-17.785 5.0981 0 9.8232 1.2014 13.691 3.2536 4.2893-9.6916 15.625-16.615 28.935-16.615z" fill="#fff"/>
  <path d="m498.78 604.87c13.029 0 24.173 6.6426 28.661 16.012 4.9396-2.1669 10.587-3.3999 16.579-3.3999 19.451 0 35.223 12.946 35.223 28.917 0 4.0992-1.0513 8.001-2.9246 11.534 5.6699 1.9542 9.5964 6.1786 9.5964 11.077 0 6.7568-7.4747 12.247-16.689 12.247-5.288 0-9.9945-1.8097-13.051-4.6245-5.1799 3.1986-15.152 5.3557-26.614 5.3557-7.305 0-14.005-0.8735-19.248-2.3397-6.1847 2.3831-14.057 3.8203-22.647 3.8203-11.164 0-21.133-2.4108-27.729-6.1965h-0.0183c-2.3089 0.16826-4.6916 0.27418-7.1105 0.27418-23.546 0-42.626-8.2971-42.626-18.535 0-7.3006 9.7086-13.611 23.817-16.634-1.0083-1.9753-1.572-4.1198-1.572-6.361 0-9.8281 10.622-17.785 23.726-17.785 5.0981 0 9.8232 1.2014 13.691 3.2536 4.2893-9.6916 15.625-16.615 28.935-16.615z" fill="url(#g)"/>
  <g transform="matrix(.81857 0 0 .72643 30.636 145.08)">
   <path transform="translate(0 452.36)" d="m192.06 147.44c-22.274 0-41.326 11.356-49 27.375-8.4448-3.7046-18.1-5.8125-28.344-5.8125-33.255 0-60.219 22.134-60.219 49.438 0 7.0081 1.7974 13.679 5 19.719-9.6934 3.3409-16.406 10.563-16.406 18.938 0 11.552 12.779 20.938 28.531 20.938 9.0406 0 17.087-3.094 22.312-7.9062 8.8556 5.4685 25.904 9.1562 45.5 9.1562 12.489 0 23.944-1.4934 32.906-4 10.574 4.0742 24.033 6.5312 38.719 6.5312 19.086 0 36.13-4.1217 47.406-10.594h0.0312c3.9473 0.28767 8.0209 0.46875 12.156 0.46875 40.256 0 72.875-14.185 72.875-31.688 0-12.481-16.598-23.27-40.719-28.438 1.7238-3.377 2.6875-7.0434 2.6875-10.875 0-16.802-18.159-30.406-40.562-30.406-8.7159 0-16.794 2.0539-23.406 5.5625-7.3331-16.569-26.712-28.406-49.469-28.406z" fill="#fff"/>
   <path d="m192.06 599.8c-22.274 0-41.326 11.356-49 27.375-8.4448-3.7046-18.1-5.8125-28.344-5.8125-33.255 0-60.219 22.134-60.219 49.438 0 7.0081 1.7974 13.679 5 19.719-9.6934 3.3409-16.406 10.563-16.406 18.938 0 11.552 12.779 20.938 28.531 20.938 9.0406 0 17.087-3.094 22.312-7.9062 8.8556 5.4685 25.904 9.1562 45.5 9.1562 12.489 0 23.944-1.4934 32.906-4 10.574 4.0742 24.033 6.5312 38.719 6.5312 19.086 0 36.13-4.1217 47.406-10.594h0.0312c3.9473 0.28767 8.0209 0.46875 12.156 0.46875 40.256 0 72.875-14.185 72.875-31.688 0-12.481-16.598-23.27-40.719-28.438 1.7238-3.377 2.6875-7.0434 2.6875-10.875 0-16.802-18.159-30.406-40.562-30.406-8.7159 0-16.794 2.0539-23.406 5.5625-7.3331-16.569-26.712-28.406-49.469-28.406z" fill="url(#h)"/>
  </g>
  <g transform="matrix(.80663 0 0 .7143 102.13 190.56)">
   <path d="m500.05 606.14c13.029 0 24.173 6.6426 28.661 16.012 4.9396-2.1669 10.587-3.3999 16.579-3.3999 19.451 0 35.223 12.946 35.223 28.917 0 4.0992-1.0513 8.001-2.9246 11.534 5.6699 1.9542 9.5964 6.1786 9.5964 11.077 0 6.7568-7.4747 12.247-16.689 12.247-5.288 0-9.9945-1.8097-13.051-4.6245-5.1799 3.1986-15.152 5.3557-26.614 5.3557-7.305 0-14.005-0.8735-19.248-2.3397-6.1847 2.3831-14.057 3.8203-22.647 3.8203-11.164 0-21.133-2.4108-27.729-6.1965h-0.0183c-2.3089 0.16826-4.6916 0.27418-7.1105 0.27418-23.546 0-42.626-8.2971-42.626-18.535 0-7.3006 9.7086-13.611 23.817-16.634-1.0083-1.9753-1.572-4.1198-1.572-6.361 0-9.8281 10.622-17.785 23.726-17.785 5.0981 0 9.8232 1.2014 13.691 3.2536 4.2893-9.6916 15.625-16.615 28.935-16.615z" fill="#fff"/>
   <path d="m498.78 604.87c13.029 0 24.173 6.6426 28.661 16.012 4.9396-2.1669 10.587-3.3999 16.579-3.3999 19.451 0 35.223 12.946 35.223 28.917 0 4.0992-1.0513 8.001-2.9246 11.534 5.6699 1.9542 9.5964 6.1786 9.5964 11.077 0 6.7568-7.4747 12.247-16.689 12.247-5.288 0-9.9945-1.8097-13.051-4.6245-5.1799 3.1986-15.152 5.3557-26.614 5.3557-7.305 0-14.005-0.8735-19.248-2.3397-6.1847 2.3831-14.057 3.8203-22.647 3.8203-11.164 0-21.133-2.4108-27.729-6.1965h-0.0183c-2.3089 0.16826-4.6916 0.27418-7.1105 0.27418-23.546 0-42.626-8.2971-42.626-18.535 0-7.3006 9.7086-13.611 23.817-16.634-1.0083-1.9753-1.572-4.1198-1.572-6.361 0-9.8281 10.622-17.785 23.726-17.785 5.0981 0 9.8232 1.2014 13.691 3.2536 4.2893-9.6916 15.625-16.615 28.935-16.615z" fill="url(#g)"/>
  </g>
 </g>
 <path transform="translate(0 -1.7927)" d="m142.52 445.83s38.543 17.927 58.263 6.2745 80.672-47.507 80.672-47.507l45.714-33.165s40.336 12.549 44.818 16.134 40.336 42.129 40.336 46.611 68.123 32.269 63.641 32.269-196.3 8.0672-201.68 8.0672-55.574 11.653-76.19 11.653-179.27 0.89635-179.27-8.9636 65.434-11.653 69.02-12.549 54.678-18.824 54.678-18.824z" clip-path="url(#c)" fill="#008000" filter="url(#a)" opacity=".22"/>
 <path transform="matrix(.84509 0 0 .70049 5.5296 142.1)" d="m142.52 445.83s38.543 17.927 58.263 6.2745 80.672-47.507 80.672-47.507l45.714-33.165s40.336 12.549 44.818 16.134 40.336 42.129 40.336 46.611 68.123 32.269 63.641 32.269-196.3 8.0672-201.68 8.0672-55.574 11.653-76.19 11.653-179.27 0.89635-179.27-8.9636 65.434-11.653 69.02-12.549 54.678-18.824 54.678-18.824z" clip-path="url(#x)" fill="#008000" filter="url(#a)" opacity=".11"/>
 <path transform="matrix(.84509 0 0 .70049 -39.288 -99.016)" d="m135.1 457.34s-0.70113-35.817 45.535-30.834c21.871 2.3568 60.52-16.796 60.52-16.796 31.362 17.362 55.724 5.1622 81.777 0.10474 7.4449 17.964 53.449 41.629 54.364 36.608 1.1551-6.3363 24.376-24.699 27.608-22.489 15.91 10.88 49.031-21.475 44.549-3.5603-1.295 5.1763-144.33 50.294-149.71 50.294s10.948-39.141-119.68-7.5416c-20.214 4.8899-79.569-15.739-79.569-25.599s18.765 1.1435 22.35 0.24715 12.251 19.565 12.251 19.565z" clip-path="url(#y)" fill="#4d4d4d" filter="url(#a)" opacity=".44"/>
 <path transform="matrix(.43648 0 0 .70049 -24.22 42.608)" d="m135.1 457.34s-0.70113-35.817 45.535-30.834c21.871 2.3568 60.52-16.796 60.52-16.796 31.362 17.362 55.724 5.1622 81.777 0.10474 7.4449 17.964 53.449 41.629 54.364 36.608 1.1551-6.3363 24.376-24.699 27.608-22.489 15.91 10.88 49.031-21.475 44.549-3.5603-1.295 5.1763-144.33 50.294-149.71 50.294s10.948-39.141-119.68-7.5416c-20.214 4.8899-79.569-15.739-79.569-25.599s18.765 1.1435 22.35 0.24715 12.251 19.565 12.251 19.565z" clip-path="url(#z)" fill="#4d4d4d" filter="url(#a)" opacity=".44"/>
 <path transform="matrix(.43648 0 0 .34081 375.56 61.311)" d="m135.1 457.34s-0.70113-35.817 45.535-30.834c21.871 2.3568 60.52-16.796 60.52-16.796 31.362 17.362 55.724 5.1622 81.777 0.10474 7.4449 17.964 53.449 41.629 54.364 36.608 1.1551-6.3363 24.376-24.699 27.608-22.489 15.91 10.88 49.031-21.475 44.549-3.5603-1.295 5.1763-144.33 50.294-149.71 50.294s10.948-39.141-119.68-7.5416c-20.214 4.8899-79.569-15.739-79.569-25.599s18.765 1.1435 22.35 0.24715 12.251 19.565 12.251 19.565z" clip-path="url(#aa)" fill="#4d4d4d" filter="url(#a)" opacity=".44"/>
 <path transform="matrix(.45363 0 0 .34081 530.99 177.84)" d="m135.1 457.34s-36.268-27.926 9.9681-22.944c21.871 2.3568 96.087-24.686 96.087-24.686 31.362 43.663 55.724 5.1622 81.777 0.10474 7.4449 17.964 53.449 41.629 54.364 36.608 1.1551-6.3363 50.064-58.89 53.296-56.68 15.91 10.88 23.746 12.903 18.862 30.631-7.2229 26.217-128.52 55.555-133.9 55.555s52.443-39.141-78.182-7.5416c-20.214 4.8899-136.87-20.999-136.87-30.859s18.765 1.1435 22.35 0.24715 12.251 19.565 12.251 19.565z" clip-path="url(#ab)" fill="#4d4d4d" filter="url(#a)" opacity=".44"/>
 <path transform="translate(0 -454.15)" d="m734.28 856.19s-22.184-5.0706-29.79-11.092-34.226-20.916-41.832-20.916-15.212-1.2676-19.965 0-5.3875 5.3875-5.3875 8.2397 13.627 16.796 19.648 20.916 15.846 13.31 13.944 17.43-0.31691 8.8735-0.31691 8.8735 21.55-0.31691 28.839-2.2184 24.085-8.2397 25.67-9.5073 20.282-12.993 20.282-12.993z" clip-path="url(#b)" fill="#ff0" filter="url(#i)" opacity=".33"/>
 <path transform="translate(0 -454.15)" d="m274.13 844.79s19.015 1.2676 11.409-4.7536-27.254-10.775-34.86-10.775-15.212-1.2676-19.965 0 9.8242 16.796 9.8242 19.648-14.261 10.458-8.2397 14.578-2.5353 0.63383-4.4367 4.7537 18.064-4.4368 18.064-4.4368 5.0706-6.0213 12.36-7.9228 10.775-6.972 12.359-8.2397-0.63382 0.31691-0.63382 0.31691z" clip-path="url(#b)" fill="#ff0" filter="url(#i)" opacity=".33"/>
 <path transform="matrix(.94709 0 0 .70049 3.6096 142.1)" d="m142.52 445.83s38.543 17.927 58.263 6.2745 80.672-47.507 80.672-47.507l45.714-33.165s40.336 12.549 44.818 16.134 40.336 42.129 40.336 46.611 68.123 32.269 63.641 32.269-196.3 8.0672-201.68 8.0672-55.574 11.653-76.19 11.653-179.27 0.89635-179.27-8.9636 65.434-11.653 69.02-12.549 54.678-18.824 54.678-18.824z" clip-path="url(#ac)" fill="#008000" filter="url(#a)" opacity=".11"/>
 <path transform="matrix(1.0793 0 0 .70049 1.1206 142.1)" d="m142.52 445.83s38.543 17.927 58.263 6.2745 80.672-47.507 80.672-47.507l45.714-33.165s40.336 12.549 44.818 16.134 40.336 42.129 40.336 46.611 68.123 32.269 63.641 32.269-196.3 8.0672-201.68 8.0672-55.574 11.653-76.19 11.653-179.27 0.89635-179.27-8.9636 65.434-11.653 69.02-12.549 54.678-18.824 54.678-18.824z" clip-path="url(#ad)" fill="#008000" filter="url(#a)" opacity=".11"/>
 <path transform="translate(0 -454.15)" d="m203.02 892.1 79.861-45.635s55.776-27.888 64.65-27.888 78.594 3.8029 95.073 10.141 124.23 41.832 124.23 41.832 86.2 15.212 95.073 15.212 50.706-6.3382 59.579-8.8735 84.932-65.917 84.932-65.917v124.23s-324.52 10.141-415.79 35.494-168.6 39.297-271.28 26.62-117.89-21.55-117.89-21.55v-91.27l2.5353 5.0706 55.776 7.6058s70.988 7.6058 76.058 6.3382 45.635-2.5353 51.973-5.0706 15.212-6.3382 15.212-6.3382z" clip-path="url(#b)" fill="url(#j)"/>
</svg>
