<?xml version="1.0" encoding="UTF-8"?>
<svg viewBox="0 0 1168.1749 540.43018" xmlns="http://www.w3.org/2000/svg" xmlns:xlink="http://www.w3.org/1999/xlink">
 <defs>
  <linearGradient id="l" x1="835.22" x2="837.38" y1="1146" y2="1352.1" gradientUnits="userSpaceOnUse">
   <stop stop-color="#99bdd8" offset="0"/>
   <stop stop-color="#778a96" offset="1"/>
  </linearGradient>
  <linearGradient id="a">
   <stop stop-color="#fff" offset="0"/>
   <stop stop-color="#d4e7f7" stop-opacity="0" offset="1"/>
  </linearGradient>
  <linearGradient id="u" x2="0" y1="1609.1" y2="883.09" gradientUnits="userSpaceOnUse">
   <stop stop-color="#555753" offset="0"/>
   <stop stop-color="#a4cded" offset="1"/>
  </linearGradient>
  <linearGradient id="i">
   <stop stop-color="#729fcf" offset="0"/>
   <stop offset="1"/>
  </linearGradient>
  <linearGradient id="j">
   <stop stop-color="#8a9da5" offset="0"/>
   <stop stop-color="#74848a" offset="1"/>
  </linearGradient>
  <linearGradient id="ae" x2="0" y1="-989.64" y2="-329.5" gradientUnits="userSpaceOnUse">
   <stop offset="0"/>
   <stop stop-color="#204a87" offset="1"/>
  </linearGradient>
  <linearGradient id="e">
   <stop stop-color="#898e79" offset="0"/>
   <stop stop-color="#a8ad9b" offset="1"/>
  </linearGradient>
  <linearGradient id="n" x2="0" y1="1349.1" y2="1435.1" gradientUnits="userSpaceOnUse">
   <stop stop-color="#50653b" offset="0"/>
   <stop stop-color="#73d216" offset="1"/>
  </linearGradient>
  <linearGradient id="k">
   <stop stop-color="#8a9da5" offset="0"/>
   <stop offset="1"/>
  </linearGradient>
  <linearGradient id="g">
   <stop stop-color="#fff" offset="0"/>
   <stop stop-color="#fff" stop-opacity="0" offset="1"/>
  </linearGradient>
  <linearGradient id="f">
   <stop stop-color="#448552" offset="0"/>
   <stop stop-color="#8f5902" offset="1"/>
  </linearGradient>
  <linearGradient id="af" x1="-553.96" x2="-534.8" y1="1161.9" y2="1793.8" gradientTransform="matrix(2.5796 0 0 1.0694 2622 -335.3)" gradientUnits="userSpaceOnUse">
   <stop stop-color="#93c3ea" offset="0"/>
   <stop stop-color="#93c3ea" stop-opacity="0" offset="1"/>
  </linearGradient>
  <linearGradient id="p" x1="-365.06" x2="-309.96" y1="752.36" y2="951.97" gradientTransform="matrix(.85974 -.12949 .12949 .85974 1389.5 255.68)" gradientUnits="userSpaceOnUse" xlink:href="#a"/>
  <linearGradient id="o" x1="-436.16" x2="-309.96" y1="796.36" y2="951.97" gradientTransform="matrix(.57108 -.08601 .08601 .57108 1323.7 530.57)" gradientUnits="userSpaceOnUse" xlink:href="#a"/>
  <linearGradient id="r" x1="1481.3" x2="1536.4" y1="897.09" y2="1096.7" gradientUnits="userSpaceOnUse" xlink:href="#a"/>
  <linearGradient id="q" x1="1434.7" x2="1518.5" y1="975.09" y2="1078.5" gradientUnits="userSpaceOnUse" xlink:href="#a"/>
  <linearGradient id="ad" x1="-1194.8" x2="-1282" y1="348.36" y2="-265.64" gradientTransform="matrix(2.4737 0 0 .49686 1954 -155.14)" gradientUnits="userSpaceOnUse" xlink:href="#e"/>
  <linearGradient id="h" x1="-1194.8" x2="-1282" y1="348.36" y2="-265.64" gradientTransform="matrix(1 0 0 .74214 66.683 63.276)" gradientUnits="userSpaceOnUse" xlink:href="#e"/>
  <linearGradient id="ac" x1="-961.44" x2="-1006.2" y1="-638.85" y2="-926.54" gradientUnits="userSpaceOnUse" xlink:href="#e"/>
  <linearGradient id="ab" x1="-1194.8" x2="-1282" y1="348.36" y2="-265.64" gradientUnits="userSpaceOnUse" xlink:href="#e"/>
  <linearGradient id="z" x1="-590.94" x2="-587.4" y1="76.555" y2="136.15" gradientTransform="matrix(1.1404 0 0 1.1538 79.917 -13.253)" gradientUnits="userSpaceOnUse" xlink:href="#k"/>
  <linearGradient id="y" x1="-590.94" x2="-587.4" y1="76.555" y2="136.15" gradientTransform="matrix(1.8958 0 0 1.1538 255.94 -13.253)" gradientUnits="userSpaceOnUse" xlink:href="#k"/>
  <linearGradient id="x" x1="-878" x2="-857.25" y1="264.52" y2="481.36" gradientUnits="userSpaceOnUse" xlink:href="#j"/>
  <linearGradient id="w" x1="-590.94" x2="-585.98" y1="76.555" y2="122.36" gradientTransform="matrix(1.8117 0 0 1.4965 -90.769 -136.63)" gradientUnits="userSpaceOnUse" xlink:href="#i"/>
  <linearGradient id="v" x1="-590.94" x2="-585.98" y1="76.555" y2="122.36" gradientTransform="matrix(2.5064 0 0 1.4965 319.3 -102.63)" gradientUnits="userSpaceOnUse" xlink:href="#i"/>
  <linearGradient id="aa" x1="-878" x2="-857.25" y1="264.52" y2="481.36" gradientTransform="matrix(2.3394 0 0 1.1064 1777.2 -807.77)" gradientUnits="userSpaceOnUse" xlink:href="#j"/>
  <linearGradient id="t" x1="62" x2="69.008" y1="330.36" y2="439.21" gradientTransform="matrix(.99737 -.07248 .07248 .99737 755.62 608.71)" gradientUnits="userSpaceOnUse" xlink:href="#g"/>
  <linearGradient id="s" x1="74" x2="90.008" y1="362.36" y2="439.21" gradientTransform="matrix(.88792 -.06452 .07248 .99737 749.08 603.17)" gradientUnits="userSpaceOnUse" xlink:href="#a"/>
  <linearGradient id="d" x1="629" x2="644.77" y1="1312.4" y2="1221.1" gradientUnits="userSpaceOnUse" xlink:href="#f"/>
  <linearGradient id="c" x1="647.6" x2="682.03" y1="1236.9" y2="1170.9" gradientUnits="userSpaceOnUse" xlink:href="#f"/>
  <linearGradient id="b" x2="0" y1="1130.2" y2="1229.2" gradientUnits="userSpaceOnUse" xlink:href="#f"/>
  <linearGradient id="m" x1="62" x2="69.008" y1="330.36" y2="439.21" gradientTransform="matrix(-.57969 -.04212 -.04212 .57969 720.38 971.12)" gradientUnits="userSpaceOnUse" xlink:href="#g"/>
 </defs>
 <g transform="translate(-660.38 -844.96)">
  <path d="m662.38 844.96h1160.2v532.35h-1160.2z" fill="url(#af)"/>
  <path d="m799.87 1126.1v17.248h-9.4862v208.7h94v-208.7h-11.211v-17.248h-73.303z" fill="url(#l)"/>
  <path d="m1172.8 988.51c-17.129 2.3678-30.182 17.95-32.683 34.569-5.8263 5.4557-12.195 10.409-19.628 4.5968-11.558-2.1996-24.074 4.4229-28.891 15.13-14.058-4.5835-30.579 10.941-24.169 25.163 4.2701 10.648 18.746 14.88 28.422 9.0914 9.221 12.304 29.829 13.619 40.074 1.9191 9.4282 4.4571 21.551 9.9534 30.915 2.3391 8.8478-5.6701 20.067-0.7777 28.845-6.2085 7.348-6.3236 15.021-9.0223 24.23-5.9928 10.458-0.2234 20.604-6.9722 24.46-16.763 8.8094 9.6095 26.523 6.2948 31.65-5.5805 6.5351 1.795 13.279 9.0739 21.287 4.4072 14.993-6.2051 15.947-29.864 2.0471-37.809-8.1486-5.5908-20.543-2.7578-24.715 6.4671-4.6674 3.096-8.3527-7.4349-15.056-5.2196-8.6948-1.6267-0.9476-14.122-8.373-18.919-5.8566-8.4833-18.761-10.803-26.604-3.7108-6.1314 4.532-4.9232 24.504-14.912 13.273-6.0861-8.8181-15.058-15.211-25.8-16.681-3.6656-0.5993-7.4265-0.641-11.099-0.073z" fill="url(#p)"/>
  <path d="m1179.8 1017.4c-11.378 1.5728-20.048 11.923-21.71 22.963-3.8701 3.624-8.1002 6.9141-13.038 3.0535-7.6775-1.4611-15.991 2.9379-19.191 10.05-9.338-3.0446-20.312 7.2675-16.055 16.714 2.8364 7.0728 12.452 9.884 18.879 6.039 6.1251 8.1732 19.814 9.0463 26.62 1.2748 6.2627 2.9606 14.315 6.6116 20.536 1.5537 5.8772-3.7663 13.329-0.5165 19.16-4.124 4.8809-4.2004 9.9779-5.9931 16.095-3.9807 6.9468-0.1484 13.686-4.6313 16.247-11.135 5.8517 6.3831 17.618 4.1813 21.023-3.7069 4.341 1.1923 8.8204 6.0274 14.14 2.9275 9.9591-4.1217 10.593-19.837 1.3597-25.114-5.4126-3.7138-13.646-1.8319-16.417 4.2957-3.1003 2.0566-5.5483-4.9387-10.001-3.4671-5.7755-1.0806-0.6295-9.3805-5.5618-12.567-3.8903-5.635-12.462-7.1758-17.672-2.4649-4.0728 3.0104-3.2702 16.277-9.9057 8.8167-4.0427-5.8575-10.002-10.104-17.138-11.08-2.435-0.3982-4.9331-0.4259-7.3726-0.049z" fill="url(#o)"/>
  <path d="m1474.4 941.09c-19.887-0.2413-37.402 15.245-43.094 33.719-7.5611 5.207-15.652 9.7494-23.111 1.8659-12.769-4.4818-28.138 0.9064-35.451 12.259-15.204-7.6212-36.653 7.2053-31.8 24.479 3.0326 12.842 18.772 20.135 30.768 15.209 8.3797 15.574 31.593 20.599 45.25 9.0475 9.9597 6.6844 22.806 15.012 34.761 7.9563 11.034-4.9332 22.956 2.553 33.87-2.12 9.4405-5.9334 18.63-7.6883 28.585-2.6651 11.933 1.5373 24.628-4.4003 30.691-14.875 8.3733 12.438 29.088 11.703 36.953-0.9253 7.1253 3.161 13.548 12.595 23.456 8.6591 18.115-4.489 23.253-31.233 8.8049-42.651-8.31-7.7546-22.892-6.6557-29.217 3.1215-5.8389 2.7218-8.2264-9.8869-16.23-8.5156-9.6103-3.3396 1.3413-16.224-6.2821-22.951-5.2079-10.652-19.487-15.5-29.622-8.7778-7.7498 4.1041-9.797 27.027-19.234 12.542-5.4114-11.072-14.52-19.88-26.486-23.392-4.0665-1.3096-8.3368-2.0013-12.611-1.9844z" fill="url(#r)"/>
  <path d="m1477.3 975.09c-13.21-0.1602-24.844 10.126-28.625 22.398-5.0225 3.4588-10.397 6.4761-15.352 1.2394-8.4818-2.977-18.691 0.6021-23.549 8.1432-10.099-5.0624-24.347 4.7862-21.123 16.26 2.0144 8.5301 12.47 13.375 20.438 10.103 5.5663 10.345 20.986 13.683 30.057 6.0099 6.6157 4.4401 15.149 9.9719 23.09 5.2849 7.3297-3.2769 15.249 1.6959 22.498-1.4082 6.2709-3.9413 12.375-5.107 18.988-1.7703 7.9263 1.0212 16.359-2.9229 20.386-9.8807 5.562 8.2623 19.322 7.7737 24.546-0.6146 4.733 2.0997 8.9994 8.3662 15.581 5.7518 12.033-2.9818 15.446-20.747 5.8488-28.331-5.52-5.151-15.206-4.4211-19.408 2.0735-3.8785 1.8079-5.4644-6.5675-10.781-5.6566-6.3837-2.2183 0.891-10.777-4.1729-15.245-3.4594-7.0755-12.944-10.296-19.677-5.8307-5.1479 2.7262-6.5077 17.953-12.776 8.3308-3.5945-7.3545-9.6451-13.205-17.594-15.538-2.7011-0.8699-5.5377-1.3293-8.3768-1.3182z" fill="url(#q)"/>
  <path d="m1272.4 941.09v40h-20v292h-24v-172h-96v92h-14v-214h-88v150h-26v64h-2v80h-44v-158h-2v72l2 162v-2h806v-4h2v-234h-52v-154h-34v154h-16v160h-16v-162h-58v-71.062l-100-32.938v60h-84v136h-46v-218h-16v-40h-72z" fill="url(#u)"/>
  <g transform="matrix(.46792 0 0 .46792 1329.4 1496.9)">
   <path d="m-17.415-743.87h310.89v414.24h-310.89v-414.24z" fill="#349ba4"/>
   <g transform="matrix(2.3394 0 0 1 2146.1 -842.31)">
    <path d="m-923.33 115.13v29h7.2534v-29h-7.2534zm9.4441 0v29h7.2534v-29h-7.2534zm9.4308 0v29h7.2668v-29h-7.2668zm9.4441 0v29h7.2534v-29h-7.2534zm9.4441 0v29h7.2534v-29h-7.2534zm9.4308 0v29h7.2668v-29h-7.2668zm9.4441 0v29h7.2534v-29h-7.2534zm9.4441 0v29h7.2534v-29h-7.2534zm9.4308 0v29h7.2668v-29h-7.2668zm9.4441 0v29h7.2534v-29h-7.2534zm9.4441 0v29h7.2534v-29h-7.2534zm9.4308 0v29h7.2668v-29h-7.2668zm9.4441 0v29h7.2534v-29h-7.2534zm9.4441 0v29h7.2534v-29h-7.2534z" fill="#72cccf"/>
   </g>
   <path d="m-14-727.19v29h16.969v-29h-16.969zm22.094 0v29h16.969v-29h-16.969zm22.062 0v29h17v-29h-17zm22.094 0v29h16.969v-29h-16.969zm22.094 0v29h16.969v-29h-16.969zm22.062 0v29h17v-29h-17zm22.094 0v29h16.969v-29h-16.969zm22.094 0v29h16.969v-29h-16.969zm22.062 0v29h17v-29h-17zm22.094 0v29h16.969v-29h-16.969zm22.094 0v29h16.969v-29h-16.969zm22.062 0v29h17v-29h-17zm22.094 0v29h16.969v-29h-16.969zm22.094 0v29h16.969v-29h-16.969zm-287.09 36.25v29h16.969v-29h-16.969zm22.094 0v29h16.969v-29h-16.969zm22.062 0v29h17v-29h-17zm22.094 0v29h16.969v-29h-16.969zm22.094 0v29h16.969v-29h-16.969zm22.062 0v29h17v-29h-17zm22.094 0v29h16.969v-29h-16.969zm22.094 0v29h16.969v-29h-16.969zm22.062 0v29h17v-29h-17zm22.094 0v29h16.969v-29h-16.969zm22.094 0v29h16.969v-29h-16.969zm22.062 0v29h17v-29h-17zm22.094 0v29h16.969v-29h-16.969zm22.094 0v29h16.969v-29h-16.969zm-287.09 36.25v29h16.969v-29h-16.969zm22.094 0v29h16.969v-29h-16.969zm22.062 0v29h17v-29h-17zm22.094 0v29h16.969v-29h-16.969zm22.094 0v29h16.969v-29h-16.969zm22.062 0v29h17v-29h-17zm22.094 0v29h16.969v-29h-16.969zm22.094 0v29h16.969v-29h-16.969zm22.062 0v29h17v-29h-17zm22.094 0v29h16.969v-29h-16.969zm22.094 0v29h16.969v-29h-16.969zm22.062 0v29h17v-29h-17zm22.094 0v29h16.969v-29h-16.969zm22.094 0v29h16.969v-29h-16.969zm-287.09 36.25v29h16.969v-29h-16.969zm22.094 0v29h16.969v-29h-16.969zm22.062 0v29h17v-29h-17zm22.094 0v29h16.969v-29h-16.969zm22.094 0v29h16.969v-29h-16.969zm22.062 0v29h17v-29h-17zm22.094 0v29h16.969v-29h-16.969zm22.094 0v29h16.969v-29h-16.969zm22.062 0v29h17v-29h-17zm22.094 0v29h16.969v-29h-16.969zm22.094 0v29h16.969v-29h-16.969zm22.062 0v29h17v-29h-17zm22.094 0v29h16.969v-29h-16.969zm22.094 0v29h16.969v-29h-16.969zm-287.09 36.25v29h16.969v-29h-16.969zm22.094 0v29h16.969v-29h-16.969zm22.062 0v29h17v-29h-17zm22.094 0v29h16.969v-29h-16.969zm22.094 0v29h16.969v-29h-16.969zm22.062 0v29h17v-29h-17zm22.094 0v29h16.969v-29h-16.969zm22.094 0v29h16.969v-29h-16.969zm22.062 0v29h17v-29h-17zm22.094 0v29h16.969v-29h-16.969zm22.094 0v29h16.969v-29h-16.969zm22.062 0v29h17v-29h-17zm22.094 0v29h16.969v-29h-16.969zm22.094 0v29h16.969v-29h-16.969zm-287.09 36.25v29h16.969v-29h-16.969zm22.094 0v29h16.969v-29h-16.969zm22.062 0v29h17v-29h-17zm22.094 0v29h16.969v-29h-16.969zm22.094 0v29h16.969v-29h-16.969zm22.062 0v29h17v-29h-17zm22.094 0v29h16.969v-29h-16.969zm22.094 0v29h16.969v-29h-16.969zm22.062 0v29h17v-29h-17zm22.094 0v29h16.969v-29h-16.969zm22.094 0v29h16.969v-29h-16.969zm22.062 0v29h17v-29h-17zm22.094 0v29h16.969v-29h-16.969zm22.094 0v29h16.969v-29h-16.969zm-287.09 36.25v29h16.969v-29h-16.969zm22.094 0v29h16.969v-29h-16.969zm22.062 0v29h17v-29h-17zm22.094 0v29h16.969v-29h-16.969zm22.094 0v29h16.969v-29h-16.969zm22.062 0v29h17v-29h-17zm22.094 0v29h16.969v-29h-16.969zm22.094 0v29h16.969v-29h-16.969zm22.062 0v29h17v-29h-17zm22.094 0v29h16.969v-29h-16.969zm22.094 0v29h16.969v-29h-16.969zm22.062 0v29h17v-29h-17zm22.094 0v29h16.969v-29h-16.969zm22.094 0v29h16.969v-29h-16.969zm-287.09 36.25v29h16.969v-29h-16.969zm22.094 0v29h16.969v-29h-16.969zm22.062 0v29h17v-29h-17zm22.094 0v29h16.969v-29h-16.969zm22.094 0v29h16.969v-29h-16.969zm22.062 0v29h17v-29h-17zm22.094 0v29h16.969v-29h-16.969zm22.094 0v29h16.969v-29h-16.969zm22.062 0v29h17v-29h-17zm22.094 0v29h16.969v-29h-16.969zm22.094 0v29h16.969v-29h-16.969zm22.062 0v29h17v-29h-17zm22.094 0v29h16.969v-29h-16.969zm22.094 0v29h16.969v-29h-16.969zm-287.09 36.25v29h16.969v-29h-16.969zm22.094 0v29h16.969v-29h-16.969zm22.062 0v29h17v-29h-17zm22.094 0v29h16.969v-29h-16.969zm22.094 0v29h16.969v-29h-16.969zm22.062 0v29h17v-29h-17zm22.094 0v29h16.969v-29h-16.969zm22.094 0v29h16.969v-29h-16.969zm22.062 0v29h17v-29h-17zm22.094 0v29h16.969v-29h-16.969zm22.094 0v29h16.969v-29h-16.969zm22.062 0v29h17v-29h-17zm22.094 0v29h16.969v-29h-16.969zm22.094 0v29h16.969v-29h-16.969zm-287.09 36.25v71.438h16.969v-71.438h-16.969zm22.094 0v71.438h16.969v-71.438h-16.969zm22.062 0v71.438h17v-71.438h-17zm22.094 0v71.438h16.969v-71.438h-16.969zm22.094 0v71.438h16.969v-71.438h-16.969zm22.062 0v71.438h17v-71.438h-17zm22.094 0v71.438h16.969v-71.438h-16.969zm22.094 0v71.438h16.969v-71.438h-16.969zm22.062 0v71.438h17v-71.438h-17zm22.094 0v71.438h16.969v-71.438h-16.969zm22.094 0v71.438h16.969v-71.438h-16.969zm22.062 0v71.438h17v-71.438h-17zm22.094 0v71.438h16.969v-71.438h-16.969zm22.094 0v71.438h16.969v-71.438h-16.969z" fill="url(#ae)"/>
  </g>
  <path d="m660.38 1356.3 313-24 345.97 4.6724 0.025 5.2108 190.05-2.3613 234.95 4.3671 16.054-6.8449 68.122 6.9559v41.137h-1164.2l-4-29.137z" fill="url(#n)"/>
  <g transform="matrix(.83336 0 0 .35622 2064.2 1262.8)">
   <path d="m-1162.3-364.64h160.72v316h-160.72z" fill="url(#ad)"/>
   <g transform="matrix(-1 0 0 1 -2166.5 0)">
    <path d="m-1193.1-249.64h64.973v472h-64.973z" fill="url(#h)"/>
    <path d="m-1183.7-233.64h8.5491v40h-8.5491v-40z" fill="#6b6f57"/>
    <path d="m-1183.7-183.64h8.5491v40h-8.5491v-40z" fill="#6b6f57"/>
    <path d="m-1183.7-133.64h8.5491v40h-8.5491v-40z" fill="#6b6f57"/>
    <path d="m-1183.7-83.638h8.5491v40h-8.5491v-40z" fill="#6b6f57"/>
    <path d="m-1183.7-33.638h8.5491v40h-8.5491v-40z" fill="#6b6f57"/>
    <path d="m-1183.7 16.362h8.5491v40h-8.5491v-40z" fill="#6b6f57"/>
    <path d="m-1183.7 66.362h8.5491v40h-8.5491v-40z" fill="#6b6f57"/>
    <g transform="translate(89.691 131)" fill="#6b6f57">
     <path d="m-1247.4-482.64h8.5491v40h-8.5491v-40z"/>
     <path d="m-1247.4-432.64h8.5491v40h-8.5491v-40z"/>
     <path d="m-1234.4-482.64h8.5491v40h-8.5491v-40z"/>
     <path d="m-1234.4-432.64h8.5491v40h-8.5491v-40z"/>
    </g>
    <path d="m-1170.7-233.64h8.5491v40h-8.5491v-40z" fill="#6b6f57"/>
    <path d="m-1170.7-183.64h8.5491v40h-8.5491v-40z" fill="#6b6f57"/>
    <path d="m-1170.7-133.64h8.5491v40h-8.5491v-40z" fill="#6b6f57"/>
    <path d="m-1170.7-83.638h8.5491v40h-8.5491v-40z" fill="#6b6f57"/>
    <path d="m-1170.7-33.638h8.5491v40h-8.5491v-40z" fill="#6b6f57"/>
    <path d="m-1170.7 16.362h8.5491v40h-8.5491v-40z" fill="#6b6f57"/>
    <path d="m-1170.7 66.362h8.5491v40h-8.5491v-40z" fill="#6b6f57"/>
    <path d="m-1157.7-233.64h8.5491v40h-8.5491v-40z" fill="#6b6f57"/>
    <path d="m-1157.7-183.64h8.5491v40h-8.5491v-40z" fill="#6b6f57"/>
    <path d="m-1157.7-133.64h8.5491v40h-8.5491v-40z" fill="#6b6f57"/>
    <path d="m-1157.7-83.638h8.5491v40h-8.5491v-40z" fill="#6b6f57"/>
    <path d="m-1157.7-33.638h8.5491v40h-8.5491v-40z" fill="#6b6f57"/>
    <path d="m-1157.7 16.362h8.5491v40h-8.5491v-40z" fill="#6b6f57"/>
    <path d="m-1157.7 66.362h8.5491v40h-8.5491v-40z" fill="#6b6f57"/>
    <path d="m-1144.7-233.64h8.5491v40h-8.5491v-40z" fill="#6b6f57"/>
    <path d="m-1144.7-183.64h8.5491v40h-8.5491v-40z" fill="#6b6f57"/>
    <path d="m-1144.7-133.64h8.5491v40h-8.5491v-40z" fill="#6b6f57"/>
    <path d="m-1144.7-83.638h8.5491v40h-8.5491v-40z" fill="#6b6f57"/>
    <path d="m-1144.7-33.638h8.5491v40h-8.5491v-40z" fill="#6b6f57"/>
    <path d="m-1144.7 16.362h8.5491v40h-8.5491v-40z" fill="#6b6f57"/>
    <path d="m-1144.7 66.362h8.5491v40h-8.5491v-40z" fill="#6b6f57"/>
   </g>
   <g transform="translate(-104.3 16)">
    <path d="m-994.78-999.64h33.342v298h-33.342z" fill="url(#ac)"/>
    <path d="m-989.48-939.64h8.5491v40h-8.5491v-40z" fill="#6b6f57"/>
    <path d="m-989.48-889.64h8.5491v40h-8.5491v-40z" fill="#6b6f57"/>
    <path d="m-989.48-839.64h8.5491v40h-8.5491v-40z" fill="#6b6f57"/>
    <path d="m-989.48-789.64h8.5491v40h-8.5491v-40z" fill="#6b6f57"/>
    <path d="m-976.48-939.64h8.5491v40h-8.5491v-40z" fill="#6b6f57"/>
    <path d="m-976.48-889.64h8.5491v40h-8.5491v-40z" fill="#6b6f57"/>
    <path d="m-976.48-839.64h8.5491v40h-8.5491v-40z" fill="#6b6f57"/>
    <path d="m-976.48-789.64h8.5491v40h-8.5491v-40z" fill="#6b6f57"/>
   </g>
   <g transform="translate(143.63 -322)">
    <path d="m-1259.8-421.64h64.973v636h-64.973z" fill="url(#ab)"/>
    <path d="m-1250.4-391.64h8.5491v40h-8.5491v-40z" fill="#6b6f57"/>
    <path d="m-1250.4-341.64h8.5491v40h-8.5491v-40z" fill="#6b6f57"/>
    <path d="m-1250.4-291.64h8.5491v40h-8.5491v-40z" fill="#6b6f57"/>
    <path d="m-1250.4-241.64h8.5491v40h-8.5491v-40z" fill="#6b6f57"/>
    <path d="m-1250.4-191.64h8.5491v40h-8.5491v-40z" fill="#6b6f57"/>
    <path d="m-1250.4-141.64h8.5491v40h-8.5491v-40z" fill="#6b6f57"/>
    <path d="m-1250.4-91.638h8.5491v40h-8.5491v-40z" fill="#6b6f57"/>
    <path d="m-1250.4-41.638h8.5491v40h-8.5491v-40z" fill="#6b6f57"/>
    <path d="m-1250.4 8.3622h8.5491v40h-8.5491v-40z" fill="#6b6f57"/>
    <path d="m-1250.4 58.362h8.5491v40h-8.5491v-40z" fill="#6b6f57"/>
    <path d="m-1237.4-391.64h8.5491v40h-8.5491v-40z" fill="#6b6f57"/>
    <path d="m-1237.4-341.64h8.5491v40h-8.5491v-40z" fill="#6b6f57"/>
    <path d="m-1237.4-291.64h8.5491v40h-8.5491v-40z" fill="#6b6f57"/>
    <path d="m-1237.4-241.64h8.5491v40h-8.5491v-40z" fill="#6b6f57"/>
    <path d="m-1237.4-191.64h8.5491v40h-8.5491v-40z" fill="#6b6f57"/>
    <path d="m-1237.4-141.64h8.5491v40h-8.5491v-40z" fill="#6b6f57"/>
    <path d="m-1237.4-91.638h8.5491v40h-8.5491v-40z" fill="#6b6f57"/>
    <path d="m-1237.4-41.638h8.5491v40h-8.5491v-40z" fill="#6b6f57"/>
    <path d="m-1237.4 8.3622h8.5491v40h-8.5491v-40z" fill="#6b6f57"/>
    <path d="m-1237.4 58.362h8.5491v40h-8.5491v-40z" fill="#6b6f57"/>
    <path d="m-1224.4-391.64h8.5491v40h-8.5491v-40z" fill="#6b6f57"/>
    <path d="m-1224.4-341.64h8.5491v40h-8.5491v-40z" fill="#6b6f57"/>
    <path d="m-1224.4-291.64h8.5491v40h-8.5491v-40z" fill="#6b6f57"/>
    <path d="m-1224.4-241.64h8.5491v40h-8.5491v-40z" fill="#6b6f57"/>
    <path d="m-1224.4-191.64h8.5491v40h-8.5491v-40z" fill="#6b6f57"/>
    <path d="m-1224.4-141.64h8.5491v40h-8.5491v-40z" fill="#6b6f57"/>
    <path d="m-1224.4-91.638h8.5491v40h-8.5491v-40z" fill="#6b6f57"/>
    <path d="m-1224.4-41.638h8.5491v40h-8.5491v-40z" fill="#6b6f57"/>
    <path d="m-1224.4 8.3622h8.5491v40h-8.5491v-40z" fill="#6b6f57"/>
    <path d="m-1224.4 58.362h8.5491v40h-8.5491v-40z" fill="#6b6f57"/>
    <path d="m-1211.4-391.64h8.5491v40h-8.5491v-40z" fill="#6b6f57"/>
    <path d="m-1211.4-341.64h8.5491v40h-8.5491v-40z" fill="#6b6f57"/>
    <path d="m-1211.4-291.64h8.5491v40h-8.5491v-40z" fill="#6b6f57"/>
    <path d="m-1211.4-241.64h8.5491v40h-8.5491v-40z" fill="#6b6f57"/>
    <path d="m-1211.4-191.64h8.5491v40h-8.5491v-40z" fill="#6b6f57"/>
    <path d="m-1211.4-141.64h8.5491v40h-8.5491v-40z" fill="#6b6f57"/>
    <path d="m-1211.4-91.638h8.5491v40h-8.5491v-40z" fill="#6b6f57"/>
    <path d="m-1211.4-41.638h8.5491v40h-8.5491v-40z" fill="#6b6f57"/>
    <path d="m-1211.4 8.3622h8.5491v40h-8.5491v-40z" fill="#6b6f57"/>
    <path d="m-1211.4 58.362h8.5491v40h-8.5491v-40z" fill="#6b6f57"/>
   </g>
   <path d="m-1128.2-525.64h90.621v750h-90.621z" fill="#bbc0b1"/>
   <path d="m-1118.7-481.64h8.5491v40h-8.5491v-40z" fill="#6b6f57"/>
   <path d="m-1118.7-481.64h8.5491v40h-8.5491v-40z" fill="#6b6f57"/>
   <path d="m-1118.7-431.64h8.5491v40h-8.5491v-40z" fill="#6b6f57"/>
   <path d="m-1118.7-381.64h8.5491v40h-8.5491v-40z" fill="#6b6f57"/>
   <path d="m-1118.7-331.64h8.5491v40h-8.5491v-40z" fill="#6b6f57"/>
   <path d="m-1118.7-281.64h8.5491v40h-8.5491v-40z" fill="#6b6f57"/>
   <path d="m-1118.7-231.64h8.5491v40h-8.5491v-40z" fill="#6b6f57"/>
   <path d="m-1118.7-181.64h8.5491v40h-8.5491v-40z" fill="#6b6f57"/>
   <path d="m-1118.7-131.64h8.5491v40h-8.5491v-40z" fill="#6b6f57"/>
   <path d="m-1118.7-81.638h8.5491v40h-8.5491v-40z" fill="#6b6f57"/>
   <path d="m-1118.7-31.638h8.5491v40h-8.5491v-40z" fill="#6b6f57"/>
   <path d="m-1118.7 18.362h8.5491v40h-8.5491v-40z" fill="#6b6f57"/>
   <path d="m-1118.7 68.362h8.5491v40h-8.5491v-40z" fill="#6b6f57"/>
   <path d="m-1105.7-481.64h8.5491v40h-8.5491v-40z" fill="#6b6f57"/>
   <path d="m-1105.7-431.64h8.5491v40h-8.5491v-40z" fill="#6b6f57"/>
   <path d="m-1105.7-381.64h8.5491v40h-8.5491v-40z" fill="#6b6f57"/>
   <path d="m-1105.7-331.64h8.5491v40h-8.5491v-40z" fill="#6b6f57"/>
   <path d="m-1105.7-281.64h8.5491v40h-8.5491v-40z" fill="#6b6f57"/>
   <path d="m-1105.7-231.64h8.5491v40h-8.5491v-40z" fill="#6b6f57"/>
   <path d="m-1105.7-181.64h8.5491v40h-8.5491v-40z" fill="#6b6f57"/>
   <path d="m-1105.7-131.64h8.5491v40h-8.5491v-40z" fill="#6b6f57"/>
   <path d="m-1105.7-81.638h8.5491v40h-8.5491v-40z" fill="#6b6f57"/>
   <path d="m-1105.7-31.638h8.5491v40h-8.5491v-40z" fill="#6b6f57"/>
   <path d="m-1105.7 18.362h8.5491v40h-8.5491v-40z" fill="#6b6f57"/>
   <path d="m-1105.7 68.362h8.5491v40h-8.5491v-40z" fill="#6b6f57"/>
   <path d="m-1092.7-481.64h8.5491v40h-8.5491v-40z" fill="#6b6f57"/>
   <path d="m-1092.7-431.64h8.5491v40h-8.5491v-40z" fill="#6b6f57"/>
   <path d="m-1092.7-381.64h8.5491v40h-8.5491v-40z" fill="#6b6f57"/>
   <path d="m-1092.7-331.64h8.5491v40h-8.5491v-40z" fill="#6b6f57"/>
   <path d="m-1092.7-281.64h8.5491v40h-8.5491v-40z" fill="#6b6f57"/>
   <path d="m-1092.7-231.64h8.5491v40h-8.5491v-40z" fill="#6b6f57"/>
   <path d="m-1092.7-181.64h8.5491v40h-8.5491v-40z" fill="#6b6f57"/>
   <path d="m-1092.7-131.64h8.5491v40h-8.5491v-40z" fill="#6b6f57"/>
   <path d="m-1092.7-81.638h8.5491v40h-8.5491v-40z" fill="#6b6f57"/>
   <path d="m-1092.7-31.638h8.5491v40h-8.5491v-40z" fill="#6b6f57"/>
   <path d="m-1092.7 18.362h8.5491v40h-8.5491v-40z" fill="#6b6f57"/>
   <path d="m-1092.7 68.362h8.5491v40h-8.5491v-40z" fill="#6b6f57"/>
   <path d="m-1079.7-481.64h8.5491v40h-8.5491v-40z" fill="#6b6f57"/>
   <path d="m-1079.7-431.64h8.5491v40h-8.5491v-40z" fill="#6b6f57"/>
   <path d="m-1079.7-381.64h8.5491v40h-8.5491v-40z" fill="#6b6f57"/>
   <path d="m-1079.7-331.64h8.5491v40h-8.5491v-40z" fill="#6b6f57"/>
   <path d="m-1079.7-281.64h8.5491v40h-8.5491v-40z" fill="#6b6f57"/>
   <path d="m-1079.7-231.64h8.5491v40h-8.5491v-40z" fill="#6b6f57"/>
   <path d="m-1079.7-181.64h8.5491v40h-8.5491v-40z" fill="#6b6f57"/>
   <path d="m-1079.7-131.64h8.5491v40h-8.5491v-40z" fill="#6b6f57"/>
   <path d="m-1079.7-81.638h8.5491v40h-8.5491v-40z" fill="#6b6f57"/>
   <path d="m-1079.7-31.638h8.5491v40h-8.5491v-40z" fill="#6b6f57"/>
   <path d="m-1079.7 18.362h8.5491v40h-8.5491v-40z" fill="#6b6f57"/>
   <path d="m-1079.7 68.362h8.5491v40h-8.5491v-40z" fill="#6b6f57"/>
   <path d="m-1066.7-481.64h8.5491v40h-8.5491v-40z" fill="#6b6f57"/>
   <path d="m-1066.7-431.64h8.5491v40h-8.5491v-40z" fill="#6b6f57"/>
   <path d="m-1066.7-381.64h8.5491v40h-8.5491v-40z" fill="#6b6f57"/>
   <path d="m-1066.7-331.64h8.5491v40h-8.5491v-40z" fill="#6b6f57"/>
   <path d="m-1066.7-281.64h8.5491v40h-8.5491v-40z" fill="#6b6f57"/>
   <path d="m-1066.7-231.64h8.5491v40h-8.5491v-40z" fill="#6b6f57"/>
   <path d="m-1066.7-181.64h8.5491v40h-8.5491v-40z" fill="#6b6f57"/>
   <path d="m-1066.7-131.64h8.5491v40h-8.5491v-40z" fill="#6b6f57"/>
   <path d="m-1066.7-81.638h8.5491v40h-8.5491v-40z" fill="#6b6f57"/>
   <path d="m-1066.7-31.638h8.5491v40h-8.5491v-40z" fill="#6b6f57"/>
   <path d="m-1066.7 18.362h8.5491v40h-8.5491v-40z" fill="#6b6f57"/>
   <path d="m-1066.7 68.362h8.5491v40h-8.5491v-40z" fill="#6b6f57"/>
   <path d="m-1053.7-481.64h8.5491v40h-8.5491v-40z" fill="#6b6f57"/>
   <path d="m-1053.7-431.64h8.5491v40h-8.5491v-40z" fill="#6b6f57"/>
   <path d="m-1053.7-381.64h8.5491v40h-8.5491v-40z" fill="#6b6f57"/>
   <path d="m-1053.7-331.64h8.5491v40h-8.5491v-40z" fill="#6b6f57"/>
   <path d="m-1053.7-281.64h8.5491v40h-8.5491v-40z" fill="#6b6f57"/>
   <path d="m-1053.7-231.64h8.5491v40h-8.5491v-40z" fill="#6b6f57"/>
   <path d="m-1053.7-181.64h8.5491v40h-8.5491v-40z" fill="#6b6f57"/>
   <path d="m-1053.7-131.64h8.5491v40h-8.5491v-40z" fill="#6b6f57"/>
   <path d="m-1053.7-81.638h8.5491v40h-8.5491v-40z" fill="#6b6f57"/>
   <path d="m-1053.7-31.638h8.5491v40h-8.5491v-40z" fill="#6b6f57"/>
   <path d="m-1053.7 18.362h8.5491v40h-8.5491v-40z" fill="#6b6f57"/>
   <path d="m-1053.7 68.362h8.5491v40h-8.5491v-40z" fill="#6b6f57"/>
   <path d="m-1193.1-249.64h64.973v472h-64.973z" fill="url(#h)"/>
   <path d="m-1183.7-233.64h8.5491v40h-8.5491v-40z" fill="#6b6f57"/>
   <path d="m-1183.7-183.64h8.5491v40h-8.5491v-40z" fill="#6b6f57"/>
   <path d="m-1183.7-133.64h8.5491v40h-8.5491v-40z" fill="#6b6f57"/>
   <path d="m-1183.7-83.638h8.5491v40h-8.5491v-40z" fill="#6b6f57"/>
   <path d="m-1183.7-33.638h8.5491v40h-8.5491v-40z" fill="#6b6f57"/>
   <path d="m-1183.7 16.362h8.5491v40h-8.5491v-40z" fill="#6b6f57"/>
   <path d="m-1183.7 66.362h8.5491v40h-8.5491v-40z" fill="#6b6f57"/>
   <g transform="translate(89.691 131)" fill="#6b6f57">
    <path d="m-1247.4-482.64h8.5491v40h-8.5491v-40z"/>
    <path d="m-1247.4-432.64h8.5491v40h-8.5491v-40z"/>
    <path d="m-1234.4-482.64h8.5491v40h-8.5491v-40z"/>
    <path d="m-1234.4-432.64h8.5491v40h-8.5491v-40z"/>
   </g>
   <path d="m-1170.7-233.64h8.5491v40h-8.5491v-40z" fill="#6b6f57"/>
   <path d="m-1170.7-183.64h8.5491v40h-8.5491v-40z" fill="#6b6f57"/>
   <path d="m-1170.7-133.64h8.5491v40h-8.5491v-40z" fill="#6b6f57"/>
   <path d="m-1170.7-83.638h8.5491v40h-8.5491v-40z" fill="#6b6f57"/>
   <path d="m-1170.7-33.638h8.5491v40h-8.5491v-40z" fill="#6b6f57"/>
   <path d="m-1170.7 16.362h8.5491v40h-8.5491v-40z" fill="#6b6f57"/>
   <path d="m-1170.7 66.362h8.5491v40h-8.5491v-40z" fill="#6b6f57"/>
   <path d="m-1157.7-233.64h8.5491v40h-8.5491v-40z" fill="#6b6f57"/>
   <path d="m-1157.7-183.64h8.5491v40h-8.5491v-40z" fill="#6b6f57"/>
   <path d="m-1157.7-133.64h8.5491v40h-8.5491v-40z" fill="#6b6f57"/>
   <path d="m-1157.7-83.638h8.5491v40h-8.5491v-40z" fill="#6b6f57"/>
   <path d="m-1157.7-33.638h8.5491v40h-8.5491v-40z" fill="#6b6f57"/>
   <path d="m-1157.7 16.362h8.5491v40h-8.5491v-40z" fill="#6b6f57"/>
   <path d="m-1157.7 66.362h8.5491v40h-8.5491v-40z" fill="#6b6f57"/>
   <path d="m-1144.7-233.64h8.5491v40h-8.5491v-40z" fill="#6b6f57"/>
   <path d="m-1144.7-183.64h8.5491v40h-8.5491v-40z" fill="#6b6f57"/>
   <path d="m-1144.7-133.64h8.5491v40h-8.5491v-40z" fill="#6b6f57"/>
   <path d="m-1144.7-83.638h8.5491v40h-8.5491v-40z" fill="#6b6f57"/>
   <path d="m-1144.7-33.638h8.5491v40h-8.5491v-40z" fill="#6b6f57"/>
   <path d="m-1144.7 16.362h8.5491v40h-8.5491v-40z" fill="#6b6f57"/>
   <path d="m-1144.7 66.362h8.5491v40h-8.5491v-40z" fill="#6b6f57"/>
  </g>
  <g transform="matrix(1.0148 0 0 1.0148 2179.4 896.05)">
   <path d="m-622.76 66.92h65.66v30.305h-65.66z" fill="url(#z)"/>
   <path d="m-634.38 94.738h88.893v345.47h-88.893z" fill="#8a9da5"/>
   <g transform="translate(-3.2454)" fill="#555753">
    <path d="m-571.57 146.58h4v292.94h-4z"/>
    <path d="m-560.16 146.58h4v292.94h-4z"/>
    <path d="m-582.98 146.58h4v292.94h-4z"/>
    <path d="m-594.39 146.58h4v292.94h-4z"/>
    <path d="m-605.8 146.58h4v292.94h-4z"/>
    <path d="m-617.2 146.58h4v292.94h-4z"/>
   </g>
   <path d="m-596.58 44.735h2.8284v23.335h-2.8284z"/>
   <path d="m-584.07 4.4299h2.8284v62.932h-2.8284z"/>
  </g>
  <g transform="matrix(.82538 0 0 .82538 2396.3 981.07)">
   <path d="m-912.26 66.92h109.16v30.305h-109.16z" fill="url(#y)"/>
   <path d="m-923.7 91.788h132.89v345.47h-132.89z" fill="url(#x)"/>
   <path d="m-915.7 106.25h113.14v9.1924h-113.14z" fill="#555753"/>
   <path d="m-915.7 127.37h113.14v9.1924h-113.14z" fill="#555753"/>
   <path d="m-915.7 254.09h113.14v9.1924h-113.14z" fill="#555753"/>
   <path d="m-915.7 275.2h113.14v9.1924h-113.14z" fill="#555753"/>
   <path d="m-915.7 296.32h113.14v9.1924h-113.14z" fill="#555753"/>
   <path d="m-915.7 317.44h113.14v9.1924h-113.14z" fill="#555753"/>
   <path d="m-915.7 338.56h113.14v9.1924h-113.14z" fill="#555753"/>
   <path d="m-915.7 359.68h113.14v9.1924h-113.14z" fill="#555753"/>
   <path d="m-915.7 380.8h113.14v9.1924h-113.14z" fill="#555753"/>
   <path d="m-915.7 401.92h113.14v9.1924h-113.14z" fill="#555753"/>
   <path d="m-914.29 423.04h113.14v9.1924h-113.14z" fill="#555753"/>
   <path d="m-915.7 148.49h113.14v9.1924h-113.14z" fill="#555753"/>
   <path d="m-915.7 169.61h113.14v9.1924h-113.14z" fill="#555753"/>
   <path d="m-915.7 190.73h113.14v9.1924h-113.14z" fill="#555753"/>
   <path d="m-915.7 211.85h113.14v9.1924h-113.14z" fill="#555753"/>
   <path d="m-915.7 232.97h113.14v9.1924h-113.14z" fill="#555753"/>
  </g>
  <g transform="matrix(.64148 0 0 .64148 1733 1072)">
   <path d="m-1207.1-32.648h104.31v39.305h-104.31z" fill="url(#w)"/>
   <g transform="translate(-108,-110)">
    <path d="m-1117 150.46h20.577v38.11h-20.577z" fill="#eeeeec" stroke="#3465a4" stroke-width="1.5589"/>
    <path d="m-1103.7 152.71h5.0017v10.169l-5.0017-10.169z" fill="#fff"/>
    <path d="m-1097.7 182.34v5.0017h-17.593l17.593-5.0017z" fill="#d3d7cf"/>
   </g>
   <g transform="translate(-108,-110)">
    <path d="m-1117 150.46h20.577v38.11h-20.577z" fill="#eeeeec" stroke="#3465a4"/>
    <path d="m-1103.7 152.71h5.0017v10.169l-5.0017-10.169z" fill="#fff"/>
    <path d="m-1097.7 182.34v5.0017h-17.593l17.593-5.0017z" fill="#d3d7cf"/>
   </g>
   <g transform="translate(-108 -71.89)">
    <path d="m-1117 150.46h20.577v38.11h-20.577z" fill="#eeeeec" stroke="#3465a4"/>
    <path d="m-1103.7 152.71h5.0017v10.169l-5.0017-10.169z" fill="#fff"/>
    <path d="m-1097.7 182.34v5.0017h-17.593l17.593-5.0017z" fill="#d3d7cf"/>
   </g>
   <g transform="translate(-108 -33.78)">
    <path d="m-1117 150.46h20.577v38.11h-20.577z" fill="#eeeeec" stroke="#3465a4"/>
    <path d="m-1103.7 152.71h5.0017v10.169l-5.0017-10.169z" fill="#fff"/>
    <path d="m-1097.7 182.34v5.0017h-17.593l17.593-5.0017z" fill="#d3d7cf"/>
   </g>
   <g transform="translate(-108 4.3308)">
    <path d="m-1117 150.46h20.577v38.11h-20.577z" fill="#eeeeec" stroke="#3465a4"/>
    <path d="m-1103.7 152.71h5.0017v10.169l-5.0017-10.169z" fill="#fff"/>
    <path d="m-1097.7 182.34v5.0017h-17.593l17.593-5.0017z" fill="#d3d7cf"/>
   </g>
   <g transform="translate(-108 42.441)">
    <path d="m-1117 150.46h20.577v38.11h-20.577z" fill="#eeeeec" stroke="#3465a4"/>
    <path d="m-1103.7 152.71h5.0017v10.169l-5.0017-10.169z" fill="#fff"/>
    <path d="m-1097.7 182.34v5.0017h-17.593l17.593-5.0017z" fill="#d3d7cf"/>
   </g>
   <g transform="translate(-108 80.551)">
    <path d="m-1117 150.46h20.577v38.11h-20.577z" fill="#eeeeec" stroke="#3465a4"/>
    <path d="m-1103.7 152.71h5.0017v10.169l-5.0017-10.169z" fill="#fff"/>
    <path d="m-1097.7 182.34v5.0017h-17.593l17.593-5.0017z" fill="#d3d7cf"/>
   </g>
   <g transform="translate(-108 118.66)">
    <path d="m-1117 150.46h20.577v38.11h-20.577z" fill="#eeeeec" stroke="#3465a4"/>
    <path d="m-1103.7 152.71h5.0017v10.169l-5.0017-10.169z" fill="#fff"/>
    <path d="m-1097.7 182.34v5.0017h-17.593l17.593-5.0017z" fill="#d3d7cf"/>
   </g>
   <g transform="translate(-108 156.77)">
    <path d="m-1117 150.46h20.577v38.11h-20.577z" fill="#eeeeec" stroke="#3465a4"/>
    <path d="m-1103.7 152.71h5.0017v10.169l-5.0017-10.169z" fill="#fff"/>
    <path d="m-1097.7 182.34v5.0017h-17.593l17.593-5.0017z" fill="#d3d7cf"/>
   </g>
   <g transform="translate(-108 194.88)">
    <path d="m-1117 150.46h20.577v38.11h-20.577z" fill="#eeeeec" stroke="#3465a4"/>
    <path d="m-1103.7 152.71h5.0017v10.169l-5.0017-10.169z" fill="#fff"/>
    <path d="m-1097.7 182.34v5.0017h-17.593l17.593-5.0017z" fill="#d3d7cf"/>
   </g>
   <g transform="translate(-108 232.99)">
    <path d="m-1117 150.46h20.577v38.11h-20.577z" fill="#eeeeec" stroke="#3465a4"/>
    <path d="m-1103.7 152.71h5.0017v10.169l-5.0017-10.169z" fill="#fff"/>
    <path d="m-1097.7 182.34v5.0017h-17.593l17.593-5.0017z" fill="#d3d7cf"/>
   </g>
   <g transform="translate(-87.423 -110)">
    <path d="m-1117 150.46h20.577v38.11h-20.577z" fill="#eeeeec" stroke="#3465a4"/>
    <path d="m-1103.7 152.71h5.0017v10.169l-5.0017-10.169z" fill="#fff"/>
    <path d="m-1097.7 182.34v5.0017h-17.593l17.593-5.0017z" fill="#d3d7cf"/>
   </g>
   <g transform="translate(-87.423 -71.89)">
    <path d="m-1117 150.46h20.577v38.11h-20.577z" fill="#eeeeec" stroke="#3465a4"/>
    <path d="m-1103.7 152.71h5.0017v10.169l-5.0017-10.169z" fill="#fff"/>
    <path d="m-1097.7 182.34v5.0017h-17.593l17.593-5.0017z" fill="#d3d7cf"/>
   </g>
   <g transform="translate(-87.423 -33.78)">
    <path d="m-1117 150.46h20.577v38.11h-20.577z" fill="#eeeeec" stroke="#3465a4"/>
    <path d="m-1103.7 152.71h5.0017v10.169l-5.0017-10.169z" fill="#fff"/>
    <path d="m-1097.7 182.34v5.0017h-17.593l17.593-5.0017z" fill="#d3d7cf"/>
   </g>
   <g transform="translate(-87.423 4.3308)">
    <path d="m-1117 150.46h20.577v38.11h-20.577z" fill="#eeeeec" stroke="#3465a4"/>
    <path d="m-1103.7 152.71h5.0017v10.169l-5.0017-10.169z" fill="#fff"/>
    <path d="m-1097.7 182.34v5.0017h-17.593l17.593-5.0017z" fill="#d3d7cf"/>
   </g>
   <g transform="translate(-87.423 42.441)">
    <path d="m-1117 150.46h20.577v38.11h-20.577z" fill="#eeeeec" stroke="#3465a4"/>
    <path d="m-1103.7 152.71h5.0017v10.169l-5.0017-10.169z" fill="#fff"/>
    <path d="m-1097.7 182.34v5.0017h-17.593l17.593-5.0017z" fill="#d3d7cf"/>
   </g>
   <g transform="translate(-87.423 80.551)">
    <path d="m-1117 150.46h20.577v38.11h-20.577z" fill="#eeeeec" stroke="#3465a4"/>
    <path d="m-1103.7 152.71h5.0017v10.169l-5.0017-10.169z" fill="#fff"/>
    <path d="m-1097.7 182.34v5.0017h-17.593l17.593-5.0017z" fill="#d3d7cf"/>
   </g>
   <g transform="translate(-87.423 118.66)">
    <path d="m-1117 150.46h20.577v38.11h-20.577z" fill="#eeeeec" stroke="#3465a4"/>
    <path d="m-1103.7 152.71h5.0017v10.169l-5.0017-10.169z" fill="#fff"/>
    <path d="m-1097.7 182.34v5.0017h-17.593l17.593-5.0017z" fill="#d3d7cf"/>
   </g>
   <g transform="translate(-87.423 156.77)">
    <path d="m-1117 150.46h20.577v38.11h-20.577z" fill="#eeeeec" stroke="#3465a4"/>
    <path d="m-1103.7 152.71h5.0017v10.169l-5.0017-10.169z" fill="#fff"/>
    <path d="m-1097.7 182.34v5.0017h-17.593l17.593-5.0017z" fill="#d3d7cf"/>
   </g>
   <g transform="translate(-87.423 194.88)">
    <path d="m-1117 150.46h20.577v38.11h-20.577z" fill="#eeeeec" stroke="#3465a4"/>
    <path d="m-1103.7 152.71h5.0017v10.169l-5.0017-10.169z" fill="#fff"/>
    <path d="m-1097.7 182.34v5.0017h-17.593l17.593-5.0017z" fill="#d3d7cf"/>
   </g>
   <g transform="translate(-87.423 232.99)">
    <path d="m-1117 150.46h20.577v38.11h-20.577z" fill="#eeeeec" stroke="#3465a4"/>
    <path d="m-1103.7 152.71h5.0017v10.169l-5.0017-10.169z" fill="#fff"/>
    <path d="m-1097.7 182.34v5.0017h-17.593l17.593-5.0017z" fill="#d3d7cf"/>
   </g>
   <g transform="translate(-66.845 -110)">
    <path d="m-1117 150.46h20.577v38.11h-20.577z" fill="#eeeeec" stroke="#3465a4"/>
    <path d="m-1103.7 152.71h5.0017v10.169l-5.0017-10.169z" fill="#fff"/>
    <path d="m-1097.7 182.34v5.0017h-17.593l17.593-5.0017z" fill="#d3d7cf"/>
   </g>
   <g transform="translate(-66.845 -71.89)">
    <path d="m-1117 150.46h20.577v38.11h-20.577z" fill="#eeeeec" stroke="#3465a4"/>
    <path d="m-1103.7 152.71h5.0017v10.169l-5.0017-10.169z" fill="#fff"/>
    <path d="m-1097.7 182.34v5.0017h-17.593l17.593-5.0017z" fill="#d3d7cf"/>
   </g>
   <g transform="translate(-66.845 -33.78)">
    <path d="m-1117 150.46h20.577v38.11h-20.577z" fill="#eeeeec" stroke="#3465a4"/>
    <path d="m-1103.7 152.71h5.0017v10.169l-5.0017-10.169z" fill="#fff"/>
    <path d="m-1097.7 182.34v5.0017h-17.593l17.593-5.0017z" fill="#d3d7cf"/>
   </g>
   <g transform="translate(-66.845 4.3308)">
    <path d="m-1117 150.46h20.577v38.11h-20.577z" fill="#eeeeec" stroke="#3465a4"/>
    <path d="m-1103.7 152.71h5.0017v10.169l-5.0017-10.169z" fill="#fff"/>
    <path d="m-1097.7 182.34v5.0017h-17.593l17.593-5.0017z" fill="#d3d7cf"/>
   </g>
   <g transform="translate(-66.845 42.441)">
    <path d="m-1117 150.46h20.577v38.11h-20.577z" fill="#eeeeec" stroke="#3465a4"/>
    <path d="m-1103.7 152.71h5.0017v10.169l-5.0017-10.169z" fill="#fff"/>
    <path d="m-1097.7 182.34v5.0017h-17.593l17.593-5.0017z" fill="#d3d7cf"/>
   </g>
   <g transform="translate(-66.845 80.551)">
    <path d="m-1117 150.46h20.577v38.11h-20.577z" fill="#eeeeec" stroke="#3465a4"/>
    <path d="m-1103.7 152.71h5.0017v10.169l-5.0017-10.169z" fill="#fff"/>
    <path d="m-1097.7 182.34v5.0017h-17.593l17.593-5.0017z" fill="#d3d7cf"/>
   </g>
   <g transform="translate(-66.845 118.66)">
    <path d="m-1117 150.46h20.577v38.11h-20.577z" fill="#eeeeec" stroke="#3465a4"/>
    <path d="m-1103.7 152.71h5.0017v10.169l-5.0017-10.169z" fill="#fff"/>
    <path d="m-1097.7 182.34v5.0017h-17.593l17.593-5.0017z" fill="#d3d7cf"/>
   </g>
   <g transform="translate(-66.845 156.77)">
    <path d="m-1117 150.46h20.577v38.11h-20.577z" fill="#eeeeec" stroke="#3465a4"/>
    <path d="m-1103.7 152.71h5.0017v10.169l-5.0017-10.169z" fill="#fff"/>
    <path d="m-1097.7 182.34v5.0017h-17.593l17.593-5.0017z" fill="#d3d7cf"/>
   </g>
   <g transform="translate(-66.845 194.88)">
    <path d="m-1117 150.46h20.577v38.11h-20.577z" fill="#eeeeec" stroke="#3465a4"/>
    <path d="m-1103.7 152.71h5.0017v10.169l-5.0017-10.169z" fill="#fff"/>
    <path d="m-1097.7 182.34v5.0017h-17.593l17.593-5.0017z" fill="#d3d7cf"/>
   </g>
   <g transform="translate(-66.845 232.99)">
    <path d="m-1117 150.46h20.577v38.11h-20.577z" fill="#eeeeec" stroke="#3465a4"/>
    <path d="m-1103.7 152.71h5.0017v10.169l-5.0017-10.169z" fill="#fff"/>
    <path d="m-1097.7 182.34v5.0017h-17.593l17.593-5.0017z" fill="#d3d7cf"/>
   </g>
   <g transform="translate(-46.268 -110)">
    <path d="m-1117 150.46h20.577v38.11h-20.577z" fill="#eeeeec" stroke="#3465a4"/>
    <path d="m-1103.7 152.71h5.0017v10.169l-5.0017-10.169z" fill="#fff"/>
    <path d="m-1097.7 182.34v5.0017h-17.593l17.593-5.0017z" fill="#d3d7cf"/>
   </g>
   <g transform="translate(-46.268 -71.89)">
    <path d="m-1117 150.46h20.577v38.11h-20.577z" fill="#eeeeec" stroke="#3465a4"/>
    <path d="m-1103.7 152.71h5.0017v10.169l-5.0017-10.169z" fill="#fff"/>
    <path d="m-1097.7 182.34v5.0017h-17.593l17.593-5.0017z" fill="#d3d7cf"/>
   </g>
   <g transform="translate(-46.268 -33.78)">
    <path d="m-1117 150.46h20.577v38.11h-20.577z" fill="#eeeeec" stroke="#3465a4"/>
    <path d="m-1103.7 152.71h5.0017v10.169l-5.0017-10.169z" fill="#fff"/>
    <path d="m-1097.7 182.34v5.0017h-17.593l17.593-5.0017z" fill="#d3d7cf"/>
   </g>
   <g transform="translate(-46.268 4.3308)">
    <path d="m-1117 150.46h20.577v38.11h-20.577z" fill="#eeeeec" stroke="#3465a4"/>
    <path d="m-1103.7 152.71h5.0017v10.169l-5.0017-10.169z" fill="#fff"/>
    <path d="m-1097.7 182.34v5.0017h-17.593l17.593-5.0017z" fill="#d3d7cf"/>
   </g>
   <g transform="translate(-46.268 42.441)">
    <path d="m-1117 150.46h20.577v38.11h-20.577z" fill="#eeeeec" stroke="#3465a4"/>
    <path d="m-1103.7 152.71h5.0017v10.169l-5.0017-10.169z" fill="#fff"/>
    <path d="m-1097.7 182.34v5.0017h-17.593l17.593-5.0017z" fill="#d3d7cf"/>
   </g>
   <g transform="translate(-46.268 80.551)">
    <path d="m-1117 150.46h20.577v38.11h-20.577z" fill="#eeeeec" stroke="#3465a4"/>
    <path d="m-1103.7 152.71h5.0017v10.169l-5.0017-10.169z" fill="#fff"/>
    <path d="m-1097.7 182.34v5.0017h-17.593l17.593-5.0017z" fill="#d3d7cf"/>
   </g>
   <g transform="translate(-46.268 118.66)">
    <path d="m-1117 150.46h20.577v38.11h-20.577z" fill="#eeeeec" stroke="#3465a4"/>
    <path d="m-1103.7 152.71h5.0017v10.169l-5.0017-10.169z" fill="#fff"/>
    <path d="m-1097.7 182.34v5.0017h-17.593l17.593-5.0017z" fill="#d3d7cf"/>
   </g>
   <g transform="translate(-46.268 156.77)">
    <path d="m-1117 150.46h20.577v38.11h-20.577z" fill="#eeeeec" stroke="#3465a4"/>
    <path d="m-1103.7 152.71h5.0017v10.169l-5.0017-10.169z" fill="#fff"/>
    <path d="m-1097.7 182.34v5.0017h-17.593l17.593-5.0017z" fill="#d3d7cf"/>
   </g>
   <g transform="translate(-46.268 194.88)">
    <path d="m-1117 150.46h20.577v38.11h-20.577z" fill="#eeeeec" stroke="#3465a4"/>
    <path d="m-1103.7 152.71h5.0017v10.169l-5.0017-10.169z" fill="#fff"/>
    <path d="m-1097.7 182.34v5.0017h-17.593l17.593-5.0017z" fill="#d3d7cf"/>
   </g>
   <g transform="translate(-46.268 232.99)">
    <path d="m-1117 150.46h20.577v38.11h-20.577z" fill="#eeeeec" stroke="#3465a4"/>
    <path d="m-1103.7 152.71h5.0017v10.169l-5.0017-10.169z" fill="#fff"/>
    <path d="m-1097.7 182.34v5.0017h-17.593l17.593-5.0017z" fill="#d3d7cf"/>
   </g>
   <g transform="translate(-25.691 -110)">
    <path d="m-1117 150.46h20.577v38.11h-20.577z" fill="#eeeeec" stroke="#3465a4"/>
    <path d="m-1103.7 152.71h5.0017v10.169l-5.0017-10.169z" fill="#fff"/>
    <path d="m-1097.7 182.34v5.0017h-17.593l17.593-5.0017z" fill="#d3d7cf"/>
   </g>
   <g transform="translate(-25.691 -71.89)">
    <path d="m-1117 150.46h20.577v38.11h-20.577z" fill="#eeeeec" stroke="#3465a4"/>
    <path d="m-1103.7 152.71h5.0017v10.169l-5.0017-10.169z" fill="#fff"/>
    <path d="m-1097.7 182.34v5.0017h-17.593l17.593-5.0017z" fill="#d3d7cf"/>
   </g>
   <g transform="translate(-25.691 -33.78)">
    <path d="m-1117 150.46h20.577v38.11h-20.577z" fill="#eeeeec" stroke="#3465a4"/>
    <path d="m-1103.7 152.71h5.0017v10.169l-5.0017-10.169z" fill="#fff"/>
    <path d="m-1097.7 182.34v5.0017h-17.593l17.593-5.0017z" fill="#d3d7cf"/>
   </g>
   <g transform="translate(-25.691 4.3308)">
    <path d="m-1117 150.46h20.577v38.11h-20.577z" fill="#eeeeec" stroke="#3465a4"/>
    <path d="m-1103.7 152.71h5.0017v10.169l-5.0017-10.169z" fill="#fff"/>
    <path d="m-1097.7 182.34v5.0017h-17.593l17.593-5.0017z" fill="#d3d7cf"/>
   </g>
   <g transform="translate(-25.691 42.441)">
    <path d="m-1117 150.46h20.577v38.11h-20.577z" fill="#eeeeec" stroke="#3465a4"/>
    <path d="m-1103.7 152.71h5.0017v10.169l-5.0017-10.169z" fill="#fff"/>
    <path d="m-1097.7 182.34v5.0017h-17.593l17.593-5.0017z" fill="#d3d7cf"/>
   </g>
   <g transform="translate(-25.691 80.551)">
    <path d="m-1117 150.46h20.577v38.11h-20.577z" fill="#eeeeec" stroke="#3465a4"/>
    <path d="m-1103.7 152.71h5.0017v10.169l-5.0017-10.169z" fill="#fff"/>
    <path d="m-1097.7 182.34v5.0017h-17.593l17.593-5.0017z" fill="#d3d7cf"/>
   </g>
   <g transform="translate(-25.691 118.66)">
    <path d="m-1117 150.46h20.577v38.11h-20.577z" fill="#eeeeec" stroke="#3465a4"/>
    <path d="m-1103.7 152.71h5.0017v10.169l-5.0017-10.169z" fill="#fff"/>
    <path d="m-1097.7 182.34v5.0017h-17.593l17.593-5.0017z" fill="#d3d7cf"/>
   </g>
   <g transform="translate(-25.691 156.77)">
    <path d="m-1117 150.46h20.577v38.11h-20.577z" fill="#eeeeec" stroke="#3465a4"/>
    <path d="m-1103.7 152.71h5.0017v10.169l-5.0017-10.169z" fill="#fff"/>
    <path d="m-1097.7 182.34v5.0017h-17.593l17.593-5.0017z" fill="#d3d7cf"/>
   </g>
   <g transform="translate(-25.691 194.88)">
    <path d="m-1117 150.46h20.577v38.11h-20.577z" fill="#eeeeec" stroke="#3465a4"/>
    <path d="m-1103.7 152.71h5.0017v10.169l-5.0017-10.169z" fill="#fff"/>
    <path d="m-1097.7 182.34v5.0017h-17.593l17.593-5.0017z" fill="#d3d7cf"/>
   </g>
   <g transform="translate(-25.691 232.99)">
    <path d="m-1117 150.46h20.577v38.11h-20.577z" fill="#eeeeec" stroke="#3465a4"/>
    <path d="m-1103.7 152.71h5.0017v10.169l-5.0017-10.169z" fill="#fff"/>
    <path d="m-1097.7 182.34v5.0017h-17.593l17.593-5.0017z" fill="#d3d7cf"/>
   </g>
   <g transform="translate(-5.1137 -110)">
    <path d="m-1117 150.46h20.577v38.11h-20.577z" fill="#eeeeec" stroke="#3465a4"/>
    <path d="m-1103.7 152.71h5.0017v10.169l-5.0017-10.169z" fill="#fff"/>
    <path d="m-1097.7 182.34v5.0017h-17.593l17.593-5.0017z" fill="#d3d7cf"/>
   </g>
   <g transform="translate(-5.1137 -71.89)">
    <path d="m-1117 150.46h20.577v38.11h-20.577z" fill="#eeeeec" stroke="#3465a4"/>
    <path d="m-1103.7 152.71h5.0017v10.169l-5.0017-10.169z" fill="#fff"/>
    <path d="m-1097.7 182.34v5.0017h-17.593l17.593-5.0017z" fill="#d3d7cf"/>
   </g>
   <g transform="translate(-5.1137 -33.78)">
    <path d="m-1117 150.46h20.577v38.11h-20.577z" fill="#eeeeec" stroke="#3465a4"/>
    <path d="m-1103.7 152.71h5.0017v10.169l-5.0017-10.169z" fill="#fff"/>
    <path d="m-1097.7 182.34v5.0017h-17.593l17.593-5.0017z" fill="#d3d7cf"/>
   </g>
   <g transform="translate(-5.1137 4.3308)">
    <path d="m-1117 150.46h20.577v38.11h-20.577z" fill="#eeeeec" stroke="#3465a4"/>
    <path d="m-1103.7 152.71h5.0017v10.169l-5.0017-10.169z" fill="#fff"/>
    <path d="m-1097.7 182.34v5.0017h-17.593l17.593-5.0017z" fill="#d3d7cf"/>
   </g>
   <g transform="translate(-5.1137 42.441)">
    <path d="m-1117 150.46h20.577v38.11h-20.577z" fill="#eeeeec" stroke="#3465a4"/>
    <path d="m-1103.7 152.71h5.0017v10.169l-5.0017-10.169z" fill="#fff"/>
    <path d="m-1097.7 182.34v5.0017h-17.593l17.593-5.0017z" fill="#d3d7cf"/>
   </g>
   <g transform="translate(-5.1137 80.551)">
    <path d="m-1117 150.46h20.577v38.11h-20.577z" fill="#eeeeec" stroke="#3465a4"/>
    <path d="m-1103.7 152.71h5.0017v10.169l-5.0017-10.169z" fill="#fff"/>
    <path d="m-1097.7 182.34v5.0017h-17.593l17.593-5.0017z" fill="#d3d7cf"/>
   </g>
   <g transform="translate(-5.1137 118.66)">
    <path d="m-1117 150.46h20.577v38.11h-20.577z" fill="#eeeeec" stroke="#3465a4"/>
    <path d="m-1103.7 152.71h5.0017v10.169l-5.0017-10.169z" fill="#fff"/>
    <path d="m-1097.7 182.34v5.0017h-17.593l17.593-5.0017z" fill="#d3d7cf"/>
   </g>
   <g transform="translate(-5.1137 156.77)">
    <path d="m-1117 150.46h20.577v38.11h-20.577z" fill="#eeeeec" stroke="#3465a4"/>
    <path d="m-1103.7 152.71h5.0017v10.169l-5.0017-10.169z" fill="#fff"/>
    <path d="m-1097.7 182.34v5.0017h-17.593l17.593-5.0017z" fill="#d3d7cf"/>
   </g>
   <g transform="translate(-5.1137 194.88)">
    <path d="m-1117 150.46h20.577v38.11h-20.577z" fill="#eeeeec" stroke="#3465a4"/>
    <path d="m-1103.7 152.71h5.0017v10.169l-5.0017-10.169z" fill="#fff"/>
    <path d="m-1097.7 182.34v5.0017h-17.593l17.593-5.0017z" fill="#d3d7cf"/>
   </g>
   <g transform="translate(-5.1137 232.99)">
    <path d="m-1117 150.46h20.577v38.11h-20.577z" fill="#eeeeec" stroke="#3465a4"/>
    <path d="m-1103.7 152.71h5.0017v10.169l-5.0017-10.169z" fill="#fff"/>
    <path d="m-1097.7 182.34v5.0017h-17.593l17.593-5.0017z" fill="#d3d7cf"/>
   </g>
   <g transform="translate(15.464 -110)">
    <path d="m-1117 150.46h20.577v38.11h-20.577z" fill="#eeeeec" stroke="#3465a4"/>
    <path d="m-1103.7 152.71h5.0017v10.169l-5.0017-10.169z" fill="#fff"/>
    <path d="m-1097.7 182.34v5.0017h-17.593l17.593-5.0017z" fill="#d3d7cf"/>
   </g>
   <g transform="translate(15.464 -71.89)">
    <path d="m-1117 150.46h20.577v38.11h-20.577z" fill="#eeeeec" stroke="#3465a4"/>
    <path d="m-1103.7 152.71h5.0017v10.169l-5.0017-10.169z" fill="#fff"/>
    <path d="m-1097.7 182.34v5.0017h-17.593l17.593-5.0017z" fill="#d3d7cf"/>
   </g>
   <g transform="translate(15.464 -33.78)">
    <path d="m-1117 150.46h20.577v38.11h-20.577z" fill="#eeeeec" stroke="#3465a4"/>
    <path d="m-1103.7 152.71h5.0017v10.169l-5.0017-10.169z" fill="#fff"/>
    <path d="m-1097.7 182.34v5.0017h-17.593l17.593-5.0017z" fill="#d3d7cf"/>
   </g>
   <g transform="translate(15.464 4.3308)">
    <path d="m-1117 150.46h20.577v38.11h-20.577z" fill="#eeeeec" stroke="#3465a4"/>
    <path d="m-1103.7 152.71h5.0017v10.169l-5.0017-10.169z" fill="#fff"/>
    <path d="m-1097.7 182.34v5.0017h-17.593l17.593-5.0017z" fill="#d3d7cf"/>
   </g>
   <g transform="translate(15.464 42.441)">
    <path d="m-1117 150.46h20.577v38.11h-20.577z" fill="#eeeeec" stroke="#3465a4"/>
    <path d="m-1103.7 152.71h5.0017v10.169l-5.0017-10.169z" fill="#fff"/>
    <path d="m-1097.7 182.34v5.0017h-17.593l17.593-5.0017z" fill="#d3d7cf"/>
   </g>
   <g transform="translate(15.464 80.551)">
    <path d="m-1117 150.46h20.577v38.11h-20.577z" fill="#eeeeec" stroke="#3465a4"/>
    <path d="m-1103.7 152.71h5.0017v10.169l-5.0017-10.169z" fill="#fff"/>
    <path d="m-1097.7 182.34v5.0017h-17.593l17.593-5.0017z" fill="#d3d7cf"/>
   </g>
   <g transform="translate(15.464 118.66)">
    <path d="m-1117 150.46h20.577v38.11h-20.577z" fill="#eeeeec" stroke="#3465a4"/>
    <path d="m-1103.7 152.71h5.0017v10.169l-5.0017-10.169z" fill="#fff"/>
    <path d="m-1097.7 182.34v5.0017h-17.593l17.593-5.0017z" fill="#d3d7cf"/>
   </g>
   <g transform="translate(15.464 156.77)">
    <path d="m-1117 150.46h20.577v38.11h-20.577z" fill="#eeeeec" stroke="#3465a4"/>
    <path d="m-1103.7 152.71h5.0017v10.169l-5.0017-10.169z" fill="#fff"/>
    <path d="m-1097.7 182.34v5.0017h-17.593l17.593-5.0017z" fill="#d3d7cf"/>
   </g>
   <g transform="translate(15.464 194.88)">
    <path d="m-1117 150.46h20.577v38.11h-20.577z" fill="#eeeeec" stroke="#3465a4"/>
    <path d="m-1103.7 152.71h5.0017v10.169l-5.0017-10.169z" fill="#fff"/>
    <path d="m-1097.7 182.34v5.0017h-17.593l17.593-5.0017z" fill="#d3d7cf"/>
   </g>
   <g transform="translate(15.464 232.99)">
    <path d="m-1117 150.46h20.577v38.11h-20.577z" fill="#eeeeec" stroke="#3465a4"/>
    <path d="m-1103.7 152.71h5.0017v10.169l-5.0017-10.169z" fill="#fff"/>
    <path d="m-1097.7 182.34v5.0017h-17.593l17.593-5.0017z" fill="#d3d7cf"/>
   </g>
   <path d="m-1225.1 1.3518h144.31v39.305h-144.31z" fill="url(#v)"/>
  </g>
  <g transform="matrix(.38243 0 0 .38243 997.42 1466.7)">
   <path d="m-383.7-706.21h310.89v382.24h-310.89z" fill="url(#aa)"/>
   <g transform="matrix(2.3394 0 0 1 1778.3 -798)" fill="#555753">
    <path d="m-914.29 106.25h113.14v9.1924h-113.14z"/>
    <path d="m-914.29 127.37h113.14v9.1924h-113.14z"/>
    <path d="m-914.29 254.09h113.14v9.1924h-113.14z"/>
    <path d="m-914.29 275.2h113.14v9.1924h-113.14z"/>
    <path d="m-914.29 296.32h113.14v9.1924h-113.14z"/>
    <path d="m-914.29 317.44h113.14v9.1924h-113.14z"/>
    <path d="m-914.29 338.56h113.14v9.1924h-113.14z"/>
    <path d="m-914.29 359.68h113.14v9.1924h-113.14z"/>
    <path d="m-914.29 380.8h113.14v9.1924h-113.14z"/>
    <path d="m-914.29 401.92h113.14v9.1924h-113.14z"/>
    <path d="m-914.29 423.04h113.14v9.1924h-113.14z"/>
    <path d="m-914.29 148.49h113.14v9.1924h-113.14z"/>
    <path d="m-914.29 169.61h113.14v9.1924h-113.14z"/>
    <path d="m-914.29 190.73h113.14v9.1924h-113.14z"/>
    <path d="m-914.29 211.85h113.14v9.1924h-113.14z"/>
    <path d="m-914.29 232.97h113.14v9.1924h-113.14z"/>
   </g>
   <g transform="matrix(2.3394 0 0 1 1780.9 -798)" fill="#8a9da5">
    <path d="m-899.03 92.362h2.4003v346h-2.4003z"/>
    <path d="m-821.05 96.948h2.4003v346h-2.4003z"/>
    <path d="m-873.04 94.484h2.4003v346h-2.4003z"/>
    <path d="m-847.05 93.069h2.4003v346h-2.4003z"/>
   </g>
   <g transform="matrix(2.3394 0 0 1 1779.8 -798)" fill="#555753">
    <path d="m-809.38 443.93h7.2542v28.991h-7.2542z"/>
    <path d="m-861.97 443.93h7.2542v28.991h-7.2542z"/>
    <path d="m-870.74 443.93h7.2542v28.991h-7.2542z"/>
    <path d="m-879.5 443.93h7.2542v28.991h-7.2542z"/>
    <path d="m-888.27 443.93h7.2542v28.991h-7.2542z"/>
    <path d="m-897.04 443.93h7.2542v28.991h-7.2542z"/>
    <path d="m-905.8 443.93h7.2542v28.991h-7.2542z"/>
    <path d="m-914.57 443.93h7.2542v28.991h-7.2542z"/>
    <path d="m-923.33 443.93h7.2542v28.991h-7.2542z"/>
    <path d="m-800.62 443.93h7.2542v28.991h-7.2542z"/>
    <path d="m-818.15 443.93h7.2542v28.991h-7.2542z"/>
    <path d="m-826.91 443.93h7.2542v28.991h-7.2542z"/>
    <path d="m-835.68 443.93h7.2542v28.991h-7.2542z"/>
    <path d="m-844.44 443.93h7.2542v28.991h-7.2542z"/>
    <path d="m-853.21 443.93h7.2542v28.991h-7.2542z"/>
   </g>
  </g>
  <path d="m797.11 910.64c-19.727 1.3937-26.351 30.202-12.087 42.283 4.5626 10.359-11.263 21.602-19.497 12.785-14.002-5.0444-31.067 2.0827-37.451 15.497-15.618-8.3351-34.484 6.2977-35.331 22.751-2.7479 16.672 9.6946 36.94 28.022 35.777 11.479 0.8746 17.729-17.442 29.88-6.8881 12.846 4.49 24.865-13.304 34.989-2.3849 10.968 5.6141 25.472 4.2541 34.564-4.3131 12.676 7.6313 29.63-6.9781 40.27 6.4257 19.266 12.768 49.231 7.7894 61.188-12.575 10.312-1.3466 16.098 16.127 28.891 12 10.211 2.9675 19.694-11.382 25.691-8.9134 11.923 11.79 34.598 4.4101 37.811-11.96 5.0019-15.686-8.8337-35.451-25.984-32.533-14.765 8.5627-18.838-18.85-34.726-15.253-3.9998-5.0557 5.996-16.617-0.4297-24.432-4.0522-12.151-19.266-19.254-30.604-12.513-5.4038 5.8209-10.848 19.035-19.128 7.9922-11.994-8.6712-28.669-1.1638-39.417-3.4935-12.336-11.514-31.371-15.892-47.195-9.5074-3.9371-6.6719-11.569-11.422-19.455-10.743z" fill="url(#t)"/>
  <path d="m824.37 946.19c-11.916 0.8389-15.764 20.338-7.0783 28.606 2.8135 7.0491-6.691 14.588-11.716 8.5643-8.49-3.496-18.766 1.245-22.553 10.306-9.4843-5.736-20.809 4.0848-21.232 15.237-1.5712 11.29 6.0583 25.101 17.13 24.411 6.943 0.6548 10.622-11.732 18.023-4.5099 7.7884 3.1137 14.957-8.8873 21.135-1.4288 6.6596 3.8659 15.418 3.0217 20.868-2.7386 7.7026 5.2429 17.871-4.5723 24.374 4.5739 11.714 8.7615 29.798 5.5469 36.915-8.1976 6.2252-0.8576 9.8166 11.022 17.527 8.2924 6.1879 2.0672 11.842-7.6121 15.48-5.9058 7.2698 8.0592 20.935 3.1767 22.789-7.9062 2.9388-10.609-5.53-24.086-15.88-22.2-8.878 5.7268-11.487-12.884-21.071-10.53-2.4447-3.4497 3.5346-11.236-0.39123-16.569-2.5146-8.2615-11.748-13.16-18.565-8.6498-3.2348 3.918-6.454 12.849-11.518 5.3165-7.2959-5.9445-17.334-0.9435-23.843-2.5811-7.5181-7.8742-19.047-10.945-28.577-6.7008-2.4156-4.5454-7.0542-7.8077-11.817-7.3896z" fill="url(#s)"/>
  <g transform="matrix(.58053 0 0 .58053 825.69 752.98)">
   <path d="m168.25 898.3c-22.063 12.61-36.245 32.218-36.245 54.239 0 25.651 19.226 48.029 47.755 59.886 22.063-12.61 36.245-32.218 36.245-54.239 0-25.651-19.226-48.029-47.755-59.886z" fill="#5c8c2e"/>
   <path d="m175 930.36 14 143h-15l1-143z" fill="#8f5902"/>
   <path d="m205.96 955.71-25.918 35.971-3.3289-3.1673 29.247-32.804z" fill="#8f5902"/>
   <path d="m148.07 951.12 26.858 27.839 3.4497-2.4513-30.308-25.388z" fill="#8f5902"/>
  </g>
  <g transform="matrix(.58053 0 0 .58053 619.69 748.98)">
   <path d="m410.75 902.3c22.063 11.457 36.245 29.273 36.245 49.282 0 23.307-19.226 43.64-47.755 54.412-22.063-11.457-36.245-29.273-36.245-49.282 0-23.307 19.226-43.64 47.755-54.412z" fill="#70781d"/>
   <path d="m404 931.43-14 129.93h15l-1-129.93z" fill="#8f5902"/>
   <path d="m373.04 954.47 25.918 32.683 3.3289-2.8778-29.247-29.806z" fill="#8f5902"/>
   <path d="m430.93 950.29-26.858 25.295-3.4497-2.2273 30.308-23.068z" fill="#8f5902"/>
  </g>
  <g transform="translate(1216.4 310.73)">
   <g transform="matrix(.58053 0 0 .58053 107.88 450.24)">
    <path d="m410.75 902.3c22.063 11.457 32.245 59.273 32.245 79.282 0 23.307-15.226 13.64-43.755 24.412-22.063-11.457-39.245-3.2732-39.245-23.282 0-23.307 22.226-69.64 50.755-80.412z" fill="#9cb13c"/>
    <path d="m404 931.43-12 103.93h15l-3-103.93z" fill="#8f5902"/>
   </g>
   <path d="m324.44 1004.3 15.046 18.974 1.9325-1.6707-16.979-17.303z" fill="#8f5902"/>
   <path d="m358.04 1001.9-15.592 14.684-2.0026-1.293 17.594-13.392z" fill="#8f5902"/>
  </g>
  <g transform="matrix(.58053 0 0 .58053 634.24 595.46)">
   <path d="m647.27 1250.2-12 103.93h15l-3-103.93z" fill="#8f5902"/>
   <path d="m654.03 1221.1c22.063 11.458 32.245 59.273 32.245 79.282 0 23.307-15.226 13.64-43.755 24.412-22.063-11.457-39.245-3.2732-39.245-23.282 0-23.307 22.226-69.64 50.755-80.412z" fill="url(#d)"/>
   <path d="m655.28 1170.9c18.304 9.5053 26.751 49.174 26.751 65.773 0 19.336-12.632 11.316-36.3 20.253-18.304-9.5052-32.558-2.7155-32.558-19.315 0-19.336 18.439-57.774 42.107-66.711z" fill="url(#c)"/>
   <path d="m656.76 1130.2c13.417 6.9674 19.609 36.044 19.609 48.212 0 14.173-9.2591 8.2944-26.608 14.845-13.417-6.9673-23.865-1.9905-23.865-14.158 0-14.173 13.516-42.348 30.864-48.9z" fill="url(#b)"/>
  </g>
  <g transform="matrix(.58053 0 0 .58053 741.69 770.98)">
   <path d="m666.75 904.3c22.063 11.457 32.245 59.273 32.245 79.282 0 23.307-15.226 13.64-43.755 24.412-22.063-11.457-39.245-3.2732-39.245-23.282 0-23.307 22.226-69.64 50.755-80.412z" fill="#448552"/>
   <path d="m660 933.43-12 103.93h15l-3-103.93z" fill="#8f5902"/>
   <path d="m629.04 956.47 25.918 32.683 3.3289-2.8778-29.247-29.806z" fill="#8f5902"/>
   <path d="m686.93 952.29-26.858 25.295-3.4497-2.2273 30.308-23.068z" fill="#8f5902"/>
  </g>
  <g transform="matrix(.58053 0 0 .58053 775.69 766.98)">
   <path d="m751.5 874.36c-35.07 0-59.5 22.446-59.5 41.5s35.43 24.5 70.5 24.5c23.646-7.6103 28.454 19.251 51.5 21 19.33 0 35-9.402 35-21 1.9665-19.659-30.337-15.033-30-24.5 0-19.054-32.43-41.5-67.5-41.5z" fill="#d7e0b1"/>
   <path d="m757.88 891.36c-27.008 0-45.822 17.286-45.822 31.96s27.285 18.868 54.293 18.868c18.21-5.8608 21.913 14.825 39.661 16.172 14.886 0 26.954-7.2406 26.954-16.172 1.5144-15.14-23.363-11.577-23.103-18.868 0-14.674-24.975-31.96-51.983-31.96z" fill="#bfcd82"/>
   <path d="m751 899.36 14 152h-15l1-152z" fill="#8f5902"/>
   <path d="m801.96 935.21-46.918 27.471-2.3289-10.667 49.247-16.804z" fill="#8f5902"/>
   <path d="m724.07 924.12 27.358 34.339 2.9497-8.9513-30.308-25.388z" fill="#8f5902"/>
  </g>
  <g transform="matrix(-.58053 0 0 .46246 2166.1 879.95)">
   <path d="m751.5 874.36c-35.07 0-59.5 22.446-59.5 41.5s35.43 24.5 70.5 24.5c23.646-7.6103 28.454 19.251 51.5 21 19.33 0 35-9.402 35-21 1.9665-19.659-30.337-15.033-30-24.5 0-19.054-32.43-41.5-67.5-41.5z" fill="#d7e0b1"/>
   <path d="m757.88 891.36c-27.008 0-45.822 17.286-45.822 31.96s27.285 18.868 54.293 18.868c18.21-5.8608 21.913 14.825 39.661 16.172 14.886 0 26.954-7.2406 26.954-16.172 1.5144-15.14-23.363-11.577-23.103-18.868 0-14.674-24.975-31.96-51.983-31.96z" fill="#bfcd82"/>
   <path d="m751 899.36 14 152h-15l1-152z" fill="#8f5902"/>
   <path d="m801.96 935.21-46.918 27.471-2.3289-10.667 49.247-16.804z" fill="#8f5902"/>
   <path d="m724.07 924.12 27.358 34.339 2.9497-8.9513-30.308-25.388z" fill="#8f5902"/>
  </g>
  <g transform="matrix(-.77637 0 0 .58053 1846.5 584.82)">
   <path d="m647.27 1250.2-12 103.93h15l-3-103.93z" fill="#8f5902"/>
   <path d="m654.03 1221.1c22.063 11.458 32.245 59.273 32.245 79.282 0 23.307-15.226 13.64-43.755 24.412-22.063-11.457-39.245-3.2732-39.245-23.282 0-23.307 22.226-69.64 50.755-80.412z" fill="url(#d)"/>
   <path d="m655.28 1170.9c18.304 9.5053 26.751 49.174 26.751 65.773 0 19.336-12.632 11.316-36.3 20.253-18.304-9.5052-32.558-2.7155-32.558-19.315 0-19.336 18.439-57.774 42.107-66.711z" fill="url(#c)"/>
   <path d="m656.76 1130.2c13.417 6.9674 19.609 36.044 19.609 48.212 0 14.173-9.2591 8.2944-26.608 14.845-13.417-6.9673-23.865-1.9905-23.865-14.158 0-14.173 13.516-42.348 30.864-48.9z" fill="url(#b)"/>
  </g>
  <g transform="matrix(-.77637 0 0 .58053 1276.5 592.82)">
   <path d="m647.27 1250.2-12 103.93h15l-3-103.93z" fill="#8f5902"/>
   <path d="m654.03 1221.1c22.063 11.458 32.245 59.273 32.245 79.282 0 23.307-15.226 13.64-43.755 24.412-22.063-11.457-39.245-3.2732-39.245-23.282 0-23.307 22.226-69.64 50.755-80.412z" fill="url(#d)"/>
   <path d="m655.28 1170.9c18.304 9.5053 26.751 49.174 26.751 65.773 0 19.336-12.632 11.316-36.3 20.253-18.304-9.5052-32.558-2.7155-32.558-19.315 0-19.336 18.439-57.774 42.107-66.711z" fill="url(#c)"/>
   <path d="m656.76 1130.2c13.417 6.9674 19.609 36.044 19.609 48.212 0 14.173-9.2591 8.2944-26.608 14.845-13.417-6.9673-23.865-1.9905-23.865-14.158 0-14.173 13.516-42.348 30.864-48.9z" fill="url(#b)"/>
  </g>
  <g transform="matrix(1.1554 0 0 1.1554 669.16 169.42)">
   <g transform="matrix(.58053 0 0 .58053 107.88 450.24)">
    <path d="m410.75 902.3c22.063 11.457 32.245 59.273 32.245 79.282 0 23.307-15.226 13.64-43.755 24.412-22.063-11.457-39.245-3.2732-39.245-23.282 0-23.307 22.226-69.64 50.755-80.412z" fill="#9cb13c"/>
    <path d="m404 931.43-12 103.93h15l-3-103.93z" fill="#8f5902"/>
   </g>
   <path d="m324.44 1004.3 15.046 18.974 1.9325-1.6707-16.979-17.303z" fill="#8f5902"/>
   <path d="m358.04 1001.9-15.592 14.684-2.0026-1.293 17.594-13.392z" fill="#8f5902"/>
  </g>
  <g transform="matrix(.58053 0 0 .58053 1185.7 744.98)">
   <path d="m410.75 902.3c22.063 11.457 36.245 29.273 36.245 49.282 0 23.307-19.226 43.64-47.755 54.412-22.063-11.457-36.245-29.273-36.245-49.282 0-23.307 19.226-43.64 47.755-54.412z" fill="#70781d"/>
   <path d="m404 931.43-14 129.93h15l-1-129.93z" fill="#8f5902"/>
   <path d="m373.04 954.47 25.918 32.683 3.3289-2.8778-29.247-29.806z" fill="#8f5902"/>
   <path d="m430.93 950.29-26.858 25.295-3.4497-2.2273 30.308-23.068z" fill="#8f5902"/>
  </g>
  <g transform="matrix(-.73331 0 0 .58417 2033.8 759.99)">
   <path d="m751.5 874.36c-35.07 0-59.5 22.446-59.5 41.5s35.43 24.5 70.5 24.5c23.646-7.6103 28.454 19.251 51.5 21 19.33 0 35-9.402 35-21 1.9665-19.659-30.337-15.033-30-24.5 0-19.054-32.43-41.5-67.5-41.5z" fill="#d7e0b1"/>
   <path d="m757.88 891.36c-27.008 0-45.822 17.286-45.822 31.96s27.285 18.868 54.293 18.868c18.21-5.8608 21.913 14.825 39.661 16.172 14.886 0 26.954-7.2406 26.954-16.172 1.5144-15.14-23.363-11.577-23.103-18.868 0-14.674-24.975-31.96-51.983-31.96z" fill="#bfcd82"/>
   <path d="m751 899.36 14 152h-15l1-152z" fill="#8f5902"/>
   <path d="m801.96 935.21-46.918 27.471-2.3289-10.667 49.247-16.804z" fill="#8f5902"/>
   <path d="m724.07 924.12 27.358 34.339 2.9497-8.9513-30.308-25.388z" fill="#8f5902"/>
  </g>
  <g transform="matrix(-.50167 0 0 .37513 1601.9 844.96)">
   <path d="m647.27 1250.2-12 103.93h15l-3-103.93z" fill="#8f5902"/>
   <path d="m654.03 1221.1c22.063 11.458 32.245 59.273 32.245 79.282 0 23.307-15.226 13.64-43.755 24.412-22.063-11.457-39.245-3.2732-39.245-23.282 0-23.307 22.226-69.64 50.755-80.412z" fill="url(#d)"/>
   <path d="m655.28 1170.9c18.304 9.5053 26.751 49.174 26.751 65.773 0 19.336-12.632 11.316-36.3 20.253-18.304-9.5052-32.558-2.7155-32.558-19.315 0-19.336 18.439-57.774 42.107-66.711z" fill="url(#c)"/>
   <path d="m656.76 1130.2c13.417 6.9674 19.609 36.044 19.609 48.212 0 14.173-9.2591 8.2944-26.608 14.845-13.417-6.9673-23.865-1.9905-23.865-14.158 0-14.173 13.516-42.348 30.864-48.9z" fill="url(#b)"/>
  </g>
  <path d="m695.41 1146.6c-4.2721-0.01-8.3164 2.655-10.462 6.2904-7.3134-2.9507-15.797-1.9372-22.574 1.963v60.205c6.0824-3.1057 14.191 2.5128 20.477-1.2715 5.2845 4.9794 13.701 5.7614 20.076 2.4983 5.8847-6.3461 12.877 3.9927 20.344 1.383 7.0621-6.1344 10.682 4.5235 17.354 4.0152 10.652 0.676 17.903-11.1 16.306-20.79-0.4923-9.5627-11.467-18.072-20.544-13.228-3.7107-7.7963-13.633-11.944-21.771-9.0118-4.786 5.125-13.984-1.4071-11.332-7.4281 8.2899-7.0216 4.4389-23.772-7.0265-24.582-0.28644-0.025-0.56284-0.044-0.84764-0.045z" fill="url(#m)"/>
 </g>
</svg>
