<?xml version="1.0" encoding="UTF-8"?>
<!DOCTYPE svg  PUBLIC '-//W3C//DTD SVG 1.0//EN'  'http://www.w3.org/TR/2001/REC-SVG-20010904/DTD/svg10.dtd'>
<svg width="109mm" height="152mm" clip-rule="evenodd" fill-rule="evenodd" image-rendering="optimizeQuality" shape-rendering="geometricPrecision" text-rendering="geometricPrecision" version="1.0" viewBox="0 0 10900 15200" xml:space="preserve" xmlns="http://www.w3.org/2000/svg" xmlns:xlink="http://www.w3.org/1999/xlink">
 <defs>
  <style type="text/css">
    .fil5 {fill:none}
    .fil3 {fill:#FEFEFE;fill-opacity:0.501961}
    .fil4 {fill:#EBECEC;fill-rule:nonzero;fill-opacity:0.501961}
    .fil0 {fill:url(#f)}
    .fil2 {fill:url(#a)}
    .fil1 {fill:url(#g)}
  </style>
   <clipPath id="e">
    <path d="m0 0h10900v15200h-10900v-15200z"/>
   </clipPath>
  <linearGradient id="f" x1="4939.7" x2="6132.2" y1="2357.1" y2="13090" gradientUnits="userSpaceOnUse">
   <stop stop-color="#A2D9F7" offset="0"/>
   <stop stop-color="#00A0E3" offset="1"/>
  </linearGradient>
  <linearGradient id="a" x1="3429.1" x2="6797.2" y1="15846" y2="9210.5" gradientUnits="userSpaceOnUse">
   <stop stop-color="#009846" offset="0"/>
   <stop stop-color="#B0CB1F" offset="1"/>
  </linearGradient>
  <linearGradient id="g" x1="3196.9" x2="7574.8" y1="15300" y2="7097.4" gradientUnits="userSpaceOnUse" xlink:href="#a">
  </linearGradient>
 </defs>
  <g clip-path="url(#e)">
    <rect class="fil0" x="-1562" y="-854" width="14197" height="17156"/>
    <path class="fil1" d="m15671 12413c559 2691-3616 4975-8076 4975s-6038-3501-8076-4975c-4977-3600 14615-7403 16152 0z"/>
    <path class="fil2" d="m3532 8159c2732 412 3706 1801 6868 4449 3163 2647-1682 4702-6868 4449-5186-254-6868-1992-6868-4449s4135-4862 6868-4449z"/>
     <path class="fil3" d="m1678 2636c487 39 856 229 856 457 0 121-103 232-273 314 311 123 517 333 517 571 0 380-521 687-1164 687-361 0-683-96-896-248-207 115-476 185-771 185-651 0-1178-340-1178-760 0-109 35-213 100-307-85-99-132-213-132-334 0-378 466-686 1049-701 81-313 471-550 939-550 526 0 953 300 953 671v15z"/>
     <path class="fil4" d="m-207 4353c-2 0-4 1-6 1-27 2-54 3-81 3-129-1-233-13-355-55-32-11-61-23-90-39-1 0-1 1-1 1-15-8-30-16-44-25l-3-3c-18-11-39-20-57-31-60-37-100-70-143-126-49-65-72-121-89-200-18-78-23-319-58-345-101-13-194 271-210 341-20 132-12 234 29 361 47 124 103 209 197 302 26 25 60 55 90 76 2 1 4 2 7 3 25 16 50 30 76 44v1c48 24 94 44 145 63 177 60 324 80 510 80v-1c37-1 73-2 109-5 3 1 6 1 8 1 50-5 112-20 160-32 293-83 541-219 747-446-9 4-19 3-9-4 9-7 21-12 32-16 27-10 78-22 81-57 0-37-53-54-79-64-18-7-35-9-54-12-27-1-46 2-70 15-255 94-443 151-718 165-42 3-83 2-124 4z"/>
     <path class="fil4" d="m1300 3835c-2-1-4-1-5-2-20-9-40-19-60-29-5-2-11-5-16-7-110-53-232-105-350-149-16-6-32-11-48-17-2-1-3-2-4-2-34-11-90-24-124-31-127-26-573-92-595 5 28 40 400 176 488 216 25 11 64 30 89 40 1 0 2 1 4 1 13 4 26 9 38 14 105 40 198 81 297 127 4 1 10 5 14 6h1c18 9 36 17 54 26 1 1 3 2 4 2 89 39 236 91 330 121 59 21 112 38 173 51 54 13 101 22 153 18-1-1 3 0 6 0-1 0 80-18 73-44-10-25-67-42-100-53h6c-23-20-19-18-51-39-33-26-70-51-106-75-72-54-186-133-271-179z"/>
     <path class="fil3" d="m11601 2744c486 39 856 229 856 457 0 121-104 232-274 314 312 123 517 333 517 571 0 380-521 687-1164 687-360 0-682-96-896-248-206 115-476 185-770 185-651 0-1179-340-1179-760 0-109 36-213 100-307-84-99-132-213-132-334 0-378 466-686 1050-701 81-313 470-550 938-550 527 0 954 300 954 671v15z"/>
     <path class="fil4" d="m9715 4461c-2 0-4 1-6 1-27 2-54 3-81 3-129-1-233-13-355-55-32-11-60-23-90-39v1c-15-8-30-16-45-25l-3-3c-18-11-38-20-57-31-59-37-100-70-143-126-49-65-71-121-89-200-17-78-23-319-58-345-100-13-194 271-210 341-20 132-12 234 29 361 47 124 103 209 197 302 26 25 60 55 90 76 2 1 5 2 7 3 25 16 51 30 77 44-1 0-1 0-1 1 49 24 95 44 146 63 177 60 323 80 510 80v-1c36-1 72-2 108-5 3 1 6 1 9 1 49-5 111-20 159-32 293-83 541-219 747-446-9 4-18 3-8-4 8-7 21-12 31-16 27-10 79-22 81-57 0-37-52-54-79-64-18-7-35-9-54-12-26-1-45 2-69 15-256 94-444 151-718 165-42 3-84 2-125 4z"/>
     <path class="fil4" d="m11222 3943c-1-1-3-1-5-2-20-9-40-19-60-29-5-2-10-5-16-7-110-53-232-105-350-149-16-6-32-11-48-17-1-1-3-2-4-2-33-11-89-24-124-31-126-26-572-92-595 5 28 40 401 176 488 216 25 11 64 30 89 40 1 0 3 1 4 1 13 4 26 9 39 14h-1c105 40 198 81 297 127 4 1 11 5 14 6h1c18 9 37 17 55 26 1 1 2 2 3 2 89 39 236 91 331 121 58 21 111 38 173 51 53 13 100 22 152 18-1-1 3 0 6 0 0 0 80-18 73-44-10-25-66-42-99-53h5c-23-20-19-18-51-39-33-26-69-51-106-75-72-54-186-133-271-179z"/>
     <path class="fil3" d="m6360 2101c-358-28-629-168-629-335 0-89 76-170 201-231-229-90-379-244-379-419 0-278 382-504 854-504 264 0 501 71 657 182 152-84 350-136 566-136 478 0 865 250 865 558 0 81-26 157-73 226 62 72 97 156 97 245 0 277-342 503-771 514-59 230-345 404-689 404-386 0-700-220-700-492 0-4 1-8 1-12z"/>
     <path class="fil4" d="m7743 841c2 0 3 0 5-1 20-1 39-2 59-2 95 1 171 10 261 40 23 9 44 18 66 29 11 5 22 11 33 18 1 1 1 2 2 2 13 8 29 15 42 23 44 27 73 51 105 92 36 48 53 89 65 147 13 57 17 234 43 253 74 10 142-198 154-250 15-97 9-171-21-265-35-91-76-154-145-222-19-18-44-40-66-55-2-1-3-2-5-3-18-11-37-22-56-32-35-19-69-33-107-47-130-44-237-58-374-59v1c-26 0-53 2-80 4-2-1-4-1-6-1-36 4-82 14-117 23-215 62-397 161-548 328 7-3 13-2 6 3-6 5-15 9-23 12-20 7-58 16-60 41 0 27 39 40 59 47 13 5 25 7 39 9 20 1 34-1 51-11 188-69 326-111 527-121 31-2 61-1 91-3z"/>
     <path class="fil4" d="m6638 1221c1 1 2 1 3 2 15 7 29 14 44 21 4 2 8 4 12 5 80 39 170 77 257 109 11 5 23 9 35 13 1 1 2 1 3 2 24 8 66 17 91 23 93 19 420 67 437-4-21-30-294-130-359-159-18-8-47-22-65-29-1-1-2-1-3-1-9-3-19-7-28-10v-1c-77-29-145-58-218-92-3-1-7-4-10-5h-1c-13-6-26-13-40-19 0-1-1-1-2-2-66-28-174-66-243-88-43-15-82-28-127-37-39-10-74-17-112-14h-4s-59 13-54 32c7 18 49 31 73 39h-4c17 15 14 13 38 29 24 19 51 37 78 55 52 40 136 98 199 131z"/>
  </g>
  <path class="fil5" d="m0 0h10900v15200h-10900v-15200z"/>
</svg>
